<?xml version="1.0" encoding="utf-8"?>
<!-- Generator: Adobe Illustrator 16.0.0, SVG Export Plug-In . SVG Version: 6.00 Build 0)  -->
<!DOCTYPE svg PUBLIC "-//W3C//DTD SVG 1.1//EN" "http://www.w3.org/Graphics/SVG/1.1/DTD/svg11.dtd">
<svg version="1.1" id="Layer_1" xmlns="http://www.w3.org/2000/svg" xmlns:xlink="http://www.w3.org/1999/xlink" x="0px" y="0px"
	 width="60px" height="60px" viewBox="0 0 60 60" enable-background="new 0 0 60 60" xml:space="preserve">
<g>
	<circle fill="#C32E30" cx="30" cy="30" r="30"/>
	<g>
		<path fill="#FFFFFF" d="M41.672,28.857l-1.053-1.053c-0.344-0.344-0.807-0.537-1.293-0.537c-0.484,0-0.949,0.192-1.295,0.537
			l-0.016,0.017l-8.744-7.375c0.008-0.068,0.014-0.138,0.014-0.207c0-0.485-0.193-0.949-0.537-1.292l-0.889-0.889
			c-0.342-0.343-0.808-0.536-1.293-0.536c-0.483,0-0.949,0.193-1.291,0.536l-6.888,6.888c-0.342,0.342-0.535,0.806-0.535,1.292
			c0,0.484,0.194,0.951,0.535,1.293l0.89,0.889c0.358,0.355,0.826,0.536,1.293,0.536c0.07,0,0.137-0.003,0.205-0.015l7.377,8.744
			l-0.019,0.017c-0.342,0.342-0.534,0.81-0.534,1.294c0,0.482,0.192,0.95,0.534,1.292l1.054,1.053
			c0.356,0.358,0.826,0.536,1.293,0.536s0.936-0.177,1.293-0.536l9.896-9.897C42.387,30.729,42.387,29.571,41.672,28.857z
			 M30.48,40.046l-1.053-1.053l1.204-1.204l-0.005-0.008l3.973-3.973c0.237-0.238,0.237-0.625,0-0.863
			c-0.238-0.235-0.623-0.235-0.861,0l-3.899,3.9l-7.925-9.395l3.166-3.166c0.238-0.237,0.238-0.622,0-0.861
			c-0.238-0.238-0.623-0.238-0.861,0l-3.673,3.674l-0.862-0.863l6.886-6.886l0.865,0.867c-0.011,0.009-0.018,0.015-0.028,0.022
			l-1.312,1.315c-0.238,0.236-0.238,0.622,0,0.858c0.118,0.122,0.273,0.18,0.428,0.18c0.158,0,0.314-0.059,0.434-0.18l0.832-0.83
			l9.393,7.923l-1.27,1.271c-0.238,0.238-0.238,0.621,0,0.859c0.117,0.118,0.273,0.18,0.431,0.18c0.155,0,0.312-0.062,0.431-0.18
			l1.343-1.343l0.01,0.005l1.203-1.203l1.053,1.051L30.48,40.046z"/>
		<path fill="#FFFFFF" d="M46.773,45.148l-7.732-7.734c-0.357-0.355-0.936-0.355-1.294,0c-0.356,0.357-0.356,0.938,0,1.293
			l7.733,7.734c0.18,0.178,0.412,0.267,0.646,0.267s0.468-0.089,0.646-0.267C47.131,46.084,47.131,45.504,46.773,45.148z"/>
	</g>
</g>
</svg>
