<?xml version="1.0" encoding="utf-8"?>
<!-- Generator: Adobe Illustrator 16.0.0, SVG Export Plug-In . SVG Version: 6.00 Build 0)  -->
<!DOCTYPE svg PUBLIC "-//W3C//DTD SVG 1.1//EN" "http://www.w3.org/Graphics/SVG/1.1/DTD/svg11.dtd">
<svg version="1.1" id="Layer_1" xmlns="http://www.w3.org/2000/svg" xmlns:xlink="http://www.w3.org/1999/xlink" x="0px" y="0px"
	 width="274px" height="268px" viewBox="-98.155 -84.17 274 268" enable-background="new -98.155 -84.17 274 268"
	 xml:space="preserve">
<g>
	<path d="M35.274-78.763c0.257,0.218,0.494,0.475,0.731,0.715c0.208,0.237,0.437,0.464,0.665,0.663
		c4.218,3.775,8.708,5.846,12.621,5.846l0,0c3.875,0,7.15-1.919,9.733-5.701c1.406-2.044,2.517-4.487,3.202-6.93h-0.135
		c-0.683,2.424-1.784,4.828-3.161,6.861c-2.575,3.734-5.813,5.645-9.64,5.645l0,0c-3.884,0-8.338-2.069-12.545-5.804
		c-0.22-0.202-0.428-0.429-0.656-0.666c-0.236-0.249-0.483-0.495-0.73-0.733c-1.889-1.653-3.922-3.174-5.889-4.647
		c-0.293-0.218-0.578-0.429-0.873-0.656H28.39c0.332,0.256,0.674,0.503,1.016,0.76C31.372-81.938,33.396-80.416,35.274-78.763z"/>
	<path d="M-89.836-66.512c2.737-2.545,5.566-5.189,7.38-8.962c0.912-1.919,1.813-4.952,2.232-8.696h-0.133
		c-0.409,3.726-1.311,6.739-2.213,8.649c-1.796,3.735-4.615,6.368-7.351,8.914c-3.181,2.967-6.468,6.018-8.092,10.845
		c-0.057,0.142-0.104,0.285-0.142,0.437v0.427c0.075-0.285,0.171-0.56,0.256-0.817C-96.274-60.515-92.999-63.565-89.836-66.512z"/>
	<path d="M48.361-77.413L48.361-77.413c1.339,0,2.641-0.466,3.836-1.378c1.121-0.846,1.673-1.71,2.251-2.605
		c0.237-0.377,0.495-0.77,0.789-1.167c0.228-0.523,0.417-1.064,0.578-1.606h-0.132c-0.162,0.523-0.343,1.035-0.551,1.529
		c-0.305,0.399-0.551,0.79-0.787,1.18c-0.571,0.893-1.121,1.73-2.215,2.565c-1.196,0.903-2.45,1.36-3.77,1.36l0,0
		c-3.524,0-6.903-3.137-9.888-5.894c-0.273-0.255-0.531-0.494-0.796-0.74h-0.19c0.294,0.275,0.588,0.542,0.893,0.826
		C41.382-80.559,44.791-77.413,48.361-77.413z"/>
	<path d="M-95.847-44.262c0.636-3.289,1.225-6.397,2.137-8.592c1.539-3.746,4.739-6.89,8.12-10.227
		c2.089-2.043,4.236-4.153,6.05-6.482c2.269-2.899,3.789-5.407,5.061-8.374c0.75-1.748,1.397-3.762,2.023-5.71
		c0.057-0.171,0.124-0.352,0.171-0.523h-0.133c-0.048,0.162-0.104,0.322-0.161,0.485c-0.616,1.949-1.263,3.963-2.013,5.702
		c-1.272,2.957-2.782,5.456-5.053,8.346c-1.813,2.309-3.96,4.428-6.03,6.461c-3.399,3.356-6.61,6.512-8.158,10.274
		c-0.912,2.205-1.51,5.322-2.136,8.621c-0.608,3.175-1.235,6.464-2.166,8.858c-0.009,0.019-0.019,0.037-0.019,0.057v0.332
		c0.038-0.123,0.095-0.228,0.142-0.341C-97.072-37.789-96.446-41.078-95.847-44.262z"/>
	<path d="M-85.478-3.28c4.418,1.77,9.906,3.955,12.004,8.432c0.144,2.441-0.711,4.523-1.623,6.719
		c-1.284,3.079-2.735,6.566-1.919,12.021c0.628,4.145,3.058,6.807,5.879,9.887c1.168,1.272,2.355,2.584,3.494,4.076
		c2.972,3.917,5.005,8.336,6.582,12.146c1.585,3.792,2.829,6.786,6.989,7.784c2.489,0.598,5.964,1.017,8.348,1.262
		c1.319,0.146,2.545,0.221,3.646,0.221c1.833,0,3.409-0.2,4.74-0.589c2.82-0.838,4.616-3.137,6.875-6.045
		c0.675-0.865,1.367-1.748,2.156-2.69c0.532-0.645,1.235-1.349,1.984-2.11c1.558-1.566,3.164-3.193,3.61-4.494
		c0.161-0.504,0.114-0.961,0.075-1.482c-0.038-0.399-0.075-0.836-0.028-1.359l0.01-0.031l-0.02-0.017
		c-1.508-1.995-3.343-3.593-5.118-5.151c-3.011-2.643-5.869-5.132-6.942-9.229c-0.569-2.156-0.361-4.467,0.627-7.061
		c1.053-2.736,3.503-5.75,6.922-8.469c1.539-1.229,3.173-2.498,4.901-3.859c7.93-6.186,16.923-13.201,21.833-19.313l0.009-0.037
		c0.163-0.751,0.105-1.606-0.113-2.549c-0.637-2.564-2.64-5.616-5.508-8.372c-2.735-2.615-5.84-4.572-8.32-5.254
		c-0.2-0.058-0.588-0.163-1.007-0.249c-3.305-0.74-6.732-0.228-10.038,0.266c-2.859,0.429-5.575,0.836-8.205,0.493
		c-5.688-0.75-9.782-4.561-11.226-10.454c-1.898-7.735,3.353-12.592,8.434-17.297c3.741-3.479,7.626-7.062,8.642-11.794
		c0.969-4.458-0.294-9.267-1.131-12.451c-0.332-1.282-0.74-2.566-1.176-3.839h-0.133c0.446,1.283,0.844,2.576,1.186,3.877
		c0.828,3.165,2.089,7.956,1.131,12.385c-1.008,4.694-4.873,8.269-8.615,11.729c-5.099,4.723-10.379,9.61-8.461,17.422
		c1.453,5.938,5.603,9.789,11.339,10.54c2.64,0.342,5.356-0.058,8.233-0.486c3.296-0.493,6.705-0.997,9.992-0.265
		c0.407,0.085,0.807,0.189,1.007,0.247c4.918,1.35,12.364,8.002,13.722,13.525c0.238,0.932,0.276,1.767,0.133,2.49
		C-5.466-6.606-14.441,0.407-22.36,6.586c-1.739,1.349-3.373,2.624-4.911,3.849c-3.428,2.736-5.898,5.76-6.952,8.534
		c-0.997,2.613-1.206,4.944-0.636,7.13c1.092,4.133,3.95,6.652,6.98,9.303c1.766,1.541,3.58,3.138,5.09,5.104
		c-0.047,0.523-0.01,0.961,0.02,1.361c0.057,0.511,0.094,0.948-0.066,1.424c-0.438,1.274-2.023,2.899-3.581,4.456
		c-0.742,0.753-1.453,1.466-1.986,2.111c-0.788,0.932-1.491,1.823-2.164,2.698c-2.252,2.89-4.027,5.171-6.811,5.997
		c-2.117,0.628-4.842,0.752-8.328,0.371c-2.392-0.256-5.858-0.674-8.337-1.264c-4.093-0.969-5.337-3.944-6.905-7.707
		c-1.585-3.821-3.609-8.25-6.589-12.185c-1.141-1.493-2.338-2.804-3.497-4.077c-2.811-3.061-5.231-5.713-5.85-9.818
		c-0.817-5.418,0.628-8.887,1.899-11.957c0.912-2.214,1.787-4.305,1.644-6.787l-0.01-0.027c-2.126-4.515-7.644-6.729-12.081-8.488
		c-1.205-0.483-2.449-0.977-3.808-1.272c-3.133-0.675-6.116-1.044-8.917-1.159v0.134c2.791,0.095,5.765,0.484,8.89,1.149
		C-87.917-4.249-86.673-3.756-85.478-3.28z"/>
	<path d="M-21.06-80.473c0.341,1.311,0.741,2.622,1.13,3.906c0.835,2.824,1.624,5.493,1.937,7.878
		c0.239,1.702,0.239,3.46,0.01,4.687c-0.655,3.688-3.134,6.557-5.527,9.343c-2.745,3.183-5.584,6.491-5.802,11.08
		c0.294,4.087,4.9,4.688,9.771,5.304c0.893,0.122,1.824,0.239,2.716,0.381c3.571,0.571,7.683,1.71,11.89,3.288
		c1.474,0.563,2.888,1.255,4.265,1.93c2.621,1.302,5.1,2.538,7.997,2.862c0.37,0.038,0.739,0.057,1.129,0.057
		c1.966,0,3.677-0.55,5.138-1.075c1.483-0.522,2.755-1.082,3.989-1.644c2.649-1.168,5.147-2.271,9.002-2.614
		c0.685-0.075,1.388-0.104,2.081-0.104c4.188,0,7.691,1.104,11.093,2.167c2.924,0.931,5.707,1.796,8.584,1.796
		c0.57,0,1.14-0.028,1.682-0.103c4.368-0.554,7.73-2.814,10.256-6.93c2.231-3.631,3.514-8.221,4.587-12.642
		c0.314-1.292,0.864-3.714,1.054-5.474c0.191-1.654-0.066-2.861-0.796-3.697c-1.321-1.531-3.97-1.625-7.038-1.723
		c-1.396-0.047-2.83-0.093-4.264-0.283c-6.04-0.781-11.102-1.559-16.705-3.907c-4.616-1.919-9.231-4.323-12.299-5.988
		c-5.146-2.822-10.978-6.311-15.09-12.193H9.576c4.132,5.939,9.991,9.475,15.185,12.309c3.059,1.671,7.674,4.065,12.3,5.997
		c5.612,2.337,10.693,3.125,16.743,3.916c1.434,0.181,2.877,0.228,4.272,0.283c3.04,0.097,5.67,0.181,6.962,1.674
		c0.692,0.808,0.948,1.988,0.759,3.603c-0.199,1.747-0.739,4.162-1.054,5.455c-2.128,8.792-5.186,18.276-14.739,19.474
		c-0.541,0.066-1.102,0.095-1.662,0.095c-2.857,0-5.621-0.865-8.557-1.786c-3.399-1.064-6.913-2.168-11.12-2.168
		c-0.693,0-1.396,0.029-2.09,0.095c-3.873,0.342-6.381,1.464-9.04,2.643c-1.234,0.542-2.509,1.113-3.979,1.634
		c-1.453,0.514-3.162,1.055-5.101,1.055c-0.38,0-0.749-0.019-1.111-0.057c-2.867-0.313-5.335-1.541-7.957-2.833
		c-1.377-0.683-2.792-1.386-4.274-1.938c-4.216-1.587-8.338-2.728-11.909-3.3c-0.902-0.141-1.833-0.266-2.725-0.368
		c-4.815-0.629-9.374-1.217-9.668-5.2c0.218-4.525,3.047-7.813,5.775-10.997c2.411-2.784,4.889-5.682,5.564-9.39
		c0.229-1.247,0.209-3.013-0.01-4.732c-0.323-2.406-1.121-5.065-1.957-7.89c-0.379-1.283-0.769-2.613-1.13-3.915
		c-0.228-0.847-0.464-1.71-0.711-2.547c-0.104-0.36-0.2-0.741-0.314-1.111h-0.132c0.114,0.39,0.227,0.769,0.322,1.149
		C-21.535-82.185-21.298-81.328-21.06-80.473z"/>
	<path d="M-89.305-75.721c1.292-2.005,2.452-4.42,2.47-8.449h-0.124c-0.027,3.992-1.168,6.397-2.45,8.383
		c-1.634,2.517-3.988,4.029-6.496,5.634c-0.75,0.484-1.51,0.971-2.251,1.494v0.152c0.759-0.533,1.547-1.036,2.317-1.529
		C-93.33-71.653-90.956-73.175-89.305-75.721z"/>
	<path d="M-12.742-72.775c0.771,1.729,1.577,3.499,1.843,5.352c0.751,5.076-1.87,8.372-4.396,11.575
		c-1.739,2.177-3.363,4.229-3.866,6.758c-0.133,0.637-0.095,1.025-0.066,1.531c0.02,0.267,0.038,0.55,0.038,0.941v0.018
		c0.646,1.797,2.574,3.06,4.084,3.803c5.451,2.698,14.33,3.972,20.808,4.904c0.979,0.133,1.947,0.209,2.953,0.209l0,0
		c2.517,0,4.854-0.428,7.322-0.876c2.64-0.474,5.375-0.978,8.527-0.978c0.836,0,1.689,0.038,2.518,0.104
		c0.17,0.02,0.646,0.047,1.253,0.086c0.894,0.047,2.014,0.106,2.802,0.17c2.641,0.203,4.729,0.666,6.742,1.123
		c2.697,0.599,5.224,1.169,8.976,1.169c0.39,0,0.798-0.01,1.205-0.02c2.982-0.465,5.717-3.612,6.81-7.831
		c0.901-3.487,0.693-8.127-2.593-10.692c-3.865-3.013-15.128-5.656-21.178-6.14c-1.291-0.113-2.364-0.122-3.4-0.122
		c-1.158-0.01-2.345-0.021-3.903-0.155c-4.168-0.378-7.615-2.022-11.537-5.502c-4.854-4.316-7.484-7.651-11.244-14.255
		c-0.409-0.714-0.789-1.587-1.141-2.567h-0.142c0.371,0.997,0.75,1.902,1.177,2.624c3.761,6.624,6.392,9.959,11.274,14.293
		c3.932,3.498,7.406,5.152,11.604,5.533c1.558,0.142,2.754,0.151,3.912,0.151c1.083,0.011,2.1,0.02,3.391,0.124
		c6.031,0.493,17.256,3.116,21.121,6.12c3.229,2.519,3.419,7.109,2.535,10.56c-1.072,4.163-3.78,7.271-6.705,7.736
		c-0.397,0.011-0.796,0.02-1.186,0.02c-3.723,0-6.269-0.58-8.947-1.168c-2.022-0.458-4.111-0.923-6.762-1.123
		c-0.788-0.058-1.907-0.133-2.801-0.18c-0.607-0.028-1.083-0.058-1.253-0.066c-0.838-0.086-1.682-0.116-2.527-0.116
		c-3.162,0-5.907,0.496-8.547,0.979c-2.469,0.448-4.796,0.867-7.303,0.867l0,0c-1.006,0-1.967-0.057-2.935-0.202
		c-6.467-0.93-15.337-2.194-20.77-4.894c-1.481-0.722-3.381-1.966-4.008-3.725c-0.009-0.38-0.028-0.666-0.038-0.932
		c-0.047-0.495-0.076-0.873,0.057-1.5c0.505-2.482,2.119-4.534,3.837-6.702c2.555-3.213,5.187-6.538,4.426-11.673
		c-0.275-1.862-1.072-3.658-1.851-5.379c-0.305-0.673-0.628-1.378-0.903-2.08c-0.997-2.482-2.165-5.816-2.906-9.267h-0.124
		c0.751,3.469,1.918,6.834,2.915,9.323C-13.368-74.154-13.055-73.451-12.742-72.775z"/>
	<path d="M-84.992-21.518c1.757-1.959,3.314-4.05,4.966-6.254c2.622-3.499,5.329-7.11,8.823-10.093
		c0.247-0.228,0.493-0.476,0.722-0.724c0.208-0.228,0.437-0.457,0.664-0.666c2.281-2.015,4.891-3.63,7.409-5.179
		c1.747-1.084,3.561-2.196,5.261-3.451c1.348-0.997,2.706-2.041,4.007-3.049c1.985-1.54,4.036-3.118,6.106-4.544
		c0.978-0.674,1.994-1.32,3.078-2.004c5.278-3.375,11.262-7.196,12.174-14.106c0.484-3.649-0.476-8.353-2.516-12.583h-0.134
		c2.042,4.22,3.001,8.925,2.525,12.574c-0.912,6.852-6.865,10.655-12.126,14.001c-1.074,0.683-2.089,1.339-3.068,2.004
		c-2.08,1.434-4.131,3.022-6.106,4.552c-1.311,1.006-2.659,2.053-4.027,3.051c-1.69,1.244-3.494,2.366-5.241,3.441
		c-2.527,1.568-5.138,3.184-7.417,5.198c-0.248,0.208-0.465,0.458-0.685,0.674c-0.228,0.239-0.456,0.496-0.712,0.705
		c-3.504,2.993-6.22,6.614-8.832,10.112c-1.652,2.215-3.22,4.296-4.967,6.245c-3.476,3.878-8.071,6.501-13.067,7.545v0.133
		C-93.122-15-88.487-17.631-84.992-21.518z"/>
	<path d="M-92.779-26.44c1.7-2.482,1.709-6.985,1.529-10.636c-0.144-2.947-0.096-8.571,1.832-13.248
		c1.491-3.574,5.024-6.76,8.442-9.819c0.522-0.475,1.035-0.942,1.54-1.406c6.846-6.246,10.246-11.862,13.238-18.353
		c0.256-0.551,0.474-1.143,0.693-1.71c0.265-0.713,0.551-1.436,0.901-2.14c0.066-0.143,0.143-0.285,0.209-0.417h-0.143
		c-0.057,0.124-0.123,0.237-0.189,0.352c-0.351,0.713-0.626,1.443-0.892,2.156c-0.219,0.571-0.438,1.151-0.703,1.704
		c-2.981,6.492-6.362,12.089-13.201,18.323c-0.504,0.466-1.025,0.922-1.538,1.388c-3.43,3.08-6.981,6.264-8.472,9.873
		c-1.938,4.698-1.986,10.352-1.842,13.298c0.18,3.64,0.161,8.116-1.51,10.568c-1.216,1.759-3.153,3.014-5.271,4.086v0.144
		C-96-23.372-94.023-24.636-92.779-26.44z"/>
	<path d="M-96.266-80.682c0.828-0.857,1.178-2.187,1.178-3.488h-0.143c0,1.283-0.35,2.592-1.119,3.402
		c-0.542,0.561-1.159,0.866-1.805,0.866v-0.01v0.133l0,0C-97.481-79.779-96.825-80.092-96.266-80.682z"/>
	<path d="M-57.253-82.156c-1.804,2.13-3.125,5.038-4.396,7.851c-0.2,0.429-0.39,0.847-0.579,1.274
		c-1.863,4.012-4.169,9.01-6.695,12.422c-1.368,1.863-3.628,3.203-6.021,4.619c-3.391,2.006-6.895,4.088-8.264,7.908
		c-0.493,1.379-0.503,2.89-0.018,4.781c0.475,1.055,1.301,1.587,2.44,1.587l0,0c1.881,0,4.103-1.454,5.015-2.233
		c1.813-1.531,3.409-3.649,4.938-5.711c0.826-1.094,1.672-2.243,2.545-3.289c0.428-0.484,1.89-2.158,3.115-2.88
		c2.906-1.71,6.629-3.022,10.57-4.411c5.479-1.92,11.129-3.906,14.653-7.136c1.88-1.692,2.992-4.353,3.087-7.281
		c0.084-3.136-0.998-6.111-3.079-8.392c-0.37-0.399-0.769-0.788-1.195-1.121h-0.209c0.456,0.36,0.902,0.769,1.311,1.215
		c2.051,2.245,3.133,5.191,3.039,8.29c-0.076,2.889-1.188,5.521-3.029,7.195c-3.515,3.203-9.166,5.188-14.616,7.109
		c-3.95,1.388-7.674,2.697-10.589,4.419c-1.263,0.751-2.726,2.424-3.144,2.919c-0.892,1.035-1.737,2.185-2.563,3.297
		c-1.53,2.043-3.106,4.153-4.911,5.674c-0.902,0.769-3.095,2.215-4.938,2.215c-1.092,0-1.871-0.505-2.327-1.511
		c-0.465-1.844-0.456-3.338,0.029-4.695c1.349-3.774,4.833-5.835,8.206-7.832c2.402-1.426,4.671-2.777,6.068-4.667
		c2.516-3.411,4.825-8.421,6.695-12.431c0.19-0.43,0.379-0.855,0.579-1.285c1.273-2.802,2.592-5.692,4.389-7.813
		c0.673-0.806,1.461-1.5,2.326-2.099h-0.219C-55.856-83.59-56.607-82.917-57.253-82.156z"/>
	<path d="M-7.034-49.64l0.009,0.017c0.229,0.239,0.362,0.572,0.485,0.894l0.027,0.067l0.021,0.039
		c0.93,0.864,2.317,1.348,3.913,1.348l0,0c2.269,0,4.521-0.959,5.621-2.375c0.666-0.866,0.874-1.845,0.627-2.851
		c-0.482-1.883-2.279-2.5-4.235-3.004l-0.009-0.009l-0.01,0.009c-3.323,0.486-6.762,2.519-6.449,5.846V-49.64z M-0.585-55.382
		c1.918,0.503,3.656,1.092,4.131,2.908c0.238,0.969,0.039,1.918-0.608,2.747c-1.071,1.387-3.294,2.327-5.516,2.327l0,0
		c-1.559,0-2.917-0.475-3.818-1.32l-0.02-0.048c-0.133-0.332-0.266-0.677-0.494-0.931C-7.233-53.396-2.922-55.031-0.585-55.382z"/>
	<path d="M27.372-47.456l0.049,0.085l0.018,0.009c2.043,1.284,5.424,2.139,8.406,2.139l0,0c1.965,0,5.394-0.389,6.286-3.041v-0.01
		c0.02-0.922-0.313-1.739-1.006-2.441c-1.291-1.332-3.866-2.151-6.705-2.151c-3.599,0-7.483,1.389-7.54,4.469v0.019l0.027,0.02
		C27.126-48.121,27.259-47.778,27.372-47.456z M34.42-52.74c2.802,0,5.348,0.817,6.619,2.109c0.655,0.686,0.979,1.464,0.969,2.338
		c-0.873,2.567-4.245,2.947-6.163,2.947l0,0c-2.955,0-6.287-0.845-8.329-2.11l-0.019-0.057c-0.133-0.324-0.258-0.665-0.484-0.913
		C27.079-51.39,30.896-52.74,34.42-52.74z"/>
	<path d="M-63.073,13.239c-0.722,3.088-1.474,6.301-1.168,11.09c2.402,8.338,5.241,14.627,8.651,19.257
		c0.797,1.074,1.776,2.3,3.009,3.289c1.767,1.414,4.284,2.252,6.706,2.252l0,0c2.441,0,4.529-0.838,5.877-2.385
		c1.501-1.703,2.051-4.155,1.643-7.281c-0.237-1.749-0.873-3.593-1.499-5.38c-0.628-1.777-1.273-3.612-1.5-5.359
		c-0.921-6.796,1.984-13.839,7.739-18.829c2.441-2.128,4.967-3.849,7.389-5.513c2.63-1.814,5.346-3.688,7.92-6.024
		c3.912-3.545,8.338-7.575,9.069-13.646v-0.021v-0.01c-0.465-2.869-1.357-5.825-4.624-7.936c-1.853-1.208-3.903-1.767-6.449-1.767
		c-2.175,0-4.406,0.409-6.781,0.835c-2.553,0.457-5.195,0.932-7.939,0.932c-0.674,0-1.339-0.027-1.975-0.074
		c-1.301-0.125-2.944-0.525-4.662-0.952c-2.318-0.56-4.721-1.149-6.621-1.149c-0.398,0-0.759,0.028-1.092,0.086
		c-2.565,0.388-5.279,2.612-7.36,4.504c-3.466,3.146-6.732,6.423-7.274,9.124c-0.209,1.057-0.143,2.747-0.01,3.973
		c0.19,1.862,0.599,3.441,0.979,4.961c0.675,2.719,1.377,5.531,1.036,10.028C-62.181,9.429-62.608,11.29-63.073,13.239z
		 M-62.923-2.813c-0.379-1.521-0.779-3.098-0.968-4.943c-0.133-1.225-0.2-2.898,0-3.934c0.532-2.672,3.79-5.932,7.237-9.067
		c2.07-1.874,4.767-4.077,7.293-4.477c0.323-0.047,0.674-0.066,1.072-0.066c1.89,0,4.283,0.58,6.592,1.148
		c1.729,0.42,3.371,0.82,4.672,0.942c0.646,0.059,1.311,0.085,1.995,0.085c2.754,0,5.403-0.474,7.958-0.95
		c2.373-0.417,4.605-0.826,6.762-0.826c2.516,0,4.549,0.56,6.391,1.749c3.22,2.09,4.094,4.997,4.559,7.861
		c-0.731,6.015-5.128,10.015-9.022,13.562c-2.583,2.326-5.289,4.19-7.911,5.996c-2.44,1.674-4.948,3.401-7.407,5.541
		c-5.793,5.009-8.708,12.09-7.787,18.934c0.237,1.757,0.883,3.591,1.51,5.379c0.627,1.777,1.272,3.621,1.49,5.36
		c0.419,3.088-0.132,5.503-1.614,7.185c-1.318,1.513-3.361,2.338-5.772,2.338l0,0c-2.394,0-4.873-0.837-6.63-2.224
		c-1.215-0.979-2.193-2.203-2.981-3.27c-3.409-4.609-6.229-10.892-8.632-19.209c-0.304-4.753,0.446-7.954,1.178-11.024
		c0.466-1.967,0.892-3.83,1.055-6.025C-61.545,2.735-62.238-0.085-62.923-2.813z"/>
	<path d="M-55.134,12.913c0.133,0.563,0.218,1.135,0.323,1.761c0.341,2.187,0.75,4.685,2.991,5.864l0.02,0.01h0.019
		c2.726-0.191,4.445-2.623,6.269-5.19c0.654-0.911,1.319-1.861,2.041-2.688c4.018-4.65,8.548-7.728,12.925-10.712
		c3.078-2.102,5.993-4.088,8.568-6.492c0.826-0.408,1.385-1.121,1.917-1.807c0.409-0.513,0.826-1.064,1.377-1.48
		c2.356-2.947,3.135-6.397,1.985-8.775c-0.722-1.5-2.527-3.297-7.027-3.297c-0.609,0-1.245,0.038-1.9,0.095
		c-1.444,0.143-3.106,0.446-4.844,0.769c-1.937,0.354-4.13,0.752-6.343,0.99c-0.466,0.048-0.902,0.086-1.34,0.142
		c-5.907,0.589-9.467,0.97-13.019,5.152c-2.526,2.993-3.875,6.69-4.255,11.651c-0.227,3.176-0.047,6.655,0.114,9.716
		C-55.229,10.159-55.153,11.612-55.134,12.913z M-55.296-1.085c0.371-4.933,1.72-8.6,4.216-11.567
		c3.515-4.171,6.858-4.503,12.935-5.131c0.438-0.037,0.875-0.085,1.34-0.133c2.222-0.239,4.416-0.638,6.353-0.988
		c1.737-0.315,3.391-0.629,4.833-0.762c0.654-0.065,1.292-0.104,1.891-0.104c4.433,0,6.21,1.758,6.922,3.231
		c1.111,2.337,0.352,5.73-1.966,8.62c-0.55,0.427-0.978,0.969-1.396,1.493c-0.551,0.723-1.063,1.387-1.869,1.775l-0.02,0.01
		c-2.575,2.416-5.49,4.4-8.567,6.492c-4.388,2.994-8.908,6.072-12.943,10.739c-0.722,0.818-1.387,1.769-2.042,2.69
		c-1.804,2.538-3.504,4.941-6.163,5.133c-2.185-1.151-2.555-3.5-2.915-5.761c-0.105-0.628-0.19-1.208-0.313-1.757
		c-0.02-1.294-0.105-2.738-0.181-4.276C-55.343,5.561-55.533,2.081-55.296-1.085z"/>
	<path d="M26.993-2.245c0.969,9.031,1.881,17.564,8.918,23.668c4.729,4.096,12.374,8.457,19.696,8.457l0,0
		c4.463,0,8.129-1.653,10.901-4.924c2.394-2.842,3.628-6.157,5.044-10.007c0.15-0.427,0.313-0.854,0.474-1.302
		c0.285-0.742,0.562-1.473,0.837-2.195c1.576-4.163,3.066-8.078,3.438-11.34c0.825-7.174-1.777-10.063-4.997-12.858
		c-5.013-4.344-11.538-4.666-18.452-5.019c-1.633-0.085-3.57-0.258-5.611-0.447c-3.221-0.296-6.857-0.619-9.906-0.619
		c-3.285,0-5.441,0.372-6.609,1.151c-4.9,3.25-4.312,11.15-3.846,14.378L26.993-2.245z M30.792-17.564
		c1.148-0.771,3.285-1.139,6.543-1.139c3.039,0,6.686,0.33,9.896,0.626c2.042,0.18,3.979,0.36,5.613,0.437
		c6.894,0.342,13.398,0.675,18.376,4.988c3.2,2.765,5.773,5.637,4.955,12.754c-0.369,3.233-1.859,7.148-3.428,11.301
		c-0.273,0.732-0.56,1.463-0.825,2.207c-0.172,0.426-0.333,0.863-0.485,1.301c-1.415,3.831-2.64,7.138-5.032,9.969
		c-2.735,3.242-6.362,4.887-10.798,4.887c-7.274,0-14.91-4.363-19.611-8.449c-7.007-6.055-7.91-14.57-8.87-23.57l-0.123-1.066
		C26.527-6.528,25.958-14.363,30.792-17.564z"/>
	<path d="M33.718-0.762c0.846,7.794,1.566,14.521,7.873,19.514c2.924,2.328,8.213,5.045,13.447,5.045l0,0
		c2.602,0,4.795-0.674,6.532-2.013c4.921-3.812,7.058-11.738,7.399-17.366c0.389-6.5-1.995-12.214-6.373-15.255
		c-4.018-2.801-9.126-3.087-14.55-3.381c-1.186-0.058-2.363-0.124-3.541-0.124c-3.4,0-7.597,0.429-9.743,3.743
		c-1.234,2.521-1.158,5.477-1.074,8.327C33.698-1.759,33.708-1.265,33.718-0.762z M34.876-10.54c2.107-3.251,6.259-3.678,9.63-3.678
		c1.178,0,2.346,0.056,3.541,0.133c5.386,0.293,10.485,0.56,14.483,3.344c4.331,3.023,6.695,8.698,6.306,15.15
		c-0.331,5.607-2.46,13.496-7.351,17.279c-1.709,1.32-3.875,1.994-6.447,1.994l0,0c-5.195,0-10.458-2.717-13.382-5.037
		c-6.248-4.959-6.94-11.348-7.806-19.416c-0.01-0.494-0.02-0.988-0.048-1.502C33.736-5.113,33.661-8.052,34.876-10.54z"/>
	<path d="M-43.749-2.006l0.029,0.019c0.19,0.125,0.353,0.305,0.513,0.477c0.2,0.208,0.399,0.426,0.646,0.55l0.01,0.009h0.028
		c3.599-0.636,7.692-2.508,10.684-4.874c1.188-0.942,2.575-2.226,2.85-3.831l0.01-0.027L-29-9.715
		c-0.162-0.236-0.389-0.446-0.588-0.655c-0.163-0.15-0.313-0.293-0.456-0.457l-0.01-0.027h-0.029
		c-0.532-0.059-1.111-0.086-1.69-0.086c-3.133,0-7.407,0.951-9.97,3.604c-1.407,1.473-2.08,3.25-2.006,5.303V-2.006z M-41.648-7.253
		c2.525-2.634,6.761-3.564,9.875-3.564c0.569,0,1.131,0.029,1.653,0.084c0.143,0.165,0.293,0.314,0.436,0.459
		c0.209,0.19,0.409,0.388,0.561,0.617c-0.275,1.559-1.632,2.814-2.792,3.726c-2.973,2.356-7.038,4.22-10.608,4.856
		c-0.218-0.123-0.398-0.312-0.578-0.513c-0.163-0.171-0.323-0.343-0.514-0.484C-43.681-4.069-43.035-5.809-41.648-7.253z"/>
	<path d="M46.898,15.206c2.108,1.37,4.463,2.108,6.648,2.108l0,0c2.877,0,5.289-1.244,7.009-3.609
		C64.543,8.2,62.738-2.206,57.021-6.528c-1.547-1.189-4.196-2.596-7.986-2.596c-0.892,0-1.804,0.075-2.726,0.237
		c-3.998,0.674-6.078,3.839-6.011,9.132C40.355,4.267,41.295,11.565,46.898,15.206z M46.329-8.764
		c0.922-0.152,1.823-0.229,2.706-0.229c3.751,0,6.372,1.39,7.92,2.558c2.698,2.052,4.645,5.56,5.338,9.646
		c0.684,3.992-0.009,7.878-1.852,10.426c-1.682,2.328-4.075,3.543-6.895,3.543l0,0c-2.156,0-4.502-0.729-6.582-2.08
		c-5.545-3.602-6.477-10.854-6.532-14.855C40.355-4.979,42.406-8.099,46.329-8.764z"/>
	<path d="M-82.171,50.686c0.521,0.949,1.025,1.861,1.624,2.614l0.027,0.027c0.827,1.075,2.232,2.861,4.189,2.565
		c2.108-0.313,4.89-2.82,4.386-6.509c-0.398-2.947-2.373-5.104-6.22-6.787c-0.247-0.104-0.494-0.219-0.75-0.322
		c-1.852-0.78-3.608-1.52-4.417-3.289c-0.835-3.498-0.996-8.213-1.177-13.22c-0.142-4.144-0.295-8.438-0.855-12.099
		C-86.436,6.604-90.045,2.404-96.398,0.8c-0.551-0.146-1.14-0.278-1.757-0.363v0.133c0.607,0.085,1.187,0.209,1.729,0.352
		c6.296,1.578,9.876,5.76,10.94,12.766c0.551,3.658,0.704,7.945,0.855,12.089c0.171,5.007,0.341,9.732,1.177,13.258
		c0.836,1.825,2.612,2.566,4.493,3.355c0.255,0.113,0.503,0.208,0.75,0.322c3.798,1.653,5.745,3.783,6.135,6.691
		c0.494,3.602-2.212,6.054-4.273,6.357c-1.88,0.287-3.256-1.462-4.073-2.499l-0.029-0.027c-0.589-0.763-1.092-1.656-1.614-2.604
		c-1.644-2.977-3.344-6.053-8.206-5.247c-2.297,0.371-4.881,1.598-7.882,3.717v0.162c3.02-2.148,5.604-3.384,7.901-3.755
		C-85.478,44.718-83.796,47.756-82.171,50.686z"/>
	<path d="M-95.002,33.825c2.812-3.1,4.312-7.68,4.122-12.583c-0.19-4.725-1.956-9.04-4.73-11.558
		c-0.826-0.592-1.69-0.989-2.544-1.197V8.61c0.835,0.219,1.672,0.607,2.46,1.16c2.754,2.508,4.501,6.794,4.69,11.472
		c0.19,4.865-1.301,9.427-4.084,12.507c-0.93,1.017-1.975,1.871-3.067,2.631v0.155C-97.025,35.763-95.952,34.89-95.002,33.825z"/>
	<path d="M19.101,34.652c-0.123-0.847-0.513-1.863-0.836-2.672C15.589,25.31,9.302,18.313,4.733,14.36
		C1.6,11.651-1.003,10.063-2.998,9.665C-3.425,9.57-3.891,9.523-4.374,9.523c-5.451,0-12.147,5.55-12.564,10.415
		c0.02,0.238,0.076,0.484,0.143,0.715c0.075,0.36,0.17,0.723,0.133,1.111v0.02l0.009,0.008c1.938,4.562,4.15,8.867,6.553,12.811
		c1.082,1.789,2.175,3.499,3.609,4.934c3.466,3.469,9.506,5.902,14.653,5.902l0,0c2.85,0,5.233-0.721,7.085-2.119
		C18.341,40.972,19.643,38.055,19.101,34.652z M8.161,45.306L8.161,45.306c-5.119,0-11.111-2.413-14.558-5.864
		c-1.424-1.417-2.517-3.126-3.6-4.894c-2.402-3.945-4.596-8.24-6.533-12.783c0.028-0.41-0.058-0.789-0.152-1.141
		c-0.057-0.228-0.114-0.467-0.143-0.686C-16.396,15.13-9.768,9.655-4.374,9.655c0.475,0,0.931,0.038,1.358,0.125
		c1.974,0.408,4.558,1.976,7.673,4.676c4.549,3.953,10.816,10.921,13.484,17.572c0.323,0.797,0.713,1.807,0.846,2.643
		c0.521,3.354-0.77,6.234-3.827,8.544C13.337,44.593,10.981,45.306,8.161,45.306z"/>
	<path d="M7.183,23.968c-2.744-2.508-6.012-4.323-8.546-4.723c-0.475-0.085-0.93-0.123-1.367-0.123
		c-1.577,0-2.841,0.493-3.772,1.463c-1.092,1.129-1.632,2.907-1.547,5c1.11,4.78,2.231,8.668,5.594,11.404
		c2.117,1.748,5.384,2.881,8.291,2.881l0,0c3.494,0,5.916-1.606,6.638-4.392c0.208-0.826,0.171-2.023,0.048-2.851
		C12.103,29.853,10.155,26.696,7.183,23.968z M12.34,35.44c-0.702,2.738-3.067,4.297-6.505,4.297l0,0
		c-2.888,0-6.107-1.123-8.215-2.842c-3.324-2.719-4.435-6.577-5.545-11.33c-0.085-2.043,0.455-3.781,1.519-4.904
		c0.892-0.931,2.137-1.406,3.676-1.406c0.417,0,0.873,0.039,1.347,0.113c5.262,0.846,12.888,7.434,13.79,13.277
		C12.521,33.455,12.558,34.633,12.34,35.44z"/>
	<path d="M37.801,45.658l-0.02-0.009l-0.028-0.01c-0.352-0.049-0.684-0.067-1.006-0.067c-0.731,0-1.434,0.115-2.203,0.332
		c-4.019,1.17-8.063,4.658-9.404,8.098c-0.948,2.423-0.549,5.103-0.168,7.699c0.351,2.403,0.684,4.656,0.018,6.644
		c-1.035,3.058-3.779,4.99-6.438,6.852c-2.811,1.978-5.717,4.011-6.429,7.375c-0.428,2.385,0.199,4.647,1.785,6.531
		c2.24,2.67,6.354,4.41,10.465,4.41l0,0c2.688,0,5.043-0.724,6.818-2.064c1.396-1.055,2.365-2.508,3.381-4.039l0.162-0.247
		c1.006-1.995,1.339-4.391,1.699-6.948c0.314-2.213,0.637-4.505,1.425-6.775c0.466-1.339,0.959-2.471,1.435-3.546
		c1.453-3.315,2.697-6.195,2.1-13.258C41.049,52.587,40.337,47.671,37.801,45.658z M39.169,69.837
		c-0.476,1.094-0.969,2.215-1.435,3.563c-0.78,2.28-1.102,4.581-1.425,6.803c-0.36,2.54-0.702,4.925-1.689,6.901l-0.144,0.23
		c-1.063,1.597-1.976,2.965-3.36,4.018c-1.748,1.332-4.084,2.026-6.744,2.026c-4.064,0-8.147-1.713-10.37-4.353
		c-1.558-1.864-2.175-4.088-1.757-6.437c0.702-3.307,3.467-5.236,6.372-7.279c2.688-1.881,5.44-3.831,6.485-6.918
		c0.686-2.026,0.353-4.296,0-6.7c-0.389-2.588-0.778-5.258,0.163-7.644c1.318-3.411,5.327-6.861,9.306-8.021
		c0.771-0.217,1.453-0.321,2.176-0.321c0.313,0,0.637,0.019,0.978,0.065c2.498,1.995,3.211,6.862,3.552,10.872
		C41.855,63.678,40.622,66.529,39.169,69.837z"/>
	<path d="M-79.056,70.853c-0.617-0.531-1.311-0.798-2.061-0.798c-1.273,0-2.679,0.798-3.875,2.187
		c-1.462,1.711-2.279,3.936-2.032,5.531c0.579,2.719,3.057,4.145,5.193,4.145l0,0c1.501,0,2.803-0.656,3.657-1.825
		C-76.437,77.695-76.92,72.697-79.056,70.853z M-78.269,80.007c-0.835,1.15-2.099,1.777-3.562,1.777l0,0
		c-2.089,0-4.501-1.388-5.07-4.039c-0.238-1.552,0.561-3.736,2.013-5.428c1.158-1.36,2.544-2.13,3.771-2.13
		c0.722,0,1.386,0.248,1.985,0.761C-77.034,72.755-76.569,77.666-78.269,80.007z"/>
	<path d="M-32.828,87.579c-0.094-0.189-0.208-0.389-0.255-0.607l-0.01-0.019l-0.01-0.018c-0.493-0.353-1.072-0.554-1.671-0.554
		c-0.92,0-1.861,0.438-2.537,1.172c-0.626,0.683-0.929,1.529-0.863,2.374l0.008,0.019c0.448,0.895,1.208,1.39,2.176,1.39l0,0
		c1.5,0,3.305-1.304,3.467-3.033v-0.01v-0.009C-32.571,88.026-32.703,87.798-32.828,87.579z M-35.989,91.201L-35.989,91.201
		c-0.902,0-1.644-0.466-2.05-1.302c-0.077-0.808,0.217-1.606,0.826-2.273c0.646-0.69,1.557-1.119,2.44-1.119
		c0.56,0,1.102,0.189,1.566,0.522c0.058,0.219,0.171,0.417,0.276,0.607c0.113,0.231,0.237,0.429,0.276,0.656
		C-32.818,89.957-34.545,91.201-35.989,91.201z"/>
	<path d="M138.655-81.821c3.068,1.49,6.678,1.644,9.67,0.416c1.499-0.627,2.772-1.576,3.74-2.765h-0.151
		c-0.941,1.14-2.156,2.043-3.628,2.64c-2.963,1.228-6.543,1.076-9.572-0.396c-0.987-0.476-1.919-1.227-2.811-2.244h-0.173
		C136.652-83.087,137.631-82.317,138.655-81.821z"/>
	<path d="M29.871-76.605c1.196,0.846,2.336,1.749,3.438,2.613c2.669,2.092,5.185,4.051,7.959,4.981
		c3.105,1.549,6.077,2.328,8.907,2.328c2.345,0,4.597-0.533,6.714-1.606c6.249-3.146,9.772-10.017,11.122-15.881h-0.134
		c-1.349,5.817-4.834,12.649-11.045,15.768c-4.644,2.336-9.867,2.091-15.518-0.723c-2.765-0.921-5.271-2.89-7.929-4.982
		c-1.102-0.854-2.242-1.748-3.448-2.602c-1.292-0.922-2.632-1.816-3.933-2.671c-2.354-1.569-4.662-3.1-6.693-4.791h-0.211
		c2.072,1.739,4.427,3.297,6.838,4.894C27.239-78.412,28.58-77.526,29.871-76.605z"/>
	<path d="M74.753-74.219c0.844,2.053,2.707,3.051,5.688,3.051c1.51,0,3.076-0.256,4.34-0.466h0.039
		c0.273-0.047,0.569-0.067,0.882-0.067c1.188,0,2.403,0.353,3.571,0.693c0.599,0.181,1.234,0.361,1.843,0.485
		c0.493,0.114,0.979,0.2,1.462,0.306c2.004,0.388,4.083,0.798,5.964,1.661c0.74,0.343,1.501,0.676,2.241,0.989
		c3.667,1.586,7.454,3.23,9.915,6.425c0.151,0.2,0.284,0.398,0.427,0.598c1.72,2.548,3.21,5.285,4.635,7.936
		c1.615,2.995,3.286,6.063,5.299,8.877c1.947,2.747,4.568,5.78,7.104,8.715c0.882,1.027,1.71,1.997,2.516,2.946
		c4.026,4.771,7.825,9.269,14.835,9.269h0.01c1.794,0,3.693-0.288,5.83-0.856c6.069-1.634,16.781-5.721,20.446-14.579
		c0.969-2.349,1.614-5.626,2.298-9.087c0.522-2.614,1.064-5.322,1.748-7.575v-0.427c-0.75,2.338-1.319,5.208-1.861,7.973
		c-0.693,3.471-1.34,6.731-2.299,9.067c-3.646,8.822-14.32,12.872-20.36,14.506c-2.128,0.58-4.026,0.856-5.802,0.856h-0.01
		c-6.943,0-10.731-4.478-14.73-9.23c-0.807-0.95-1.643-1.921-2.526-2.938c-2.526-2.936-5.146-5.977-7.104-8.707
		c-1.994-2.803-3.665-5.891-5.279-8.865c-1.435-2.653-2.925-5.4-4.645-7.947c-0.134-0.199-0.284-0.418-0.437-0.608
		c-2.479-3.212-6.276-4.866-9.953-6.462c-0.749-0.324-1.51-0.657-2.24-0.988c-1.899-0.875-3.979-1.282-5.992-1.682
		c-0.494-0.095-0.979-0.192-1.464-0.296c-0.598-0.133-1.225-0.313-1.833-0.485c-1.176-0.342-2.393-0.703-3.608-0.703
		c-0.312,0-0.626,0.028-0.901,0.066l-0.057,0.01c-1.245,0.209-2.803,0.457-4.303,0.457c-2.915,0-4.748-0.969-5.565-2.957
		c-0.854-2.042-0.569-5.512-0.313-8.581c0.039-0.467,0.076-0.903,0.105-1.331h-0.134c-0.028,0.427-0.057,0.863-0.095,1.322
		C74.184-79.77,73.907-76.282,74.753-74.219z"/>
	<path d="M127.278-80.273c3.771,5.114,10.467,8.154,17.902,8.154c1.851,0,3.646-0.189,5.337-0.56
		c6.609-1.465,8.728-5.979,9.668-11.491h-0.124c-0.294,1.748-0.702,3.383-1.339,4.856c-1.529,3.537-4.15,5.606-8.225,6.511
		c-1.69,0.371-3.477,0.559-5.317,0.559c-7.397,0-14.046-3.031-17.798-8.105c-0.417-1.084-0.769-2.396-1.11-3.821h-0.133
		c0.342,1.444,0.712,2.773,1.129,3.886L127.278-80.273z"/>
	<path d="M91.229-77.602c3.361,0.483,6.572,1.481,9.657,2.451c1.996,0.627,4.066,1.275,6.164,1.777
		c1.34,0.324,2.679,0.58,3.865,0.761c1.216,0.18,2.289,0.275,3.182,0.275l0,0c1.843,0,2.935-0.38,3.277-1.141
		c0.939-2.024,1.661-6.424,1.699-10.692h-0.124c-0.038,4.248-0.76,8.621-1.682,10.645c-0.322,0.702-1.395,1.055-3.171,1.055
		c-0.884,0-1.947-0.086-3.162-0.267c-1.188-0.18-2.517-0.438-3.856-0.76c-2.098-0.503-4.149-1.151-6.145-1.778
		c-3.105-0.97-6.314-1.977-9.695-2.46c-3.324-0.477-5.973-2.756-7.53-6.435h-0.144C85.143-80.416,87.839-78.098,91.229-77.602z"/>
	<path d="M165.295-80.881c-0.172,4.676-0.323,8.724-3.429,11.111c-3.229,2.499-8.87,3.21-12.991,3.726
		c-0.409,0.055-0.816,0.112-1.197,0.159c-0.703,0.097-1.452,0.144-2.212,0.144l0,0c-4.198,0-8.671-1.416-13.002-2.775
		c-3.874-1.207-7.872-2.471-11.614-2.689h-0.01l-0.009,0.01c-2.137,0.608-2.668,2.889-2.46,4.818
		c0.607,7.538,3.257,13.706,9.174,21.3c1.188,1.521,2.309,3.07,3.381,4.57c1.843,2.53,3.57,4.934,5.594,7.196
		c3.029,3.413,6.828,5.122,11.301,5.122l0,0c5.185,0,11.016-2.415,16.002-6.644c5.138-5.568,5.908-12.944,6.259-20.025
		c0.028-0.551,0.037-1.122,0.057-1.74c0.077-2.842,0.162-6.386,1.558-8.135c1.225-1.54,2.669-2.728,4.15-3.773v-0.152
		c-1.519,1.064-2.992,2.262-4.255,3.859c-1.415,1.767-1.501,5.332-1.586,8.191c-0.02,0.618-0.028,1.197-0.057,1.739
		c-0.343,7.053-1.111,14.418-6.221,19.95c-4.958,4.201-10.75,6.615-15.907,6.615c-4.434,0-8.214-1.72-11.205-5.084
		c-2.015-2.272-3.753-4.656-5.585-7.205c-1.073-1.491-2.194-3.033-3.381-4.561c-5.897-7.577-8.547-13.734-9.145-21.243
		c-0.21-1.862,0.294-4.085,2.354-4.677c3.713,0.219,7.701,1.464,11.566,2.681c4.341,1.358,8.822,2.774,13.04,2.774l0,0
		c0.76,0,1.519-0.057,2.23-0.142c0.38-0.056,0.789-0.103,1.198-0.15c4.131-0.524,9.8-1.247,13.038-3.757
		c3.162-2.431,3.314-6.49,3.495-11.213c0.038-0.98,0.066-1.996,0.133-3.014c0.019-0.095,0.019-0.18,0.028-0.275h-0.133
		c0,0.095-0.01,0.171-0.01,0.266C165.371-82.877,165.333-81.869,165.295-80.881z"/>
	<path d="M167.27-17.916l-0.02,0.01c-0.872,0.693-2.193,1.748-2.05,3.204l0.01,0.026l0.019,0.021
		c0.284,0.218,0.531,0.476,0.75,0.722l0.01,0.021h0.019c1.605,0.322,3.249,0.493,4.882,0.493l0,0c1.671,0,3.333-0.18,4.957-0.514
		v-0.133c-1.624,0.343-3.286,0.514-4.957,0.514c-1.624,0-3.249-0.162-4.834-0.485c-0.219-0.238-0.447-0.485-0.722-0.703
		c-0.123-1.371,1.102-2.349,1.993-3.07l0.02-0.02c1.548-1.227,3.571-2.158,5.728-3.136c0.929-0.419,1.86-0.855,2.772-1.312v-0.144
		c-0.93,0.468-1.891,0.915-2.83,1.332C170.859-20.102,168.817-19.17,167.27-17.916z"/>
	<path d="M172.797-83.097c0.143,1.76,1.567,3.318,3.049,3.318v-0.133c-1.425,0-2.782-1.493-2.916-3.193
		c-0.038-0.372-0.038-0.723-0.01-1.064h-0.123C172.769-83.828,172.758-83.467,172.797-83.097z"/>
	<path d="M155.087-59.564c-0.847,0-1.729,0.096-2.604,0.266c-1.937,0.38-4.008,0.99-6.211,1.633
		c-2.459,0.724-5.024,1.485-7.454,1.902c-2.251,0.408-3.229,1.408-2.973,3.07v0.01c0.788,1.662,1.396,3.516,2.041,5.474
		c1.387,4.277,2.83,8.696,6.335,10.996c1.651,1.074,3.665,1.644,5.821,1.644l0,0c3.504,0,7.084-1.463,9.61-3.923
		c2.069-2.036,3.58-5.344,4.046-8.851c0.494-3.697-0.247-7.205-2.042-9.618C160.461-58.566,157.936-59.564,155.087-59.564z
		 M159.56-38.588c-2.499,2.443-6.06,3.897-9.517,3.897c-2.137,0-4.122-0.561-5.755-1.634c-3.477-2.273-4.9-6.664-6.297-10.919
		c-0.636-1.958-1.234-3.813-2.021-5.476c-0.239-1.598,0.664-2.527,2.867-2.909c2.431-0.438,5.005-1.179,7.482-1.91
		c2.186-0.646,4.266-1.255,6.183-1.636c0.885-0.17,1.747-0.255,2.585-0.255c2.81,0,5.288,0.978,6.466,2.556
		C165.456-51.646,163.652-42.588,159.56-38.588z"/>
	<path d="M9.605-2.968c0.646,1.228,1.31,2.491,1.86,3.746c0.494,1.074,0.988,2.205,1.472,3.309
		c2.954,6.719,6.003,13.676,10.448,19.254c1.697,2.141,3.76,4.182,5.744,6.18c1.909,1.891,3.703,3.668,5.138,5.473
		c0.704,0.854,1.302,1.797,1.88,2.709c1.227,1.901,2.384,3.697,4.312,4.933l0.02,0.009l0.55-0.037
		c7.37-0.438,13.742-0.816,20.532-2.053c4.824-0.874,8.243-1.816,10.132-2.784c3.903-2.007,4.968-5.587,6.106-9.392
		c0.125-0.389,0.249-0.789,0.362-1.187c1.652-5.38,4.045-10.835,10.247-14.248l0.019-0.03c0.048-0.055,0.095-0.111,0.152-0.168
		c1.282-0.676,2.563-1.359,3.855-2.044c2.241-1.178,4.558-2.415,6.847-3.593c0.988-0.514,1.966-1.046,2.936-1.548
		c1.5-0.808,3.058-1.636,4.596-2.405c1.063-0.515,2.003-1.227,2.935-1.91c0.228-0.171,0.466-0.352,0.692-0.523
		c0.855-0.627,1.806-1.265,2.888-1.683c2.033-0.798,4.283-0.894,6.449-0.997c1.88-0.076,3.817-0.172,5.641-0.703
		c1.737-0.504,2.944-0.951,3.95-2.435c3.258-4.752,1.605-8.306-1.063-12.802c-2.811-4.713-6.23-8.393-10.171-10.921
		c-0.702-0.456-1.472-0.816-2.213-1.159c-0.825-0.39-1.671-0.789-2.432-1.321c-0.883-0.608-1.737-1.273-2.563-1.921
		c-0.675-0.522-1.357-1.062-2.062-1.576c-2.857-2.063-6.277-4.354-10.114-5.703c-1.271-0.446-2.781-0.532-3.826-0.532
		c-1.054,0-2.155,0.096-3.096,0.277c-1.188,0.227-2.146,0.75-3.162,1.31c-0.428,0.238-0.884,0.485-1.35,0.711
		c-0.513,0.229-1.045,0.41-1.558,0.591c-0.674,0.23-1.348,0.466-1.976,0.818c-1.557,0.854-3.066,1.854-4.52,2.822
		c-1.405,0.932-2.858,1.891-4.35,2.728c-7.047,3.963-13.087,6.196-18.966,7.052c-1.757,0.255-3.542,0.389-5.289,0.389
		c-2.193,0-4.379-0.199-6.496-0.598c-1.652-0.304-3.352-0.781-5.004-1.244c-2.896-0.81-5.879-1.646-8.804-1.646
		c-1.614,0-3.067,0.237-4.444,0.753c-2.792,1.025-5.281,3.154-7.921,5.416c-1.349,1.149-2.734,2.337-4.245,3.469
		c-0.342,0.246-0.769,0.542-1.254,0.873c-1.072,0.761-2.411,1.693-3.561,2.661c-2.137,1.835-2.726,3.508-2.023,5.799
		C7.497-6.967,8.513-5.019,9.605-2.968z M9.007-14.543c1.148-0.978,2.479-1.899,3.561-2.659c0.483-0.334,0.902-0.628,1.244-0.884
		c1.521-1.123,2.916-2.32,4.264-3.469c2.621-2.254,5.101-4.375,7.873-5.4c1.367-0.495,2.812-0.751,4.407-0.751
		c2.906,0,5.878,0.837,8.766,1.655c1.661,0.466,3.361,0.942,5.022,1.255c2.128,0.388,4.312,0.588,6.516,0.588
		c1.747,0,3.542-0.125,5.299-0.391c5.917-0.854,11.957-3.108,19.022-7.07c1.491-0.837,2.944-1.806,4.359-2.727
		c1.444-0.97,2.963-1.958,4.5-2.813c0.628-0.342,1.303-0.589,1.957-0.81c0.523-0.18,1.055-0.36,1.567-0.605
		c0.475-0.219,0.931-0.477,1.358-0.705c1.016-0.551,1.965-1.083,3.125-1.302c0.939-0.18,2.032-0.285,3.076-0.285
		c1.035,0,2.525,0.104,3.789,0.541c3.808,1.341,7.237,3.631,10.076,5.695c0.693,0.504,1.396,1.035,2.061,1.568
		c0.835,0.636,1.69,1.301,2.564,1.919c0.778,0.534,1.632,0.941,2.46,1.332c0.731,0.341,1.491,0.693,2.184,1.149
		c3.933,2.528,7.342,6.188,10.133,10.872c2.65,4.469,4.283,7.994,1.074,12.679c-0.988,1.454-2.176,1.882-3.875,2.376
		c-1.814,0.541-3.752,0.619-5.612,0.714c-2.185,0.085-4.436,0.19-6.506,0.997c-1.083,0.419-2.032,1.064-2.897,1.691
		c-0.246,0.172-0.474,0.352-0.702,0.525c-0.922,0.684-1.87,1.396-2.905,1.908c-1.558,0.76-3.105,1.587-4.605,2.386
		c-0.96,0.513-1.957,1.056-2.945,1.558c-2.289,1.189-4.605,2.406-6.838,3.594c-1.291,0.693-2.572,1.379-3.864,2.052l-0.02,0.01
		c-0.047,0.049-0.113,0.114-0.161,0.183c-6.229,3.449-8.623,8.924-10.284,14.322c-0.124,0.398-0.249,0.799-0.362,1.188
		c-1.13,3.771-2.203,7.338-6.05,9.305c-1.89,0.979-5.278,1.92-10.095,2.783c-6.78,1.235-13.152,1.618-20.521,2.054l-0.504,0.028
		c-1.899-1.215-3.049-2.983-4.264-4.875c-0.578-0.913-1.188-1.854-1.881-2.719c-1.453-1.804-3.246-3.603-5.146-5.482
		c-1.986-1.997-4.057-4.049-5.736-6.178c-4.436-5.569-7.492-12.519-10.438-19.219c-0.483-1.102-0.978-2.233-1.462-3.309
		c-0.568-1.253-1.234-2.526-1.88-3.752C8.636-5.086,7.62-7.007,7.03-8.897C6.348-11.122,6.907-12.754,9.007-14.543z"/>
	<path d="M20.84,5.654l0.247,0.94c2.573,9.582,6.392,15.265,14.102,20.92l0.182,0.141c4.148,3.043,7.74,5.685,11.729,6.947
		c1.993,0.647,4.435,0.979,7.046,0.979c0.009,0,0.009,0,0.009,0c3.467,0,7.001-0.606,9.44-1.614
		c6.448-2.671,8.814-8.316,11.529-14.875c3.571-8.582,9.83-19.683,19.316-23.846c1.719-0.751,3.382-0.902,5.138-1.064
		c0.674-0.057,1.376-0.133,2.089-0.227c2.688-0.381,5.688-0.932,9.193-1.691c0.495-0.098,0.988-0.211,1.481-0.324
		c2.563-0.571,5.954-2.188,7.064-4.849c0.828-1.966,0.704-3.762-0.331-5.333c-3.097-4.656-13.762-6.251-18.14-6.262h-0.085
		c-1.937,0-3.923,0.2-5.84,0.399c-1.092,0.114-2.213,0.238-3.295,0.303c-1.843,0.134-3.344,0.656-5.195,1.816
		c-1.909,1.197-3.96,1.768-6.438,1.768c-1.853,0-3.732-0.304-5.718-0.619c-0.599-0.104-1.226-0.199-1.852-0.294
		c-2.603-0.379-5.385-0.55-8.785-0.55c-2.108,0-4.235,0.066-6.286,0.133c-2.043,0.056-4.141,0.124-6.212,0.124
		c-3.77,0-6.809-0.228-9.601-0.712c-0.816-0.153-1.7-0.363-2.64-0.58c-2.013-0.485-4.294-1.039-6.581-1.039
		c-1.264,0-2.395,0.154-3.457,0.476c-5.29,1.598-9.717,8.069-10.533,13.124c-0.303,1.894-0.256,3.832,0.134,6.104
		C19.159-0.59,19.976,2.443,20.84,5.654z M18.551-10.132c0.808-5.018,5.185-11.434,10.429-13.02
		c1.072-0.313,2.184-0.477,3.428-0.477c2.279,0,4.547,0.54,6.552,1.026c0.932,0.228,1.823,0.438,2.65,0.59
		c2.791,0.495,5.84,0.712,9.619,0.712c2.071,0,4.169-0.058,6.212-0.123c2.051-0.067,4.178-0.132,6.286-0.132
		c3.381,0,6.173,0.18,8.766,0.549c0.627,0.105,1.254,0.2,1.853,0.295c1.994,0.314,3.874,0.608,5.736,0.608
		c2.497,0,4.576-0.56,6.515-1.768c1.832-1.149,3.313-1.665,5.127-1.797c1.084-0.086,2.204-0.19,3.296-0.304
		c1.908-0.2,3.903-0.4,5.831-0.4h0.085c4.359,0.011,14.958,1.586,18.024,6.197c1.018,1.53,1.131,3.289,0.324,5.228
		c-1.093,2.612-4.436,4.201-6.97,4.771c-0.485,0.104-0.979,0.209-1.474,0.323c-3.504,0.752-6.506,1.304-9.192,1.683
		c-0.703,0.096-1.405,0.162-2.08,0.219c-1.766,0.171-3.448,0.323-5.175,1.083c-9.535,4.173-15.804,15.302-19.394,23.913
		c-2.707,6.52-5.053,12.156-11.452,14.797c-2.431,1.008-5.937,1.606-9.394,1.606h-0.009c-2.602,0-5.023-0.332-7.009-0.958
		c-3.969-1.256-7.541-3.889-11.699-6.939l-0.182-0.143c-7.673-5.635-11.48-11.291-14.045-20.843l-0.247-0.942
		c-0.874-3.21-1.69-6.252-2.279-9.693C18.284-6.331,18.247-8.26,18.551-10.132z"/>
	<path d="M164.24,3.325l-0.019,0.028c-0.295,0.532-0.579,0.989-0.836,1.39c-0.893,1.436-1.424,2.309-1.7,4.686
		c-0.209,1.881-0.133,3.811-0.057,5.684c0.086,2.202,0.181,4.485-0.199,6.737c-1.311,7.964-7.646,16.175-14.739,19.095
		c-0.685,0.274-1.624,0.635-2.27,0.76c-0.513,0.086-0.997,0.143-1.453,0.143l0,0c-4.169,0-5.128-4.105-6.05-8.068
		c-0.218-0.885-0.426-1.798-0.675-2.644c-0.949-3.259-2.23-5.417-4.14-7.003c-1.928-1.58-4.521-2.605-8.403-3.327
		c-1.577-0.284-3.031-0.43-4.437-0.43c-2.707,0-5.279,0.505-8.632,1.684c-0.152,0.048-0.285,0.095-0.428,0.151
		c-1.861,0.639-3.447,1.188-4.567,2.927c-2.147,3.365-3.894,8.802-3.068,12.651c0.808,3.773,3.543,4.534,6.43,5.312
		c0.561,0.152,1.12,0.314,1.691,0.485c0.882,0.293,1.585,0.59,2.202,0.941c4.369,2.452,9.183,4.676,15.186,6.994
		c5.09,1.967,7.56,6.302,9.942,10.465c2.326,4.049,4.721,8.239,9.497,10.236c0.731,0.303,1.548,0.465,2.44,0.465l0,0
		c1.055,0,2.222-0.229,3.477-0.667c3.41-1.187,6.457-4.846,8.736-7.896c3.571-4.789,8.006-10.748,13.259-14.579
		c0.142-0.096,0.274-0.19,0.417-0.284v-0.162c-0.161,0.114-0.323,0.228-0.493,0.351c-5.263,3.831-9.707,9.8-13.287,14.6
		c-2.26,3.04-5.299,6.681-8.67,7.86c-1.245,0.425-2.402,0.645-3.438,0.645l0,0c-0.873,0-1.671-0.15-2.394-0.445
		c-4.729-1.987-7.121-6.149-9.43-10.189c-2.394-4.191-4.891-8.525-10.019-10.512c-5.992-2.319-10.808-4.543-15.166-6.995
		c-0.617-0.353-1.331-0.656-2.232-0.94c-0.55-0.181-1.131-0.334-1.681-0.485c-2.858-0.789-5.557-1.529-6.345-5.228
		c-0.816-3.82,0.921-9.21,3.06-12.553c1.082-1.693,2.658-2.254,4.49-2.872c0.143-0.057,0.285-0.104,0.438-0.151
		c3.333-1.188,5.896-1.684,8.584-1.684c1.396,0,2.84,0.143,4.397,0.429c7.492,1.378,10.636,3.964,12.459,10.245
		c0.247,0.836,0.466,1.75,0.665,2.623c0.941,4.021,1.918,8.165,6.183,8.165l0,0c0.466,0,0.959-0.038,1.472-0.133
		c0.656-0.124,1.615-0.485,2.299-0.771c3.514-1.444,6.941-4.201,9.667-7.765c2.688-3.507,4.512-7.565,5.157-11.424
		c0.36-2.263,0.276-4.555,0.189-6.757c-0.076-1.873-0.152-3.803,0.067-5.675c0.256-2.349,0.797-3.212,1.681-4.638
		c0.237-0.391,0.521-0.846,0.835-1.379c2.499-2.033,5.471-3.08,8.813-3.08c0.883,0,1.775,0.075,2.697,0.229V0.437
		c-0.922-0.144-1.814-0.217-2.697-0.217C169.769,0.22,166.776,1.263,164.24,3.325z"/>
	<path d="M168.78,12.708c-0.655,1.908-0.778,3.885-0.922,6.167c-0.047,0.788-0.094,1.616-0.18,2.509
		c-0.305,3.461-0.969,7.023-1.624,10.473c-0.637,3.412-1.244,6.636-1.358,9.173v0.028l0.029,0.019
		c0.397,0.295,0.825,0.579,1.329,0.579c0.094,0,0.189-0.009,0.275-0.038l0.019-0.009c1.273-0.73,2.631-1.397,3.951-2.043
		c1.88-0.912,3.788-1.844,5.546-3.03V36.38c-1.768,1.209-3.704,2.15-5.594,3.072c-1.319,0.646-2.687,1.312-3.96,2.052
		c-0.077,0.02-0.153,0.02-0.219,0.02c-0.466,0-0.873-0.257-1.244-0.523c0.113-2.519,0.712-5.722,1.349-9.124
		c0.656-3.451,1.329-7.014,1.634-10.482c0.084-0.895,0.133-1.721,0.171-2.509c0.143-2.283,0.266-4.24,0.921-6.14
		c0.893-2.613,3.067-4.316,5.537-4.316c0.466,0,0.94,0.068,1.405,0.182V8.487c-0.465-0.115-0.939-0.171-1.405-0.171
		C171.924,8.316,169.702,10.036,168.78,12.708z"/>
	<path d="M119.673,29.862c-2.395,0-4.816,1.178-4.835,3.811v0.02c0.74,2.584,4.321,5.731,7.436,5.731l0,0
		c0.779,0,1.474-0.202,2.081-0.581c0.874-0.579,1.435-1.435,1.624-2.48c0.246-1.35-0.161-2.965-1.036-4.143
		C123.88,30.772,121.848,29.862,119.673,29.862z M125.855,36.333c-0.182,1.009-0.732,1.846-1.577,2.396
		c-0.57,0.381-1.243,0.57-2.005,0.57c-3.066,0-6.581-3.088-7.312-5.626c0.027-2.547,2.384-3.678,4.711-3.678
		c2.136,0,4.121,0.873,5.176,2.299C125.693,33.444,126.092,35.022,125.855,36.333z"/>
	<path d="M161.42,45.649l-0.027-0.01c-0.229-0.086-0.485-0.124-0.742-0.124c-1.072,0-2.231,0.675-3.342,1.321
		c-0.418,0.237-0.846,0.484-1.264,0.692c-0.237,0.123-0.476,0.237-0.731,0.36c-3.665,1.799-8.68,4.268-8.329,10.133
		c0.504,1.824,2.023,3.67,4.284,3.67l0,0c0.199,0,0.418-0.021,0.646-0.058c4.102-1.703,6.553-6.465,8.243-10.446l0.123-0.285
		c0.76-1.786,1.615-3.791,1.149-5.226L161.42,45.649z M160.166,50.848l-0.124,0.293c-1.681,3.944-4.12,8.697-8.166,10.371
		c-0.209,0.026-0.408,0.047-0.607,0.047l0,0c-2.185,0-3.666-1.795-4.16-3.554c-0.352-5.771,4.635-8.213,8.262-9.998
		c0.247-0.126,0.504-0.24,0.731-0.362c0.418-0.201,0.846-0.457,1.273-0.694c1.092-0.646,2.231-1.301,3.275-1.301
		c0.228,0,0.456,0.028,0.676,0.095C161.752,47.13,160.907,49.108,160.166,50.848z"/>
	<path d="M116.357,90.631c-1.205-1.111-2.421-1.69-3.599-1.69c-2.783,0-4.635,3.184-5.024,6.319
		c-0.294,2.387-0.229,4.952,0.181,7.07c0.398,2.083,1.234,3.129,2.964,3.727c0.389,0.133,0.864,0.258,1.435,0.371
		c0.919,0.19,1.728,0.285,2.477,0.285l0,0c2.006,0,3.467-0.694,4.351-2.063c1.017-1.567,0.854-5.208,0.599-7.118
		C119.359,94.804,118.134,92.275,116.357,90.631z M119.026,104.584c-0.854,1.331-2.289,1.996-4.236,1.996
		c-0.739,0-1.548-0.085-2.449-0.276c-0.569-0.114-1.035-0.238-1.425-0.371c-1.7-0.579-2.479-1.558-2.868-3.631
		c-0.418-2.101-0.476-4.655-0.18-7.011c0.379-3.093,2.184-6.217,4.891-6.217c1.139,0,2.327,0.55,3.515,1.652
		c1.747,1.636,2.972,4.117,3.333,6.814C119.844,99.309,120.033,103.044,119.026,104.584z"/>
	<path d="M-84.754,133.001c1.215-0.219,2.241-0.475,3.239-0.714c1.215-0.293,2.364-0.58,3.845-0.806
		c1.358-0.199,2.793-0.306,4.189-0.409c3.125-0.201,6.354-0.418,9.107-1.862c3.466-1.815,3.827-6.436,2.639-10.209
		c-2.003-6.396-4.586-10.814-7.9-13.515c-1.301-1.054-2.527-2.271-3.704-3.46c-2.385-2.367-4.844-4.817-8.043-6.109
		c-2.442-0.999-5.252-1.73-7.969-2.434c-1.643-0.428-3.333-0.875-4.938-1.371c-0.75-0.227-1.567-0.521-2.422-0.845
		c-0.466-0.171-0.949-0.342-1.443-0.512v0.133c0.475,0.17,0.94,0.343,1.396,0.503c0.865,0.313,1.681,0.619,2.432,0.846
		c1.614,0.495,3.304,0.941,4.938,1.36c2.716,0.713,5.517,1.442,7.967,2.433c3.172,1.292,5.622,3.735,7.988,6.082
		c1.187,1.188,2.421,2.414,3.722,3.469c3.295,2.682,5.86,7.083,7.854,13.467c1.168,3.718,0.827,8.271-2.574,10.038
		c-2.734,1.435-5.945,1.652-9.06,1.87c-1.395,0.086-2.839,0.192-4.198,0.4c-1.49,0.238-2.697,0.524-3.865,0.809
		c-0.988,0.248-2.003,0.494-3.218,0.714c-2.232,0.397-4.502,0.702-6.706,0.987c-2.317,0.314-4.578,0.619-6.676,1.008v0.134
		c2.098-0.4,4.359-0.705,6.694-1.009C-89.257,133.705-86.986,133.409-84.754,133.001z"/>
	<path d="M-87.623,125.312c2.887-0.815,5.869-1.652,8.708-2.898c2.801-1.215,5.642-2.642,6.904-5.512
		c1.634-3.744,0.038-7.784-4.273-10.778c-0.75-0.521-1.454-1.035-2.146-1.539c-2.886-2.121-5.613-4.115-9.544-4.877
		c-2.545-0.473-6.315-0.769-10.181-0.864v0.134c3.855,0.075,7.616,0.37,10.161,0.855c3.894,0.76,6.611,2.747,9.487,4.855
		c0.693,0.505,1.406,1.026,2.146,1.54c4.265,2.966,5.84,6.938,4.227,10.617c-1.234,2.822-4.055,4.247-6.828,5.444
		c-2.84,1.244-5.812,2.082-8.7,2.9c-1.5,0.418-3.058,0.863-4.577,1.35c-1.938,0.627-3.961,1.026-5.917,1.396v0.133
		c1.975-0.379,4.008-0.769,5.955-1.405C-90.689,126.179-89.132,125.731-87.623,125.312z"/>
	<path d="M-88.543,140.434c2.915,0.114,5.917,0.209,8.851-0.085c2.697-0.277,5.176-0.827,7.579-1.378
		c0.598-0.123,1.187-0.267,1.794-0.39c0.446-0.106,0.884-0.202,1.34-0.296c4.576-0.979,9.316-1.975,13.171-4.608
		c4.492-3.052,5.081-9.456,3.029-13.878c-1.871-4.049-5.006-7.25-8.034-10.35c-2.516-2.557-5.119-5.207-6.979-8.345
		c-0.855-1.14-1.56-2.242-2.242-3.307c-2.203-3.422-3.941-6.12-8.566-7.205c-8.908-2.081-16.601-3.876-18.035-12.763
		c-0.502-3.147,0.19-5.607,0.855-7.984c0.532-1.89,1.035-3.678,0.922-5.694l-0.01-0.027l-0.02-0.011
		c-0.237-0.218-0.466-0.446-0.683-0.674c-0.295-0.304-0.599-0.618-0.941-0.874l-0.019-0.019h-0.028
		c-0.608,0.038-1.14,0.123-1.596,0.227v0.125c0.446-0.096,0.977-0.181,1.586-0.22c0.323,0.258,0.617,0.553,0.902,0.846
		c0.219,0.22,0.436,0.456,0.675,0.658c0.114,1.995-0.379,3.764-0.912,5.625c-0.665,2.395-1.359,4.866-0.855,8.041
		c1.444,8.972,9.174,10.778,18.129,12.869c4.579,1.065,6.306,3.752,8.482,7.147c0.683,1.073,1.405,2.166,2.25,3.306
		c1.86,3.139,4.472,5.797,6.989,8.374c3.02,3.09,6.154,6.273,8.025,10.302c2.013,4.383,1.453,10.702-2.992,13.734
		c-3.855,2.604-8.565,3.621-13.124,4.581c-0.456,0.095-0.902,0.199-1.348,0.284c-0.599,0.135-1.197,0.269-1.796,0.409
		c-2.393,0.533-4.872,1.094-7.568,1.37c-2.924,0.304-5.917,0.189-8.822,0.086c-3.372-0.116-6.563-0.229-9.62,0.236v0.133
		C-95.105,140.216-91.907,140.329-88.543,140.434z"/>
	<path d="M0.155,111.656c0.419,0.198,0.809,0.379,1.121,0.617c1.491,1.082,2.764,2.563,3.57,3.63
		c2.041,2.672,3.258,5.237,4.046,8.602c1.11,4.705,4.055,6.567,8.776,8.203c2.695,0.931,5.688,1.435,8.648,1.435
		c1.502,0,2.965-0.134,4.352-0.38c5.09-0.913,8.356-3.993,8.955-8.478c0.134-0.932,0.304-1.91,0.475-2.853
		c0.693-3.803,1.406-7.737-0.797-11.244c-1.805-2.853-5.215-3.251-8.633-3.251c-0.656,0-1.33,0.021-1.957,0.03
		c-0.626,0.019-1.273,0.038-1.879,0.038c-1.236,0-2.139-0.068-2.926-0.18c-2.725-0.439-5.442-1.104-8.044-1.751
		c-4.321-1.054-8.395-2.07-12.469-2.07c-0.864,0-1.719,0.057-2.527,0.142c-1.035,0.125-1.966,1.018-2.526,2.404
		c-0.513,1.292-0.664,3.022,0.152,4.012C-1.099,111.046-0.452,111.351,0.155,111.656z M-1.535,106.599
		c0.532-1.34,1.435-2.205,2.413-2.318c0.808-0.086,1.653-0.143,2.517-0.143c4.064,0,8.12,0.997,12.431,2.061
		c2.621,0.647,5.328,1.314,8.062,1.739c0.798,0.133,1.709,0.183,2.945,0.183c0.605,0,1.253-0.011,1.879-0.02
		c0.637-0.02,1.301-0.03,1.957-0.03c3.381,0,6.752,0.382,8.519,3.187c2.174,3.458,1.472,7.373,0.788,11.148
		c-0.171,0.948-0.352,1.928-0.475,2.859c-0.599,4.42-3.818,7.461-8.852,8.374c-1.377,0.255-2.838,0.37-4.332,0.37
		c-2.941,0-5.924-0.494-8.611-1.416c-4.683-1.625-7.598-3.469-8.689-8.126c-0.799-3.375-2.014-5.96-4.076-8.648
		c-0.795-1.057-2.078-2.558-3.578-3.649c-0.333-0.248-0.751-0.437-1.14-0.638c-0.617-0.296-1.245-0.597-1.624-1.043
		C-2.076,109.678-2.124,108.081-1.535,106.599z"/>
	<path d="M23.612,128.802c1.51,0,3.098-0.267,3.826-0.505c0.22-0.075,0.447-0.161,0.647-0.256c1.234-0.581,1.946-1.57,1.976-2.776
		c0.018-0.94-0.4-1.949-1.111-2.68c-0.979-1.009-2.356-1.377-3.676-0.979c-1.424,0.438-4.415,2.14-5.299,4.002
		c-0.313,0.646-0.352,1.254-0.124,1.816C20.317,128.553,22.151,128.802,23.612,128.802z M20.079,125.664
		c0.884-1.825,3.818-3.518,5.224-3.934c0.353-0.105,0.702-0.154,1.035-0.154c0.94,0,1.833,0.382,2.518,1.094
		c0.702,0.714,1.101,1.684,1.072,2.595c-0.028,1.15-0.702,2.102-1.899,2.653c-0.199,0.094-0.407,0.18-0.627,0.256
		c-0.73,0.237-2.289,0.495-3.789,0.495c-2.023,0-3.305-0.458-3.637-1.283C19.748,126.854,19.785,126.273,20.079,125.664z"/>
	<path d="M62.93,176.901c-0.028-0.295-0.02-0.588-0.01-0.912c0.01-0.333,0.019-0.665-0.019-1.007
		c-0.248-2.073-1.093-4.611-1.977-7.29c-0.911-2.738-1.851-5.56-2.299-8.278c-0.18-1.14-0.303-2.368-0.427-3.556
		c-0.369-3.878-0.75-7.869-3.456-9.656c-1.226-0.816-3.02-1.188-5.632-1.188c-1.462,0-3.038,0.114-4.588,0.219
		c-0.598,0.038-1.205,0.086-1.803,0.123c-5.347,0.323-16.478,1.712-20.362,4.657c-5.299,4.021-5.935,10.921-5.85,17.156
		c0.627,7.841,5.983,12.23,11.881,16.66h0.209c-5.926-4.447-11.33-8.819-11.977-16.67c-0.074-6.188,0.561-13.06,5.822-17.042
		c3.846-2.927,14.947-4.316,20.285-4.638c0.599-0.028,1.206-0.086,1.813-0.124c1.539-0.113,3.116-0.219,4.568-0.219
		c2.593,0,4.359,0.372,5.565,1.171c2.649,1.747,3.029,5.71,3.409,9.56c0.104,1.188,0.228,2.423,0.417,3.564
		c0.448,2.728,1.387,5.561,2.299,8.307c0.893,2.67,1.738,5.19,1.967,7.252c0.037,0.333,0.028,0.675,0.019,0.988
		c-0.009,0.334-0.019,0.637,0.019,0.931c0.256,2.043-0.019,4.478-0.713,6.92h0.135C62.91,181.379,63.194,178.937,62.93,176.901z"/>
	<path d="M-80.044,177.812c-0.076-1.804-0.029-3.62,0.038-5.378c0.086-2.689,0.171-5.246-0.294-7.3
		c-1.131-5.045-7.483-8.647-13.059-10.34c-1.652-0.505-3.171-0.676-4.795-0.543v0.124c1.605-0.124,3.124,0.047,4.767,0.544
		c5.537,1.681,11.843,5.255,12.964,10.235c0.465,2.043,0.379,4.59,0.293,7.27c-0.066,1.768-0.123,3.584-0.037,5.388
		c0.094,2.149,0.019,4.174-0.19,6.018h0.133C-80.026,181.986-79.94,179.962-80.044,177.812z"/>
	<path d="M56.319,175.733c-0.237-1.227-0.684-2.709-1.158-4.288c-0.674-2.271-1.454-4.848-1.843-7.459
		c-0.113-0.742-0.21-1.446-0.304-2.131c-0.618-4.466-1.102-7.991-4.083-10.329c-2.033-1.589-5.831-2.539-10.162-2.539
		c-5.271,0-10.171,1.331-13.114,3.563c-4.835,3.66-5.025,10.114-4.34,14.885c1.062,5.085,4.709,7.698,9.334,11.033
		c2.156,1.541,4.388,3.146,6.658,5.199c0.057,0.048,0.113,0.115,0.18,0.162h0.19c-0.104-0.076-0.19-0.171-0.294-0.256
		c-2.27-2.062-4.598-3.735-6.648-5.217c-4.607-3.3-8.243-5.912-9.297-10.949c-0.694-4.734-0.505-11.131,4.301-14.762
		c2.906-2.203,7.789-3.526,13.03-3.526c4.303,0,8.062,0.932,10.086,2.511c2.952,2.299,3.418,5.797,4.026,10.235
		c0.104,0.692,0.189,1.403,0.303,2.129c0.399,2.633,1.17,5.217,1.854,7.479c0.475,1.578,0.92,3.062,1.148,4.276
		c0.494,2.606,0.304,5.465-0.503,8.079h0.132C56.624,181.198,56.813,178.336,56.319,175.733z"/>
	<path d="M-35.999,168.167c-0.531-1.873-0.939-5.39-0.636-7.832c0.057-0.483,0.189-1.026,0.342-1.598
		c0.503-1.976,1.13-4.426-1.349-6.204l-0.019-0.01h-0.01c-4.597-0.543-7.389,3.23-9.848,6.558c-0.646,0.885-1.243,1.691-1.872,2.442
		c-2.24,2.349-5.288,4.032-8.528,5.827c-5.005,2.785-10.189,5.663-12.621,11.272c-0.702,1.576-1.301,3.411-1.88,5.207h0.133
		c0.579-1.785,1.178-3.602,1.852-5.159c2.431-5.581,7.587-8.433,12.582-11.206c3.239-1.798,6.297-3.489,8.548-5.864
		c0.636-0.742,1.244-1.568,1.89-2.434c2.44-3.299,5.195-7.043,9.715-6.521c2.384,1.729,1.805,4.03,1.291,6.065
		c-0.151,0.568-0.294,1.12-0.361,1.614c-0.285,2.451,0.105,5.998,0.646,7.868c0.817,2.882,2.014,5.77,3.257,8.85
		c0.912,2.215,1.833,4.485,2.641,6.786h0.133c-0.808-2.317-1.749-4.6-2.651-6.833C-34.003,173.926-35.181,171.028-35.999,168.167z"
		/>
	<path d="M36.718,152.837c-2.849,0-5.659,0.836-7.512,2.243c-2.412,1.814-3.855,4.001-3.59,9.304
		c1.643,6.759,8.967,10.397,15.023,10.397l0,0c0.789,0,1.549-0.056,2.299-0.181h0.02l0.009-0.008
		c0.826-0.675,1.613-1.521,2.394-2.568l0.01-0.026c2.223-6.872,2.117-12.584-0.275-15.664
		C43.385,154.109,40.327,152.837,36.718,152.837z M45.255,171.96c-0.778,1.026-1.537,1.853-2.345,2.527
		c-0.741,0.105-1.5,0.171-2.271,0.171l0,0c-6.02,0-13.275-3.612-14.891-10.284c-0.266-5.245,1.158-7.403,3.523-9.188
		c1.833-1.389,4.615-2.216,7.445-2.216c3.571,0,6.582,1.254,8.271,3.44C47.364,159.452,47.449,165.126,45.255,171.96z"/>
	<path d="M5.493,171.779c-0.96-4.619-1.938-9.38-4.948-13.175c-1.548-1.947-3.457-2.697-5.879-2.346
		c-4.976,0.739-10.892,5.245-14.073,7.679c-3.561,3.717-4.901,8.212-4.113,13.743c0.286,1.969,0.836,4.076,1.417,6.149h0.132
		c-0.58-2.082-1.149-4.199-1.416-6.169c-0.789-5.492,0.542-9.96,4.065-13.638c3.162-2.405,9.06-6.909,14.007-7.632
		c0.379-0.058,0.751-0.086,1.102-0.086c1.863,0,3.381,0.779,4.654,2.385c2.992,3.765,3.979,8.508,4.927,13.107
		c0.847,4.134,1.719,8.422,4.095,11.87c0.038,0.068,0.066,0.115,0.113,0.162h0.152c-0.057-0.066-0.113-0.151-0.171-0.227
		C7.211,180.17,6.338,175.904,5.493,171.779z"/>
	<path d="M37.335,161.542l-0.01-0.019c-0.484-0.799-1.244-1.283-2.031-1.283c-0.247,0-0.513,0.048-0.76,0.151l-0.008,0.011
		c-0.477,0.352-0.809,0.932-0.865,1.473c-0.039,0.392,0.075,0.752,0.332,1.027c0.16,0.133,0.332,0.284,0.494,0.477l0.01,0.009h0.018
		c0.248,0.095,0.504,0.142,0.75,0.142l0,0c0.826,0,1.596-0.486,2.053-1.284l0.008-0.025c0.02-0.231,0.01-0.469,0.01-0.667V161.542z
		 M37.192,162.198c-0.436,0.759-1.148,1.198-1.928,1.198l0,0c-0.228,0-0.465-0.039-0.701-0.115c-0.163-0.18-0.333-0.341-0.486-0.466
		c-0.217-0.257-0.332-0.57-0.293-0.932c0.057-0.503,0.369-1.046,0.799-1.377c0.246-0.096,0.482-0.134,0.711-0.134
		c0.74,0,1.453,0.456,1.908,1.197C37.212,161.76,37.212,161.979,37.192,162.198z"/>
	<path d="M-91.849,167.227c-1.585-1.949-3.067-2.747-6.306-3.354v0.133c3.182,0.598,4.644,1.377,6.211,3.298
		c2.763,3.412,4.463,9.762,4.872,14.218c0.077,0.826,0.114,1.598,0.114,2.31h0.124c0-0.712-0.028-1.493-0.104-2.317
		C-87.348,177.035-89.066,170.646-91.849,167.227z"/>
	<path d="M-10.129,168.898c-0.181,0-0.371,0-0.561,0.021c-1.737,0.142-3.268,0.949-4.436,2.329c-1.661,1.974-2.402,4.998-2.08,8.505
		c0.123,1.35,0.342,2.728,0.646,4.077h0.124c-0.294-1.36-0.522-2.728-0.646-4.086c-0.313-3.479,0.409-6.464,2.051-8.421
		c1.14-1.352,2.641-2.149,4.351-2.291c0.19-0.009,0.37-0.02,0.551-0.02c5.156,0,7.065,6.15,8.746,11.557
		c0.351,1.14,0.693,2.253,1.055,3.261h0.142c-0.37-1.008-0.712-2.138-1.072-3.298C-2.95,175.077-4.869,168.898-10.129,168.898z"/>
	<path d="M-45.154,174.012c-0.865-0.124-1.737-0.181-2.611-0.181c-3.495,0-6.923,0.95-9.907,2.748
		c-2.914,1.768-5.279,4.268-6.866,7.251h0.143c3.258-6.103,9.583-9.874,16.629-9.874c0.864,0,1.736,0.065,2.601,0.17
		c3.752,0.515,7.456,3.63,10.134,8.546c0.208,0.38,0.418,0.769,0.598,1.158h0.134c-0.191-0.407-0.4-0.816-0.618-1.217
		C-37.623,177.661-41.345,174.524-45.154,174.012z"/>
	<path d="M-97.974,179.447c-0.067,0-0.125,0-0.181,0.011v0.114c0.057,0,0.114,0,0.181,0c0.987,0,1.794,0.638,2.297,1.807
		c0.295,0.714,0.456,1.576,0.446,2.451h0.143c0-0.894-0.17-1.785-0.474-2.498C-96.085,180.123-96.94,179.447-97.974,179.447z"/>
	<path d="M-55.04,183.83h0.219c2.003-1.377,4.453-2.168,6.942-2.168c2.45,0,4.711,0.77,6.534,2.168h0.209
		c-1.862-1.483-4.217-2.291-6.743-2.291C-50.461,181.539-52.979,182.367-55.04,183.83z"/>
	<path d="M129.025,171.484c-1.499-2.757-3.065-5.615-4.301-8.574c-0.685-1.614-1.301-3.383-1.956-5.265
		c-2.792-8.031-5.955-17.126-15.756-17.126c-0.123,0-0.256,0-0.39,0c-3.561,0.084-6.912,1.329-9.098,2.367
		c-0.532,0.237-1.082,0.494-1.634,0.761c-1.643,0.75-3.342,1.528-4.871,2.375c-4.453,2.462-9.563,3.658-14.492,4.828l-0.066,0.009
		c-0.419,0.106-0.865,0.211-1.339,0.297c-3.305,0.701-7.417,1.586-8.728,5.426c-0.998,2.965-0.076,6.759,0.807,10.416
		c0.323,1.34,0.628,2.605,0.836,3.804c0.713,4.151,0.77,8.065,0.133,11.63c-0.085,0.458-0.18,0.923-0.294,1.398h0.134
		c0.113-0.465,0.198-0.923,0.283-1.377c0.627-3.574,0.59-7.509-0.133-11.674c-0.218-1.205-0.513-2.47-0.834-3.81
		c-0.893-3.649-1.797-7.423-0.809-10.35c1.281-3.783,5.357-4.64,8.633-5.331c0.475-0.107,0.921-0.2,1.34-0.304l0.065-0.009
		c4.948-1.162,10.067-2.369,14.53-4.84c1.511-0.837,3.211-1.627,4.852-2.386c0.562-0.248,1.102-0.503,1.634-0.753
		c2.176-1.034,5.527-2.271,9.051-2.355c0.134-0.01,0.267-0.01,0.39-0.01c9.706,0,12.85,9.058,15.641,17.062
		c0.647,1.871,1.264,3.648,1.947,5.274c1.255,2.964,2.801,5.816,4.312,8.592c1.282,2.349,2.499,4.562,3.542,6.852
		c1.036,2.28,2.128,4.079,3.276,5.418h0.173c-1.188-1.329-2.28-3.147-3.344-5.465C131.524,176.075,130.31,173.851,129.025,171.484z"
		/>
	<path d="M172.331,147.458c-8.071,3.05-13.466,8.811-15.583,16.66c-0.6,2.186-1.007,4.99-1.415,7.698
		c-0.505,3.365-1.027,6.844-1.871,9.258c-0.371,1.035-0.884,1.958-1.548,2.756h0.151c0.646-0.798,1.158-1.699,1.511-2.709
		c0.862-2.434,1.377-5.91,1.88-9.285c0.409-2.709,0.826-5.512,1.415-7.689c2.108-7.792,7.464-13.534,15.507-16.574
		c0.666-0.247,1.807-0.561,2.774-0.762c0.229-0.039,0.456-0.086,0.693-0.113v-0.132c-0.247,0.047-0.483,0.074-0.723,0.121
		C174.155,146.888,173.006,147.201,172.331,147.458z"/>
	<path d="M164.487,89.453c-2.582,0.579-5.071,1.836-7.474,3.059c-2.412,1.219-4.901,2.481-7.464,3.022
		c-6.639,1.437-9.099-4.38-11.264-9.531c-0.313-0.731-0.607-1.435-0.902-2.112c-1.234-2.687-2.632-5.149-4.178-7.313
		c-3.106-4.364-6.677-7.845-10.627-10.344c-3.657-2.309-6.743-3.573-9.688-3.962c-4.777-0.637-8.177,0.846-12.09,2.547
		c-0.844,0.37-1.729,0.76-2.631,1.122c-2.582,1.044-5.517,2.234-7.521,4.818c-1.501,1.938-2.641,4.285-3.724,6.566l-0.256,0.514
		c-2.023,4.191-3.504,8.326-5.071,12.697c-0.352,0.988-0.702,1.997-1.045,2.985c-0.94,2.708-1.907,5.512-3.095,8.164
		c-0.884,2.023-2.232,3.783-3.534,5.492c-0.73,0.953-1.48,1.931-2.136,2.947c-1.681,2.566-4.312,4.811-6.866,6.976
		c-0.921,0.789-1.796,1.529-2.612,2.282c-0.513,0.455-1.054,0.932-1.643,1.425c-2.64,2.279-5.631,4.866-6.42,8.146
		c-0.104,0.437-0.199,0.873-0.294,1.292c-0.847,3.669-1.586,6.843-5.251,9.144c-3.468,2.176-7.684,2.881-11.396,3.498
		c-1.758,0.292-3.543,0.521-5.263,0.761c-3.189,0.407-6.19,0.807-8.916,1.52c-6.23,1.663-10.029,5.989-11.292,12.879
		c-1.226,6.719,0.019,14.921,1.406,18.276c1.242,3.021,3.342,5.387,5.857,7.508h0.211c-2.564-2.13-4.692-4.517-5.955-7.564
		c-1.367-3.327-2.622-11.501-1.396-18.203c1.264-6.831,5.015-11.127,11.197-12.763c2.725-0.732,5.727-1.12,8.907-1.539
		c1.72-0.219,3.505-0.449,5.261-0.741c3.724-0.628,7.949-1.331,11.445-3.528c3.722-2.327,4.444-5.521,5.298-9.218
		c0.104-0.419,0.21-0.854,0.305-1.291c0.778-3.242,3.76-5.801,6.382-8.071c0.579-0.503,1.139-0.979,1.642-1.442
		c0.817-0.743,1.682-1.494,2.612-2.271c2.555-2.176,5.194-4.41,6.876-7.006c0.664-1.009,1.415-1.987,2.137-2.938
		c1.301-1.71,2.659-3.487,3.562-5.512c1.188-2.653,2.155-5.466,3.096-8.183c0.342-0.979,0.693-1.997,1.044-2.984
		c1.567-4.363,3.049-8.487,5.071-12.688l0.238-0.513c1.092-2.273,2.222-4.61,3.731-6.551c1.977-2.545,4.892-3.724,7.456-4.761
		c0.911-0.38,1.785-0.761,2.63-1.12c3.903-1.711,7.274-3.186,12.033-2.558c2.925,0.399,5.982,1.645,9.63,3.952
		c3.931,2.492,7.501,5.962,10.598,10.324c1.528,2.146,2.926,4.608,4.15,7.289c0.303,0.665,0.599,1.369,0.912,2.109
		c1.054,2.481,2.23,5.293,3.97,7.242c2.003,2.232,4.433,3.014,7.444,2.365c2.563-0.549,5.062-1.824,7.483-3.048
		c2.402-1.207,4.892-2.472,7.445-3.032c4.218-0.942,8.082,0.151,11.33,1.302v-0.133C172.588,89.605,168.724,88.532,164.487,89.453z"
		/>
	<path d="M157.802,137.487c-3.011,2.928-5.859,5.703-9.593,6.787c-5.185,1.527-9.107-2.292-12.905-5.999
		c-0.229-0.227-0.465-0.455-0.693-0.684c-1.928-1.861-4.234-3.277-6.467-4.638c-1.596-0.979-3.258-1.998-4.749-3.166
		c-1.121-0.884-2.308-1.699-3.456-2.488c-0.779-0.553-1.577-1.104-2.337-1.654c-1.271-0.932-2.156-2.396-3.02-3.82
		c-0.465-0.761-0.94-1.559-1.481-2.233c-1.463-1.883-3.522-3.308-5.528-4.696c-3.664-2.528-7.132-4.924-7.378-9.885
		c-0.142-2.955,0.522-6.624,1.823-10.073c1.244-3.26,3.59-6.795,6.449-9.703c1.946-1.979,3.922-2.9,5.868-2.738
		c3.456,0.295,6.42,3.954,8.613,7.118c1.292,1.863,1.805,3.649,2.337,5.552c0.313,1.102,0.637,2.223,1.13,3.43
		c0.494,1.197,1.093,2.376,1.652,3.517c0.911,1.798,1.833,3.649,2.412,5.636c0.97,3.318,1.159,8.127-0.343,10.9
		c-1.461,2.683-0.769,7.233,0.771,9.62c1.396,2.166,4.89,3.546,7.701,4.657c0.637,0.246,1.226,0.493,1.757,0.713
		c0.247,0.113,0.503,0.218,0.74,0.331c0.913,0.399,1.683,0.761,2.564,0.941c4.359,0.894,7.37-1.197,9.185-6.387
		c1.907-5.454,0.589-10.417-3.724-13.98c-1.311-1.073-2.812-1.9-4.265-2.699c-0.654-0.361-1.338-0.742-1.992-1.13
		c-0.172-0.105-0.343-0.201-0.515-0.313c-1.898-1.132-4.254-2.537-5.555-4.174c-1.946-2.451-3.542-5.104-4.748-7.898
		c-0.607-1.425-1.093-2.88-1.596-4.428c-0.371-1.112-0.75-2.252-1.187-3.412c-0.998-2.643-2.519-4.99-3.601-6.489
		c-2.05-2.796-5.745-6.552-9.42-7.919c-5.813-2.158-13.638,3.582-17.483,7.956c-2.156,2.451-3.553,5.512-4.645,8.172
		c-0.294,0.725-0.58,1.464-0.873,2.177c-1.587,3.99-3.097,7.765-5.604,11.243c-0.808,1.124-1.472,2.319-2.118,3.479
		c-0.465,0.825-0.94,1.7-1.473,2.527c-1.348,2.111-3.399,3.364-5.421,4.411c-0.932,0.484-1.9,0.931-2.831,1.377
		c-2.696,1.255-5.48,2.567-7.75,4.705c-1.442,1.369-2.012,2.813-1.708,4.305c0.503,2.471,3.238,4.325,5.641,5.219
		c4.985,1.862,10.76,1.188,15.841,0.579l0.654-0.066c0.409-0.048,0.808-0.086,1.206-0.133c2.241-0.229,4.369-0.446,6.496-1.664
		c0.342-0.188,0.674-0.38,1.007-0.571c3.22-1.832,6.002-3.43,9.696-4.247c2.316-0.521,5.765-0.474,7.863,0.849
		c1.045,0.643,1.491,1.633,1.966,2.679c0.285,0.645,0.589,1.3,1.025,1.9c1.766,2.31,4.15,4.124,6.459,5.892
		c2.26,1.721,4.605,3.508,6.372,5.762c1.054,1.339,1.937,3.001,2.801,4.6c0.854,1.605,1.748,3.26,2.764,4.532
		c2.1,2.595,4.948,3.488,8.062,2.518c2.696-0.845,5.688-3.135,8.586-5.349c0.445-0.343,0.873-0.676,1.301-0.999
		c1.511-1.141,2.981-2.339,4.406-3.498c3.913-3.184,7.616-6.197,11.786-7.888c1.651-0.666,3.541-1.15,5.564-1.539v-0.134
		c-2.051,0.4-3.951,0.874-5.612,1.56c-4.188,1.69-7.901,4.723-11.824,7.907c-1.424,1.158-2.887,2.346-4.396,3.488
		c-0.428,0.322-0.864,0.655-1.292,0.997c-2.887,2.206-5.869,4.495-8.557,5.33c-3.059,0.953-5.868,0.077-7.921-2.479
		c-1.006-1.256-1.86-2.832-2.753-4.498c-0.864-1.614-1.767-3.287-2.821-4.627c-1.784-2.262-4.121-4.059-6.391-5.788
		c-2.298-1.757-4.672-3.573-6.43-5.872c-0.427-0.571-0.722-1.228-1.016-1.863c-0.484-1.056-0.94-2.063-2.004-2.747
		c-2.137-1.34-5.633-1.389-7.968-0.865c-3.713,0.837-6.506,2.425-9.734,4.277c-0.333,0.181-0.675,0.37-1.008,0.579
		c-2.098,1.189-4.205,1.396-6.447,1.626c-0.389,0.048-0.798,0.095-1.206,0.133l-0.646,0.085c-5.08,0.591-10.825,1.264-15.793-0.59
		c-2.972-1.103-5.155-3.116-5.555-5.121c-0.293-1.446,0.267-2.852,1.681-4.183c2.24-2.119,5.024-3.432,7.701-4.695
		c0.94-0.428,1.909-0.884,2.851-1.37c2.021-1.042,4.102-2.317,5.469-4.464c0.522-0.83,1.007-1.684,1.473-2.521
		c0.646-1.159,1.312-2.357,2.107-3.46c2.526-3.496,4.028-7.28,5.623-11.281c0.284-0.723,0.57-1.443,0.873-2.188
		c1.092-2.64,2.479-5.682,4.616-8.123c3.817-4.344,11.585-10.057,17.342-7.919c3.646,1.351,7.321,5.096,9.354,7.881
		c1.102,1.49,2.611,3.819,3.599,6.452c0.438,1.151,0.817,2.301,1.178,3.402c0.504,1.549,0.987,3.014,1.605,4.438
		c1.206,2.804,2.81,5.467,4.758,7.928c1.319,1.655,3.684,3.071,5.583,4.21c0.182,0.096,0.352,0.201,0.532,0.312
		c0.646,0.391,1.34,0.764,1.994,1.133c1.443,0.79,2.936,1.605,4.237,2.68c4.263,3.526,5.574,8.439,3.692,13.849
		c-1.794,5.123-4.757,7.175-9.05,6.3c-0.854-0.18-1.634-0.521-2.535-0.931c-0.239-0.104-0.495-0.218-0.741-0.342
		c-0.522-0.219-1.13-0.446-1.758-0.703c-2.802-1.112-6.276-2.481-7.644-4.61c-1.511-2.357-2.203-6.833-0.77-9.483
		c1.51-2.796,1.32-7.662,0.352-11.008c-0.57-1.986-1.51-3.849-2.403-5.654c-0.579-1.141-1.158-2.318-1.652-3.517
		c-0.493-1.188-0.816-2.318-1.13-3.413c-0.532-1.909-1.045-3.704-2.355-5.588c-2.213-3.174-5.204-6.871-8.709-7.166
		c-1.983-0.172-3.987,0.76-5.963,2.766c-2.878,2.928-5.232,6.481-6.478,9.753c-1.31,3.468-1.975,7.165-1.832,10.131
		c0.246,5.018,3.894,7.536,7.426,9.979c1.995,1.379,4.055,2.804,5.509,4.667c0.531,0.665,0.988,1.425,1.471,2.233
		c0.865,1.415,1.758,2.889,3.041,3.84c0.769,0.561,1.575,1.121,2.345,1.654c1.14,0.798,2.327,1.626,3.446,2.489
		c1.501,1.18,3.164,2.195,4.769,3.164c2.232,1.368,4.529,2.777,6.438,4.64c0.246,0.228,0.466,0.446,0.702,0.683
		c3.817,3.719,7.77,7.575,13.03,6.027c3.751-1.094,6.619-3.868,9.648-6.815c2.868-2.795,5.851-5.693,9.858-7.374
		c2.563-1.075,5.355-1.693,8.091-2.252v-0.133c-2.754,0.558-5.556,1.188-8.147,2.28
		C163.681,131.786,160.698,134.683,157.802,137.487z"/>
	<path d="M162.475,99.594c-2.062,0.438-4.17,1.482-6.401,2.575c-3.704,1.826-7.521,3.717-11.044,2.614
		c-6.336-1.977-8.767-8.716-10.913-14.646c-0.445-1.217-0.854-2.356-1.301-3.46c-0.978-2.442-2.213-4.714-3.656-6.719
		c-2.25-3.137-5.013-5.077-7.94-7.117c-0.445-0.306-0.882-0.619-1.338-0.933c-2.573-1.835-5.717-3.64-9.345-3.118
		c-1.141,0.161-2.326,0.771-3.467,1.358c-0.721,0.382-1.404,0.722-2.069,0.97c-0.493,0.18-0.998,0.369-1.511,0.562
		c-3.884,1.396-7.9,2.86-10.664,6.006c-0.787,0.902-1.473,2.081-2.128,3.204c-0.342,0.598-0.664,1.149-0.998,1.681
		c-1.375,2.102-2.553,4.42-3.531,6.892c-1.045,2.688-1.663,5.568-2.252,8.363c-0.646,3.014-1.31,6.141-2.516,8.973
		c-1.244,2.906-4.529,4.999-7.437,6.832c-0.787,0.505-1.538,0.979-2.204,1.455c-1.974,1.378-3.693,3.041-5.335,4.657
		c-1.084,1.056-2.205,2.157-3.391,3.155c-2.745,2.319-3.97,6.282-3.221,10.34c1.331,7.11,4.094,8.279,10.076,9.276
		c4.559,0.751,9.868,0.571,16.212-0.532c3.654-0.645,7.132-3.012,10.484-5.284c1.226-0.835,2.374-1.615,3.505-2.291
		c4.709-2.85,10.303-2.253,14.946,1.589c0.598,0.484,1.197,0.969,1.796,1.436c3.532,2.832,6.875,5.503,8.651,9.748
		c0.788,1.855,1.301,3.834,1.805,5.753c0.484,1.872,0.987,3.811,1.746,5.646c1.141,2.755,3.372,5.805,5.831,7.963
		c2.118,1.873,5.328,3.888,8.577,2.936c3.019-0.883,4.795-4.313,6.686-7.945c1.196-2.31,2.449-4.685,4.093-6.662
		c2.137-2.574,4.995-4.903,6.961-6.435l0.2-0.16c4.216-3.271,8.186-6.366,13.447-7.414c0.332-0.075,0.674-0.134,1.016-0.181v-0.133
		c-0.351,0.056-0.693,0.114-1.055,0.18c-5.289,1.056-9.269,4.165-13.475,7.442l-0.22,0.161c-1.965,1.533-4.824,3.879-6.98,6.455
		c-1.651,1.985-2.886,4.381-4.102,6.689c-1.872,3.612-3.647,7.016-6.61,7.878c-3.182,0.943-6.353-1.054-8.452-2.896
		c-2.411-2.121-4.691-5.228-5.793-7.926c-0.76-1.826-1.263-3.766-1.747-5.628c-0.503-1.918-1.016-3.907-1.805-5.771
		c-1.794-4.275-5.308-7.079-8.708-9.797c-0.579-0.467-1.188-0.95-1.776-1.436c-4.7-3.878-10.342-4.466-15.099-1.607
		c-1.141,0.687-2.289,1.465-3.496,2.292c-3.361,2.279-6.829,4.628-10.455,5.264c-6.325,1.121-11.615,1.295-16.164,0.532
		c-5.916-0.978-8.651-2.146-9.972-9.171c-0.75-4.01,0.475-7.925,3.172-10.208c1.187-1.017,2.317-2.108,3.409-3.174
		c1.643-1.605,3.343-3.279,5.309-4.648c0.665-0.465,1.425-0.94,2.204-1.442c2.916-1.846,6.221-3.937,7.482-6.883
		c1.216-2.85,1.88-5.987,2.525-9c0.599-2.795,1.197-5.664,2.252-8.335c0.969-2.462,2.146-4.782,3.515-6.882
		c0.34-0.523,0.665-1.092,1.005-1.683c0.656-1.12,1.331-2.28,2.119-3.183c2.743-3.118,6.742-4.57,10.608-5.979
		c0.503-0.188,1.006-0.37,1.519-0.55c0.675-0.258,1.377-0.629,2.061-0.98c1.14-0.589,2.317-1.188,3.438-1.351
		c3.59-0.511,6.686,1.283,9.259,3.1c0.456,0.321,0.883,0.617,1.329,0.923c2.926,2.052,5.679,3.972,7.911,7.088
		c1.444,2.007,2.659,4.268,3.647,6.711c0.438,1.085,0.845,2.235,1.291,3.451c2.156,5.958,4.596,12.725,11.007,14.721
		c3.562,1.112,7.417-0.788,11.13-2.623c2.231-1.104,4.331-2.13,6.363-2.564c2.887-0.618,8.215-0.866,13.353-0.742v-0.134
		C170.698,98.737,165.361,98.977,162.475,99.594z"/>
	<path d="M159.882-2.034c-3.467,2.403-5.547,5.816-6.173,10.123c-0.247,1.682-0.058,3.523,0.133,5.293
		c0.208,1.863,0.407,3.783,0.114,5.598c-0.323,2.082-1.444,3.943-2.858,4.77c-0.998,0.59-2.1,0.658-3.258,0.219
		c-3.742-4.353-6.801-7.24-11.406-9.122c-1.319-0.532-2.649-0.999-4.311-1.511c-0.808-0.258-1.624-0.525-2.412-0.781
		c-5.005-1.645-10.191-3.336-18.615-2.641c-4.045,0.33-7.094,1.082-9.753,3.773c-1.756,1.777-3.085,3.916-4.35,5.986
		c-0.93,1.483-1.88,3.032-2.972,4.41c-0.561,0.703-1.215,1.398-1.851,2.071c-0.941,0.999-1.93,2.025-2.651,3.166
		c-1.49,2.368-1.557,6.31-0.997,8.962c0.741,3.469,2.954,6.443,5.177,9.2c0.541,0.684,1.062,1.435,1.633,2.225
		c1.481,2.129,3.021,4.323,5.157,5.463c2.345,1.237,5.081,1.247,7.682,1.065c0.902-0.056,1.813-0.312,2.708-0.54
		c1.301-0.354,2.648-0.725,3.95-0.486c4.624,0.826,9.867,4.05,13.22,6.797c1.824,1.48,3.476,3.154,4.909,4.979
		c1.12,1.427,2.193,2.861,3.343,4.4c1.957,2.624,3.979,5.334,6.277,8.013c2.138,2.5,4.919,4.857,9.288,3.346
		c2.479-0.865,4.615-2.347,6.601-3.802c2.934-2.167,5.594-5.199,8.167-8.145c2.346-2.699,4.577-5.247,6.771-6.807
		c0.597-0.428,1.312-0.825,2.44-1.092v-0.125c-1.159,0.258-1.909,0.685-2.517,1.112c-2.213,1.57-4.436,4.117-6.801,6.835
		c-2.554,2.927-5.202,5.968-8.139,8.116c-2.041,1.512-4.102,2.938-6.562,3.782c-4.302,1.492-7.047-0.835-9.154-3.298
		c-2.29-2.679-4.321-5.398-6.269-8.013c-1.148-1.539-2.232-2.984-3.354-4.4c-1.432-1.824-3.085-3.517-4.928-5.008
		c-3.371-2.745-8.632-5.986-13.276-6.815c-1.329-0.236-2.688,0.124-4.008,0.485c-0.883,0.228-1.784,0.477-2.678,0.533
		c-2.583,0.18-5.299,0.18-7.616-1.047c-2.108-1.122-3.637-3.308-5.119-5.415c-0.55-0.8-1.082-1.55-1.634-2.245
		c-2.203-2.726-4.425-5.692-5.146-9.143c-0.551-2.634-0.484-6.53,0.986-8.867c0.705-1.132,1.683-2.157,2.632-3.155
		c0.636-0.666,1.301-1.361,1.852-2.063c1.11-1.396,2.062-2.936,2.974-4.429c1.281-2.072,2.592-4.201,4.349-5.958
		c2.63-2.662,5.65-3.413,9.667-3.745c8.404-0.686,13.581,0.998,18.567,2.642c0.788,0.258,1.604,0.524,2.412,0.779
		c1.652,0.513,2.99,0.979,4.291,1.512c4.598,1.862,7.656,4.751,11.369,9.094l0.009,0.011l0.02,0.01
		c1.215,0.457,2.355,0.371,3.391-0.217c1.442-0.847,2.592-2.757,2.925-4.869c0.283-1.824,0.076-3.752-0.123-5.625
		c-0.182-1.769-0.371-3.602-0.134-5.266c0.627-4.277,2.688-7.65,6.116-10.037c3.922-2.728,9.401-4.001,15.897-3.753v-0.134
		C169.322-6.056,163.822-4.782,159.882-2.034z"/>
	<path d="M-23.472-71.948c0.217,1.786,0.493,5.104-0.124,7.328c-1.026,3.667-3.988,6.822-6.847,9.883
		c-4.046,4.306-8.226,8.763-6.942,14.723c0.692,3.213,2.421,5.208,5.318,6.112c2.506,0.789,5.593,0.682,9.068,0.493
		c6.344-0.352,10.646,0.694,13.144,1.644c2.526,0.972,4.843,2.567,7.103,4.126c3.02,2.082,5.879,4.057,9.107,4.495
		c1.293,0.172,2.355,0.133,3.572-0.141c3.019-0.667,5.298-2.187,7.711-3.803c4.102-2.727,8.338-5.56,16.561-3.916
		c1.806,0.352,3.601,0.894,5.501,1.456c6.057,1.794,12.325,3.64,19.334-0.076c6.335-3.184,10.323-9.03,14.169-14.684
		c1.795-2.634,3.657-5.37,5.708-7.766c2.631-3.062,6.211-7.252,10.607-5.798c1.767,0.571,3.59,0.856,5.357,1.131
		c2.802,0.447,5.688,0.904,8.289,2.537c1.863,1.171,3.306,2.834,4.711,4.448c0.655,0.752,1.339,1.533,2.051,2.254
		c1.577,1.589,2.85,3.46,4.085,5.267c1.053,1.539,2.136,3.116,3.409,4.534c1.709,1.51,3.209,2.83,4.957,4.409
		c2.108,1.93,4.036,4.221,5.897,6.424c3.57,4.25,6.932,8.251,11.33,9.543c3.105,0.922,6.314,0.798,10.408-0.382
		c2.184-0.635,5.072-1.862,7.104-2.793c4.122-1.874,8.765-4.439,12.402-6.843c2.84-1.882,5.006-4.523,6.325-7.689v-0.332
		c-1.292,3.269-3.495,5.998-6.382,7.907c-3.646,2.405-8.281,4.972-12.403,6.844c-2.022,0.922-4.9,2.158-7.074,2.785
		c-4.084,1.169-7.265,1.293-10.343,0.39c-4.359-1.283-7.711-5.273-11.272-9.505c-1.861-2.205-3.789-4.505-5.916-6.433
		c-1.748-1.589-3.239-2.918-4.947-4.42c-1.264-1.397-2.337-2.984-3.391-4.514c-1.234-1.807-2.526-3.679-4.093-5.276
		c-0.723-0.722-1.397-1.501-2.052-2.263c-1.406-1.615-2.858-3.288-4.74-4.457c-2.62-1.655-5.526-2.11-8.337-2.547
		c-1.767-0.285-3.59-0.57-5.329-1.14c-4.481-1.473-8.109,2.748-10.749,5.834c-2.062,2.415-3.913,5.132-5.717,7.774
		c-3.847,5.654-7.816,11.491-14.112,14.646c-6.972,3.698-13.221,1.853-19.26,0.067c-1.899-0.56-3.694-1.094-5.508-1.455
		c-8.263-1.643-12.526,1.188-16.648,3.935C15.17-25.586,12.9-24.075,9.89-23.41c-1.188,0.266-2.24,0.305-3.514,0.133
		c-3.189-0.418-6.05-2.387-9.061-4.477c-2.251-1.548-4.597-3.164-7.131-4.134c-2.498-0.949-6.817-2.005-13.191-1.652
		c-5.955,0.333-12.716,0.712-14.264-6.501c-1.254-5.893,2.896-10.333,6.915-14.617c2.876-3.069,5.848-6.235,6.875-9.932
		c0.598-2.12,0.408-5.18,0.142-7.376c-0.438-3.526-1.472-7.146-2.574-10.967c-0.114-0.409-0.229-0.818-0.352-1.235h-0.133
		c0.125,0.427,0.248,0.846,0.372,1.273C-24.935-79.076-23.89-75.474-23.472-71.948z"/>
	<path d="M161.686,169.764c-0.475,2.537-0.692,5.161-0.911,7.699c-0.19,2.215-0.37,4.362-0.713,6.367h0.124
		c0.342-2.017,0.532-4.172,0.712-6.357c0.229-2.538,0.446-5.16,0.922-7.689c1.644-8.82,6.049-14.095,12.754-15.246
		c0.437-0.076,0.855-0.123,1.272-0.161v-0.124c-0.427,0.028-0.846,0.076-1.302,0.162
		C167.792,155.574,163.348,160.878,161.686,169.764z"/>
	<path d="M124.601,176.776c-0.74-2.612-1.938-5.311-3.096-7.916l-0.199-0.445c-0.75-1.722-1.367-3.556-2.013-5.505
		c-1.319-3.979-2.688-8.097-5.396-11.062c-2.402-2.623-6.325-4.135-10.769-4.135c-2.488,0-4.881,0.485-6.914,1.398
		c-2.401,1.073-4.35,2.358-5.954,3.915c-1.339,1.302-3.295,1.977-5.185,2.652c-1.264,0.428-2.564,0.894-3.704,1.53
		c-3.439,1.958-5.604,4.684-6.249,7.926c-0.608,3.013-0.541,6.901-0.475,10.655c0.029,2.279,0.076,4.646-0.028,6.834
		c-0.019,0.379-0.048,0.799-0.086,1.206h0.134c0.028-0.407,0.057-0.816,0.075-1.206c0.104-2.178,0.066-4.555,0.028-6.834
		c-0.066-3.754-0.123-7.634,0.476-10.635c0.646-3.195,2.782-5.903,6.191-7.843c1.121-0.627,2.421-1.082,3.685-1.521
		c1.891-0.665,3.855-1.348,5.224-2.671c1.595-1.548,3.533-2.822,5.926-3.896c2.022-0.902,4.388-1.378,6.856-1.378
		c4.406,0,8.291,1.493,10.675,4.097c2.687,2.948,4.054,7.043,5.366,11.014c0.654,1.94,1.262,3.795,2.021,5.505l0.21,0.457
		c1.148,2.604,2.336,5.282,3.076,7.896c0.418,1.473,0.779,3.1,1.13,4.676c0.182,0.809,0.353,1.589,0.532,2.339h0.133
		c-0.181-0.75-0.36-1.549-0.542-2.365C125.39,179.886,125.028,178.252,124.601,176.776z"/>
	<path d="M118.779,179.069c-0.303-2.063-0.655-4.399-1.491-6.444c-0.332-0.837-0.845-1.532-1.348-2.207
		c-0.39-0.51-0.77-1.035-1.084-1.624c-0.455-0.835-0.815-1.778-1.196-2.775c-1.101-2.821-2.231-5.74-5.347-6.566
		c-0.741-0.2-1.709-0.285-2.963-0.285c-1.319,0-2.716,0.104-3.96,0.21c-0.494,0.027-0.95,0.065-1.376,0.104
		c-4.036,0.247-8.349,1.786-11.559,4.135c-3.865,2.812-4.977,7.556-5.479,10.899c-0.379,2.396-0.722,5.941,0.437,8.945
		c0.057,0.123,0.104,0.247,0.152,0.37h0.144c-0.059-0.142-0.125-0.274-0.183-0.418c-1.148-2.966-0.797-6.502-0.436-8.888
		c0.503-3.306,1.614-8.029,5.441-10.815c3.19-2.328,7.493-3.857,11.492-4.115c0.427-0.019,0.882-0.058,1.375-0.095
		c1.244-0.104,2.642-0.219,3.951-0.219c1.235,0,2.194,0.105,2.935,0.305c3.059,0.807,4.17,3.696,5.252,6.472
		c0.39,1.019,0.76,1.949,1.206,2.795c0.312,0.588,0.712,1.12,1.093,1.636c0.494,0.674,1.007,1.367,1.339,2.176
		c0.826,2.035,1.178,4.363,1.481,6.424c0.218,1.463,0.303,3.1,0.294,4.743h0.124C119.093,182.178,118.997,180.541,118.779,179.069z"
		/>
	<path d="M175.731,163.853h-0.01c-6.011,0.54-9.373,7.091-10.266,19.978h0.133c0.883-12.802,4.198-19.304,10.133-19.854
		c0.038,0.011,0.086,0.02,0.124,0.02v-0.123C175.816,163.862,175.77,163.853,175.731,163.853L175.731,163.853z"/>
	<path d="M174.222,180.037c-0.656,1.093-1.302,2.356-1.425,3.793h0.123c0.134-1.386,0.77-2.643,1.407-3.707
		c0.53-0.322,1.044-0.504,1.519-0.551v-0.114c-0.503,0.039-1.035,0.22-1.604,0.561L174.222,180.037z"/>
	<path d="M-28.04,166.685c0.987-3.221,2.669-5.171,5.308-8.089c0.409-0.464,0.865-0.921,1.349-1.425
		c1.88-1.95,4.018-4.163,4.491-6.462c0.951-4.602-1.89-7.301-4.804-9.315c-1.444-0.997-3.059-1.787-4.626-2.546
		c-2.022-0.99-4.12-2.016-5.85-3.507c-1.841-1.598-3.428-3.868-4.729-6.769c-0.589-1.281-0.845-2.682-1.111-4.021
		c-0.247-1.311-0.503-2.661-1.054-3.915c-2.544-5.701-5.869-12.146-11.302-16.661c-2.365-1.958-5.345-5.057-6.134-8.743
		c-0.513-2.424,0.2-4.544,0.779-6.244l0.094-0.306c1.292-3.839,5.147-13.002,13.22-15.311c1.444-0.418,3.219-0.723,5.091-1.055
		c2.355-0.398,4.795-0.829,6.562-1.483c2.772-1.026,4.747-2.441,6.846-4.049l0.305-0.229c2.003-1.538,4.5-3.447,7.759-3.203
		c2.82,0.237,6.048,1.702,8.831,4.059c2.821,2.376,4.702,5.257,5.186,7.908c0.304,1.711,0.446,3.089,0.579,4.42
		c0.124,1.15,0.218,2.232,0.438,3.43c1.045,5.989,3.912,10.769,8.539,14.181c3.76,2.776,8.766,4.725,14.898,5.778
		c7.959,1.389,14.721-1.216,17.247-2.396c4.026-1.881,8.339-6.405,12.06-10.51c3.705-4.079,5.66-6.491,6.099-12.965
		c0.141-2.082-0.029-4.087-0.19-6.045c-0.058-0.759-0.133-1.539-0.182-2.318c-0.027-0.571-0.075-1.142-0.133-1.749
		c-0.18-1.968-0.35-4.001,0-6.092c0.752-4.314,3.24-6.226,7.637-5.798c5.727,0.532,10.74,4.333,12.754,9.686
		c1.604,4.258,0.313,8.705-0.712,12.299l-0.172,0.589c-1.699,5.939-4.017,10.568-7.065,14.161c-1.738,2.023-3.646,3.926-5.507,5.778
		c-0.695,0.675-1.397,1.378-2.081,2.082c-0.968,0.979-2.042,1.882-3.087,2.746c-1.301,1.083-2.648,2.224-3.797,3.525
		c-1.624,1.836-2.831,3.916-3.81,5.704c-3.181,5.854-5.404,11.024-6.78,15.758c-1.243,4.276-4.682,7.679-9.192,9.095
		c-5.822,1.814-14.16,1.605-24.777-0.628c-5.205-1.103-8.311-4.086-9.202-8.886c-1.018-5.474-4.72-8.202-8.625-11.081
		c-1.005-0.743-2.041-1.513-3.047-2.319c-4.151-3.402-2.081-6.624,0.104-10.036c0.977-1.532,1.984-3.1,2.412-4.705
		c0.693-2.51-0.2-5.161-1.055-7.728c-0.446-1.34-0.864-2.595-1.072-3.841c-1.007-5.921-2.014-10.596-5.024-12.516
		c-1.613-1.026-3.685-1.169-6.344-0.419c-0.427,0.105-0.902,0.247-1.405,0.399c-1.025,0.303-2.193,0.646-3.154,0.856
		c-1.661,0.378-3.39,0.597-5.222,0.817c-1.948,0.247-3.951,0.493-6.163,0.959c-3.353,0.692-6.306,2.311-8.528,4.668
		c-2.185,2.31-3.571,5.234-4.027,8.458c-0.189,1.369-0.247,2.546,0.133,3.829c1.101,3.745,4.5,6.388,7.492,8.715
		c0.694,0.532,1.348,1.037,1.975,1.56l0.105,0.085c2.896,2.395,6.504,5.379,6.372,9.477c-0.143,4.219,0.398,7.28,1.795,10.246
		c2.203,4.657,5.308,7.488,10.721,9.75c0.408,0.161,0.808,0.334,1.216,0.495c1.861,0.77,3.771,1.559,5.557,2.566
		c1.452,0.817,2.43,1.845,3.457,2.927c0.569,0.599,1.157,1.217,1.832,1.807c0.808,0.702,1.577,1.635,2.383,2.633
		c2.042,2.528,4.36,5.387,7.939,4.703c1.835-0.352,3.638-1.615,5.557-2.946c1.672-1.169,3.4-2.376,5.347-3.145
		c3.296-1.292,7.94-1.598,12.859-1.93c2.981-0.2,6.078-0.409,8.898-0.848c6.419-1.016,10.76-3.268,13.267-6.89
		c0.75-1.064,1.245-2.271,1.709-3.44c0.361-0.913,0.731-1.843,1.226-2.698c0.36-0.656,0.93-1.16,1.481-1.664
		c0.304-0.266,0.626-0.561,0.902-0.873c0.513-0.571,1.007-1.17,1.49-1.76c0.532-0.646,1.083-1.32,1.671-1.957
		c0.913-0.998,1.947-1.91,2.945-2.814c0.921-0.837,1.88-1.7,2.755-2.632c0.721-0.759,1.301-1.589,1.86-2.387
		c0.636-0.91,1.272-1.832,2.146-2.68c1.463-1.454,2.991-3.04,4.216-4.809c1.045-1.511,1.511-2.994,2.033-4.553
		c0.143-0.484,0.303-0.979,0.493-1.491c0.39-1.134,1.103-2.206,1.786-3.251c0.409-0.617,0.816-1.246,1.158-1.873
		c1.301-2.385,2.412-4.772,3.314-7.089c0.246-0.657,0.476-1.322,0.712-1.967c0.096-0.277,0.199-0.542,0.295-0.82
		c0.446-1.234,0.921-2.489,1.386-3.705c1.33-3.526,2.716-7.165,3.43-10.492c0.456-2.12,0.854-4.384,0.37-6.615
		c-1.653-7.67-9.08-15.663-15.889-17.127c-3.144-0.664-7.113-0.627-11.168,0.133c-6.733,1.265-9.222,4.514-8.879,11.614
		c0.075,1.653,0.236,3.327,0.37,4.941c0.322,3.499,0.626,6.806,0.256,9.999c-0.209,1.834-0.825,3.479-1.263,4.542
		c-0.987,2.388-3.248,6.465-6.068,10.884c-2.773,4.344-6.505,7.509-10.248,8.696c-7.094,2.253-16.599,0.019-22.126-5.207
		c-2.775-2.615-5.727-7.092-4.084-13.497c0.104-0.392,0.266-0.779,0.446-1.197c0.228-0.494,0.446-1.018,0.569-1.59
		c0.855-1.481,1.928-2.812,2.973-4.103c2.355-2.919,4.578-5.666,3.723-9.601c-0.152-0.722-0.476-1.491-0.816-2.318
		c-0.694-1.691-1.405-3.431-0.57-4.468c1.463-1.826,3.457-3.725,5.576-5.731c3.655-3.479,7.443-7.089,8.518-10.471
		c1.092-3.396-1.141-6.768-2.09-8.195c-1.024-1.549-2.202-3.146-3.438-4.856c-0.96-1.312-1.957-2.671-2.896-4.021
		c-0.778-1.131-1.538-2.215-2.289-3.289c-1.729-2.489-3.361-4.826-5.043-7.337c-0.664-0.997-1.328-2.07-1.984-3.097
		c-1.093-1.73-2.213-3.508-3.343-5.02c-2.47-3.308-5.251-4.666-8.3-4.049c-3.02,0.619-6.296,2.955-9.136,5.084
		c-0.389,0.287-0.769,0.571-1.148,0.867c-5.3,3.98-11.32,8.488-12.907,13.494c-1.338,4.267,1.141,6.256,3.761,8.354
		c0.285,0.23,0.571,0.457,0.845,0.694c1.749,1.437,3.086,2.929,4.161,4.184c1.461,1.72,2.763,3.781,4.017,5.777
		c0.882,1.409,1.718,2.757,2.554,3.851c2.877,3.772,6.61,5.436,10.208,7.061c3.543,1.578,7.19,3.191,9.954,6.815
		c0,0.133,0.009,0.255,0.009,0.388c0.01,0.382,0.029,0.763-0.075,1.114c-3.286,3.554-7.359,4.438-12.46,2.734
		c-1.558-0.521-3.097-1.348-4.729-2.24c-3.647-1.979-7.417-4.013-11.758-2.691c-3.124,0.941-5.29,3.146-7.389,5.276
		c-2.07,2.109-4.207,4.285-7.303,5.37c-1.814,0.617-3.685,0.798-6.315,1.006c-6.628,0.504-9.829,1.266-12.555,4.727
		c-3.59,4.569-8.016,12.639-9.374,15.973c-0.532,1.332-0.865,2.329-1.016,3.062c-1.159,5.817,2.413,10.358,5.641,13.687
		c0.779,0.789,1.644,1.529,2.469,2.232c0.741,0.638,1.51,1.291,2.223,1.986c1.443,1.445,2.602,3.165,3.713,4.828
		c0.579,0.845,1.148,1.711,1.767,2.538c4.453,5.939,5.793,11.12,4.358,16.804c-1.045,4.077-3.419,9.237-8.88,10.644
		c-2.003,0.515-4.169,0.771-6.449,1.026c-2.117,0.257-4.32,0.506-6.467,0.999c-1.879,0.428-3.656,0.979-5.375,1.528
		c-2.402,0.744-4.673,1.465-7.019,1.761c-4.111,0.55-7.758-0.314-11.291-1.122c-3.115-0.733-6.077-1.416-8.993-1.025v0.132
		c2.906-0.399,5.85,0.286,8.964,1.008c3.543,0.827,7.2,1.673,11.34,1.131c2.366-0.304,4.625-1.017,7.038-1.768
		c1.71-0.543,3.495-1.095,5.375-1.521c2.146-0.483,4.322-0.74,6.439-0.989c2.289-0.266,4.454-0.512,6.467-1.034
		c4.369-1.132,7.474-4.839,8.966-10.731c1.453-5.732,0.104-10.938-4.369-16.926c-0.609-0.818-1.188-1.684-1.757-2.52
		c-1.131-1.672-2.289-3.402-3.75-4.838c-0.704-0.713-1.472-1.367-2.213-1.996c-0.828-0.714-1.682-1.443-2.461-2.241
		c-3.208-3.289-6.761-7.804-5.602-13.573c0.141-0.724,0.475-1.71,1.006-3.033c1.35-3.324,5.765-11.385,9.345-15.938
		c2.688-3.42,5.888-4.193,12.469-4.694c2.64-0.2,4.511-0.38,6.354-1.018c3.125-1.073,5.271-3.271,7.351-5.379
		c2.174-2.225,4.236-4.323,7.321-5.248c4.303-1.3,8.053,0.723,11.673,2.682c1.642,0.883,3.181,1.729,4.739,2.252
		c5.165,1.722,9.287,0.818,12.621-2.774l0.01-0.028c0.104-0.391,0.094-0.789,0.066-1.171c0-0.142,0-0.274,0-0.407v-0.019
		l-0.02-0.021c-2.773-3.648-6.448-5.293-10.001-6.879c-3.588-1.598-7.312-3.271-10.16-7.015c-0.826-1.096-1.673-2.435-2.555-3.851
		c-1.254-1.995-2.554-4.048-4.026-5.788c-1.072-1.254-2.413-2.746-4.168-4.201c-0.285-0.238-0.57-0.457-0.845-0.684
		c-2.593-2.082-5.043-4.049-3.724-8.222c1.577-4.97,7.569-9.456,12.85-13.429c0.39-0.285,0.779-0.579,1.158-0.875
		c2.82-2.129,6.088-4.449,9.079-5.057c2.991-0.606,5.746,0.732,8.186,4.002C6.139,5.407,7.25,7.193,8.342,8.913
		c0.646,1.028,1.311,2.092,1.985,3.1c1.672,2.51,3.314,4.855,5.043,7.346c0.75,1.064,1.509,2.168,2.299,3.289
		c0.929,1.352,1.917,2.709,2.885,4.021c1.244,1.699,2.423,3.307,3.438,4.846c0.941,1.428,3.145,4.754,2.08,8.089
		c-1.072,3.364-4.852,6.938-8.499,10.416c-2.116,2.017-4.121,3.915-5.583,5.74c-0.875,1.104-0.152,2.88,0.568,4.602
		c0.333,0.816,0.656,1.598,0.799,2.29c0.845,3.878-1.367,6.605-3.704,9.495c-1.044,1.301-2.126,2.641-2.981,4.134l-0.01,0.029
		c-0.123,0.56-0.343,1.073-0.569,1.568c-0.171,0.427-0.353,0.814-0.447,1.206c-1.292,5.058,0.171,9.896,4.132,13.63
		c5.546,5.255,15.108,7.487,22.251,5.235c3.761-1.206,7.521-4.39,10.293-8.742c2.831-4.439,5.11-8.517,6.088-10.911
		c0.447-1.075,1.055-2.729,1.272-4.573c0.37-3.212,0.066-6.519-0.246-10.025c-0.152-1.616-0.304-3.288-0.38-4.934
		c-0.171-3.594,0.38-6.11,1.728-7.898c1.378-1.795,3.609-2.945,7.048-3.583c4.045-0.76,7.996-0.808,11.121-0.133
		c6.771,1.445,14.14,9.4,15.783,17.021c0.483,2.204,0.086,4.449-0.361,6.559c-0.713,3.327-2.1,6.957-3.429,10.465
		c-0.455,1.225-0.93,2.48-1.377,3.715c-0.104,0.277-0.199,0.552-0.304,0.828c-0.219,0.645-0.466,1.31-0.712,1.968
		c-0.893,2.308-1.995,4.686-3.296,7.061c-0.342,0.627-0.76,1.255-1.158,1.873c-0.685,1.045-1.406,2.128-1.806,3.279
		c-0.18,0.514-0.34,1.017-0.502,1.492c-0.493,1.547-0.969,3.022-1.995,4.514c-1.233,1.77-2.754,3.346-4.216,4.791
		c-0.864,0.847-1.52,1.786-2.156,2.688c-0.551,0.809-1.13,1.627-1.843,2.387c-0.863,0.923-1.833,1.797-2.762,2.623
		c-0.998,0.901-2.023,1.825-2.955,2.834c-0.569,0.635-1.139,1.301-1.672,1.957c-0.475,0.58-0.967,1.177-1.479,1.748
		c-0.276,0.305-0.59,0.599-0.895,0.875c-0.56,0.503-1.12,1.019-1.501,1.692c-0.513,0.862-0.882,1.794-1.243,2.698
		c-0.465,1.17-0.95,2.376-1.681,3.432c-2.488,3.592-6.8,5.816-13.192,6.822c-2.81,0.448-5.896,0.657-8.888,0.856
		c-4.929,0.332-9.582,0.637-12.897,1.938c-1.955,0.771-3.703,1.978-5.375,3.146c-1.899,1.331-3.693,2.584-5.498,2.928
		c-3.503,0.674-5.792-2.148-7.825-4.649c-0.817-0.995-1.576-1.947-2.393-2.649c-0.675-0.59-1.263-1.198-1.823-1.806
		c-1.045-1.093-2.014-2.122-3.486-2.947c-1.794-1.007-3.722-1.806-5.575-2.565c-0.407-0.164-0.807-0.334-1.215-0.495
		c-5.375-2.253-8.471-5.057-10.646-9.685c-1.397-2.946-1.928-5.998-1.786-10.198c0.133-4.145-3.504-7.156-6.429-9.58l-0.104-0.077
		c-0.619-0.521-1.273-1.034-1.966-1.566c-3.125-2.435-6.363-4.952-7.464-8.651c-0.36-1.253-0.313-2.421-0.113-3.771
		c0.911-6.614,5.688-11.614,12.449-13.021c2.203-0.465,4.216-0.702,6.145-0.949c1.833-0.229,3.571-0.456,5.242-0.827
		c0.959-0.208,2.127-0.552,3.163-0.856c0.494-0.151,0.968-0.295,1.405-0.408c2.621-0.731,4.663-0.588,6.249,0.418
		c2.963,1.873,3.96,6.539,4.958,12.423c0.208,1.254,0.636,2.527,1.082,3.867c0.845,2.547,1.729,5.181,1.063,7.642
		c-0.436,1.598-1.443,3.156-2.411,4.677c-2.213,3.459-4.312,6.729-0.076,10.188c1.006,0.827,2.041,1.597,3.047,2.33
		c3.895,2.868,7.569,5.578,8.577,11.013c0.911,4.85,4.035,7.873,9.306,8.975c10.627,2.25,18.993,2.462,24.824,0.636
		c4.568-1.435,8.035-4.855,9.279-9.171c1.377-4.741,3.59-9.884,6.78-15.749c0.97-1.777,2.185-3.839,3.789-5.675
		c1.131-1.292,2.488-2.422,3.8-3.516c1.034-0.874,2.107-1.768,3.076-2.746c0.684-0.702,1.396-1.417,2.079-2.092
		c1.862-1.844,3.79-3.763,5.518-5.789c3.068-3.601,5.385-8.249,7.085-14.207l0.171-0.59c1.045-3.593,2.327-8.068,0.713-12.374
		c-2.033-5.38-7.075-9.22-12.858-9.771c-4.463-0.417-7.019,1.512-7.76,5.913c-0.37,2.1-0.189,4.143-0.01,6.12
		c0.048,0.608,0.096,1.178,0.133,1.749c0.057,0.789,0.114,1.559,0.182,2.317c0.161,1.949,0.331,3.964,0.198,6.027
		c-0.446,6.425-2.393,8.839-6.067,12.888c-3.724,4.087-8.025,8.609-12.022,10.474c-2.517,1.178-9.251,3.773-17.181,2.395
		C9.045,100.648,1.2,93.977-0.699,83.153c-0.2-1.189-0.314-2.283-0.418-3.422c-0.142-1.341-0.275-2.709-0.589-4.439
		c-0.484-2.681-2.383-5.58-5.223-7.984c-2.811-2.356-6.049-3.85-8.908-4.076c-3.305-0.256-5.821,1.663-7.844,3.222l-0.295,0.228
		c-2.108,1.605-4.074,3.022-6.819,4.04c-1.757,0.645-4.196,1.065-6.552,1.481c-1.871,0.323-3.647,0.64-5.09,1.047
		c-8.13,2.327-12.014,11.538-13.315,15.387l-0.094,0.313c-0.589,1.721-1.301,3.84-0.778,6.311c0.788,3.726,3.797,6.853,6.181,8.82
		c5.404,4.485,8.738,10.911,11.264,16.623c0.542,1.226,0.798,2.564,1.044,3.868c0.266,1.349,0.522,2.755,1.121,4.06
		c1.301,2.905,2.907,5.197,4.757,6.804c1.729,1.512,3.847,2.528,5.878,3.516c1.567,0.771,3.182,1.55,4.607,2.549
		c2.877,1.994,5.698,4.656,4.748,9.188c-0.464,2.263-2.574,4.459-4.454,6.388c-0.484,0.503-0.931,0.979-1.358,1.445
		c-2.65,2.908-4.322,4.867-5.318,8.124c-0.742,2.435-0.798,6.789-0.124,9.914c0.54,2.52,1.206,4.942,1.878,7.271h0.133
		c-0.673-2.339-1.338-4.761-1.888-7.299C-28.819,173.423-28.771,169.099-28.04,166.685z"/>
</g>
</svg>
