<?xml version="1.0" encoding="utf-8"?>
<!-- Generator: Adobe Illustrator 16.0.0, SVG Export Plug-In . SVG Version: 6.00 Build 0)  -->
<!DOCTYPE svg PUBLIC "-//W3C//DTD SVG 1.1//EN" "http://www.w3.org/Graphics/SVG/1.1/DTD/svg11.dtd">
<svg version="1.1" id="Layer_1" xmlns="http://www.w3.org/2000/svg" xmlns:xlink="http://www.w3.org/1999/xlink" x="0px" y="0px"
	 width="30px" height="25px" viewBox="7 1 30 25" enable-background="new 7 1 30 25" xml:space="preserve">
<g>
	<path fill="#FFFFFF" d="M35.214,4H8.786C7.799,4,7,3.486,7,2.5S7.799,1,8.786,1h26.429C36.201,1,37,1.514,37,2.5S36.201,4,35.214,4
		z"/>
	<path fill="#FFFFFF" d="M35.214,15H8.786C7.799,15,7,14.486,7,13.5S7.799,12,8.786,12h26.429C36.201,12,37,12.514,37,13.5
		S36.201,15,35.214,15z"/>
	<path fill="#FFFFFF" d="M35.214,26H8.786C7.799,26,7,25.486,7,24.5S7.799,23,8.786,23h26.429C36.201,23,37,23.514,37,24.5
		S36.201,26,35.214,26z"/>
</g>
</svg>
