<?xml version="1.0" encoding="utf-8"?>
<!-- Generator: Adobe Illustrator 16.0.0, SVG Export Plug-In . SVG Version: 6.00 Build 0)  -->
<!DOCTYPE svg PUBLIC "-//W3C//DTD SVG 1.1//EN" "http://www.w3.org/Graphics/SVG/1.1/DTD/svg11.dtd">
<svg version="1.1" id="Layer_1" xmlns="http://www.w3.org/2000/svg" xmlns:xlink="http://www.w3.org/1999/xlink" x="0px" y="0px"
	 width="76px" height="76px" viewBox="0 0 76 76" enable-background="new 0 0 76 76" xml:space="preserve">
<g>
	<path fill="#595959" d="M64.882,76h-2v-2h2V76z M59.882,76h-2v-2h2V76z M54.882,76h-2v-2h2V76z M49.882,76h-2v-2h2V76z M44.882,76
		h-2v-2h2V76z M39.882,76h-2v-2h2V76z M34.882,76h-2v-2h2V76z M29.882,76h-2v-2h2V76z M24.882,76h-2v-2h2V76z M19.882,76h-2v-2h2V76
		z M14.882,76h-2v-2h2V76z M10,76H9.409c-0.568,0-1.14-0.053-1.701-0.157l0.367-1.967C8.515,73.958,8.964,74,9.409,74H10V76z
		 M68.034,75.887l-0.314-1.975c0.576-0.092,1.143-0.255,1.682-0.484l0.783,1.84C69.495,75.562,68.771,75.77,68.034,75.887z
		 M4.587,74.634c-0.632-0.387-1.221-0.851-1.751-1.378l1.411-1.418c0.419,0.418,0.885,0.785,1.384,1.091L4.587,74.634z
		 M72.975,73.44l-1.373-1.455c0.429-0.403,0.811-0.858,1.137-1.351l1.668,1.104C73.995,72.358,73.514,72.932,72.975,73.44z
		 M0.917,70.538c-0.319-0.675-0.559-1.386-0.712-2.111l1.957-0.414c0.121,0.574,0.311,1.136,0.563,1.67L0.917,70.538z
		 M75.736,68.685l-1.943-0.471C73.931,67.646,74,67.058,74,66.468V65h2v1.468C76,67.216,75.911,67.962,75.736,68.685z M2,65.233H0
		v-2h2V65.233z M76,62.065h-2v-2h2V62.065z M2,60.233H0v-2h2V60.233z M76,57.065h-2v-2h2V57.065z M2,55.233H0v-2h2V55.233z
		 M76,52.065h-2v-2h2V52.065z M2,50.233H0v-2h2V50.233z M76,47.065h-2v-2h2V47.065z M2,45.233H0v-2h2V45.233z M76,42.065h-2v-2h2
		V42.065z M2,40H0v-2h2V40z M76,37.065h-2v-2h2V37.065z M2,35.233H0v-2h2V35.233z M76,32.065h-2v-2h2V32.065z M2,30.233H0v-2h2
		V30.233z M76,27.065h-2v-2h2V27.065z M2,25.233H0v-2h2V25.233z M76,22.065h-2v-2h2V22.065z M2,20.233H0v-2h2V20.233z M76,17.065h-2
		v-2h2V17.065z M2,15.233H0v-2h2V15.233z M76,12.065h-2v-2h2V12.065z M2,10H0V9.532c0-0.484,0.037-0.971,0.111-1.446l1.977,0.307
		C2.029,8.766,2,9.149,2,9.532V10z M73.687,7.387c-0.168-0.562-0.403-1.107-0.698-1.618l1.732-1
		c0.372,0.645,0.669,1.333,0.882,2.044L73.687,7.387z M2.939,5.897L1.188,4.931c0.358-0.65,0.792-1.26,1.291-1.812l1.485,1.339
		C3.569,4.897,3.224,5.381,2.939,5.897z M71.296,3.742c-0.452-0.382-0.946-0.709-1.467-0.972l0.898-1.786
		c0.662,0.333,1.288,0.747,1.859,1.231L71.296,3.742z M6.042,2.837L5.107,1.069c0.664-0.351,1.367-0.62,2.09-0.799l0.481,1.941
		C7.112,2.352,6.562,2.562,6.042,2.837z M67.313,2.037C67.076,2.012,66.835,2,66.592,2H65V0h1.592c0.312,0,0.619,0.016,0.923,0.046
		L67.313,2.037z M62.417,2h-2V0h2V2z M57.417,2h-2V0h2V2z M52.417,2h-2V0h2V2z M47.417,2h-2V0h2V2z M42.417,2h-2V0h2V2z M37.417,2
		h-2V0h2V2z M32.417,2h-2V0h2V2z M27.417,2h-2V0h2V2z M22.417,2h-2V0h2V2z M17.417,2h-2V0h2V2z M12.417,2h-2V0h2V2z"/>
	<g>
		<rect x="1" y="37" fill="#595959" width="1" height="2"/>
		<path fill="#595959" d="M72,39h-2v-2h2V39z M67,39h-2v-2h2V39z M62,39h-2v-2h2V39z M17,39h-2v-2h2V39z M12,39h-2v-2h2V39z M7,39H5
			v-2h2V39z"/>
		<rect x="74" y="37" fill="#595959" width="1" height="2"/>
	</g>
	<g>
		<rect x="62" y="1" fill="#595959" width="2" height="1"/>
		<path fill="#595959" d="M64,72h-2v-2h2V72z M64,67h-2v-2h2V67z M64,62h-2v-2h2V62z M64,57h-2v-2h2V57z M64,52h-2v-2h2V52z M64,47
			h-2v-2h2V47z M64,42h-2v-2h2V42z M64,37h-2v-2h2V37z M64,32h-2v-2h2V32z M64,27h-2v-2h2V27z M64,22h-2v-2h2V22z M64,17h-2v-2h2V17
			z M64,12h-2v-2h2V12z M64,7h-2V5h2V7z"/>
		<rect x="62" y="74" fill="#595959" width="2" height="1"/>
	</g>
	<g>
		<rect x="37" y="1" fill="#595959" width="2" height="1"/>
		<path fill="#595959" d="M39,72h-2v-2h2V72z M39,67h-2v-2h2V67z M39,62h-2v-2h2V62z M39,57h-2v-2h2V57z M39,22h-2v-2h2V22z M39,17
			h-2v-2h2V17z M39,12h-2v-2h2V12z M39,7h-2V5h2V7z"/>
		<rect x="37" y="74" fill="#595959" width="2" height="1"/>
	</g>
	<g>
		<rect x="12" y="1" fill="#595959" width="2" height="1"/>
		<path fill="#595959" d="M14,72h-2v-2h2V72z M14,67h-2v-2h2V67z M14,62h-2v-2h2V62z M14,57h-2v-2h2V57z M14,52h-2v-2h2V52z M14,47
			h-2v-2h2V47z M14,42h-2v-2h2V42z M14,37h-2v-2h2V37z M14,32h-2v-2h2V32z M14,27h-2v-2h2V27z M14,22h-2v-2h2V22z M14,17h-2v-2h2V17
			z M14,12h-2v-2h2V12z M14,7h-2V5h2V7z"/>
		<rect x="12" y="74" fill="#595959" width="2" height="1"/>
	</g>
	<g>
		<path fill="#C32E30" d="M57.581,26.509h-1.553v-1.867c0-0.366-0.228-0.694-0.57-0.822c-7.509-2.812-12.845-3.389-15.86-1.713
			c-0.487,0.271-0.856,0.573-1.139,0.869c-0.281-0.296-0.651-0.598-1.139-0.869c-3.015-1.675-8.352-1.099-15.861,1.713
			c-0.342,0.128-0.57,0.457-0.57,0.822v1.867h-1.552c-0.485,0-0.878,0.393-0.878,0.878v24.867c0,0.485,0.393,0.879,0.878,0.879
			H35.12v0.811c0,0.485,0.393,0.879,0.878,0.879h4.922c0.486,0,0.879-0.394,0.879-0.879v-0.811h15.782
			c0.485,0,0.878-0.394,0.878-0.879V27.387C58.459,26.901,58.066,26.509,57.581,26.509z M39.337,24.771
			c0.073-0.188,0.348-0.734,1.211-1.183c1.423-0.738,5.084-1.482,13.725,1.665V47.61c-6.887-2.435-11.821-2.868-14.675-1.283
			c-0.09,0.051-0.177,0.103-0.261,0.155V24.771L39.337,24.771z M22.646,25.254c8.641-3.147,12.302-2.403,13.725-1.665
			c0.863,0.448,1.138,0.995,1.211,1.183v21.71c-0.083-0.053-0.17-0.104-0.261-0.155c-2.854-1.585-7.789-1.149-14.675,1.284V25.254
			L22.646,25.254z M35.12,51.221v0.155H20.215V28.265h0.675v20.598c0,0.485,0.393,0.878,0.878,0.878c0.111,0,0.218-0.021,0.316-0.06
			v0.001c9.044-3.385,12.833-2.626,14.286-1.872c0.51,0.266,0.813,0.563,0.993,0.803C36.059,48.989,35.12,50.016,35.12,51.221z
			 M40.042,53.065h-3.166v-1.845c0-0.475,0.65-1.004,1.583-1.004s1.583,0.529,1.583,1.004V53.065L40.042,53.065z M56.703,51.376
			H41.798v-0.155c0-1.205-0.938-2.23-2.243-2.606c0.18-0.239,0.483-0.538,0.993-0.804c1.453-0.754,5.241-1.513,14.281,1.871
			c0.004,0.001,0.179,0.061,0.321,0.061c0.485-0.002,0.878-0.394,0.878-0.879V28.265h0.675V51.376L56.703,51.376z"/>
	</g>
</g>
</svg>
