<?xml version="1.0" encoding="utf-8"?>
<!-- Generator: Adobe Illustrator 16.0.0, SVG Export Plug-In . SVG Version: 6.00 Build 0)  -->
<!DOCTYPE svg PUBLIC "-//W3C//DTD SVG 1.1//EN" "http://www.w3.org/Graphics/SVG/1.1/DTD/svg11.dtd">
<svg version="1.1" id="Layer_1" xmlns="http://www.w3.org/2000/svg" xmlns:xlink="http://www.w3.org/1999/xlink" x="0px" y="0px"
	 width="75.76px" height="76px" viewBox="5.5 -0.5 75.76 76" enable-background="new 5.5 -0.5 75.76 76" xml:space="preserve">
<g>
	<path fill="#595959" d="M70.473,75.5h-2v-2h2V75.5z M65.473,75.5h-2v-2h2V75.5z M60.473,75.5h-2v-2h2V75.5z M55.473,75.5h-2v-2h2
		V75.5z M50.473,75.5h-2v-2h2V75.5z M45.473,75.5h-2v-2h2V75.5z M40.473,75.5h-2v-2h2V75.5z M35.473,75.5h-2v-2h2V75.5z
		 M30.473,75.5h-2v-2h2V75.5z M25.473,75.5h-2v-2h2V75.5z M20.473,75.5h-2v-2h2V75.5z M15.5,75.5h-0.331
		c-0.631,0-1.266-0.065-1.886-0.193l0.405-1.959c0.488,0.102,0.986,0.152,1.481,0.152H15.5V75.5z M73.608,75.414l-0.277-1.98
		c0.577-0.081,1.142-0.235,1.678-0.458l0.768,1.848C75.083,75.11,74.354,75.31,73.608,75.414z M10.189,74.081
		c-0.629-0.384-1.219-0.84-1.753-1.356l1.391-1.438c0.428,0.414,0.9,0.779,1.404,1.087L10.189,74.081z M78.578,72.976l-1.393-1.436
		c0.42-0.407,0.793-0.867,1.109-1.366l1.689,1.07C79.585,71.876,79.111,72.459,78.578,72.976z M6.469,70.045
		c-0.334-0.673-0.587-1.381-0.75-2.104l1.951-0.439c0.127,0.566,0.326,1.122,0.59,1.652L6.469,70.045z M81.256,68.17l-1.951-0.438
		c0.13-0.578,0.195-1.172,0.195-1.765V64.5h2v1.468C81.5,66.708,81.418,67.449,81.256,68.17z M7.5,64.737h-2v-2h2V64.737z
		 M81.5,61.558h-2v-2h2V61.558z M7.5,59.737h-2v-2h2V59.737z M81.5,56.558h-2v-2h2V56.558z M7.5,54.737h-2v-2h2V54.737z
		 M81.5,51.558h-2v-2h2V51.558z M7.5,49.737h-2v-2h2V49.737z M81.5,46.558h-2v-2h2V46.558z M7.5,44.737h-2v-2h2V44.737z
		 M81.5,41.558h-2v-2h2V41.558z M7.5,39.737h-2v-2h2V39.737z M81.5,36.558h-2v-2h2V36.558z M7.5,34.737h-2v-2h2V34.737z
		 M81.5,31.558h-2v-2h2V31.558z M7.5,29.737h-2v-2h2V29.737z M81.5,26.558h-2v-2h2V26.558z M7.5,24.737h-2v-2h2V24.737z
		 M81.5,21.558h-2v-2h2V21.558z M7.5,19.737h-2v-2h2V19.737z M81.5,16.558h-2v-2h2V16.558z M7.5,14.737h-2v-2h2V14.737z
		 M81.5,11.558h-2v-2h2V11.558z M7.5,9.5h-2V9.032c0-0.482,0.04-0.97,0.118-1.449l1.974,0.322C7.531,8.278,7.5,8.657,7.5,9.032V9.5z
		 M79.199,6.859c-0.16-0.57-0.385-1.12-0.669-1.634l1.752-0.966c0.357,0.649,0.642,1.342,0.843,2.059L79.199,6.859z M8.48,5.436
		L6.748,4.437c0.369-0.64,0.813-1.241,1.321-1.787l1.464,1.363C9.127,4.449,8.773,4.927,8.48,5.436z M76.881,3.181
		c-0.445-0.384-0.935-0.708-1.453-0.966l0.889-1.792c0.668,0.332,1.298,0.75,1.869,1.242L76.881,3.181z M11.637,2.395l-0.938-1.766
		c0.66-0.351,1.356-0.625,2.069-0.814l0.513,1.933C12.715,1.898,12.162,2.115,11.637,2.395z M72.919,1.522
		C72.732,1.508,72.543,1.5,72.352,1.5H70.5v-2h1.852c0.244,0,0.484,0.01,0.724,0.028L72.919,1.522z M67.998,1.5h-2v-2h2V1.5z
		 M62.998,1.5h-2v-2h2V1.5z M57.998,1.5h-2v-2h2V1.5z M52.998,1.5h-2v-2h2V1.5z M47.998,1.5h-2v-2h2V1.5z M42.998,1.5h-2v-2h2V1.5z
		 M37.999,1.5h-2v-2h2V1.5z M32.999,1.5h-2v-2h2V1.5z M27.999,1.5h-2v-2h2V1.5z M22.999,1.5h-2v-2h2V1.5z M17.999,1.5h-2v-2h2V1.5z"
		/>
	<g>
		<rect x="6.76" y="36.5" fill="#595959" width="1" height="2"/>
		<path fill="#595959" d="M77.76,38.5h-2v-2h2V38.5z M72.76,38.5h-2v-2h2V38.5z M67.76,38.5h-2v-2h2V38.5z M62.76,38.5h-2v-2h2V38.5
			z M27.76,38.5h-2v-2h2V38.5z M22.76,38.5h-2v-2h2V38.5z M17.76,38.5h-2v-2h2V38.5z M12.76,38.5h-2v-2h2V38.5z"/>
		<rect x="79.76" y="36.5" fill="#595959" width="1" height="2"/>
	</g>
	<g>
		<rect x="68.5" y="0.5" fill="#595959" width="2" height="1"/>
		<path fill="#595959" d="M70.5,71.5h-2v-2h2V71.5z M70.5,66.5h-2v-2h2V66.5z M70.5,61.5h-2v-2h2V61.5z M70.5,56.5h-2v-2h2V56.5z
			 M70.5,51.5h-2v-2h2V51.5z M70.5,46.5h-2v-2h2V46.5z M70.5,41.5h-2v-2h2V41.5z M70.5,36.5h-2v-2h2V36.5z M70.5,31.5h-2v-2h2V31.5z
			 M70.5,26.5h-2v-2h2V26.5z M70.5,21.5h-2v-2h2V21.5z M70.5,16.5h-2v-2h2V16.5z M70.5,11.5h-2v-2h2V11.5z M70.5,6.5h-2v-2h2V6.5z"
			/>
		<rect x="68.5" y="73.5" fill="#595959" width="2" height="1"/>
	</g>
	<g>
		<rect x="42.76" y="0.5" fill="#595959" width="2" height="1"/>
		<path fill="#595959" d="M44.76,71.5h-2v-2h2V71.5z M44.76,66.5h-2v-2h2V66.5z M44.76,61.5h-2v-2h2V61.5z M44.76,16.5h-2v-2h2V16.5
			z M44.76,11.5h-2v-2h2V11.5z M44.76,6.5h-2v-2h2V6.5z"/>
		<rect x="42.76" y="73.5" fill="#595959" width="2" height="1"/>
	</g>
	<g>
		<rect x="18.5" y="0.5" fill="#595959" width="2" height="1"/>
		<path fill="#595959" d="M20.5,71.5h-2v-2h2V71.5z M20.5,66.5h-2v-2h2V66.5z M20.5,61.5h-2v-2h2V61.5z M20.5,56.5h-2v-2h2V56.5z
			 M20.5,51.5h-2v-2h2V51.5z M20.5,46.5h-2v-2h2V46.5z M20.5,41.5h-2v-2h2V41.5z M20.5,36.5h-2v-2h2V36.5z M20.5,31.5h-2v-2h2V31.5z
			 M20.5,26.5h-2v-2h2V26.5z M20.5,21.5h-2v-2h2V21.5z M20.5,16.5h-2v-2h2V16.5z M20.5,11.5h-2v-2h2V11.5z M20.5,6.5h-2v-2h2V6.5z"
			/>
		<rect x="18.5" y="73.5" fill="#595959" width="2" height="1"/>
	</g>
	<g>
		<g>
			<g>
				<g>
					<g>
						<path fill="#C32E30" d="M52.52,29.729H35.184c-0.48,0-0.869-0.389-0.869-0.869c0-0.479,0.389-0.868,0.869-0.868H52.52
							c0.48,0,0.869,0.389,0.869,0.868C53.389,29.341,53,29.729,52.52,29.729z"/>
					</g>
					<g>
						<path fill="#C32E30" d="M48.382,33.624H35.184c-0.48,0-0.869-0.389-0.869-0.869c0-0.48,0.389-0.869,0.869-0.869h13.198
							c0.479,0,0.868,0.389,0.868,0.869C49.25,33.234,48.861,33.624,48.382,33.624z"/>
					</g>
					<g>
						<path fill="#C32E30" d="M39.551,45.304h-4.367c-0.48,0-0.869-0.389-0.869-0.868c0-0.48,0.389-0.869,0.869-0.869h4.367
							c0.48,0,0.869,0.389,0.869,0.869C40.42,44.915,40.031,45.304,39.551,45.304z"/>
					</g>
					<g>
						<path fill="#C32E30" d="M37.658,49.197h-2.475c-0.48,0-0.869-0.389-0.869-0.869c0-0.479,0.389-0.868,0.869-0.868h2.475
							c0.479,0,0.868,0.389,0.868,0.868C38.526,48.809,38.138,49.197,37.658,49.197z"/>
					</g>
					<path fill="#C32E30" d="M68.011,21.524l-1.981-1.478c-0.499-0.372-1.112-0.528-1.729-0.438
						c-0.615,0.09-1.159,0.414-1.531,0.913c0,0,0,0,0,0l-4.912,6.658v-6.611c0-0.48-0.389-0.869-0.869-0.869h-3.6v-1.335
						c0-0.479-0.389-0.869-0.869-0.869c-0.479,0-0.868,0.389-0.868,0.869V19.7h-2.597v-1.335c0-0.479-0.39-0.869-0.869-0.869
						s-0.869,0.389-0.869,0.869V19.7H44.72v-1.335c0-0.479-0.388-0.869-0.868-0.869s-0.869,0.389-0.869,0.869V19.7h-2.596v-1.335
						c0-0.479-0.39-0.869-0.869-0.869s-0.869,0.389-0.869,0.869V19.7h-2.597v-1.335c0-0.479-0.389-0.869-0.868-0.869
						c-0.48,0-0.869,0.389-0.869,0.869V19.7h-3.6c-0.479,0-0.868,0.389-0.868,0.869v36.058c0,0.48,0.389,0.869,0.868,0.869h26.273
						c0.48,0,0.869-0.389,0.869-0.869V39.286l10.628-14.501v-0.001C69.254,23.755,69.04,22.292,68.011,21.524z M56.12,55.759H31.583
						V21.438h2.731v1.335c0,0.48,0.389,0.869,0.869,0.869c0.479,0,0.868-0.389,0.868-0.869v-1.335h2.597v1.335
						c0,0.48,0.39,0.869,0.869,0.869s0.869-0.389,0.869-0.869v-1.335h2.597v1.335c0,0.48,0.388,0.869,0.868,0.869
						s0.868-0.389,0.868-0.869v-1.335h2.597v1.335c0,0.48,0.39,0.869,0.869,0.869s0.869-0.389,0.869-0.869v-1.335h2.597v1.335
						c0,0.48,0.389,0.869,0.868,0.869c0.48,0,0.869-0.389,0.869-0.869v-1.335h2.731v8.126l-4.53,6.216H35.184
						c-0.48,0-0.869,0.389-0.869,0.868c0,0.48,0.389,0.869,0.869,0.869h15.141c0,0-4.939,6.777-4.94,6.778c0,0,0,0,0.001,0
						c-0.057,0.078-0.101,0.166-0.13,0.264l-1.985,6.795h-8.086c-0.48,0-0.869,0.389-0.869,0.868s0.389,0.869,0.869,0.869
						c0,0,8.746-0.001,8.75-0.001l0,0c0.159-0.003,0.317-0.049,0.458-0.139l6.492-4.195c0.089-0.059,0.163-0.13,0.224-0.211
						c0.002-0.002,5.013-6.875,5.013-6.875V55.759L56.12,55.759z M46.571,46.246l2.319,1.729l-3.482,2.251L46.571,46.246z
						 M50.228,46.805l-2.931-2.186l13.699-18.798l2.932,2.186L50.228,46.805z M64.958,26.608l-2.931-2.186l0.936-1.254l2.931,2.186
						L64.958,26.608z M67.094,23.746L67.094,23.746l-0.161,0.216l-2.932-2.186l0.16-0.215l0.001,0
						c0.095-0.127,0.232-0.209,0.389-0.232c0.157-0.022,0.312,0.017,0.439,0.112l1.982,1.477
						C67.234,23.112,67.288,23.484,67.094,23.746z"/>
				</g>
			</g>
		</g>
	</g>
</g>
</svg>
