<?xml version="1.0" encoding="utf-8"?>
<!-- Generator: Adobe Illustrator 16.0.0, SVG Export Plug-In . SVG Version: 6.00 Build 0)  -->
<!DOCTYPE svg PUBLIC "-//W3C//DTD SVG 1.1//EN" "http://www.w3.org/Graphics/SVG/1.1/DTD/svg11.dtd">
<svg version="1.1" id="Layer_1" xmlns="http://www.w3.org/2000/svg" xmlns:xlink="http://www.w3.org/1999/xlink" x="0px" y="0px"
	 width="75.76px" height="76px" viewBox="5.5 -0.5 75.76 76" enable-background="new 5.5 -0.5 75.76 76" xml:space="preserve">
<g>
	<path fill="#595959" d="M71.011,75.5h-2v-2h2V75.5z M66.011,75.5h-2v-2h2V75.5z M61.011,75.5h-2v-2h2V75.5z M56.011,75.5h-2v-2h2
		V75.5z M51.011,75.5h-2v-2h2V75.5z M46.011,75.5h-2v-2h2V75.5z M41.011,75.5h-2v-2h2V75.5z M36.011,75.5h-2v-2h2V75.5z
		 M31.011,75.5h-2v-2h2V75.5z M26.011,75.5h-2v-2h2V75.5z M21.011,75.5h-2v-2h2V75.5z M16.5,75.5h-0.831
		c-0.613,0-1.238-0.068-1.858-0.204l0.428-1.953c0.479,0.104,0.961,0.157,1.431,0.157H16.5V75.5z M74.169,75.393l-0.328-1.973
		c0.561-0.093,1.104-0.269,1.613-0.522l0.89,1.791C75.656,75.03,74.925,75.268,74.169,75.393z M10.74,74.06
		c-0.619-0.373-1.21-0.812-1.757-1.306l1.34-1.484c0.452,0.408,0.939,0.771,1.448,1.077L10.74,74.06z M78.994,72.59l-1.523-1.295
		c0.374-0.44,0.705-0.936,0.985-1.473l1.773,0.924C79.881,71.416,79.465,72.036,78.994,72.59z M6.891,70.223
		C6.5,69.575,6.186,68.897,5.957,68.21l1.898-0.631c0.182,0.547,0.434,1.089,0.748,1.61L6.891,70.223z M81.296,67.643l-1.965-0.371
		c0.112-0.594,0.169-1.2,0.169-1.804V63.5h2v1.968C81.5,66.195,81.432,66.928,81.296,67.643z M7.5,64.94h-2v-2h2V64.94z
		 M81.5,60.989h-2v-2h2V60.989z M7.5,59.94h-2v-2h2V59.94z M81.5,55.989h-2v-2h2V55.989z M7.5,54.94h-2v-2h2V54.94z M81.5,50.989h-2
		v-2h2V50.989z M7.5,49.94h-2v-2h2V49.94z M81.5,45.989h-2v-2h2V45.989z M7.5,44.94h-2v-2h2V44.94z M81.5,40.989h-2v-2h2V40.989z
		 M7.5,39.94h-2v-2h2V39.94z M81.5,35.989h-2v-2h2V35.989z M7.5,34.94h-2v-2h2V34.94z M81.5,30.989h-2v-2h2V30.989z M7.5,29.94h-2
		v-2h2V29.94z M81.5,25.989h-2v-2h2V25.989z M7.5,24.94h-2v-2h2V24.94z M81.5,20.989h-2v-2h2V20.989z M7.5,19.94h-2v-2h2V19.94z
		 M81.5,15.989h-2v-2h2V15.989z M7.5,14.94h-2v-2h2V14.94z M81.5,10.989h-2v-2h2V10.989z M7.5,9.5h-2V8.532
		c0-0.228,0.01-0.453,0.028-0.675l1.993,0.17C7.507,8.193,7.5,8.361,7.5,8.532V9.5z M79.213,6.279
		c-0.157-0.579-0.378-1.124-0.657-1.62L80.3,3.68c0.359,0.639,0.643,1.337,0.843,2.076L79.213,6.279z M8.275,5.584L6.527,4.612
		c0.357-0.641,0.805-1.248,1.33-1.805l1.454,1.374C8.899,4.617,8.551,5.089,8.275,5.584z M76.869,2.736
		c-0.454-0.336-0.96-0.608-1.506-0.81l0.693-1.876c0.723,0.267,1.396,0.63,2.003,1.078L76.869,2.736z M11.438,2.572l-0.943-1.764
		c0.641-0.343,1.323-0.625,2.026-0.838l0.58,1.914C12.522,2.06,11.963,2.291,11.438,2.572z M72.769,1.5h-2v-2h2V1.5z M67.769,1.5h-2
		v-2h2V1.5z M62.769,1.5h-2v-2h2V1.5z M57.769,1.5h-2v-2h2V1.5z M52.769,1.5h-2v-2h2V1.5z M47.769,1.5h-2v-2h2V1.5z M42.769,1.5h-2
		v-2h2V1.5z M37.769,1.5h-2v-2h2V1.5z M32.769,1.5h-2v-2h2V1.5z M27.769,1.5h-2v-2h2V1.5z M22.769,1.5h-2v-2h2V1.5z M17.769,1.5h-2
		v-2h2V1.5z"/>
	<g>
		<rect x="7.26" y="36" fill="#595959" width="1" height="2"/>
		<path fill="#595959" d="M78.26,38h-2v-2h2V38z M73.26,38h-2v-2h2V38z M68.26,38h-2v-2h2V38z M23.26,38h-2v-2h2V38z M18.26,38h-2
			v-2h2V38z M13.26,38h-2v-2h2V38z"/>
		<rect x="80.26" y="36" fill="#595959" width="1" height="2"/>
	</g>
	<g>
		<rect x="68.5" y="0.5" fill="#595959" width="2" height="1"/>
		<path fill="#595959" d="M70.5,70.5h-2v-2h2V70.5z M70.5,65.5h-2v-2h2V65.5z M70.5,60.5h-2v-2h2V60.5z M70.5,55.5h-2v-2h2V55.5z
			 M70.5,50.5h-2v-2h2V50.5z M70.5,45.5h-2v-2h2V45.5z M70.5,40.5h-2v-2h2V40.5z M70.5,35.5h-2v-2h2V35.5z M70.5,30.5h-2v-2h2V30.5z
			 M70.5,25.5h-2v-2h2V25.5z M70.5,20.5h-2v-2h2V20.5z M70.5,15.5h-2v-2h2V15.5z M70.5,10.5h-2v-2h2V10.5z M70.5,5.5h-2v-2h2V5.5z"
			/>
		<rect x="68.5" y="73.5" fill="#595959" width="2" height="1"/>
	</g>
	<g>
		<rect x="43.26" fill="#595959" width="2" height="1"/>
		<path fill="#595959" d="M45.26,71h-2v-2h2V71z M45.26,66h-2v-2h2V66z M45.26,61h-2v-2h2V61z M45.26,56h-2v-2h2V56z M45.26,51h-2
			v-2h2V51z M45.26,21h-2v-2h2V21z M45.26,16h-2v-2h2V16z M45.26,11h-2V9h2V11z M45.26,6h-2V4h2V6z"/>
		<rect x="43.26" y="73" fill="#595959" width="2" height="1"/>
	</g>
	<g>
		<rect x="18.5" y="0.5" fill="#595959" width="2" height="1"/>
		<path fill="#595959" d="M20.5,70.5h-2v-2h2V70.5z M20.5,65.5h-2v-2h2V65.5z M20.5,60.5h-2v-2h2V60.5z M20.5,55.5h-2v-2h2V55.5z
			 M20.5,50.5h-2v-2h2V50.5z M20.5,45.5h-2v-2h2V45.5z M20.5,40.5h-2v-2h2V40.5z M20.5,35.5h-2v-2h2V35.5z M20.5,30.5h-2v-2h2V30.5z
			 M20.5,25.5h-2v-2h2V25.5z M20.5,20.5h-2v-2h2V20.5z M20.5,15.5h-2v-2h2V15.5z M20.5,10.5h-2v-2h2V10.5z M20.5,5.5h-2v-2h2V5.5z"
			/>
		<rect x="18.5" y="73.5" fill="#595959" width="2" height="1"/>
	</g>
	<g>
		<g>
			<path fill="#C32E30" d="M61.542,31.003h-0.889V19.892c0-0.655-0.277-1.212-0.761-1.528c-0.484-0.317-1.106-0.349-1.705-0.087
				l-15.974,6.962l-16.298,1.223c-1.186,0.089-2.151,1.13-2.151,2.319v11.556c0,1.189,0.966,2.23,2.151,2.319l6.091,0.457
				l2.99,10.841c0.301,1.088,1.418,1.938,2.545,1.938h1.777c1.226,0,2.223-0.997,2.223-2.222v-9.843l0.672,0.051l15.974,6.963
				c0.269,0.117,0.543,0.176,0.806,0.176c0.324,0,0.633-0.088,0.899-0.263c0.483-0.316,0.761-0.875,0.761-1.529v-11.11h0.889
				c1.226,0,2.223-0.997,2.223-2.223v-2.667C63.765,31.999,62.768,31.003,61.542,31.003z M25.543,40.336V28.78
				c0-0.266,0.241-0.526,0.507-0.546l15.492-1.162v14.973L26.05,40.883C25.784,40.863,25.543,40.603,25.543,40.336z M39.765,53.67
				c0,0.24-0.204,0.443-0.445,0.443h-1.777c-0.331,0-0.742-0.313-0.83-0.633L33.89,43.253l5.875,0.441V53.67z M58.876,49.201
				L43.32,42.42V26.696l15.556-6.781V49.201z M61.986,35.892c0,0.241-0.204,0.444-0.444,0.444h-0.889V32.78h0.889
				c0.24,0,0.444,0.204,0.444,0.444V35.892z"/>
		</g>
	</g>
</g>
</svg>
