<?xml version="1.0" encoding="utf-8"?>
<!-- Generator: Adobe Illustrator 16.0.0, SVG Export Plug-In . SVG Version: 6.00 Build 0)  -->
<!DOCTYPE svg PUBLIC "-//W3C//DTD SVG 1.1//EN" "http://www.w3.org/Graphics/SVG/1.1/DTD/svg11.dtd">
<svg version="1.1" id="Layer_1" xmlns="http://www.w3.org/2000/svg" xmlns:xlink="http://www.w3.org/1999/xlink" x="0px" y="0px"
	 width="175.001px" height="45px" viewBox="0 0 175.001 45" enable-background="new 0 0 175.001 45" xml:space="preserve">
<g>
	<g>
		<g>
			<g>
				<g>
					<path fill="#C32E30" d="M51.869,32.603c-0.852,0-1.442-0.094-1.984-0.188v-2.644c0.378,0.141,0.896,0.235,1.463,0.235
						c1.11,0,1.748-0.471,1.748-2.193V11.792h3.067v16.14C56.163,30.551,55.101,32.603,51.869,32.603z"/>
					<path fill="#C32E30" d="M67.511,27.741c0-0.542,0.022-1.438,0.14-2.099l-0.048-0.025c-0.684,1.394-2.051,2.362-3.962,2.362
						c-2.666,0-3.516-1.7-3.516-3.75v-5.925c-0.567-0.095-1.348-0.188-2.028-0.235V16.18c1.557-0.189,3.419-0.259,5.047-0.212v7.529
						c0,1.226,0.332,1.957,1.44,1.957c1.537,0,2.737-1.748,2.737-3.798v-5.664h2.999v9.416c0.567,0.094,1.368,0.189,2.051,0.236
						v1.888C70.887,27.72,69.068,27.79,67.511,27.741z"/>
					<path fill="#C32E30" d="M89.146,27.72v-7.434c0-1.25-0.285-2.031-1.393-2.031c-1.323,0-2.689,1.558-2.689,3.847v5.618h-2.976
						v-7.434c0-1.156-0.232-2.031-1.393-2.031c-1.391,0-2.688,1.652-2.688,3.847v5.618h-2.998v-9.417
						c-0.567-0.095-1.367-0.188-2.052-0.235V16.18c1.484-0.189,3.327-0.259,4.883-0.212c0,0.566-0.049,1.441-0.143,2.123h0.026
						c0.705-1.438,2.122-2.358,3.867-2.358c2.078,0,2.951,1.227,3.234,2.358c0.542-1.154,1.838-2.358,3.821-2.358
						c2.265,0,3.515,1.25,3.515,3.919v8.068H89.146z"/>
					<path fill="#C32E30" d="M94.143,18.068V16.18c1.487-0.189,3.278-0.259,4.836-0.212c0,0.589-0.021,1.37-0.115,1.982h0.046
						c0.659-1.37,1.911-2.194,3.68-2.194c2.785,0,4.296,2.005,4.296,5.474c0,4.082-2.125,6.655-6.183,6.655
						c-0.566,0-1.017-0.023-1.51-0.094v5.615h-2.998V18.303C95.63,18.208,94.829,18.115,94.143,18.068z M101.717,18.233
						c-1.579,0-2.523,1.842-2.523,3.847v3.256c0.47,0.141,0.967,0.212,1.58,0.212c1.726,0,2.951-1.085,2.951-3.988
						C103.724,19.366,103.087,18.233,101.717,18.233z"/>
					<path fill="#C32E30" d="M112.333,27.979c-1.132,0-2.264-0.118-3.254-0.377l0.186-2.856c0.896,0.306,2.172,0.565,3.328,0.565
						c1.558,0,2.764-0.635,2.764-2.098c0-3.044-6.682-1.653-6.682-6.891c0-2.832,2.243-4.789,6.065-4.789
						c0.898,0,1.934,0.117,2.877,0.282l-0.164,2.691c-0.897-0.26-1.887-0.423-2.855-0.423c-1.771,0-2.663,0.8-2.663,1.932
						c0,2.856,6.698,1.794,6.698,6.775C118.635,25.782,116.25,27.979,112.333,27.979z"/>
					<path fill="#C32E30" d="M125.169,27.957c-2.597,0-3.397-0.946-3.397-3.681v-5.948h-2.028v-2.336h2.005v-3.609l3.021-0.804
						v4.413h2.852v2.336h-2.852v5.145c0,1.51,0.352,1.935,1.39,1.935c0.497,0,1.04-0.071,1.462-0.19v2.433
						C126.868,27.837,125.995,27.957,125.169,27.957z"/>
					<path fill="#C32E30" d="M136.352,27.741c0-0.683,0.024-1.391,0.117-2.005l-0.022-0.023c-0.567,1.321-2.005,2.244-3.752,2.244
						c-2.123,0-3.351-1.204-3.351-3.091c0-2.809,2.784-4.297,6.773-4.297v-0.636c0-1.227-0.591-1.865-2.29-1.865
						c-1.062,0-2.479,0.355-3.47,0.919l-0.26-2.524c1.18-0.423,2.691-0.73,4.205-0.73c3.773,0,4.834,1.511,4.834,4.081v5.593
						c0.566,0.094,1.369,0.189,2.053,0.236v1.888C139.702,27.72,137.886,27.79,136.352,27.741z M136.116,22.528
						c-3.188,0-3.894,0.918-3.894,1.864c0,0.754,0.516,1.25,1.392,1.25c1.487,0,2.502-1.414,2.502-2.833V22.528z"/>
					<path fill="#C32E30" d="M146.252,18.351h0.048c0.567-1.488,1.699-2.783,3.729-2.618l-0.142,2.973
						c-2.172-0.45-3.255,0.967-3.255,4.224v4.79h-3v-9.417c-0.565-0.095-1.367-0.188-2.053-0.235V16.18
						c1.488-0.189,3.308-0.259,4.885-0.212C146.465,16.58,146.397,17.526,146.252,18.351z"/>
					<path fill="#C32E30" d="M156.503,27.957c-2.594,0-3.397-0.946-3.397-3.681v-5.948h-2.028v-2.336h2.005v-3.609l3.021-0.804
						v4.413h2.856v2.336h-2.856v5.145c0,1.51,0.354,1.935,1.391,1.935c0.496,0,1.04-0.071,1.466-0.19v2.433
						C158.202,27.837,157.331,27.957,156.503,27.957z"/>
				</g>
			</g>
			<path fill="#C32E30" d="M167.725,11.494c-0.692-0.271-1.489-0.438-2.302-0.438c-1.708,0-2.941,1.079-2.941,3.02
				c0,1.837,1,2.918,2.764,2.918c0.411,0,0.77-0.053,1.107-0.155V13.82h1.666v4.138c-0.859,0.345-1.928,0.539-2.965,0.539
				c-2.751,0-4.385-1.619-4.385-4.265c0-2.727,1.854-4.666,4.859-4.666c0.859,0,1.707,0.154,2.453,0.374L167.725,11.494z"/>
			<path fill="#C32E30" d="M174.95,15.438h-3.958c-0.015,1.197,0.576,1.774,1.76,1.774c0.629,0,1.31-0.141,1.864-0.397l0.151,1.271
				c-0.678,0.269-1.487,0.411-2.286,0.411c-2.029,0-3.158-1.016-3.158-3.265c0-1.953,1.076-3.391,2.991-3.391
				c1.864,0,2.687,1.271,2.687,2.851C175.001,14.912,174.987,15.169,174.95,15.438z M172.264,13.047
				c-0.682,0-1.157,0.503-1.245,1.272h2.35C173.394,13.522,172.958,13.047,172.264,13.047z"/>
		</g>
	</g>
	<g>
		<path fill="none" d="M31.729,6.512c-1.248,1.649-2.504,3.294-3.732,4.943C29.225,9.806,30.482,8.161,31.729,6.512z"/>
		<path fill="none" d="M31.125,18.724c-0.225-0.625-0.995-2.088-1.076-2.215c-0.48-0.777-1.04-1.461-1.662-2.087
			c-0.494-0.498-1.044-0.921-1.606-1.316c-0.837-0.587-1.728-1.083-2.683-1.431c-1.285-0.48-2.636-0.725-4.014-0.732l0.021-4.121
			l-0.021,4.121c-1.227-0.009-2.456,0.127-3.658,0.517c-0.449,0.141-0.88,0.368-1.317,0.566c-0.308,0.143-1.846,1.039-2.278,1.375
			c-0.275,0.211-0.555,0.411-0.804,0.644c-0.102,0.095-0.187,0.204-0.284,0.3c-0.542,0.537-1.024,1.112-1.446,1.732
			c-0.856,1.257-1.456,2.649-1.778,4.122c-0.293,1.334-0.38,2.712-0.194,4.091c0.115,0.871,0.357,1.733,0.677,2.581
			c0.12,0.321,0.265,0.633,0.416,0.941c0.088,0.183,0.148,0.37,0.248,0.55c0.035,0.064,0.048,0.135,0.085,0.2
			c0.847,1.488,1.982,2.71,3.278,3.661c1.428,1.053,3.067,1.726,4.789,2.057c1.64,0.316,3.334,0.28,4.999-0.124
			c1.041-0.255,2.074-0.604,3.057-1.162l0.004-0.001c0.722-0.412,1.378-0.891,1.981-1.418c0.534-0.472,1.014-0.994,1.445-1.543
			c1.076-1.367,1.808-2.939,2.203-4.608v-0.003c0.314-1.334,0.428-2.714,0.263-4.093c-0.02-0.203-0.06-0.4-0.097-0.606
			C31.562,20.046,31.365,19.38,31.125,18.724z"/>
		<path fill="#C32E30" d="M11.744,14.343c0.097-0.097,0.182-0.205,0.284-0.3L6.456,8.007C6.236,8.208,6.159,8.277,5.95,8.486
			c-0.87,0.866-1.765,1.936-2.453,2.95l6.8,4.64C10.72,15.456,11.201,14.88,11.744,14.343z"/>
		<path fill="#F6B72D" d="M10.297,16.076l-6.8-4.64c-1.566,2.292-2.431,4.299-3.016,7.008c-0.003,0.001-0.003,0.001-0.003,0.001
			l8.041,1.753C8.842,18.725,9.441,17.333,10.297,16.076z"/>
		<path fill="#EB5D30" d="M8.519,20.198l-8.041-1.753c-0.002,0-0.002,0-0.002,0c-0.525,2.409-0.612,4.503-0.278,6.943l8.126-1.098
			C8.139,22.91,8.226,21.532,8.519,20.198z"/>
		<path fill="#C32E30" d="M8.325,24.289l-8.126,1.098H0.197c0.204,1.521,0.569,2.952,1.11,4.393l7.694-2.91
			C8.682,26.022,8.44,25.16,8.325,24.289z"/>
		<path fill="#EE5E2D" d="M9.001,26.87l-7.694,2.91c0.213,0.562,0.427,1.054,0.688,1.602l7.422-3.57
			C9.267,27.503,9.122,27.191,9.001,26.87z"/>
		<path fill="#C32E30" d="M9.417,27.811l-7.422,3.57c0.172,0.353,0.352,0.701,0.538,1.034c2.35-1.337,4.623-2.629,7.132-4.054
			C9.565,28.181,9.505,27.994,9.417,27.811z"/>
		<path fill="#F6B72D" d="M9.75,28.561c-0.037-0.064-0.05-0.135-0.085-0.2c-2.509,1.425-4.782,2.717-7.132,4.054
			c1.405,2.569,3.232,4.64,5.645,6.41l4.85-6.604C11.732,31.271,10.597,30.049,9.75,28.561z"/>
		<path fill="#C32E30" d="M13.028,32.222l-4.85,6.604l0.002,0.003c2.424,1.778,4.998,2.955,7.689,3.526
			c0.648-2.694,1.298-5.384,1.947-8.076C16.095,33.948,14.456,33.275,13.028,32.222z"/>
		<path fill="#F6B72D" d="M17.816,34.278c-0.649,2.692-1.299,5.381-1.947,8.076c2.838,0.603,5.814,0.54,8.892-0.213l-1.946-7.986
			C21.15,34.558,19.457,34.594,17.816,34.278z"/>
		<path fill="#C32E30" d="M25.876,32.991c1.342,2.361,2.683,4.72,4.048,7.121c1.198-0.672,2.319-1.469,3.359-2.401
			c-1.81-2.052-3.615-4.092-5.426-6.138C27.254,32.101,26.598,32.58,25.876,32.991z"/>
		<path fill="#EB5D30" d="M25.872,32.992c-0.983,0.558-2.017,0.907-3.057,1.162l1.946,7.986c1.873-0.456,3.588-1.137,5.163-2.028
			c-1.365-2.401-2.706-4.76-4.048-7.121L25.872,32.992z"/>
		<path fill="#F6B72D" d="M27.858,31.573c1.811,2.046,3.616,4.086,5.426,6.138c0.863-0.781,1.676-1.642,2.438-2.606l-6.418-5.075
			C28.872,30.58,28.392,31.101,27.858,31.573z"/>
		<path fill="#C32E30" d="M29.303,30.03l6.418,5.075c1.908-2.421,3.06-4.798,3.769-7.796l-7.984-1.888
			C31.111,27.091,30.379,28.663,29.303,30.03z"/>
		<path fill="#F6B72D" d="M39.888,20.369l-8.119,0.957c0.165,1.379,0.051,2.759-0.263,4.093l7.982,1.887l0.002,0.004
			C40.054,24.906,40.175,22.821,39.888,20.369z"/>
		<rect x="35.497" y="22.262" fill="#909293" width="0.003" height="8.204"/>
		<path fill="#C32E30" d="M31.769,21.326l8.119-0.957c-0.035-0.292-0.103-0.741-0.149-1.033l-8.067,1.383
			C31.709,20.925,31.749,21.123,31.769,21.326z"/>
		<path fill="#EE5E2D" d="M31.672,20.719l8.067-1.383c-0.206-1.212-0.478-2.219-0.888-3.375l-7.726,2.763
			C31.365,19.38,31.562,20.046,31.672,20.719z"/>
		<path fill="#F6B72D" d="M31.125,18.724l7.726-2.763c-0.513-1.444-1.004-2.458-1.809-3.768l-6.993,4.316
			C30.13,16.636,30.899,18.099,31.125,18.724z"/>
		<path fill="#EE5E2D" d="M30.048,16.509l6.993-4.316c-0.807-1.306-1.729-2.455-2.81-3.552l-5.845,5.781
			C29.009,15.047,29.568,15.731,30.048,16.509z"/>
		<path fill="#C32E30" d="M26.781,13.105c0.562,0.395,1.112,0.818,1.606,1.316l5.845-5.781c-0.812-0.82-1.644-1.501-2.502-2.128
			c-1.248,1.649-2.504,3.294-3.732,4.943C27.588,12.004,27.182,12.555,26.781,13.105z"/>
		<path fill="#EE5E2D" d="M26.781,13.105c0.401-0.551,0.807-1.102,1.217-1.65c1.228-1.649,2.484-3.294,3.732-4.943
			c-1.437-1.05-2.957-1.901-4.766-2.57l-2.866,7.732C25.053,12.022,25.944,12.519,26.781,13.105z"/>
		<path fill="#F6B72D" d="M20.105,6.821l-0.021,4.121c1.378,0.008,2.729,0.252,4.014,0.732l2.866-7.732
			c-2.314-0.855-4.379-1.229-6.838-1.24l0,0l0,0L20.105,6.821z"/>
		<path fill="#EB5D30" d="M20.084,10.942l0.021-4.121l0.021-4.119l0,0c-2.154-0.011-4.136,0.289-6.185,0.945l2.486,7.812
			C17.628,11.069,18.858,10.933,20.084,10.942z"/>
		<path fill="#C32E30" d="M16.427,11.458L13.94,3.647c-0.875,0.282-1.443,0.501-2.279,0.883l3.448,7.495
			C15.546,11.826,15.978,11.599,16.427,11.458z"/>
		<path fill="#F6B72D" d="M15.109,12.024L11.662,4.53C10.265,5.177,9,5.936,7.786,6.876l5.046,6.523
			C13.264,13.063,14.801,12.167,15.109,12.024z"/>
		<path fill="#EB5D30" d="M12.832,13.399L7.786,6.876c-0.48,0.372-0.887,0.717-1.33,1.131l5.572,6.036
			C12.277,13.811,12.557,13.611,12.832,13.399z"/>
	</g>
</g>
</svg>
