<?xml version="1.0" encoding="utf-8"?>
<!-- Generator: Adobe Illustrator 16.0.0, SVG Export Plug-In . SVG Version: 6.00 Build 0)  -->
<!DOCTYPE svg PUBLIC "-//W3C//DTD SVG 1.1//EN" "http://www.w3.org/Graphics/SVG/1.1/DTD/svg11.dtd">
<svg version="1.1" id="Layer_1" xmlns="http://www.w3.org/2000/svg" xmlns:xlink="http://www.w3.org/1999/xlink" x="0px" y="0px"
	 width="179.999px" height="45px" viewBox="0 0 179.999 45" enable-background="new 0 0 179.999 45" xml:space="preserve">
<g>
	<g>
		<g>
			<g>
				<path fill="#88283C" d="M105.81,34.674v6.146h-0.962v-6.146H105.81z"/>
				<path fill="#88283C" d="M107.492,40.82v-6.146h1.051l2.389,3.109c0.554,0.722,0.985,1.368,1.339,1.998l0.022-0.01
					c-0.088-0.82-0.11-1.568-0.11-2.526v-2.571h0.907v6.146h-0.974l-2.367-3.119c-0.52-0.684-1.017-1.387-1.393-2.052l-0.034,0.009
					c0.055,0.776,0.077,1.514,0.077,2.536v2.626H107.492z"/>
				<path fill="#88283C" d="M116.188,35.349h-2.267v-0.675h5.52v0.675h-2.279v5.472h-0.973V35.349z"/>
				<path fill="#88283C" d="M124.131,37.938h-2.898v2.217h3.229v0.665h-4.192v-6.146h4.027v0.665h-3.064v1.942h2.898V37.938z"/>
				<path fill="#88283C" d="M125.713,34.756c0.487-0.082,1.184-0.128,1.848-0.128c1.029,0,1.692,0.155,2.158,0.502
					c0.376,0.273,0.586,0.692,0.586,1.167c0,0.812-0.619,1.35-1.405,1.569v0.026c0.576,0.164,0.919,0.602,1.095,1.24
					c0.244,0.857,0.421,1.451,0.575,1.688h-0.996c-0.122-0.173-0.287-0.702-0.497-1.468c-0.221-0.848-0.62-1.167-1.494-1.195h-0.908
					v2.663h-0.962V34.756z M126.676,37.556h0.985c1.028,0,1.681-0.465,1.681-1.167c0-0.794-0.696-1.141-1.715-1.149
					c-0.464,0-0.796,0.036-0.952,0.073V37.556z"/>
				<path fill="#88283C" d="M131.667,40.82v-6.146h1.05l2.39,3.109c0.553,0.722,0.984,1.368,1.338,1.998l0.022-0.01
					c-0.088-0.82-0.11-1.568-0.11-2.526v-2.571h0.907v6.146h-0.973l-2.367-3.119c-0.52-0.684-1.018-1.387-1.394-2.052l-0.033,0.009
					c0.056,0.776,0.078,1.514,0.078,2.536v2.626H131.667z"/>
				<path fill="#88283C" d="M140.152,38.888l-0.775,1.933h-0.995l2.534-6.146h1.161l2.544,6.146h-1.028l-0.797-1.933H140.152z
					 M142.597,38.267l-0.73-1.769c-0.167-0.402-0.276-0.767-0.387-1.122h-0.022c-0.11,0.365-0.233,0.738-0.377,1.113l-0.729,1.777
					H142.597z"/>
				<path fill="#88283C" d="M146.58,35.349h-2.268v-0.675h5.52v0.675h-2.279v5.472h-0.973V35.349z"/>
				<path fill="#88283C" d="M151.733,34.674v6.146h-0.962v-6.146H151.733z"/>
				<path fill="#88283C" d="M159.567,37.683c0,2.116-1.559,3.238-3.461,3.238c-1.971,0-3.354-1.259-3.354-3.119
					c0-1.951,1.473-3.229,3.463-3.229C158.251,34.573,159.567,35.859,159.567,37.683z M153.782,37.783
					c0,1.312,0.863,2.49,2.379,2.49c1.525,0,2.389-1.158,2.389-2.554c0-1.222-0.775-2.499-2.379-2.499
					C154.579,35.221,153.782,36.435,153.782,37.783z"/>
				<path fill="#88283C" d="M160.599,40.82v-6.146h1.051l2.391,3.109c0.551,0.722,0.982,1.368,1.338,1.998l0.021-0.01
					c-0.088-0.82-0.111-1.568-0.111-2.526v-2.571h0.906v6.146h-0.973l-2.367-3.119c-0.52-0.684-1.018-1.387-1.395-2.052
					l-0.033,0.009c0.055,0.776,0.078,1.514,0.078,2.536v2.626H160.599z"/>
				<path fill="#88283C" d="M168.86,38.888l-0.771,1.933h-0.996l2.533-6.146h1.16l2.545,6.146h-1.029l-0.795-1.933H168.86z
					 M171.306,38.267l-0.729-1.769c-0.166-0.402-0.275-0.767-0.387-1.122h-0.023c-0.111,0.365-0.232,0.738-0.375,1.113l-0.729,1.777
					H171.306z"/>
				<path fill="#88283C" d="M174.206,34.674h0.963v5.481h3.186v0.665h-4.148V34.674z"/>
			</g>
			<g>
				<path fill="#88283C" d="M105.81,34.674v6.146h-0.962v-6.146H105.81z"/>
				<path fill="#88283C" d="M107.492,40.82v-6.146h1.051l2.389,3.109c0.554,0.722,0.985,1.368,1.339,1.998l0.022-0.01
					c-0.088-0.82-0.11-1.568-0.11-2.526v-2.571h0.907v6.146h-0.974l-2.367-3.119c-0.52-0.684-1.017-1.387-1.393-2.052l-0.034,0.009
					c0.055,0.776,0.077,1.514,0.077,2.536v2.626H107.492z"/>
				<path fill="#88283C" d="M116.188,35.349h-2.267v-0.675h5.52v0.675h-2.279v5.472h-0.973V35.349z"/>
				<path fill="#88283C" d="M124.131,37.938h-2.898v2.217h3.229v0.665h-4.192v-6.146h4.027v0.665h-3.064v1.942h2.898V37.938z"/>
				<path fill="#88283C" d="M125.713,34.756c0.487-0.082,1.184-0.128,1.848-0.128c1.029,0,1.692,0.155,2.158,0.502
					c0.376,0.273,0.586,0.692,0.586,1.167c0,0.812-0.619,1.35-1.405,1.569v0.026c0.576,0.164,0.919,0.602,1.095,1.24
					c0.244,0.857,0.421,1.451,0.575,1.688h-0.996c-0.122-0.173-0.287-0.702-0.497-1.468c-0.221-0.848-0.62-1.167-1.494-1.195h-0.908
					v2.663h-0.962V34.756z M126.676,37.556h0.985c1.028,0,1.681-0.465,1.681-1.167c0-0.794-0.696-1.141-1.715-1.149
					c-0.464,0-0.796,0.036-0.952,0.073V37.556z"/>
				<path fill="#88283C" d="M131.667,40.82v-6.146h1.05l2.39,3.109c0.553,0.722,0.984,1.368,1.338,1.998l0.022-0.01
					c-0.088-0.82-0.11-1.568-0.11-2.526v-2.571h0.907v6.146h-0.973l-2.367-3.119c-0.52-0.684-1.018-1.387-1.394-2.052l-0.033,0.009
					c0.056,0.776,0.078,1.514,0.078,2.536v2.626H131.667z"/>
				<path fill="#88283C" d="M140.152,38.888l-0.775,1.933h-0.995l2.534-6.146h1.161l2.544,6.146h-1.028l-0.797-1.933H140.152z
					 M142.597,38.267l-0.73-1.769c-0.167-0.402-0.276-0.767-0.387-1.122h-0.022c-0.11,0.365-0.233,0.738-0.377,1.113l-0.729,1.777
					H142.597z"/>
				<path fill="#88283C" d="M146.58,35.349h-2.268v-0.675h5.52v0.675h-2.279v5.472h-0.973V35.349z"/>
				<path fill="#88283C" d="M151.733,34.674v6.146h-0.962v-6.146H151.733z"/>
				<path fill="#88283C" d="M159.567,37.683c0,2.116-1.559,3.238-3.461,3.238c-1.971,0-3.354-1.259-3.354-3.119
					c0-1.951,1.473-3.229,3.463-3.229C158.251,34.573,159.567,35.859,159.567,37.683z M153.782,37.783
					c0,1.312,0.863,2.49,2.379,2.49c1.525,0,2.389-1.158,2.389-2.554c0-1.222-0.775-2.499-2.379-2.499
					C154.579,35.221,153.782,36.435,153.782,37.783z"/>
				<path fill="#88283C" d="M160.599,40.82v-6.146h1.051l2.391,3.109c0.551,0.722,0.982,1.368,1.338,1.998l0.021-0.01
					c-0.088-0.82-0.111-1.568-0.111-2.526v-2.571h0.906v6.146h-0.973l-2.367-3.119c-0.52-0.684-1.018-1.387-1.395-2.052
					l-0.033,0.009c0.055,0.776,0.078,1.514,0.078,2.536v2.626H160.599z"/>
				<path fill="#88283C" d="M168.86,38.888l-0.771,1.933h-0.996l2.533-6.146h1.16l2.545,6.146h-1.029l-0.795-1.933H168.86z
					 M171.306,38.267l-0.729-1.769c-0.166-0.402-0.275-0.767-0.387-1.122h-0.023c-0.111,0.365-0.232,0.738-0.375,1.113l-0.729,1.777
					H171.306z"/>
				<path fill="#88283C" d="M174.206,34.674h0.963v5.481h3.186v0.665h-4.148V34.674z"/>
			</g>
		</g>
		<path fill="#8A002F" d="M42.067,12.929c-0.004,0.021-0.012,0.045-0.022,0.071c-0.011,0.025-0.024,0.056-0.04,0.087l-0.357,0.549
			l-0.043,0.705l-0.276,0.376l0.075,0.82l-0.286,0.583l-0.122,1.355l-0.019,0.095c-0.013,0.064-0.047,0.136-0.106,0.221l-0.11,0.898
			l-0.125,0.647l-0.215,0.945l-0.36,0.646l-0.021,0.585l-0.098,0.345l-0.222,0.978c-0.055,0.284-0.581,1.214-0.581,1.214
			l-0.109,0.395l-0.391,0.804c-0.237,0.516-0.393,0.772-0.465,0.772l-1.08,1.262c-0.309,0.021-0.514,0.615-0.514,0.615l-1.508,1.104
			c-0.894,0.662-1.8,0.993-2.714,0.993c-0.094,0-0.243-0.039-0.449-0.117c-0.287,0.117-0.695,0.175-1.231,0.175h-0.615
			c-0.462,0-0.957-0.106-1.482-0.317c-0.055-0.374-1.42-0.325-1.42-0.325l-0.539-0.221l-0.877-0.521l-0.837-0.317l-0.355-0.363
			l-0.272-0.221l0.173-2.437l0.044-0.221l0.696-0.428l0.206,0.33l0.322,1.26l0.591,0.535l0.478,0.614h0.363
			c0.569,0.587,1.126,0.88,1.674,0.88l0.637,0.211c0.193,0.25,0.725,0.296,0.904,0.141c0.226,0.078,0.476,0.116,0.749,0.116h0.614
			l0.873-0.031l0.733-0.283c1.095-0.554,1.759-1.025,1.992-1.413l0.235-0.393l0.637-0.771l0.177-0.424l0.257-0.188l0.047-0.407
			l0.152-0.457l0.424-1.13l0.536-1.791l0.236-0.394l0.044-0.392l0.205-0.896l0.011-0.22l0.114-0.094c0,0,0.451-0.602,0.056-0.624
			l0.051-0.423l0.183-1.748l0.035-0.188l0.339-1.259c0.019-0.104,0.02-0.166,0.005-0.189l-0.141-0.582
			c-0.063,0-0.066-0.141-0.012-0.421l0.035-0.188l0.243-0.924l0.151-0.615c0.009-0.041,0.003-0.072-0.014-0.092l-0.135-0.52
			c-0.018-0.126-0.018-0.236,0.001-0.33c0.038-0.199,0.156-0.457,0.354-0.772l0.079-0.252l-0.135-0.031l-0.169,0.059l-0.208-0.224
			c-0.218-0.234-0.318-0.4-0.298-0.496l0.005-0.032l0.977-0.562l1.036-0.624l0.828-0.289l0.255-0.336l0.406-0.063
			c0.195,0.294,0.263,0.594,0.204,0.898l-0.203,0.726c0,0-0.128,0.41,0.081,0.472l-0.095,0.489l-0.042,0.221l-0.195,1.166
			l0.008,0.773L42.067,12.929z"/>
		<path fill="#8A002F" d="M56.572,28.227c-0.127,0.273-0.322,0.463-0.584,0.567l-1.965,0.791c-0.289-0.188-0.393-0.491-0.312-0.91
			l0.206-0.895l-0.272-0.063l-1.133,0.478l-1.584,0.691l-0.637,0.278l-1.975,0.354l-0.65,0.185h-0.159
			c-0.105,0-0.176-0.009-0.214-0.028l-1.288-0.03l-1.84-0.35c-0.114-0.054-0.281-0.146-0.496-0.283
			c-0.215-0.135-0.39-0.286-0.525-0.455c-0.372-0.522-0.504-1.056-0.399-1.6c0.032-0.168-0.053-0.706-0.053-0.706l0.087-0.611
			l0.132-0.848c0.049-0.251,0.131-0.461,0.249-0.628l0.406-0.548l-0.129-0.879l0.211-0.926l0.174-1.067
			c0.023-0.062,0.266-1.201,0.266-1.201l-0.151-0.204l0.062-0.314l0.399-1.903c0.057-0.294,0.068-0.519,0.036-0.676l-0.089-0.188
			c0.005-0.021,0.005-0.039,0.003-0.055c-0.003-0.016-0.007-0.028-0.016-0.039c0.033-0.179,0.192-0.341,0.473-0.488l0.208-0.095
			l1.261-0.487c0.407-0.146,0.68-0.222,0.814-0.222c0.158,0,0.272,0.15,0.34,0.442l0.088,0.362c-0.325,0.59-0.536,1.136-0.634,1.64
			L46.8,18.229l-0.104,0.378l-0.418,0.771c-0.065,0.286-0.051,1.812-0.051,1.812l-0.594,1.198l0.051,0.378l-0.257,0.678
			l-0.302,0.914c-0.016,0.086-0.02,0.148-0.005,0.189l0.143,0.396l-0.212,1.671c0.004,0.303,0.097,0.519,0.277,0.645
			c0.18,0.126,0.571,0.289,1.173,0.489l1.106,0.314c0.202,0.041,0.549,0.062,1.042,0.062c0.357,0,0.627-0.032,0.809-0.1l0.967-0.367
			c0,0,1.812-0.669,2.366-1.039c0.556-0.369,1.131-0.974,1.131-0.974c0.196-0.209,0.349-0.503,0.454-0.881l0.438-1.602l-0.085-0.708
			l0.144-0.58l0.544-2.483l0.069-0.832l0.025-0.958c0.031-0.157,0.132-0.833,0.132-0.833l0.014-0.487l0.024-0.125l0.237-0.487
			l0.065-0.331l0.241,0.06l1.867-0.611c0.01,0,0.022-0.006,0.034-0.016c0.014-0.011,0.023-0.016,0.035-0.016
			c0.116,0,0.195,0.098,0.235,0.292s0.032,0.448-0.03,0.766l-0.745,3.198l-0.698,2.459c0,0-0.203,0.727-0.152,0.779
			c0.054,0.054,0.071,0.121,0.056,0.205l-0.734,2.974l0.207,0.554l-0.139,1.533c0.04,0.063,0.094,0.144,0.165,0.245
			C56.394,27.859,56.477,28.015,56.572,28.227z"/>
		<path fill="#8A002F" d="M78.481,28.364l-0.452,0.219l-0.886,0.42l-0.968,0.609c-0.068,0.021-0.144,0.031-0.228,0.031
			c-0.073,0-0.221-0.021-0.444-0.063l0.089-0.783l0.142-0.408l0.379-0.739l0.128-1.551l0.309-0.864l0.187-0.802
			c0,0,0.444-1.149,0.282-1.285l0.038-0.361l0.247-1.601c0.025-0.125,0.052-0.209,0.08-0.251l0.307-1.741l0.043-1.444l-0.051-0.392
			l-0.259-0.126l-0.624-0.44c-0.102-0.073-0.332-0.109-0.687-0.109c-0.517,0-0.956,0.037-1.324,0.11
			c-0.366,0.074-0.812,0.219-1.338,0.439c-0.809,0.377-1.238,0.7-1.291,0.973l-0.217,1.114l-0.784,4.535
			c-0.184,0.085-0.352,1.331-0.352,1.331l-0.203,0.552l0.003,0.315c0.023,0.253,0.023,0.637-0.003,1.151
			c-0.026,0.516-0.065,0.908-0.12,1.183c-0.006,0.033-0.041,0.074-0.104,0.128l-0.244,0.125l-0.665,0.426l-1.004,0.379l-0.328,0.142
			c-0.053,0-0.165-0.078-0.332-0.236l0.036-0.19l0.438-1.609l0.208-1.403c0.042-0.21,0.1-0.365,0.178-0.466
			c0.076-0.101,0.21-2.014,0.21-2.014l0.151-0.456l0.282-1.296c0,0,0.346-1.242,0.296-1.204l-0.095-0.316L69.59,20l0.156-0.647
			l0.064-0.331c0.256-1.327,0.038-1.99-0.654-1.99c-0.116,0-0.292,0.04-0.527,0.117l-0.983-0.138l-0.791,0.096l-0.833,0.314
			l-0.631,0.078l-0.647,0.503c-0.404,0.567-0.676,1.003-0.815,1.306c-0.136,0.305-0.248,0.677-0.333,1.116l-0.05,0.253l-0.358,2.169
			l-0.105,0.378l-0.194,1.006l-0.341,1.604l-0.33,2.829c-0.019,0.043-0.074,0.105-0.163,0.19c-0.09,0.084-0.21,0.163-0.361,0.235
			l-1.141,0.52c-0.107,0.062-0.25,0.094-0.428,0.094c-0.137,0-0.294-0.031-0.471-0.094l0.076-0.395l0.083-0.423l0.335-1.572
			l0.031-0.644l0.275-1.101l0.043-0.378l0.041-0.22l0.109-0.234c0,0,0.321-1.176,0.275-1.297c-0.046-0.12-0.023-0.406,0.064-0.856
			c0.062-0.312,0.116-0.572,0.166-0.77l0.181-0.771l0.063-0.329l0.325-1.839l0.102-1.178l-0.021-0.613l-0.13-0.308l-0.287-0.313
			c0.255-0.345,0.567-0.634,0.933-0.869c0.365-0.235,0.911-0.483,1.633-0.744c0.226,0.242,0.367,0.431,0.42,0.567
			c0.052,0.137,0.052,0.336,0.001,0.598l-0.144,0.582l-0.157,0.646l0.61-0.128l0.74-0.661l0.474-0.161l0.75-0.531l1.863-0.597
			l0.278-0.128l0.387-0.129c0.132,0.189,1.282,0,1.387,0c0.021,0,0.35-0.015,0.35-0.015c0.121-0.03,0.234-0.044,0.339-0.044
			c0.336,0,0.595,0.126,0.779,0.377c0.182,0.251,0.27,0.605,0.267,1.063c0,0.159,0.015,0.275,0.043,0.345
			c0.028,0.069,0.104,0.137,0.228,0.2l0.311-0.225l0.607-0.526l0.677-0.319l0.953-0.527l0.397-0.096h0.032l0.666,0.058l0.657-0.219
			h0.946l0.549-0.072l0.51,0.226l0.615,0.159c0.571,0.14,0.801,0.496,0.691,1.062c0.115,0.322,0.129,0.882,0.129,0.882l-0.104,0.862
			l0.082,0.391l-0.017,0.251l-0.264,1.032l-0.204,0.893l-0.07,0.359l-0.609,2.332l-0.038,0.517l-0.007,0.032l-0.237,1.063
			l0.025,0.031l-0.039,0.532c-0.05,0.095-0.223,0.818-0.223,0.818l-0.003,0.344l-0.212,1.093L78.481,28.364z"/>
		<path fill="#8A002F" d="M100.073,22.692l-0.479,0.846l-0.23,0.375l-0.571,0.579l-0.45,0.612l-0.49,0.422l-0.372,0.377
			l-0.234,0.062c0,0-1.264,1.032-1.428,1.154c-0.167,0.127-1.395,0.795-1.701,1.044c-0.305,0.248-0.773,0.479-1.402,0.69
			l-0.921,0.286l-0.759,0.253l-2.279,0.367c-0.206-0.125-0.361-0.191-0.464-0.201c-0.103-0.012-0.434-0.043-0.992-0.094
			l-0.371-0.031l-0.857-0.141h-0.441h-0.71l-0.275-0.117l-0.17,0.395l-0.394,2.356l-0.294,1.519l-0.475,2.926l-0.291,1.831
			l-0.175,1.068l-0.091,1.035l-0.073,0.707c-0.038,0.198-0.17,0.706-0.17,0.706l-0.092,0.313l0.011,0.771l-0.039,0.517l-0.247,0.298
			l-0.455,0.313l-0.416,0.519l-0.42,0.126l-0.912,0.393L79.671,45l-0.577-0.031l0.083-0.583l0.132-0.52l0.366-1.32l0.225-1.322
			c0.036-0.137,0.084-0.247,0.143-0.331c0.058-0.083,0.167-0.177,0.324-0.282l0.04-1.022c0.238-0.2,0.348-0.977,0.303-1.039
			c-0.046-0.063-0.073-0.157-0.078-0.283l0.237-0.583l0.021-0.423l0.292-1.668l0.181-1.259l0.447-1.494l0.247-2.565l0.044-0.235
			l1.208-5.256l0.104-1.667l0.082-0.425l0.368-2.312l0.05-0.251l0.236-0.646l0.082-1.322c0.072-0.365,0.092-0.595,0.062-0.684
			c-0.03-0.09-0.16-0.208-0.396-0.354c0.096-0.336,0.2-0.552,0.315-0.646l0.351-0.188l0.903-0.835l0.753-0.392l0.43-0.191
			c0.196,0.021,0.418,0.156,0.663,0.405L87.19,15.57l-0.154,0.467l-0.02,0.265l0.278,0.029l0.609-0.3
			c0.705-0.328,1.218-0.545,1.536-0.65c0.323-0.105,0.649-0.159,0.986-0.159c0.178,0,0.312,0.028,0.401,0.083
			c0.089,0.056,0.76-0.144,0.76-0.144l0.415-0.1l0.67-0.131l1.771,0.059l1.525-0.059c0.199,0,0.404,0.155,0.618,0.467
			c0.042,0,0.083,0,0.126,0c0.041,0,0.072,0,0.095,0c0.084,0,0.252,0.077,0.507,0.232l1.054,0.573
			c0.194,0.08,0.313,0.174,0.356,0.276c0,0,0.683,0.708,0.848,0.669c0.269,0.241,0.477,0.548,0.624,0.924
			c0.097,0.262,0.167,0.728,0.209,1.402c0.043,0.673,0.031,1.182-0.035,1.526l-0.011,0.062l-0.197,0.518l-0.115,0.438
			L100.073,22.692z M97.741,20.585l-0.11-0.738l-0.572-1.192l-0.968-0.863l-1.1-0.832l-0.88-0.097l-0.792-0.298l-2.293,0.031h-0.362
			l-0.454,0.062l-1.363,0.362l-0.671,0.127l-0.562,0.219l-0.399,0.111c-0.259,0.084-0.44,0.392-0.545,0.928l-0.034,0.188
			c-0.431,0.65-0.312,1.447-0.312,1.447l-0.215,0.786l-0.286,1.793c-0.025,0.138-0.259,1.663-0.33,2.029l-0.344,1.447l-0.139,0.551
			l0.413,0.235l0.736,0.347l0.788,0.254l0.392,0.167l1.338,0.092l1.063,0.442l1.327-0.176h0.82l0.647-0.25l0.705-0.299l0.897-0.566
			l0.692-0.392l0.703-0.706l0.773-0.486c0.436-0.252,0.702-0.508,0.794-0.77l0.182-0.611l0.542-0.771
			c0.016-0.021,0.026-0.038,0.034-0.055c0.009-0.016,0.015-0.027,0.017-0.038l0.18-1.256l0.039-0.361
			C98.092,21.448,97.771,20.857,97.741,20.585z"/>
		<path fill="#8A002F" d="M120.505,21.743c-0.049,0.251-0.159,0.549-0.331,0.895c0,0-0.847,1.801-0.956,1.926l-1.049,1.098
			l-0.375,0.47l-0.738,0.642l-0.728,0.579c0,0-0.386,0.438-1.187,0.868c-0.801,0.431-1.962,0.903-1.962,0.903l-1.306,0.392
			c-0.318,0.124-0.557,0.188-0.713,0.188c-0.042,0-0.151-0.021-0.321-0.059c-0.335,0.155-0.703,0.233-1.101,0.233l-0.735-0.032
			h-1.435l-0.478-0.128l-1.853-0.126l-1.233-0.297l-0.445-0.062l-0.429-0.064l-1.871-1.008l-0.779-0.533
			c-0.317-0.262-0.464-0.446-0.444-0.551c0.04-0.21,0.174-0.471,0.402-0.78c0.228-0.309,0.483-0.59,0.764-0.842
			c0.362-0.345,0.73-0.545,1.107-0.599l0.01,1.169c0.202,0.104,0.326,0.193,0.375,0.266c0.048,0.073,0.463,0.377,0.463,0.377
			l0.276,0.206l0.195,0.378l0.997,0.299l0.98,0.473l2.072,0.458c0.323,0.232,1.134-0.004,1.134-0.004l1.95,0.117l0.994-0.176
			l0.609-0.127l0.723-0.235c0.403-0.126,0.702-0.295,0.903-0.507l0.575-0.616l0.666-0.583c0.114-0.148,0.245-0.396,0.396-0.744
			c0.41,0,0.735-1.106,0.735-1.106l0.307-0.285l0.774-1.47h0.157l0.118-0.932l-0.147-0.869l-0.506-0.396l-1.029-0.711l-1.311-0.553
			l-1.146-0.266l-2.144-0.09l-0.849-0.086l-0.348-0.079l-0.861-0.192c-0.576-0.116-1.016-0.225-1.316-0.325
			c-0.3-0.1-0.546-0.23-0.736-0.391c0,0-0.488-0.568-0.686-0.531c-0.323-0.282-0.525-0.504-0.603-0.667
			c-0.08-0.162-0.313-1.357-0.313-1.357l0.05-0.502l0.038-0.517l0.03-0.155l0.331-0.64l0.259-0.358l0.284-0.488
			c0,0,1.048-0.857,1.132-1.287l0.325-0.22l1.968-1.287l0.825-0.439l1.334-0.611l1.792-0.55l0.418-0.126l0.422-0.062l0.999-0.11
			l0.51-0.188l1.558,0.175h0.709l0.409,0.169l0.752,0.185c0.51,0.134,0.745,0.302,0.706,0.508c-0.016,0.081-0.041,0.153-0.074,0.214
			c-0.224,0.072-0.343,0.112-0.353,0.124l-0.48,0.353c-0.287,0.175-0.739,0.339-1.357,0.491l-0.294-0.188l-0.717-0.607l-0.444-0.063
			l-1.245-0.25l-0.747,0.031L113.99,8.93l-1.702,0.803l-1.209,0.551l-0.853,0.582l-0.442,0.41l-0.91,1.198l-0.516,1.034
			c-0.063,0.104-0.107,0.22-0.131,0.345c-0.02,0.106-0.001,0.277,0.059,0.516l0.282,0.896l0.515,0.52l1.18,0.582l1.399,0.258
			l0.946,0.092l0.429,0.142l0.562-0.059c0.104,0,0.176,0.012,0.214,0.03l0.799,0.188l1.596,0.306l0.825,0.059h0.614
			c0.336,0,0.631,0.134,0.884,0.396c0,0,0.962,0.675,1.008,0.654h0.031c0.147,0,0.444,0.367,0.891,1.099l0.191,0.312l-0.019,0.425
			L120.505,21.743z"/>
		<path fill="#8A002F" d="M149.964,28.102l-0.213,0.295l-0.326,0.372l-0.489,0.171l-0.713,0.345l-0.651,0.19
			c-0.419,0.156-0.662,0.235-0.725,0.235c-0.074,0-0.137-0.039-0.189-0.118s-0.073-0.149-0.062-0.211
			c0.021-0.105,0.118-0.339,0.294-0.704c0.074-0.104,0.149-0.285,0.231-0.545l-0.354,0.202l-1.508,0.465
			c-0.311,0.136-0.607,0.203-0.891,0.203h-0.031h-0.615l-0.809,0.345l-0.518,0.062l-1.523,0.301l-1.035,0.062l-0.312,0.063
			l-0.465-0.032l-1-0.219l-0.696-0.062c-0.471-0.062-0.859-0.228-1.159-0.492c-0.298-0.266-0.493-0.606-0.582-1.022l-0.395-0.158
			l-0.018-0.395l0.023-0.284l-0.077-0.741l0.81-1.17l0.29-0.52c0.09-0.138,0.324-0.337,0.7-0.6l1.425-1.01l0.557-0.189
			c0,0,0.598-0.52,0.627-0.511c0.029,0.011,0.59-0.08,0.617-0.062c0.555-0.369,1.283-0.517,1.283-0.517s0.661-0.286,0.81-0.351
			c0.149-0.063,0.42-0.134,0.812-0.208l2.039-0.351l0.572,0.058l0.771-0.156l1.351-0.141c0.473-0.104,0.739-0.315,0.802-0.638
			c0.008-0.043,0.004-0.073-0.014-0.094l-0.021-0.702c0,0,0.23-1.149-0.352-1.685l-0.15-0.359c-0.158-0.374-0.301-0.615-0.428-0.725
			s-0.386-0.205-0.777-0.289l-0.86-0.203l-0.86-0.029l-0.438,0.059c-0.086-0.045-1.295,0.181-1.295,0.181l-1.696,0.772
			c-0.36,0.179-0.609,0.354-0.746,0.522l-0.284,0.313c-0.137,0.17-0.294,0.254-0.473,0.254l-0.303-0.062l-0.416-0.224l-0.469-0.095
			c-0.148-0.052-0.289-0.141-0.421-0.268c-0.133-0.127-0.188-0.245-0.169-0.35c0.013-0.062,0.028-0.095,0.05-0.095l0.306-0.19
			l0.58-0.396l0.57-0.097l0.92-0.427l1.107-0.348l0.296-0.064l0.747-0.364l0.529,0.117l1.986-0.408l0.799,0.031h0.615l0.602,0.216
			l1.809,0.354l0.254,0.155l0.574,0.704h0.062c0.104,0,0.162,0.053,0.174,0.156l0.203,0.581l0.211,0.613
			c0,0-0.176,1.445,0.113,1.696l-0.246,2.325l-0.16,1.146l-0.008,0.205l-0.38,1.477l-0.094,1.13l-0.05,0.253l-0.07,0.361
			c0,0-0.27,0.746-0.235,0.887c0.038,0.143,0.079,0.308,0.128,0.495L149.964,28.102z M147.756,25.024l0.188-0.644l0.154-1.445
			l-0.178-0.708l-0.28,0.06l-1.429-0.116l-0.688,0.057l-0.8-0.181l-0.874,0.029l-0.654,0.211l-0.824,0.093l-2.582,1.131
			l-0.595,0.378l-0.527,0.611c0,0-0.665,0.451-0.747,1.008s0.071,1.415,0.071,1.415l0.195,0.708c0.123,0.126,0.24,0.23,0.349,0.313
			c0.11,0.084,0.25,0.154,0.418,0.21c0.166,0.059,0.379,0.117,0.641,0.18l1.672,0.249l0.527,0.029l0.193-0.091
			c0.236,0.082,1.17-0.021,1.73-0.312c0.037-0.02,0.08-0.044,0.139-0.069c0.059-0.024,0.145-0.07,0.263-0.132
			c0.944,0,1.608-0.193,1.987-0.581l0.396-0.409l0.895-0.644l0.07-0.188l0.008-0.204C147.642,25.931,147.78,25.118,147.756,25.024z"
			/>
		<path fill="#8A002F" d="M166.333,15.994c-0.01,0.053-0.039,0.1-0.088,0.142l-1.037,0.698l-0.582,0.499l-0.305,0.107l-0.375-0.271
			l-0.227-0.287l-0.941-0.031c0,0-1.51-0.077-1.666-0.018c-0.16,0.059-0.465,0.089-0.916,0.089l-0.564,0.226l-0.734,0.135
			l-1.451,0.978c-0.264,0.275-0.48,0.779-0.656,1.515l-0.264,1.198l-0.094,1.701l-0.332,2.034l-0.176,1.072l-0.365,1.726
			l0.004,0.627l-0.014,0.079c-0.031,0.155-0.148,0.317-0.35,0.484c-0.199,0.167-0.391,0.262-0.572,0.28l-0.629,0.064l-1.021,0.484
			l-0.352-0.235l0.125-0.315l0.398-0.91l0.141-1.211l0.129-0.174l0.291-0.925l0.076-0.646l-0.02-0.55l0.006-0.031l0.082-0.426
			l0.129-0.502c0.051-0.053,0.107-0.107,0.166-0.165c0.061-0.058,0.094-1.327,0.137-1.548l0.293-1.195l0.135-1.179
			c0.051-0.104,0.139-0.203,0.262-0.3l-0.08-0.644l0.012-0.377l0.133-0.85l-0.217-0.677c0.146-0.376,0.375-0.696,0.691-0.957
			l1.076-0.52l0.656-0.377c0.277,0.085,0.461,0.186,0.549,0.302c0.086,0.117,0.105,0.307,0.055,0.571l-0.018,0.095l-0.084,0.43
			c-0.076,0.392-0.031,0.588,0.137,0.588h0.066l0.887-0.435l0.848-0.308l1.504-0.758l0.479-0.194l0.338,0.117l0.752-0.22
			c0.436-0.126,0.756-0.188,0.967-0.188l0.666,0.066c0.15,0.306,0.934,0.231,0.934,0.231c0.092-0.043,0.158-0.064,0.201-0.064
			c0.262,0,0.48,0.141,0.658,0.42C166.315,15.663,166.364,15.839,166.333,15.994z"/>
		<path fill="#8A002F" d="M179.999,15.455l-0.242,0.44l-0.096,0.329l-1.297,0.832l-0.795,0.613l-0.406,0.062l-0.572-0.062
			c-0.383-0.039-0.725-0.099-1.029-0.174c-0.307-0.076-0.447-0.115-0.426-0.115h-0.033l-1.066,0.059l-0.594-0.117
			c-0.152,0.022-0.582,0.651-0.463,0.683l-0.428,2.043c-0.176,0.72-0.441,2.598-0.441,2.598l-0.031,0.333
			c0,0-0.377,1.021-0.229,1.177l-0.381,2.123l0.004,0.313l0.219,0.737c0.008,0.062-0.016,0.247-0.076,0.551
			c0.232,0.157,0.416,0.257,0.549,0.298c0.133,0.042,0.326,0.063,0.58,0.063c0.336,0,0.68-0.057,1.033-0.174
			c0.354-0.116,0.648-0.265,0.881-0.445l1.842-1.43c0.076-0.074,0.168-0.112,0.271-0.112c0.127,0,0.297,0.068,0.51,0.206
			l-0.16,0.346c-0.389,0.87-0.662,1.333-0.82,1.385l-3.967,1.354l-0.709,0.33l-0.994,0.085l-0.289,0.032
			c-0.316,0-0.652-0.153-1.014-0.457c-0.373-0.356-0.561-0.623-0.557-0.802l-0.006-0.457l-0.084-0.536l0.201-0.881l0.193-0.991
			l0.496-1.416l0.043-0.552l0.07-0.361l0.355-1.513l0.049-0.423l0.041-0.535c0.01-0.043,0.021-0.064,0.047-0.064l0.051-1.228
			c0.252-0.766,0.451-1.531,0.602-2.298c-0.484-0.104-0.854-0.157-1.107-0.157c-0.65,0-1.33,0.116-2.037,0.351
			c-0.07-0.072-0.096-0.152-0.08-0.236c0.033-0.178,0.1-0.294,0.195-0.348l0.715-0.518l0.162-0.364
			c0.049-0.082,0.113-0.149,0.197-0.203c0.086-0.054,0.148-0.078,0.191-0.078l1.84-0.064l0.436-0.062l0.039-0.361l0.555-3.344
			l-0.219-0.897v-0.489c0.398-0.439,0.775-0.755,1.127-0.944c0.354-0.188,0.783-0.325,1.295-0.408
			c0.271-0.326,0.488-0.488,0.645-0.488c0.283,0,0.336,0.475,0.148,1.427c-0.279,1.443-0.607,2.468-0.986,3.075
			c-0.232,0.426-0.451,1.384-0.402,1.409c0.047,0.027,0.098,0.093,0.15,0.196l-0.178,0.439l-0.008,0.361l0.324,0.031l1.512,0.345
			c0.117,0.041,0.285,0.063,0.506,0.063c0.23,0,0.398-0.02,0.502-0.062l0.65-0.188l1.207-0.125l0.977-0.327h0.316h0.125h0.363
			C179.993,15.427,179.997,15.467,179.999,15.455z"/>
		<path fill="#8A002F" d="M135.558,15.455l-0.242,0.44l-0.095,0.329l-1.298,0.832l-0.794,0.613l-0.406,0.062l-0.572-0.062
			c-0.381-0.039-0.725-0.099-1.031-0.174c-0.306-0.076-0.447-0.115-0.427-0.115h-0.032l-1.066,0.059l-0.593-0.117
			c-0.152,0.022-0.582,0.651-0.463,0.683l-0.429,2.043c-0.174,0.72-0.439,2.598-0.439,2.598l-0.032,0.333
			c0,0-0.378,1.021-0.229,1.177l-0.38,2.123l0.002,0.313l0.219,0.737c0.01,0.062-0.016,0.247-0.074,0.551
			c0.231,0.157,0.416,0.257,0.549,0.298c0.134,0.042,0.328,0.063,0.579,0.063c0.336,0,0.681-0.057,1.034-0.174
			c0.353-0.116,0.648-0.265,0.883-0.445l1.839-1.43c0.076-0.074,0.167-0.112,0.273-0.112c0.127,0,0.297,0.068,0.51,0.206
			l-0.16,0.346c-0.39,0.87-0.663,1.333-0.821,1.385l-3.966,1.354l-0.71,0.33l-0.994,0.085l-0.291,0.032
			c-0.314,0-0.652-0.153-1.014-0.457c-0.373-0.356-0.558-0.623-0.556-0.802l-0.004-0.457l-0.085-0.536l0.202-0.881l0.192-0.991
			l0.497-1.416l0.043-0.552l0.07-0.361l0.356-1.513l0.05-0.423l0.04-0.535c0.009-0.043,0.022-0.064,0.045-0.064l0.05-1.228
			c0.253-0.766,0.453-1.531,0.602-2.298c-0.484-0.104-0.852-0.157-1.104-0.157c-0.652,0-1.331,0.116-2.038,0.351
			c-0.069-0.072-0.097-0.152-0.079-0.236c0.032-0.178,0.098-0.294,0.192-0.348l0.716-0.518l0.164-0.364
			c0.048-0.082,0.113-0.149,0.197-0.203c0.083-0.054,0.148-0.078,0.19-0.078l1.841-0.064l0.436-0.062l0.04-0.361l0.553-3.344
			l-0.219-0.897l0.001-0.489c0.399-0.439,0.776-0.755,1.127-0.944c0.352-0.188,0.784-0.325,1.293-0.408
			c0.274-0.326,0.49-0.488,0.647-0.488c0.284,0,0.333,0.475,0.149,1.427c-0.28,1.443-0.61,2.468-0.991,3.075
			c-0.228,0.426-0.448,1.384-0.4,1.409c0.048,0.027,0.098,0.093,0.153,0.196l-0.18,0.439l-0.007,0.361l0.325,0.031l1.509,0.345
			c0.119,0.041,0.288,0.063,0.508,0.063c0.232,0,0.398-0.02,0.501-0.062l0.651-0.188l1.206-0.125l0.978-0.327h0.317h0.126h0.362
			C135.552,15.427,135.557,15.467,135.558,15.455z"/>
		<polygon fill="#8A002F" points="30.008,28.067 30.006,28.064 30.008,28.067 		"/>
		<polygon fill="#8A002F" points="30.623,11.609 28.995,9.638 26.564,10.53 27.993,8.417 26.366,6.444 28.874,7.111 30.302,5 
			30.423,7.524 32.931,8.19 30.5,9.085 		"/>
		<polygon fill="#8A002F" points="28.757,14.274 29.458,14.966 30.348,14.531 29.889,15.392 30.588,16.083 29.605,15.923 
			29.146,16.784 28.997,15.825 28.014,15.666 28.905,15.233 		"/>
		<polygon fill="#8A002F" points="34.921,11.9 34.246,11.565 33.71,12.086 33.828,11.359 33.155,11.026 33.902,10.911 
			34.021,10.183 34.364,10.839 35.111,10.725 34.578,11.244 		"/>
		<path fill="#8A002F" d="M15.059,24.203c0,0-3.216,3.883-7.307,5.474c4.835-7.974,7.307-22.4,7.307-22.4s2.472,14.427,7.306,22.4
			C18.275,28.086,15.059,24.203,15.059,24.203z"/>
		<path fill="#8A002F" d="M27.488,11.83c0,0-4.672,4.88-12.515,4.853C7.132,16.656,3.236,20.456,0,24.915c0,0,4.372-4.494,15-4.541
			C24.41,20.331,27.488,11.83,27.488,11.83z"/>
	</g>
</g>
</svg>
