<?xml version="1.0" encoding="utf-8"?>
<!-- Generator: Adobe Illustrator 16.0.0, SVG Export Plug-In . SVG Version: 6.00 Build 0)  -->
<!DOCTYPE svg PUBLIC "-//W3C//DTD SVG 1.1//EN" "http://www.w3.org/Graphics/SVG/1.1/DTD/svg11.dtd">
<svg version="1.1" id="Layer_1" xmlns="http://www.w3.org/2000/svg" xmlns:xlink="http://www.w3.org/1999/xlink" x="0px" y="0px"
	 width="131px" height="35px" viewBox="0 0 131 35" enable-background="new 0 0 131 35" xml:space="preserve">
<g>
	<g>
		<g>
			<g>
				<path fill="#F6B72D" d="M36.535,16.218c-0.413,0-0.698-0.043-0.959-0.09v-1.269c0.183,0.069,0.433,0.114,0.707,0.114
					c0.535,0,0.844-0.229,0.844-1.053V6.231h1.479v7.744C38.605,15.233,38.092,16.218,36.535,16.218z"/>
				<path fill="#F6B72D" d="M44.085,13.886c0-0.261,0.013-0.688,0.067-1.006l-0.022-0.012C43.799,13.535,43.139,14,42.216,14
					c-1.286,0-1.696-0.814-1.696-1.801V9.358c-0.272-0.046-0.649-0.092-0.979-0.115V8.337c0.752-0.09,1.651-0.123,2.438-0.101v3.612
					c0,0.588,0.158,0.938,0.694,0.938c0.74,0,1.321-0.838,1.321-1.823V8.247h1.445v4.518c0.274,0.045,0.66,0.092,0.99,0.113v0.905
					C45.714,13.875,44.837,13.909,44.085,13.886z"/>
				<path fill="#F6B72D" d="M54.529,13.875v-3.566c0-0.6-0.137-0.973-0.67-0.973c-0.639,0-1.301,0.748-1.301,1.844v2.695h-1.435
					v-3.565c0-0.555-0.114-0.973-0.672-0.973c-0.671,0-1.298,0.792-1.298,1.845v2.694h-1.446V9.361
					c-0.274-0.046-0.66-0.092-0.993-0.114V8.34c0.719-0.09,1.607-0.122,2.36-0.101c0,0.271-0.024,0.691-0.069,1.018h0.012
					c0.342-0.689,1.024-1.131,1.869-1.131c1.002,0,1.424,0.589,1.561,1.131c0.262-0.553,0.888-1.131,1.845-1.131
					c1.093,0,1.696,0.6,1.696,1.88v3.871h-1.457l0,0h-0.002V13.875z"/>
				<path fill="#F6B72D" d="M56.941,9.244V8.337c0.719-0.089,1.586-0.122,2.336-0.101c0,0.281-0.012,0.657-0.055,0.951h0.022
					c0.319-0.657,0.922-1.053,1.776-1.053c1.343,0,2.072,0.962,2.072,2.626c0,1.957-1.023,3.194-2.984,3.194
					c-0.273,0-0.49-0.013-0.73-0.047v2.695h-1.447V9.358C57.662,9.313,57.273,9.267,56.941,9.244z M60.602,9.324
					c-0.764,0-1.22,0.883-1.22,1.845v1.563c0.228,0.067,0.468,0.102,0.763,0.102c0.834,0,1.424-0.521,1.424-1.913
					C61.568,9.867,61.264,9.324,60.602,9.324z"/>
				<path fill="#F6B72D" d="M65.727,14c-0.549,0-1.096-0.057-1.572-0.181l0.09-1.371c0.434,0.146,1.049,0.271,1.607,0.271
					c0.752,0,1.334-0.305,1.334-1.006c0-1.46-3.226-0.793-3.226-3.307c0-1.359,1.083-2.299,2.929-2.299
					c0.432,0,0.932,0.057,1.389,0.135l-0.079,1.292c-0.433-0.125-0.909-0.204-1.38-0.204c-0.854,0-1.287,0.385-1.287,0.929
					c0,1.371,3.238,0.86,3.238,3.25C68.77,12.946,67.615,14,65.727,14z"/>
				<path fill="#F6B72D" d="M71.922,13.989c-1.254,0-1.641-0.454-1.641-1.768V9.368h-0.979V8.247h0.968V6.515l1.459-0.385v2.117
					h1.377v1.121h-1.377v2.469c0,0.727,0.172,0.93,0.672,0.93c0.238,0,0.5-0.035,0.705-0.092v1.166
					C72.741,13.931,72.323,13.989,71.922,13.989z"/>
				<path fill="#F6B72D" d="M77.322,13.886c0-0.326,0.01-0.666,0.055-0.961l-0.011-0.012c-0.273,0.633-0.97,1.077-1.812,1.077
					c-1.025,0-1.619-0.578-1.619-1.483c0-1.35,1.346-2.062,3.271-2.062v-0.306c0-0.589-0.285-0.894-1.105-0.894
					c-0.513,0-1.196,0.17-1.676,0.441l-0.127-1.211c0.57-0.204,1.299-0.352,2.029-0.352c1.824,0,2.337,0.725,2.337,1.959v2.685
					c0.271,0.045,0.659,0.09,0.989,0.113v0.904C78.938,13.875,78.062,13.909,77.322,13.886z M77.209,11.386
					c-1.538,0-1.881,0.439-1.881,0.894c0,0.36,0.249,0.601,0.672,0.601c0.718,0,1.209-0.68,1.209-1.359V11.386z"/>
				<path fill="#F6B72D" d="M82.104,9.38h0.021c0.276-0.714,0.821-1.334,1.803-1.257l-0.069,1.426
					c-1.049-0.215-1.569,0.464-1.569,2.027v2.298H80.84V9.358c-0.273-0.046-0.658-0.092-0.988-0.114V8.337
					c0.715-0.09,1.596-0.122,2.356-0.101C82.206,8.531,82.172,8.984,82.104,9.38z"/>
				<path fill="#F6B72D" d="M87.051,13.989c-1.252,0-1.641-0.454-1.641-1.768V9.368h-0.98V8.247H85.4V6.515l1.459-0.385v2.117h1.377
					v1.121h-1.377v2.469c0,0.727,0.171,0.93,0.673,0.93c0.237,0,0.5-0.035,0.704-0.092v1.166
					C87.871,13.931,87.45,13.989,87.051,13.989z"/>
			</g>
		</g>
		<path fill="#F6B72D" d="M92.47,6.088c-0.337-0.128-0.721-0.209-1.11-0.209c-0.827,0-1.422,0.519-1.422,1.449
			c0,0.882,0.483,1.401,1.334,1.401c0.198,0,0.371-0.025,0.533-0.074V7.206h0.807v1.986c-0.416,0.166-0.93,0.259-1.432,0.259
			c-1.328,0-2.117-0.777-2.117-2.047c0-1.309,0.894-2.238,2.347-2.238c0.415,0,0.821,0.073,1.185,0.179L92.47,6.088z"/>
		<path fill="#F6B72D" d="M95.957,7.982h-1.911c-0.006,0.574,0.276,0.852,0.851,0.852c0.305,0,0.634-0.068,0.898-0.19l0.074,0.608
			c-0.328,0.131-0.721,0.198-1.104,0.198c-0.98,0-1.527-0.487-1.527-1.566c0-0.938,0.521-1.627,1.445-1.627
			c0.897,0,1.297,0.61,1.297,1.368C95.98,7.729,95.975,7.854,95.957,7.982z M94.66,6.836c-0.329,0-0.559,0.241-0.602,0.611h1.137
			C95.206,7.064,94.996,6.836,94.66,6.836z"/>
	</g>
	<g>
		<g>
			<path fill="#EB5D30" d="M38.58,31.921c-0.742,0-1.466-0.09-2.056-0.24l0.077-1.321c0.589,0.21,1.389,0.376,2.099,0.376
				c1.223,0,2.235-0.496,2.235-1.743c0-2.28-4.593-1.381-4.593-4.606c0-1.666,1.329-2.869,3.625-2.869
				c0.62,0,1.238,0.061,1.843,0.181l-0.074,1.229c-0.59-0.164-1.239-0.269-1.844-0.269c-1.39,0-2.114,0.631-2.114,1.574
				c0,2.192,4.606,1.396,4.606,4.563C42.386,30.614,40.952,31.921,38.58,31.921z"/>
			<path fill="#EB5D30" d="M47.082,31.89c-1.797,0-3.292-0.842-3.292-3.586c0-2.404,1.239-4.101,3.747-4.101
				c0.589,0,1.179,0.093,1.706,0.239l-0.15,1.188c-0.468-0.183-1.028-0.313-1.616-0.313c-1.51,0-2.25,1.108-2.25,2.805
				c0,1.456,0.482,2.613,2.145,2.613c0.634,0,1.298-0.15,1.783-0.405l0.104,1.171C48.759,31.694,47.959,31.89,47.082,31.89z"/>
			<path fill="#EB5D30" d="M49.814,21.728v-0.795c0.754-0.092,1.797-0.153,2.672-0.107v3.529c0,0.479-0.029,1.094-0.119,1.484
				l0.015,0.018c0.438-1.023,1.375-1.682,2.628-1.682c1.708,0,2.25,1.065,2.25,2.386v5.225H55.9v-4.819
				c0-1.051-0.287-1.668-1.27-1.668c-1.236,0-2.145,1.246-2.145,2.9v3.587h-1.359v-9.907C50.768,21.816,50.252,21.757,49.814,21.728
				z"/>
			<path fill="#EB5D30" d="M62.5,31.921c-2.038,0-3.367-1.173-3.367-3.8c0-2.188,1.389-3.933,3.655-3.933
				c1.919,0,3.383,1.053,3.383,3.738C66.171,30.179,64.723,31.921,62.5,31.921z M62.666,25.313c-1.087,0-2.115,0.824-2.115,2.673
				c0,1.803,0.743,2.792,2.115,2.792c1.119,0,2.085-0.871,2.085-2.778C64.751,26.304,64.055,25.313,62.666,25.313z"/>
			<path fill="#EB5D30" d="M70.732,31.921c-2.039,0-3.369-1.173-3.369-3.8c0-2.188,1.389-3.933,3.654-3.933
				c1.918,0,3.383,1.053,3.383,3.738C74.4,30.179,72.952,31.921,70.732,31.921z M70.896,25.313c-1.086,0-2.114,0.824-2.114,2.673
				c0,1.803,0.741,2.792,2.114,2.792c1.117,0,2.084-0.871,2.084-2.778C72.98,26.304,72.286,25.313,70.896,25.313z"/>
			<path fill="#EB5D30" d="M77.753,31.785h-1.36v-9.907c-0.361-0.062-0.875-0.121-1.312-0.149v-0.796
				c0.755-0.092,1.798-0.152,2.673-0.106L77.753,31.785L77.753,31.785z"/>
			<path fill="#EB5D30" d="M86.285,31.921c-2.04,0-3.368-1.173-3.368-3.8c0-2.188,1.39-3.933,3.656-3.933
				c1.917,0,3.383,1.053,3.383,3.738C89.956,30.179,88.506,31.921,86.285,31.921z M86.452,25.313c-1.091,0-2.117,0.824-2.117,2.673
				c0,1.803,0.741,2.792,2.117,2.792c1.116,0,2.084-0.871,2.084-2.778C88.536,26.304,87.842,25.313,86.452,25.313z"/>
			<path fill="#EB5D30" d="M96.207,21.996c-0.348-0.118-0.74-0.164-1.104-0.164c-1.071,0-1.541,0.601-1.541,1.921v0.572h2.086v1.05
				h-2.086v6.41h-1.358v-6.41h-1.538v-1.052h1.538V23.77c0-2.058,1.013-3.035,2.885-3.035c0.425,0,0.833,0.045,1.241,0.137
				L96.207,21.996z"/>
			<path fill="#EB5D30" d="M103.002,31.845c-1.027,0-1.828-0.061-2.584-0.061V21.666c0.784-0.014,1.934-0.06,3.053-0.06
				c3.264,0,5.213,1.516,5.213,4.999C108.684,30.074,106.34,31.845,103.002,31.845z M103.334,22.732
				c-0.527,0-1.146,0.028-1.523,0.046v7.806c0.377,0.061,0.936,0.089,1.342,0.089c2.389,0,4.064-1.229,4.064-3.976
				C107.217,24.113,105.977,22.732,103.334,22.732z"/>
			<path fill="#EB5D30" d="M114.662,31.785c0-0.526,0-1.065,0.072-1.485h-0.029c-0.361,0.916-1.312,1.621-2.555,1.621
				c-1.24,0-2.084-0.662-2.084-1.847c0-1.639,1.677-2.673,4.517-2.673v-0.555c0-1.036-0.408-1.592-1.646-1.592
				c-0.711,0-1.615,0.226-2.268,0.614l-0.136-1.155c0.726-0.301,1.631-0.539,2.629-0.539c2.16,0,2.78,1.004,2.78,2.489v4.069
				c0.361,0.06,0.873,0.119,1.312,0.15v0.795C116.502,31.771,115.461,31.831,114.662,31.785z M114.586,28.347
				c-2.613,0-3.189,0.798-3.189,1.472c0,0.629,0.455,1.035,1.148,1.035c1.225,0,2.041-1.201,2.041-2.37V28.347z"/>
			<path fill="#EB5D30" d="M121.107,31.903c-1.539,0-2.01-0.629-2.01-2.237v-4.291h-1.539v-1.052h1.539v-2.418l1.361-0.374v2.792
				h2.098v1.052h-2.098v3.812c0,1.229,0.227,1.561,1.07,1.561c0.349,0,0.727-0.059,1.027-0.134v1.139
				C122.136,31.845,121.592,31.903,121.107,31.903z"/>
			<path fill="#EB5D30" d="M128.402,31.785c0-0.526,0-1.065,0.076-1.485h-0.031c-0.363,0.916-1.315,1.621-2.553,1.621
				c-1.239,0-2.086-0.662-2.086-1.847c0-1.639,1.678-2.673,4.517-2.673v-0.555c0-1.036-0.408-1.592-1.647-1.592
				c-0.71,0-1.615,0.226-2.266,0.614l-0.135-1.155c0.724-0.301,1.632-0.539,2.629-0.539c2.158,0,2.779,1.004,2.779,2.489v4.069
				c0.361,0.06,0.875,0.119,1.313,0.15v0.795C130.244,31.771,129.203,31.831,128.402,31.785z M128.327,28.347
				c-2.614,0-3.188,0.798-3.188,1.472c0,0.629,0.454,1.035,1.148,1.035c1.225,0,2.04-1.201,2.04-2.37V28.347L128.327,28.347z"/>
		</g>
	</g>
	<g>
		<g>
			<path fill="none" d="M12.047,34.193c0.01,0.005,0.03,0.012,0.043,0.019C12.369,34.323,12.047,34.193,12.047,34.193z"/>
			<path fill="none" d="M16.079,34.196c0.001,0,0.006-0.003,0.007-0.005C16.086,34.193,15.504,34.423,16.079,34.196z"/>
			<path fill="#F6B72D" d="M14.021,1.371L14.021,1.371c7.521,0.015,13.056,5.75,13.056,12.8c0,1.309-0.389,2.565-0.76,3.754
				c0.142,0.053,0.241,0.104,0.241,0.162c0,0.354,0,0.711,0,1.065l0.696,0.181c0.639-1.6,0.954-3.341,0.954-5.162
				c0-7.739-5.662-14.038-14.186-14.057L14.021,1.371L14.021,1.371L14.021,1.371z"/>
			<path fill="#EB5D30" d="M1.43,14.327C1.43,7.27,7.212,1.37,14.332,1.37c0.006,0,0.01-1.256,0-1.256
				c-7.819,0-14.181,6.427-14.181,14.177C0.151,14.388,1.43,14.425,1.43,14.327z"/>
			<path fill="#EB5D30" d="M14.349,1.371c0.003,0,0.007,0,0.01,0V0.114c-0.002,0-0.006,0-0.01,0V1.371z"/>
			<path fill="#C32E30" d="M1.947,17.749c-0.308-1.048-0.487-2.15-0.512-3.29H0.159c0.034,1.62,0.348,3.173,0.891,4.616
				c0-0.33,0-0.661,0-0.991C1.35,17.964,1.649,17.854,1.947,17.749z"/>
			<rect x="26.712" y="18.599" fill="none" width="0.001" height="0.803"/>
		</g>
		<g>
			<path fill="#EF7559" d="M0.971,35.114v-17.24l0.159-0.062c4.207-1.647,7.579-1.81,11.055-0.54c0.089,0.031,0.188,0.074,0.3,0.122
				c0.387,0.167,0.871,0.375,1.511,0.375c0.665,0,1.225-0.229,1.634-0.395c0.098-0.041,0.187-0.075,0.264-0.103
				c3.475-1.271,6.899-1.105,11.103,0.54l0.159,0.062v17.24l-0.337-0.125c-3.523-1.299-6.831-1.504-10.669-0.62l0.006,0.017
				l-0.092,0.037c-0.322,0.133-1.179,0.491-2.006,0.491c-0.825,0-1.671-0.354-1.99-0.489l-0.095-0.039l0.007-0.019
				c-2.848-1.217-6.213-1.022-10.67,0.622L0.971,35.114z M12.434,34.036c0.364,0.146,1.014,0.381,1.622,0.381
				c0.54,0,1.113-0.183,1.494-0.326c0.064-0.062,0.181-0.105,0.343-0.17c1.664-0.395,3.185-0.582,4.682-0.582
				c2.049,0,4.041,0.348,6.078,1.062V18.214c-4.015-1.541-7.271-1.687-10.589-0.476c-0.073,0.026-0.154,0.06-0.245,0.097
				c-0.423,0.172-1.061,0.434-1.825,0.434c-0.744,0-1.302-0.242-1.71-0.418c-0.102-0.043-0.191-0.082-0.273-0.11
				c-3.317-1.211-6.524-1.069-10.539,0.474v16.186c2.461-0.879,4.598-1.307,6.52-1.307c1.528,0,2.947,0.278,4.221,0.83
				C12.296,33.957,12.376,33.988,12.434,34.036z"/>
		</g>
		<rect x="13.52" y="18.269" fill="#EF7559" width="0.501" height="16.518"/>
		<path fill="#C32E30" d="M28.599,25.949c0,1.274-0.722,2.308-1.614,2.308c-0.89,0-2.322-1.033-2.322-2.308
			c0-1.272,1.432-2.306,2.322-2.306C27.876,23.644,28.599,24.677,28.599,25.949z"/>
		<path fill="#C32E30" d="M3.936,25.949c0,1.274-1.43,2.308-2.322,2.308C0.723,28.257,0,27.224,0,25.949
			c0-1.272,0.723-2.306,1.614-2.306C2.506,23.644,3.936,24.677,3.936,25.949z"/>
		<path fill="#F6B72D" d="M21.464,6.283h-0.796V5.494h0.796V6.283z M19.475,6.283h-0.796V5.494h0.796V6.283z M17.486,6.283H16.69
			V5.494h0.796V6.283z M15.497,6.283h-0.796V5.494h0.796V6.283z M9.53,6.283H8.734V5.494H9.53V6.283z M7.542,6.283H6.747V5.494
			h0.795V6.283z"/>
		<path fill="#F6B72D" d="M24.646,10.229h-0.795V9.439h0.795V10.229z M22.658,10.229h-0.796V9.439h0.796V10.229z M20.668,10.229
			h-0.796V9.439h0.796V10.229z M14.701,10.229h-0.795V9.439h0.795V10.229z M12.712,10.229h-0.795V9.439h0.795V10.229z
			 M10.723,10.229H9.928V9.439h0.795V10.229L10.723,10.229z M8.735,10.229H7.939V9.439h0.796V10.229z M6.746,10.229H5.95V9.439
			h0.796V10.229z M4.756,10.229H3.96V9.439h0.796V10.229L4.756,10.229z"/>
		<path fill="#F6B72D" d="M25.442,14.173h-0.797v-0.789h0.797V14.173z M23.453,14.173h-0.795v-0.789h0.795V14.173z M21.464,14.173
			h-0.796v-0.789h0.796V14.173z M19.475,14.173h-0.796v-0.789h0.796V14.173z M17.486,14.173H16.69v-0.789h0.796V14.173z
			 M15.497,14.173h-0.796v-0.789h0.796V14.173z M13.508,14.173h-0.796v-0.789h0.796V14.173z M7.542,14.173H6.747v-0.789h0.795
			V14.173z M5.552,14.173H4.757v-0.789h0.795V14.173L5.552,14.173z M3.563,14.173H2.768v-0.789h0.795V14.173z"/>
		<path fill="#F6B72D" d="M12.051,7.19c-0.785,0-1.42-0.643-1.42-1.432c0-0.79,0.636-1.432,1.42-1.432
			c0.781,0,1.418,0.643,1.418,1.432S12.832,7.19,12.051,7.19z M12.051,4.774c-0.535,0-0.968,0.441-0.968,0.983
			s0.433,0.983,0.968,0.983c0.531,0,0.966-0.441,0.966-0.983C13.017,5.216,12.582,4.774,12.051,4.774z"/>
		<path fill="#F6B72D" d="M17.221,11.134c-0.783,0-1.419-0.642-1.419-1.432s0.637-1.431,1.419-1.431
			c0.782,0,1.418,0.642,1.418,1.431C18.64,10.492,18.003,11.134,17.221,11.134z M17.221,8.718c-0.534,0-0.967,0.442-0.967,0.983
			c0,0.542,0.434,0.983,0.967,0.983c0.533,0,0.967-0.441,0.967-0.983C18.188,9.16,17.754,8.718,17.221,8.718z"/>
		<path fill="#F6B72D" d="M10.062,15.077c-0.783,0-1.419-0.642-1.419-1.431c0-0.79,0.636-1.433,1.419-1.433s1.42,0.643,1.42,1.433
			C11.481,14.436,10.843,15.077,10.062,15.077z M10.062,12.662c-0.533,0-0.968,0.441-0.968,0.983c0,0.543,0.435,0.982,0.968,0.982
			s0.968-0.439,0.968-0.982C11.028,13.104,10.594,12.662,10.062,12.662z"/>
	</g>
</g>
</svg>
