<?xml version="1.0" encoding="utf-8"?>
<!-- Generator: Adobe Illustrator 16.0.0, SVG Export Plug-In . SVG Version: 6.00 Build 0)  -->
<!DOCTYPE svg PUBLIC "-//W3C//DTD SVG 1.1//EN" "http://www.w3.org/Graphics/SVG/1.1/DTD/svg11.dtd">
<svg version="1.1" id="Layer_1" xmlns="http://www.w3.org/2000/svg" xmlns:xlink="http://www.w3.org/1999/xlink" x="0px" y="0px"
	 width="205px" height="87px" viewBox="0 0 205 87" enable-background="new 0 0 205 87" xml:space="preserve">
<g>
	<g>
		<g>
			<g>
				<path fill="#F6B72D" d="M82.769,62.733c-0.534,0-0.903-0.058-1.242-0.116v-1.648c0.237,0.088,0.561,0.147,0.916,0.147
					c0.695,0,1.094-0.294,1.094-1.368v-9.986h1.919v10.062C85.455,61.455,84.791,62.733,82.769,62.733z"/>
				<path fill="#F6B72D" d="M92.559,59.704c0-0.338,0.015-0.896,0.088-1.31l-0.03-0.014c-0.428,0.867-1.284,1.471-2.481,1.471
					c-1.668,0-2.2-1.059-2.2-2.338v-3.692c-0.354-0.059-0.842-0.118-1.27-0.146v-1.178c0.975-0.118,2.141-0.161,3.16-0.133v4.692
					c0,0.765,0.207,1.221,0.9,1.221c0.96,0,1.714-1.09,1.714-2.368v-3.53h1.876v5.869c0.355,0.059,0.857,0.117,1.285,0.146v1.177
					C94.672,59.69,93.534,59.733,92.559,59.704z"/>
				<path fill="#F6B72D" d="M106.102,59.69v-4.633c0-0.781-0.178-1.266-0.871-1.266c-0.828,0-1.685,0.971-1.685,2.396v3.502h-1.861
					v-4.633c0-0.722-0.147-1.266-0.872-1.266c-0.871,0-1.683,1.029-1.683,2.396v3.502h-1.876v-5.869
					c-0.354-0.059-0.855-0.118-1.286-0.146v-1.178c0.931-0.118,2.084-0.161,3.059-0.133c0,0.354-0.031,0.897-0.089,1.322h0.014
					c0.443-0.896,1.33-1.469,2.422-1.469c1.299,0,1.846,0.764,2.024,1.469c0.34-0.719,1.152-1.469,2.393-1.469
					c1.418,0,2.201,0.78,2.201,2.441v5.03H106.102z"/>
				<path fill="#F6B72D" d="M109.229,53.676v-1.178c0.932-0.118,2.054-0.161,3.029-0.133c0,0.367-0.015,0.853-0.074,1.235h0.03
					c0.412-0.853,1.195-1.367,2.304-1.367c1.741,0,2.688,1.249,2.688,3.411c0,2.545-1.329,4.148-3.87,4.148
					c-0.354,0-0.637-0.015-0.946-0.06v3.5h-1.876v-9.412C110.161,53.763,109.659,53.703,109.229,53.676z M113.972,53.777
					c-0.989,0-1.581,1.147-1.581,2.397v2.03c0.296,0.088,0.605,0.131,0.99,0.131c1.078,0,1.846-0.676,1.846-2.484
					C115.227,54.483,114.828,53.777,113.972,53.777z"/>
				<path fill="#F6B72D" d="M120.618,59.852c-0.711,0-1.419-0.073-2.039-0.234l0.117-1.779c0.561,0.189,1.359,0.352,2.083,0.352
					c0.975,0,1.729-0.396,1.729-1.308c0-1.898-4.182-1.03-4.182-4.296c0-1.765,1.403-2.985,3.797-2.985
					c0.562,0,1.211,0.073,1.802,0.175l-0.104,1.679c-0.562-0.163-1.182-0.265-1.788-0.265c-1.107,0-1.669,0.5-1.669,1.205
					c0,1.779,4.195,1.118,4.195,4.223C124.561,58.482,123.068,59.852,120.618,59.852z"/>
				<path fill="#F6B72D" d="M128.65,59.838c-1.626,0-2.126-0.59-2.126-2.296v-3.706h-1.271V52.38h1.256v-2.25l1.891-0.501v2.751
					h1.787v1.456h-1.787v3.207c0,0.941,0.222,1.206,0.87,1.206c0.311,0,0.652-0.044,0.917-0.119v1.517
					C129.714,59.764,129.168,59.838,128.65,59.838z"/>
				<path fill="#F6B72D" d="M135.65,59.704c0-0.426,0.015-0.867,0.072-1.25l-0.014-0.015c-0.354,0.823-1.254,1.398-2.348,1.398
					c-1.33,0-2.098-0.751-2.098-1.928c0-1.75,1.743-2.678,4.239-2.678v-0.396c0-0.766-0.369-1.161-1.434-1.161
					c-0.664,0-1.55,0.22-2.171,0.572l-0.162-1.573c0.738-0.265,1.683-0.456,2.629-0.456c2.364,0,3.028,0.94,3.028,2.544v3.486
					c0.354,0.059,0.856,0.117,1.284,0.146v1.177C137.747,59.69,136.609,59.733,135.65,59.704z M135.503,56.455
					c-1.994,0-2.438,0.572-2.438,1.162c0,0.469,0.325,0.777,0.872,0.777c0.932,0,1.566-0.881,1.566-1.765V56.455z"/>
				<path fill="#F6B72D" d="M141.849,53.851h0.029c0.355-0.928,1.063-1.735,2.334-1.632l-0.09,1.853
					c-1.357-0.279-2.036,0.603-2.036,2.633v2.986h-1.877v-5.869c-0.354-0.059-0.855-0.118-1.284-0.146v-1.178
					c0.931-0.118,2.069-0.161,3.058-0.133C141.982,52.748,141.938,53.336,141.849,53.851z"/>
				<path fill="#F6B72D" d="M148.265,59.838c-1.624,0-2.127-0.59-2.127-2.296v-3.706h-1.27V52.38h1.255v-2.25l1.89-0.501v2.751
					h1.788v1.456h-1.788v3.207c0,0.941,0.223,1.206,0.872,1.206c0.31,0,0.65-0.044,0.916-0.119v1.517
					C149.328,59.764,148.781,59.838,148.265,59.838z"/>
			</g>
		</g>
		<path fill="#F6B72D" d="M155.29,49.575c-0.436-0.168-0.935-0.272-1.441-0.272c-1.07,0-1.842,0.673-1.842,1.884
			c0,1.144,0.628,1.818,1.729,1.818c0.258,0,0.482-0.032,0.692-0.096v-1.883h1.044v2.579c-0.538,0.216-1.205,0.336-1.855,0.336
			c-1.723,0-2.746-1.009-2.746-2.659c0-1.699,1.16-2.907,3.042-2.907c0.54,0,1.069,0.097,1.537,0.231L155.29,49.575z"/>
		<path fill="#F6B72D" d="M159.812,52.036h-2.478c-0.01,0.743,0.361,1.105,1.102,1.105c0.394,0,0.82-0.09,1.166-0.249l0.097,0.791
			c-0.427,0.171-0.933,0.258-1.431,0.258c-1.271,0-1.979-0.633-1.979-2.034c0-1.218,0.675-2.114,1.874-2.114
			c1.165,0,1.681,0.792,1.681,1.778C159.843,51.707,159.835,51.867,159.812,52.036z M158.13,50.545
			c-0.427,0-0.724,0.312-0.779,0.794h1.471C158.837,50.842,158.563,50.545,158.13,50.545z"/>
	</g>
	<g>
		<g>
			<path fill="#EB5D30" d="M85.424,83.13c-0.96,0-1.9-0.116-2.664-0.312l0.098-1.716c0.764,0.273,1.801,0.488,2.722,0.488
				c1.586,0,2.898-0.644,2.898-2.262c0-2.965-5.954-1.794-5.954-5.987c0-2.164,1.724-3.726,4.7-3.726
				c0.803,0,1.606,0.078,2.389,0.234l-0.098,1.6c-0.764-0.215-1.606-0.352-2.389-0.352c-1.802,0-2.742,0.819-2.742,2.048
				c0,2.847,5.973,1.814,5.973,5.929C90.359,81.434,88.498,83.13,85.424,83.13z"/>
			<path fill="#EB5D30" d="M96.447,83.092c-2.33,0-4.269-1.094-4.269-4.661c0-3.121,1.606-5.323,4.857-5.323
				c0.764,0,1.527,0.115,2.212,0.311l-0.195,1.542c-0.607-0.234-1.332-0.41-2.096-0.41c-1.958,0-2.918,1.442-2.918,3.647
				c0,1.892,0.627,3.393,2.781,3.393c0.823,0,1.685-0.194,2.311-0.527l0.137,1.522C98.621,82.838,97.583,83.092,96.447,83.092z"/>
			<path fill="#EB5D30" d="M99.989,69.89v-1.034c0.979-0.116,2.331-0.195,3.466-0.137v4.583c0,0.624-0.039,1.424-0.156,1.931
				l0.02,0.02c0.568-1.326,1.782-2.185,3.408-2.185c2.213,0,2.917,1.385,2.917,3.102v6.785h-1.763v-6.26
				c0-1.365-0.371-2.164-1.645-2.164c-1.605,0-2.781,1.619-2.781,3.763v4.661h-1.762v-12.87
				C101.223,70.006,100.557,69.927,99.989,69.89z"/>
			<path fill="#EB5D30" d="M116.437,83.13c-2.644,0-4.367-1.521-4.367-4.933c0-2.849,1.802-5.11,4.739-5.11
				c2.487,0,4.387,1.365,4.387,4.856C121.195,80.867,119.315,83.13,116.437,83.13z M116.652,74.55c-1.41,0-2.742,1.072-2.742,3.472
				c0,2.34,0.96,3.627,2.742,3.627c1.449,0,2.701-1.131,2.701-3.608C119.354,75.837,118.453,74.55,116.652,74.55z"/>
			<path fill="#EB5D30" d="M127.107,83.13c-2.644,0-4.367-1.521-4.367-4.933c0-2.849,1.802-5.11,4.739-5.11
				c2.487,0,4.387,1.365,4.387,4.856C131.866,80.867,129.986,83.13,127.107,83.13z M127.323,74.55c-1.41,0-2.742,1.072-2.742,3.472
				c0,2.34,0.96,3.627,2.742,3.627c1.449,0,2.701-1.131,2.701-3.608C130.024,75.837,129.124,74.55,127.323,74.55z"/>
			<path fill="#EB5D30" d="M136.211,82.954h-1.762v-12.87c-0.471-0.078-1.136-0.157-1.703-0.194v-1.034
				c0.979-0.116,2.329-0.195,3.465-0.137V82.954z"/>
			<path fill="#EB5D30" d="M147.273,83.13c-2.644,0-4.367-1.521-4.367-4.933c0-2.849,1.802-5.11,4.739-5.11
				c2.487,0,4.387,1.365,4.387,4.856C152.032,80.867,150.152,83.13,147.273,83.13z M147.489,74.55c-1.41,0-2.742,1.072-2.742,3.472
				c0,2.34,0.96,3.627,2.742,3.627c1.449,0,2.701-1.131,2.701-3.608C150.19,75.837,149.29,74.55,147.489,74.55z"/>
			<path fill="#EB5D30" d="M160.137,70.239c-0.45-0.155-0.959-0.214-1.429-0.214c-1.391,0-1.997,0.78-1.997,2.496v0.742h2.701v1.363
				h-2.701v8.327h-1.763v-8.327h-1.998v-1.363h1.998v-0.722c0-2.672,1.312-3.939,3.739-3.939c0.549,0,1.078,0.058,1.606,0.175
				L160.137,70.239z"/>
			<path fill="#EB5D30" d="M168.946,83.033c-1.331,0-2.369-0.079-3.349-0.079V69.812c1.02-0.021,2.507-0.078,3.956-0.078
				c4.229,0,6.756,1.969,6.756,6.493C176.31,80.731,173.274,83.033,168.946,83.033z M169.378,71.195
				c-0.687,0-1.488,0.039-1.979,0.06v10.141c0.49,0.077,1.215,0.116,1.743,0.116c3.094,0,5.268-1.6,5.268-5.168
				C174.41,72.989,172.805,71.195,169.378,71.195z"/>
			<path fill="#EB5D30" d="M184.062,82.954c0-0.683,0-1.384,0.098-1.93h-0.039c-0.47,1.19-1.703,2.105-3.31,2.105
				c-1.605,0-2.702-0.858-2.702-2.398c0-2.126,2.173-3.472,5.855-3.472v-0.722c0-1.345-0.53-2.065-2.135-2.065
				c-0.921,0-2.096,0.291-2.938,0.798l-0.177-1.501c0.94-0.39,2.115-0.702,3.407-0.702c2.802,0,3.604,1.307,3.604,3.237v5.285
				c0.471,0.078,1.137,0.156,1.705,0.194v1.033C186.451,82.936,185.101,83.014,184.062,82.954z M183.965,78.489
				c-3.389,0-4.132,1.032-4.132,1.91c0,0.82,0.587,1.347,1.487,1.347c1.587,0,2.645-1.561,2.645-3.081V78.489z"/>
			<path fill="#EB5D30" d="M192.422,83.111c-1.997,0-2.604-0.819-2.604-2.906v-5.578h-1.998v-1.363h1.998v-3.14l1.763-0.488v3.628
				h2.722v1.363h-2.722v4.954c0,1.6,0.293,2.027,1.391,2.027c0.45,0,0.939-0.078,1.331-0.175v1.481
				C193.753,83.033,193.049,83.111,192.422,83.111z"/>
			<path fill="#EB5D30" d="M201.878,82.954c0-0.683,0-1.384,0.098-1.93h-0.038c-0.471,1.19-1.703,2.105-3.31,2.105
				s-2.703-0.858-2.703-2.398c0-2.126,2.174-3.472,5.856-3.472v-0.722c0-1.345-0.53-2.065-2.135-2.065
				c-0.921,0-2.096,0.291-2.938,0.798l-0.176-1.501c0.939-0.39,2.115-0.702,3.407-0.702c2.801,0,3.604,1.307,3.604,3.237v5.285
				c0.47,0.078,1.137,0.156,1.704,0.194v1.033C204.268,82.936,202.917,83.014,201.878,82.954z M201.781,78.489
				c-3.389,0-4.132,1.032-4.132,1.91c0,0.82,0.587,1.347,1.487,1.347c1.587,0,2.645-1.561,2.645-3.081V78.489z"/>
		</g>
	</g>
	<g>
		<g>
			<path fill-rule="evenodd" clip-rule="evenodd" fill="#F6B72D" d="M65.912,43.154c0.848-2.828,1.303-5.824,1.303-8.925
				c0-17.202-14.004-31.146-31.278-31.146v-3.46c19.193,0,34.753,15.494,34.753,34.607c0,4.941-1.04,9.642-2.914,13.893
				l-0.064-3.962L65.912,43.154z"/>
			<path fill-rule="evenodd" clip-rule="evenodd" fill="#C32E30" d="M5.917,42.984c-1.716-5.812-1.75-12.183,0.272-18.379
				l-3.306-1.07c-1.126,3.454-1.701,7.063-1.701,10.694c0,4.826,0.992,9.42,2.784,13.593l0.051-3.844L5.917,42.984z"/>
			<path fill-rule="evenodd" clip-rule="evenodd" fill="#EB5D30" d="M2.884,23.535C7.537,9.277,20.881-0.377,35.937-0.377v3.46
				c-13.55,0-25.56,8.688-29.747,21.522L2.884,23.535z"/>
		</g>
		<g>
			<path fill="#EF7559" d="M68.731,86.623l-1.327-0.502c-5.021-1.898-10.004-2.819-15.235-2.819c-3.574,0-7.17,0.431-10.985,1.318
				l0.002,0.006l-0.211,0.088c-0.816,0.341-2.984,1.249-5.096,1.249c-2.11,0-4.263-0.906-5.074-1.248l-0.214-0.089l0.011-0.028
				c-6.893-2.976-15.639-2.444-26.135,1.523l-1.327,0.502V43.245l0.613-0.247c10.224-4.099,18.935-4.518,27.596-1.341
				c0.206,0.075,0.44,0.172,0.702,0.281c0.937,0.392,2.219,0.928,3.758,0.928c1.588,0,2.966-0.557,3.973-0.963
				c0.234-0.095,0.445-0.18,0.63-0.247c8.66-3.177,17.487-2.753,27.705,1.342l0.613,0.247V86.623z M31.914,83.063
				c0.867,0.354,2.483,0.95,3.967,0.95c1.37,0,2.859-0.507,3.768-0.865c0.064-0.037,0.133-0.073,0.206-0.108l0-0.003
				c0.006-0.001,0.013-0.004,0.02-0.006c0.161-0.077,0.34-0.146,0.528-0.22l0.132-0.042c4.04-0.954,7.845-1.418,11.636-1.418
				c4.937,0,9.843,0.829,14.604,2.468V44.565c-9.491-3.683-17.651-4.026-25.686-1.079c-0.168,0.061-0.357,0.139-0.568,0.223
				c-1.091,0.441-2.739,1.107-4.709,1.107c-1.933,0-3.487-0.65-4.516-1.08c-0.229-0.096-0.435-0.182-0.618-0.248
				C22.641,40.54,14.593,40.881,5.1,44.565v39.246c10.457-3.719,19.286-4.045,26.318-0.986
				C31.567,82.887,31.748,82.958,31.914,83.063z"/>
		</g>
		<rect x="35" y="44" fill="#EF7559" width="1" height="41"/>
		<path fill-rule="evenodd" clip-rule="evenodd" fill="#C32E30" d="M71.859,63.34c0,3.147-1.778,5.7-3.971,5.7
			c-2.192,0-5.715-2.553-5.715-5.7s3.522-5.7,5.715-5.7C70.082,57.64,71.859,60.192,71.859,63.34z"/>
		<path fill-rule="evenodd" clip-rule="evenodd" fill="#C32E30" d="M9.933,63.34c0,3.147-3.522,5.7-5.715,5.7
			s-3.971-2.553-3.971-5.7s1.778-5.7,3.971-5.7S9.933,60.192,9.933,63.34z"/>
		<path fill="#F6B72D" d="M53.068,14.732H51.11v-1.949h1.958V14.732z M48.173,14.732h-1.958v-1.949h1.958V14.732z M43.279,14.732
			h-1.958v-1.949h1.958V14.732z M38.384,14.732h-1.958v-1.949h1.958V14.732z M23.7,14.732h-1.958v-1.949H23.7V14.732z
			 M18.805,14.732h-1.958v-1.949h1.958V14.732z"/>
		<path fill="#F6B72D" d="M60.9,24.481h-1.958v-1.949H60.9V24.481z M56.005,24.481h-1.958v-1.949h1.958V24.481z M51.11,24.481
			h-1.958v-1.949h1.958V24.481z M36.426,24.481h-1.958v-1.949h1.958V24.481z M31.531,24.481h-1.958v-1.949h1.958V24.481z
			 M26.636,24.481h-1.958v-1.949h1.958V24.481z M21.742,24.481h-1.958v-1.949h1.958V24.481z M16.847,24.481h-1.958v-1.949h1.958
			V24.481z M11.952,24.481H9.994v-1.949h1.958V24.481z"/>
		<path fill="#F6B72D" d="M62.858,34.229H60.9v-1.95h1.958V34.229z M57.963,34.229h-1.958v-1.95h1.958V34.229z M53.068,34.229H51.11
			v-1.95h1.958V34.229z M48.173,34.229h-1.958v-1.95h1.958V34.229z M43.279,34.229h-1.958v-1.95h1.958V34.229z M38.384,34.229
			h-1.958v-1.95h1.958V34.229z M33.489,34.229h-1.958v-1.95h1.958V34.229z M18.805,34.229h-1.958v-1.95h1.958V34.229z M13.91,34.229
			h-1.958v-1.95h1.958V34.229z M9.015,34.229H7.058v-1.95h1.958V34.229z"/>
		<path fill="#F6B72D" d="M29.9,16.972c-1.926,0-3.493-1.587-3.493-3.539s1.567-3.54,3.493-3.54s3.493,1.588,3.493,3.54
			S31.826,16.972,29.9,16.972z M29.9,11.001c-1.312,0-2.38,1.091-2.38,2.432s1.068,2.431,2.38,2.431s2.38-1.09,2.38-2.431
			S31.212,11.001,29.9,11.001z"/>
		<path fill="#F6B72D" d="M42.626,26.72c-1.926,0-3.493-1.587-3.493-3.539s1.567-3.54,3.493-3.54c1.927,0,3.494,1.588,3.494,3.54
			S44.553,26.72,42.626,26.72z M42.626,20.75c-1.312,0-2.38,1.09-2.38,2.432c0,1.341,1.068,2.431,2.38,2.431
			c1.313,0,2.381-1.09,2.381-2.431C45.007,21.84,43.939,20.75,42.626,20.75z"/>
		<path fill="#F6B72D" d="M25.005,36.469c-1.926,0-3.493-1.588-3.493-3.539c0-1.952,1.567-3.54,3.493-3.54s3.493,1.588,3.493,3.54
			C28.498,34.881,26.931,36.469,25.005,36.469z M25.005,30.498c-1.312,0-2.38,1.09-2.38,2.432c0,1.34,1.068,2.431,2.38,2.431
			c1.313,0,2.381-1.091,2.381-2.431C27.386,31.588,26.318,30.498,25.005,30.498z"/>
	</g>
</g>
</svg>
