<?xml version="1.0" encoding="utf-8"?>
<!-- Generator: Adobe Illustrator 16.0.0, SVG Export Plug-In . SVG Version: 6.00 Build 0)  -->
<!DOCTYPE svg PUBLIC "-//W3C//DTD SVG 1.1//EN" "http://www.w3.org/Graphics/SVG/1.1/DTD/svg11.dtd">
<svg version="1.1" id="Layer_1" xmlns="http://www.w3.org/2000/svg" xmlns:xlink="http://www.w3.org/1999/xlink" x="0px" y="0px"
	 width="171.403px" height="35px" viewBox="0 0 171.403 35" enable-background="new 0 0 171.403 35" xml:space="preserve">
<g>
	<g>
		<g>
			<g>
				<path fill="#F6B72D" d="M36.535,16.218c-0.413,0-0.698-0.043-0.959-0.09v-1.269c0.183,0.069,0.433,0.114,0.707,0.114
					c0.535,0,0.844-0.229,0.844-1.053V6.231h1.479v7.744C38.605,15.233,38.092,16.218,36.535,16.218z"/>
				<path fill="#F6B72D" d="M44.085,13.886c0-0.261,0.013-0.688,0.067-1.006l-0.022-0.012C43.799,13.535,43.139,14,42.216,14
					c-1.286,0-1.696-0.814-1.696-1.801V9.358c-0.272-0.046-0.649-0.092-0.979-0.115V8.337c0.752-0.09,1.651-0.123,2.438-0.101v3.612
					c0,0.588,0.158,0.938,0.694,0.938c0.74,0,1.321-0.838,1.321-1.823V8.247h1.445v4.518c0.274,0.045,0.66,0.092,0.99,0.113v0.905
					C45.714,13.875,44.837,13.909,44.085,13.886z"/>
				<path fill="#F6B72D" d="M54.529,13.875v-3.566c0-0.6-0.137-0.973-0.67-0.973c-0.639,0-1.301,0.748-1.301,1.844v2.695h-1.435
					v-3.565c0-0.555-0.114-0.973-0.672-0.973c-0.671,0-1.298,0.792-1.298,1.845v2.694h-1.446V9.361
					c-0.274-0.046-0.66-0.092-0.993-0.114V8.34c0.719-0.09,1.607-0.122,2.36-0.101c0,0.271-0.024,0.691-0.069,1.018h0.012
					c0.342-0.689,1.024-1.131,1.869-1.131c1.002,0,1.424,0.589,1.561,1.131c0.262-0.553,0.888-1.131,1.845-1.131
					c1.093,0,1.696,0.6,1.696,1.88v3.871h-1.457l0,0h-0.002V13.875z"/>
				<path fill="#F6B72D" d="M56.941,9.244V8.337c0.719-0.089,1.586-0.122,2.336-0.101c0,0.281-0.012,0.657-0.055,0.951h0.022
					c0.319-0.657,0.922-1.053,1.776-1.053c1.343,0,2.072,0.962,2.072,2.626c0,1.957-1.023,3.194-2.984,3.194
					c-0.273,0-0.49-0.013-0.73-0.047v2.695h-1.447V9.358C57.662,9.313,57.273,9.267,56.941,9.244z M60.602,9.324
					c-0.764,0-1.22,0.883-1.22,1.845v1.563c0.228,0.067,0.468,0.102,0.763,0.102c0.834,0,1.424-0.521,1.424-1.913
					C61.568,9.867,61.264,9.324,60.602,9.324z"/>
				<path fill="#F6B72D" d="M65.727,14c-0.549,0-1.096-0.057-1.572-0.181l0.09-1.371c0.434,0.146,1.049,0.271,1.607,0.271
					c0.752,0,1.334-0.305,1.334-1.006c0-1.46-3.226-0.793-3.226-3.307c0-1.359,1.083-2.299,2.929-2.299
					c0.432,0,0.932,0.057,1.389,0.135l-0.079,1.292c-0.433-0.125-0.909-0.204-1.38-0.204c-0.854,0-1.287,0.385-1.287,0.929
					c0,1.371,3.238,0.86,3.238,3.25C68.77,12.946,67.615,14,65.727,14z"/>
				<path fill="#F6B72D" d="M71.922,13.989c-1.254,0-1.641-0.454-1.641-1.768V9.368h-0.979V8.247h0.968V6.515l1.459-0.385v2.117
					h1.377v1.121h-1.377v2.469c0,0.727,0.172,0.93,0.672,0.93c0.238,0,0.5-0.035,0.705-0.092v1.166
					C72.741,13.931,72.323,13.989,71.922,13.989z"/>
				<path fill="#F6B72D" d="M77.322,13.886c0-0.326,0.01-0.666,0.055-0.961l-0.011-0.012c-0.273,0.633-0.97,1.077-1.812,1.077
					c-1.025,0-1.619-0.578-1.619-1.483c0-1.35,1.346-2.062,3.271-2.062v-0.306c0-0.589-0.285-0.894-1.105-0.894
					c-0.513,0-1.196,0.17-1.676,0.441l-0.127-1.211c0.57-0.204,1.299-0.352,2.029-0.352c1.824,0,2.337,0.725,2.337,1.959v2.685
					c0.271,0.045,0.659,0.09,0.989,0.113v0.904C78.938,13.875,78.062,13.909,77.322,13.886z M77.209,11.386
					c-1.538,0-1.881,0.439-1.881,0.894c0,0.36,0.249,0.601,0.672,0.601c0.718,0,1.209-0.68,1.209-1.359V11.386z"/>
				<path fill="#F6B72D" d="M82.104,9.38h0.021c0.276-0.714,0.821-1.334,1.803-1.257l-0.069,1.426
					c-1.049-0.215-1.569,0.464-1.569,2.027v2.298H80.84V9.358c-0.273-0.046-0.658-0.092-0.988-0.114V8.337
					c0.715-0.09,1.596-0.122,2.356-0.101C82.206,8.531,82.172,8.984,82.104,9.38z"/>
				<path fill="#F6B72D" d="M87.051,13.989c-1.252,0-1.641-0.454-1.641-1.768V9.368h-0.98V8.247H85.4V6.515l1.459-0.385v2.117h1.377
					v1.121h-1.377v2.469c0,0.727,0.171,0.93,0.673,0.93c0.237,0,0.5-0.035,0.704-0.092v1.166
					C87.871,13.931,87.45,13.989,87.051,13.989z"/>
			</g>
		</g>
		<path fill="#F6B72D" d="M92.47,6.088c-0.337-0.128-0.721-0.209-1.11-0.209c-0.827,0-1.422,0.519-1.422,1.449
			c0,0.882,0.483,1.401,1.334,1.401c0.198,0,0.371-0.025,0.533-0.074V7.206h0.807v1.986c-0.416,0.166-0.93,0.259-1.432,0.259
			c-1.328,0-2.117-0.777-2.117-2.047c0-1.309,0.894-2.238,2.347-2.238c0.415,0,0.821,0.073,1.185,0.179L92.47,6.088z"/>
		<path fill="#F6B72D" d="M95.957,7.982h-1.911c-0.006,0.574,0.276,0.852,0.851,0.852c0.305,0,0.634-0.068,0.898-0.19l0.074,0.608
			c-0.328,0.131-0.721,0.198-1.104,0.198c-0.98,0-1.527-0.487-1.527-1.566c0-0.938,0.521-1.627,1.445-1.627
			c0.897,0,1.297,0.61,1.297,1.368C95.98,7.729,95.975,7.854,95.957,7.982z M94.66,6.836c-0.329,0-0.559,0.241-0.602,0.611h1.137
			C95.206,7.064,94.996,6.836,94.66,6.836z"/>
	</g>
	<g>
		<g>
			<path fill="none" d="M12.047,34.193c0.01,0.005,0.03,0.012,0.043,0.019C12.369,34.323,12.047,34.193,12.047,34.193z"/>
			<path fill="none" d="M16.079,34.196c0.001,0,0.006-0.003,0.007-0.005C16.086,34.193,15.504,34.423,16.079,34.196z"/>
			<path fill="#F6B72D" d="M14.021,1.371L14.021,1.371c7.521,0.015,13.056,5.75,13.056,12.8c0,1.309-0.389,2.565-0.76,3.754
				c0.142,0.053,0.241,0.104,0.241,0.162c0,0.354,0,0.711,0,1.065l0.696,0.181c0.639-1.6,0.954-3.341,0.954-5.162
				c0-7.739-5.662-14.038-14.186-14.057L14.021,1.371L14.021,1.371L14.021,1.371z"/>
			<path fill="#EB5D30" d="M1.43,14.327C1.43,7.27,7.212,1.37,14.332,1.37c0.006,0,0.01-1.256,0-1.256
				c-7.819,0-14.181,6.427-14.181,14.177C0.151,14.388,1.43,14.425,1.43,14.327z"/>
			<path fill="#EB5D30" d="M14.349,1.371c0.003,0,0.007,0,0.01,0V0.114c-0.002,0-0.006,0-0.01,0V1.371z"/>
			<path fill="#C32E30" d="M1.947,17.749c-0.308-1.048-0.487-2.15-0.512-3.29H0.159c0.034,1.62,0.348,3.173,0.891,4.616
				c0-0.33,0-0.661,0-0.991C1.35,17.964,1.649,17.854,1.947,17.749z"/>
			<rect x="26.712" y="18.599" fill="none" width="0.001" height="0.803"/>
		</g>
		<g>
			<path fill="#EF7559" d="M0.971,35.114v-17.24l0.159-0.062c4.207-1.647,7.579-1.81,11.055-0.54c0.089,0.031,0.188,0.074,0.3,0.122
				c0.387,0.167,0.871,0.375,1.511,0.375c0.665,0,1.225-0.229,1.634-0.395c0.098-0.041,0.187-0.075,0.264-0.103
				c3.475-1.271,6.899-1.105,11.103,0.54l0.159,0.062v17.24l-0.337-0.125c-3.523-1.299-6.831-1.504-10.669-0.62l0.006,0.017
				l-0.092,0.037c-0.322,0.133-1.179,0.491-2.006,0.491c-0.825,0-1.671-0.354-1.99-0.489l-0.095-0.039l0.007-0.019
				c-2.848-1.217-6.213-1.022-10.67,0.622L0.971,35.114z M12.434,34.036c0.364,0.146,1.014,0.381,1.622,0.381
				c0.54,0,1.113-0.183,1.494-0.326c0.064-0.062,0.181-0.105,0.343-0.17c1.664-0.395,3.185-0.582,4.682-0.582
				c2.049,0,4.041,0.348,6.078,1.062V18.214c-4.015-1.541-7.271-1.687-10.589-0.476c-0.073,0.026-0.154,0.06-0.245,0.097
				c-0.423,0.172-1.061,0.434-1.825,0.434c-0.744,0-1.302-0.242-1.71-0.418c-0.102-0.043-0.191-0.082-0.273-0.11
				c-3.317-1.211-6.524-1.069-10.539,0.474v16.186c2.461-0.879,4.598-1.307,6.52-1.307c1.528,0,2.947,0.278,4.221,0.83
				C12.296,33.957,12.376,33.988,12.434,34.036z"/>
		</g>
		<rect x="13.52" y="18.269" fill="#EF7559" width="0.501" height="16.518"/>
		<path fill="#C32E30" d="M28.599,25.949c0,1.274-0.722,2.308-1.614,2.308c-0.89,0-2.322-1.033-2.322-2.308
			c0-1.272,1.432-2.306,2.322-2.306C27.876,23.644,28.599,24.677,28.599,25.949z"/>
		<path fill="#C32E30" d="M3.936,25.949c0,1.274-1.43,2.308-2.322,2.308C0.723,28.257,0,27.224,0,25.949
			c0-1.272,0.723-2.306,1.614-2.306C2.506,23.644,3.936,24.677,3.936,25.949z"/>
		<path fill="#F6B72D" d="M21.464,6.283h-0.796V5.494h0.796V6.283z M19.475,6.283h-0.796V5.494h0.796V6.283z M17.486,6.283H16.69
			V5.494h0.796V6.283z M15.497,6.283h-0.796V5.494h0.796V6.283z M9.53,6.283H8.734V5.494H9.53V6.283z M7.542,6.283H6.747V5.494
			h0.795V6.283z"/>
		<path fill="#F6B72D" d="M24.646,10.229h-0.795V9.439h0.795V10.229z M22.658,10.229h-0.796V9.439h0.796V10.229z M20.668,10.229
			h-0.796V9.439h0.796V10.229z M14.701,10.229h-0.795V9.439h0.795V10.229z M12.712,10.229h-0.795V9.439h0.795V10.229z
			 M10.723,10.229H9.928V9.439h0.795V10.229L10.723,10.229z M8.735,10.229H7.939V9.439h0.796V10.229z M6.746,10.229H5.95V9.439
			h0.796V10.229z M4.756,10.229H3.96V9.439h0.796V10.229L4.756,10.229z"/>
		<path fill="#F6B72D" d="M25.442,14.173h-0.797v-0.789h0.797V14.173z M23.453,14.173h-0.795v-0.789h0.795V14.173z M21.464,14.173
			h-0.796v-0.789h0.796V14.173z M19.475,14.173h-0.796v-0.789h0.796V14.173z M17.486,14.173H16.69v-0.789h0.796V14.173z
			 M15.497,14.173h-0.796v-0.789h0.796V14.173z M13.508,14.173h-0.796v-0.789h0.796V14.173z M7.542,14.173H6.747v-0.789h0.795
			V14.173z M5.552,14.173H4.757v-0.789h0.795V14.173L5.552,14.173z M3.563,14.173H2.768v-0.789h0.795V14.173z"/>
		<path fill="#F6B72D" d="M12.051,7.19c-0.785,0-1.42-0.643-1.42-1.432c0-0.79,0.636-1.432,1.42-1.432
			c0.781,0,1.418,0.643,1.418,1.432S12.832,7.19,12.051,7.19z M12.051,4.774c-0.535,0-0.968,0.441-0.968,0.983
			s0.433,0.983,0.968,0.983c0.531,0,0.966-0.441,0.966-0.983C13.017,5.216,12.582,4.774,12.051,4.774z"/>
		<path fill="#F6B72D" d="M17.221,11.134c-0.783,0-1.419-0.642-1.419-1.432s0.637-1.431,1.419-1.431
			c0.782,0,1.418,0.642,1.418,1.431C18.64,10.492,18.003,11.134,17.221,11.134z M17.221,8.718c-0.534,0-0.967,0.442-0.967,0.983
			c0,0.542,0.434,0.983,0.967,0.983c0.533,0,0.967-0.441,0.967-0.983C18.188,9.16,17.754,8.718,17.221,8.718z"/>
		<path fill="#F6B72D" d="M10.062,15.077c-0.783,0-1.419-0.642-1.419-1.431c0-0.79,0.636-1.433,1.419-1.433s1.42,0.643,1.42,1.433
			C11.481,14.436,10.843,15.077,10.062,15.077z M10.062,12.662c-0.533,0-0.968,0.441-0.968,0.983c0,0.543,0.435,0.982,0.968,0.982
			s0.968-0.439,0.968-0.982C11.028,13.104,10.594,12.662,10.062,12.662z"/>
	</g>
</g>
<g>
	<g>
		<path fill="#EB5D30" d="M41.492,24.238v4.232c0,0.732-0.124,1.355-0.371,1.869c-0.248,0.516-0.565,0.91-0.952,1.186
			c-0.388,0.273-0.835,0.412-1.343,0.412c-0.517,0-0.968-0.139-1.355-0.412c-0.387-0.275-0.704-0.67-0.952-1.186
			c-0.247-0.514-0.371-1.137-0.371-1.869c0-0.727,0.112-1.344,0.337-1.846c0.224-0.504,0.514-0.895,0.869-1.168
			c0.355-0.275,0.847-0.414,1.473-0.414c0.618,0,1.139,0.316,1.562,0.947v-1.785c0-0.406-0.126-0.74-0.378-1.006
			c-0.252-0.264-0.594-0.396-1.025-0.396c-0.457,0-0.794,0.1-1.012,0.301s-0.327,0.486-0.327,0.855h-1.143
			c-0.004-0.59,0.211-1.078,0.645-1.467c0.434-0.391,1.05-0.584,1.851-0.584c0.736,0,1.336,0.225,1.799,0.676
			C41.261,23.035,41.492,23.586,41.492,24.238z M38.82,31.018c0.443,0,0.816-0.197,1.117-0.592c0.3-0.393,0.45-1.037,0.45-1.93
			c0-0.896-0.146-1.543-0.438-1.939c-0.291-0.395-0.668-0.592-1.129-0.592c-0.462,0-0.828,0.197-1.099,0.592
			c-0.271,0.396-0.406,1.043-0.406,1.939c0,0.893,0.14,1.537,0.419,1.93C38.014,30.82,38.375,31.018,38.82,31.018z"/>
		<path fill="#EB5D30" d="M46.634,27.412c0-1.059-0.379-1.588-1.136-1.588c-0.466,0-0.833,0.207-1.102,0.623
			c-0.269,0.414-0.403,1.051-0.403,1.91c0,1.201,0.755,2.346,2.267,3.434h-1.568c-1.244-1.172-1.866-2.314-1.866-3.428
			c0-0.643,0.112-1.234,0.337-1.773c0.224-0.541,0.514-0.959,0.869-1.254c0.355-0.297,0.823-0.445,1.402-0.445
			c0.716-0.004,1.323,0.359,1.822,1.092c0.432-0.727,1.039-1.092,1.822-1.092c0.579,0,1.047,0.148,1.402,0.445
			c0.355,0.295,0.646,0.713,0.869,1.254c0.225,0.539,0.337,1.131,0.337,1.773c0,1.113-0.622,2.256-1.866,3.428H48.31
			c1.473-1.092,2.209-2.236,2.209-3.434c0-0.859-0.135-1.496-0.403-1.91c-0.269-0.416-0.636-0.623-1.102-0.623
			c-0.808,0-1.212,0.529-1.212,1.588v1.764h-1.168V27.412z"/>
		<path fill="#EB5D30" d="M57.939,21.953v0.957h-2.66c-0.453,0-0.759,0.08-0.917,0.238c-0.159,0.158-0.238,0.439-0.238,0.842v1.961
			c0.423-0.605,0.948-0.908,1.574-0.908c0.618,0,1.104,0.139,1.46,0.414c0.355,0.273,0.646,0.664,0.869,1.168
			c0.225,0.502,0.337,1.107,0.337,1.814c0,0.754-0.124,1.387-0.371,1.9c-0.248,0.516-0.565,0.91-0.952,1.186
			c-0.388,0.273-0.835,0.412-1.343,0.412c-0.517,0-0.968-0.139-1.355-0.412c-0.387-0.275-0.704-0.67-0.952-1.186
			c-0.247-0.514-0.371-1.146-0.371-1.9V23.99c0-0.721,0.202-1.24,0.606-1.559c0.404-0.32,1.048-0.479,1.933-0.479H57.939z
			 M55.691,30.992c0.445,0,0.807-0.193,1.086-0.578s0.419-1.035,0.419-1.949c0-0.875-0.136-1.508-0.406-1.895
			s-0.637-0.58-1.099-0.58c-0.461,0-0.838,0.193-1.129,0.58c-0.293,0.387-0.438,1.02-0.438,1.895c0,0.914,0.15,1.564,0.45,1.949
			C54.875,30.799,55.248,30.992,55.691,30.992z"/>
		<path fill="#EB5D30" d="M64.928,29.029c-0.004,0.721-0.227,1.385-0.666,1.994c-0.44,0.609-1.117,0.914-2.031,0.914
			c-0.834,0-1.496-0.307-1.987-0.918s-0.734-1.338-0.729-2.18c0-0.631,0.147-1.273,0.443-1.93l1.207,0.469
			c-0.313,0.623-0.471,1.109-0.471,1.461c0.005,0.773,0.157,1.328,0.457,1.66c0.301,0.332,0.667,0.5,1.099,0.504
			c0.415-0.004,0.749-0.141,1.003-0.41c0.254-0.268,0.421-0.789,0.502-1.564c0.004-1.041-0.432-1.881-1.309-2.52
			c-0.875-0.639-1.313-1.404-1.313-2.297h1.117c0.004,0.711,0.452,1.395,1.343,2.053S64.928,27.846,64.928,29.029z"/>
		<path fill="#EB5D30" d="M72.278,27.494c-0.009,0.732-0.341,1.266-0.996,1.6c0.875,0.549,1.312,1.367,1.307,2.449
			c0,0.965-0.271,1.758-0.815,2.377c-0.544,0.621-1.323,0.932-2.339,0.932c-1.168-0.006-2.042-0.465-2.621-1.379
			c-0.58-0.914-0.87-2.111-0.87-3.592c0-1.604,0.394-3.244,1.181-4.92h1.25c-0.846,1.393-1.27,2.994-1.27,4.805
			c0,1.168,0.162,2.156,0.486,2.961c0.323,0.807,0.938,1.211,1.844,1.211c0.8,0,1.331-0.244,1.594-0.73
			c0.262-0.486,0.393-1.062,0.393-1.727c0-1.012-0.325-1.588-0.977-1.727h-1.359v-0.818h1.309c0.207-0.014,0.378-0.098,0.514-0.254
			c0.136-0.158,0.203-0.5,0.203-1.029c0-0.402-0.265-0.725-0.793-0.969c-0.529-0.242-0.796-0.816-0.801-1.723h1.086
			c0.004,0.547,0.284,0.986,0.841,1.32S72.278,27.02,72.278,27.494z"/>
		<path fill="#EB5D30" d="M78.898,31.227c0,1.027-0.106,1.762-0.32,2.199s-0.51,0.783-0.889,1.037s-0.843,0.383-1.393,0.389
			c-0.559-0.006-1.027-0.135-1.406-0.389s-0.675-0.6-0.889-1.037s-0.32-0.943-0.32-1.514c-0.005-0.609,0.184-1.189,0.564-1.74
			l0.965,0.516c-0.241,0.422-0.361,0.947-0.361,1.574c0,0.461,0.139,0.848,0.418,1.164c0.279,0.314,0.623,0.473,1.029,0.473
			c0.397,0,0.708-0.105,0.933-0.316c0.225-0.213,0.377-0.473,0.457-0.779s0.116-0.832,0.108-1.576v-4.031
			c0-0.418-0.136-0.76-0.406-1.021c-0.271-0.264-0.587-0.395-0.946-0.395c-0.448,0-0.771,0.146-0.968,0.439
			c-0.197,0.291-0.295,0.615-0.295,0.971c0,0.436,0.111,0.795,0.336,1.078l-0.99,0.516c-0.326-0.539-0.488-1.059-0.488-1.562
			c0-0.643,0.221-1.191,0.663-1.646s1.031-0.684,1.768-0.684c0.783,0,1.383,0.236,1.8,0.705c0.417,0.471,0.627,1.012,0.631,1.625
			V31.227z"/>
		<path fill="#EB5D30" d="M85.449,24.238v4.232c0,0.732-0.124,1.355-0.371,1.869c-0.248,0.516-0.565,0.91-0.952,1.186
			c-0.388,0.273-0.835,0.412-1.343,0.412c-0.517,0-0.968-0.139-1.355-0.412c-0.387-0.275-0.704-0.67-0.952-1.186
			c-0.247-0.514-0.371-1.137-0.371-1.869c0-0.727,0.112-1.344,0.337-1.846c0.224-0.504,0.514-0.895,0.869-1.168
			c0.355-0.275,0.847-0.414,1.473-0.414c0.618,0,1.139,0.316,1.562,0.947v-1.785c0-0.406-0.126-0.74-0.378-1.006
			c-0.252-0.264-0.594-0.396-1.025-0.396c-0.457,0-0.794,0.1-1.012,0.301s-0.327,0.486-0.327,0.855H80.46
			c-0.004-0.59,0.211-1.078,0.645-1.467c0.434-0.391,1.05-0.584,1.851-0.584c0.736,0,1.336,0.225,1.799,0.676
			C85.218,23.035,85.449,23.586,85.449,24.238z M82.777,31.018c0.443,0,0.816-0.197,1.117-0.592c0.3-0.393,0.45-1.037,0.45-1.93
			c0-0.896-0.146-1.543-0.438-1.939c-0.291-0.395-0.668-0.592-1.129-0.592c-0.462,0-0.828,0.197-1.099,0.592
			c-0.271,0.396-0.406,1.043-0.406,1.939c0,0.893,0.14,1.537,0.419,1.93C81.971,30.82,82.332,31.018,82.777,31.018z"/>
		<path fill="#EB5D30" d="M92.006,31.227c0,1.027-0.106,1.762-0.32,2.199s-0.51,0.783-0.889,1.037s-0.843,0.383-1.393,0.389
			c-0.559-0.006-1.027-0.135-1.406-0.389s-0.675-0.6-0.889-1.037s-0.32-0.943-0.32-1.514c-0.005-0.609,0.184-1.189,0.564-1.74
			l0.965,0.516c-0.241,0.422-0.361,0.947-0.361,1.574c0,0.461,0.139,0.848,0.418,1.164c0.279,0.314,0.623,0.473,1.029,0.473
			c0.397,0,0.708-0.105,0.933-0.316c0.225-0.213,0.377-0.473,0.457-0.779s0.116-0.832,0.108-1.576v-4.031
			c0-0.418-0.136-0.76-0.406-1.021c-0.271-0.264-0.587-0.395-0.946-0.395c-0.448,0-0.771,0.146-0.968,0.439
			c-0.197,0.291-0.295,0.615-0.295,0.971c0,0.436,0.111,0.795,0.336,1.078l-0.99,0.516c-0.326-0.539-0.488-1.059-0.488-1.562
			c0-0.643,0.221-1.191,0.663-1.646s1.031-0.684,1.768-0.684c0.783,0,1.383,0.236,1.8,0.705c0.417,0.471,0.627,1.012,0.631,1.625
			V31.227z"/>
		<path fill="#EB5D30" d="M95.892,31.938c-0.517,0-0.968-0.139-1.355-0.412c-0.387-0.275-0.704-0.67-0.952-1.186
			c-0.247-0.514-0.371-1.158-0.371-1.932c0-0.686,0.112-1.281,0.337-1.783c0.224-0.504,0.489-0.879,0.796-1.121
			c0.307-0.244,0.687-0.391,1.14-0.441l0.102-0.736c0.063-0.305-0.153-0.607-0.65-0.91s-0.746-0.809-0.746-1.514h1.25
			c-0.008,0.363,0.197,0.711,0.616,1.041s0.605,0.746,0.559,1.25l-0.165,0.895c0.385,0.059,0.721,0.205,1.006,0.436
			c0.286,0.23,0.541,0.598,0.766,1.102c0.224,0.502,0.336,1.098,0.336,1.783c0,0.773-0.124,1.418-0.371,1.932
			c-0.248,0.516-0.565,0.91-0.952,1.186C96.847,31.799,96.399,31.938,95.892,31.938z M95.886,30.992
			c0.443,0,0.806-0.193,1.085-0.578s0.419-1.045,0.419-1.98c0-0.859-0.136-1.482-0.406-1.867s-0.637-0.576-1.098-0.576
			c-0.462,0-0.828,0.191-1.099,0.576s-0.406,1.008-0.406,1.867c0,0.936,0.14,1.596,0.419,1.98S95.44,30.992,95.886,30.992z"/>
		<path fill="#EB5D30" d="M102.874,31.785c0.669-1.342,1.003-2.549,1.003-3.619c0-0.732-0.135-1.309-0.403-1.729
			c-0.269-0.422-0.636-0.633-1.101-0.633c-0.466,0-0.833,0.211-1.102,0.633c-0.269,0.42-0.403,0.996-0.403,1.729
			c0,1.07,0.354,2.277,1.06,3.619h-1.313c-0.609-1.549-0.914-2.754-0.914-3.611c0-0.518,0.112-1.045,0.337-1.584
			c0.224-0.541,0.514-0.959,0.869-1.258s0.844-0.447,1.467-0.447c0.621,0,1.11,0.148,1.466,0.447s0.646,0.717,0.87,1.258
			c0.224,0.539,0.336,1.066,0.336,1.584c0,0.857-0.305,2.062-0.914,3.611H102.874z"/>
		<path fill="#EB5D30" d="M110.11,24.574c0,0.936,0.269,1.602,0.807,2.002c0.537,0.4,0.806,0.996,0.806,1.787
			c0,0.689-0.124,1.311-0.371,1.863c-0.248,0.553-0.565,0.975-0.952,1.27c-0.388,0.293-0.837,0.441-1.35,0.441
			c-0.512,0-0.961-0.148-1.349-0.441c-0.387-0.295-0.704-0.717-0.952-1.27c-0.247-0.553-0.371-1.174-0.371-1.863v-6.393h1.104v6.387
			c0,0.9,0.149,1.566,0.447,1.996c0.299,0.43,0.672,0.645,1.12,0.645c0.449,0,0.812-0.215,1.089-0.645s0.416-1.096,0.416-1.996
			c0-0.605-0.265-1.139-0.794-1.598c-0.528-0.459-0.795-1.188-0.799-2.186H110.11z"/>
		<path fill="#EB5D30" d="M122.418,29.029c-0.004,0.721-0.227,1.385-0.666,1.994c-0.44,0.609-1.117,0.914-2.031,0.914
			c-0.834,0-1.496-0.307-1.987-0.918s-0.734-1.338-0.729-2.18c0-0.631,0.147-1.273,0.443-1.93l1.207,0.469
			c-0.313,0.623-0.471,1.109-0.471,1.461c0.005,0.773,0.157,1.328,0.457,1.66c0.301,0.332,0.667,0.5,1.099,0.504
			c0.415-0.004,0.749-0.141,1.003-0.41c0.254-0.268,0.421-0.789,0.502-1.564c0.004-1.041-0.432-1.881-1.309-2.52
			c-0.875-0.639-1.313-1.404-1.313-2.297h1.117c0.004,0.711,0.452,1.395,1.343,2.053S122.418,27.846,122.418,29.029z"/>
		<path fill="#EB5D30" d="M127.682,31.314c0-0.49-0.093-0.916-0.276-1.275c-0.185-0.359-0.501-0.539-0.949-0.539h-0.907v-0.902
			h0.958c0.423,0,0.702-0.125,0.838-0.377s0.203-0.574,0.203-0.969c0-0.385-0.155-0.719-0.467-1.002
			c-0.311-0.283-0.697-0.426-1.158-0.426v-0.934c0.766,0,1.422,0.234,1.968,0.701c0.546,0.469,0.821,1.033,0.825,1.693
			c0,0.414-0.06,0.734-0.178,0.961s-0.399,0.488-0.845,0.783c0.563,0.279,0.897,0.613,1.004,1c0.105,0.387,0.158,0.752,0.158,1.096
			V32c0,0.424-0.109,0.877-0.327,1.359s-0.515,0.852-0.892,1.107s-0.863,0.385-1.46,0.385c-0.601,0-1.091-0.129-1.47-0.385
			s-0.675-0.604-0.889-1.041s-0.32-0.943-0.32-1.514c0-0.521,0.165-1.102,0.495-1.74l1.06,0.521
			c-0.254,0.418-0.381,0.941-0.381,1.568c0,0.451,0.139,0.838,0.416,1.158c0.277,0.318,0.641,0.479,1.089,0.479
			c0.44,0,0.762-0.105,0.965-0.316c0.203-0.213,0.344-0.463,0.422-0.754c0.078-0.289,0.118-0.547,0.118-0.77V31.314z"/>
		<path fill="#EB5D30" d="M135.418,29.029c-0.004,0.721-0.227,1.385-0.666,1.994c-0.44,0.609-1.117,0.914-2.031,0.914
			c-0.834,0-1.496-0.307-1.987-0.918s-0.734-1.338-0.729-2.18c0-0.631,0.147-1.273,0.443-1.93l1.207,0.469
			c-0.313,0.623-0.471,1.109-0.471,1.461c0.005,0.773,0.157,1.328,0.457,1.66c0.301,0.332,0.667,0.5,1.099,0.504
			c0.415-0.004,0.749-0.141,1.003-0.41c0.254-0.268,0.421-0.789,0.502-1.564c0.004-1.041-0.432-1.881-1.309-2.52
			c-0.875-0.639-1.313-1.404-1.313-2.297h1.117c0.004,0.711,0.452,1.395,1.343,2.053S135.418,27.846,135.418,29.029z"/>
		<path fill="#EB5D30" d="M137.102,32.584c0.363-0.041,0.863-0.068,1.498-0.082c-1.359-1.527-2.038-2.906-2.038-4.139
			c0-0.643,0.112-1.234,0.337-1.773c0.224-0.541,0.535-0.959,0.933-1.254c0.397-0.297,0.907-0.445,1.53-0.445
			c0.423,0,0.983,0.195,1.682,0.584c0.397-0.389,0.908-0.584,1.529-0.584c0.623,0,1.111,0.148,1.467,0.445
			c0.355,0.295,0.646,0.713,0.869,1.254c0.225,0.539,0.337,1.131,0.337,1.773c0,0.689-0.124,1.311-0.371,1.863
			c-0.248,0.553-0.565,0.975-0.952,1.27c-0.388,0.293-0.837,0.441-1.35,0.441c-0.512,0-0.972-0.148-1.38-0.441
			c-0.408-0.295-0.726-0.717-0.952-1.27s-0.34-1.174-0.34-1.863c0-0.643,0.112-1.234,0.336-1.771l0.197-0.398
			c-0.317-0.242-0.673-0.363-1.066-0.363c-0.466,0-0.853,0.221-1.162,0.664c-0.309,0.441-0.463,1.07-0.463,1.883
			c-0.004,1.201,0.671,2.547,2.025,4.037c1.083,0.203,1.884,0.543,2.402,1.021s0.848,0.928,0.986,1.352h-1.58
			c0-0.316-0.194-0.633-0.584-0.945c-0.39-0.314-0.889-0.471-1.498-0.471c-0.787,0-1.585,0.105-2.393,0.318V32.584z M142.572,30.998
			c0.449,0,0.812-0.215,1.089-0.645s0.416-1.096,0.416-1.996c0-0.859-0.135-1.496-0.403-1.91c-0.269-0.416-0.636-0.623-1.102-0.623
			c-0.465,0-0.832,0.207-1.101,0.623c-0.269,0.414-0.403,1.051-0.403,1.91c0,0.9,0.139,1.566,0.416,1.996
			S142.124,30.998,142.572,30.998z"/>
		<path fill="#EB5D30" d="M151.611,31.227c0,1.027-0.106,1.762-0.32,2.199s-0.51,0.783-0.889,1.037s-0.843,0.383-1.393,0.389
			c-0.559-0.006-1.027-0.135-1.406-0.389s-0.675-0.6-0.889-1.037s-0.32-0.943-0.32-1.514c-0.005-0.609,0.184-1.189,0.564-1.74
			l0.965,0.516c-0.241,0.422-0.361,0.947-0.361,1.574c0,0.461,0.139,0.848,0.418,1.164c0.279,0.314,0.623,0.473,1.029,0.473
			c0.397,0,0.708-0.105,0.933-0.316c0.225-0.213,0.377-0.473,0.457-0.779s0.116-0.832,0.108-1.576v-4.031
			c0-0.418-0.136-0.76-0.406-1.021c-0.271-0.264-0.587-0.395-0.946-0.395c-0.448,0-0.771,0.146-0.968,0.439
			c-0.197,0.291-0.295,0.615-0.295,0.971c0,0.436,0.111,0.795,0.336,1.078l-0.99,0.516c-0.326-0.539-0.488-1.059-0.488-1.562
			c0-0.643,0.221-1.191,0.663-1.646s1.031-0.684,1.768-0.684c0.783,0,1.383,0.236,1.8,0.705c0.417,0.471,0.627,1.012,0.631,1.625
			V31.227z"/>
		<path fill="#EB5D30" d="M158.162,24.238v4.232c0,0.732-0.124,1.355-0.371,1.869c-0.248,0.516-0.565,0.91-0.952,1.186
			c-0.388,0.273-0.835,0.412-1.343,0.412c-0.517,0-0.968-0.139-1.355-0.412c-0.387-0.275-0.704-0.67-0.952-1.186
			c-0.247-0.514-0.371-1.137-0.371-1.869c0-0.727,0.112-1.344,0.337-1.846c0.224-0.504,0.514-0.895,0.869-1.168
			c0.355-0.275,0.847-0.414,1.473-0.414c0.618,0,1.139,0.316,1.562,0.947v-1.785c0-0.406-0.126-0.74-0.378-1.006
			c-0.252-0.264-0.594-0.396-1.025-0.396c-0.457,0-0.794,0.1-1.012,0.301s-0.327,0.486-0.327,0.855h-1.143
			c-0.004-0.59,0.211-1.078,0.645-1.467c0.434-0.391,1.05-0.584,1.851-0.584c0.736,0,1.336,0.225,1.799,0.676
			C157.931,23.035,158.162,23.586,158.162,24.238z M155.49,31.018c0.443,0,0.816-0.197,1.117-0.592c0.3-0.393,0.45-1.037,0.45-1.93
			c0-0.896-0.146-1.543-0.438-1.939c-0.291-0.395-0.668-0.592-1.129-0.592c-0.462,0-0.828,0.197-1.099,0.592
			c-0.271,0.396-0.406,1.043-0.406,1.939c0,0.893,0.14,1.537,0.419,1.93C154.684,30.82,155.045,31.018,155.49,31.018z"/>
		<path fill="#EB5D30" d="M162.669,31.785c0.669-1.342,1.003-2.549,1.003-3.619c0-0.732-0.135-1.309-0.403-1.729
			c-0.269-0.422-0.636-0.633-1.101-0.633c-0.466,0-0.833,0.211-1.102,0.633c-0.269,0.42-0.403,0.996-0.403,1.729
			c0,1.07,0.354,2.277,1.06,3.619h-1.313c-0.609-1.549-0.914-2.754-0.914-3.611c0-0.518,0.112-1.045,0.337-1.584
			c0.224-0.541,0.514-0.959,0.869-1.258s0.844-0.447,1.467-0.447c0.621,0,1.11,0.148,1.466,0.447s0.646,0.717,0.87,1.258
			c0.224,0.539,0.336,1.066,0.336,1.584c0,0.857-0.305,2.062-0.914,3.611H162.669z"/>
		<path fill="#EB5D30" d="M171.403,29.029c-0.004,0.721-0.227,1.385-0.666,1.994c-0.44,0.609-1.117,0.914-2.031,0.914
			c-0.834,0-1.496-0.307-1.987-0.918s-0.734-1.338-0.729-2.18c0-0.631,0.147-1.273,0.443-1.93l1.207,0.469
			c-0.313,0.623-0.471,1.109-0.471,1.461c0.005,0.773,0.157,1.328,0.457,1.66c0.301,0.332,0.667,0.5,1.099,0.504
			c0.415-0.004,0.749-0.141,1.003-0.41c0.254-0.268,0.421-0.789,0.502-1.564c0.004-1.041-0.432-1.881-1.309-2.52
			c-0.875-0.639-1.313-1.404-1.313-2.297h1.117c0.004,0.711,0.452,1.395,1.343,2.053S171.403,27.846,171.403,29.029z"/>
	</g>
</g>
</svg>
