<?xml version="1.0" encoding="utf-8"?>
<!-- Generator: Adobe Illustrator 16.0.0, SVG Export Plug-In . SVG Version: 6.00 Build 0)  -->
<!DOCTYPE svg PUBLIC "-//W3C//DTD SVG 1.1//EN" "http://www.w3.org/Graphics/SVG/1.1/DTD/svg11.dtd">
<svg version="1.1" id="Layer_1" xmlns="http://www.w3.org/2000/svg" xmlns:xlink="http://www.w3.org/1999/xlink" x="0px" y="0px"
	 width="205px" height="87px" viewBox="0 0 205 87" enable-background="new 0 0 205 87" xml:space="preserve">
<g>
	<g>
		<g>
			<g>
				<path fill="#F6B72D" d="M82.769,36.732c-0.534,0-0.903-0.058-1.242-0.115v-1.648c0.237,0.088,0.561,0.147,0.916,0.147
					c0.695,0,1.094-0.294,1.094-1.368v-9.986h1.919v10.062C85.455,35.455,84.791,36.732,82.769,36.732z"/>
				<path fill="#F6B72D" d="M92.559,33.704c0-0.338,0.015-0.896,0.088-1.31l-0.03-0.015c-0.428,0.867-1.284,1.472-2.481,1.472
					c-1.668,0-2.2-1.06-2.2-2.339v-3.691c-0.354-0.06-0.842-0.118-1.27-0.146v-1.178c0.975-0.118,2.141-0.161,3.16-0.133v4.692
					c0,0.765,0.207,1.221,0.9,1.221c0.96,0,1.714-1.09,1.714-2.368v-3.53h1.876v5.869c0.355,0.059,0.857,0.117,1.285,0.146v1.177
					C94.672,33.689,93.534,33.732,92.559,33.704z"/>
				<path fill="#F6B72D" d="M106.102,33.689v-4.633c0-0.781-0.178-1.266-0.871-1.266c-0.828,0-1.685,0.971-1.685,2.396v3.502h-1.861
					v-4.633c0-0.723-0.147-1.267-0.872-1.267c-0.871,0-1.683,1.028-1.683,2.396v3.502h-1.876v-5.869
					c-0.354-0.059-0.855-0.117-1.286-0.146v-1.178c0.931-0.118,2.084-0.161,3.059-0.133c0,0.354-0.031,0.896-0.089,1.321h0.014
					c0.443-0.896,1.33-1.469,2.422-1.469c1.299,0,1.846,0.764,2.024,1.469c0.34-0.719,1.151-1.469,2.393-1.469
					c1.418,0,2.201,0.78,2.201,2.441v5.029h-1.891V33.689z"/>
				<path fill="#F6B72D" d="M109.229,27.676v-1.178c0.933-0.118,2.055-0.161,3.029-0.133c0,0.367-0.015,0.853-0.074,1.234h0.03
					c0.412-0.853,1.195-1.367,2.304-1.367c1.741,0,2.688,1.25,2.688,3.412c0,2.545-1.329,4.147-3.87,4.147
					c-0.354,0-0.637-0.015-0.945-0.06v3.5h-1.877V27.82C110.161,27.763,109.659,27.703,109.229,27.676z M113.973,27.777
					c-0.99,0-1.582,1.146-1.582,2.396v2.03c0.297,0.088,0.605,0.131,0.99,0.131c1.078,0,1.846-0.676,1.846-2.483
					C115.227,28.482,114.828,27.777,113.973,27.777z"/>
				<path fill="#F6B72D" d="M120.618,33.852c-0.711,0-1.419-0.072-2.039-0.233l0.116-1.779c0.562,0.188,1.359,0.353,2.084,0.353
					c0.975,0,1.729-0.396,1.729-1.309c0-1.898-4.182-1.029-4.182-4.296c0-1.765,1.402-2.985,3.797-2.985
					c0.562,0,1.211,0.073,1.802,0.176l-0.104,1.679c-0.562-0.163-1.182-0.265-1.787-0.265c-1.107,0-1.669,0.5-1.669,1.205
					c0,1.778,4.194,1.117,4.194,4.223C124.561,32.482,123.068,33.852,120.618,33.852z"/>
				<path fill="#F6B72D" d="M128.65,33.838c-1.627,0-2.127-0.59-2.127-2.296v-3.706h-1.271V26.38h1.256v-2.25l1.892-0.501v2.751
					h1.787v1.456H128.4v3.207c0,0.941,0.222,1.206,0.869,1.206c0.312,0,0.652-0.044,0.918-0.119v1.517
					C129.714,33.764,129.168,33.838,128.65,33.838z"/>
				<path fill="#F6B72D" d="M135.65,33.704c0-0.427,0.015-0.867,0.072-1.25l-0.015-0.015c-0.354,0.822-1.254,1.397-2.349,1.397
					c-1.33,0-2.098-0.751-2.098-1.928c0-1.75,1.743-2.679,4.239-2.679v-0.396c0-0.767-0.369-1.161-1.435-1.161
					c-0.664,0-1.549,0.221-2.17,0.572l-0.162-1.573c0.738-0.265,1.683-0.456,2.629-0.456c2.363,0,3.027,0.94,3.027,2.544v3.486
					c0.354,0.06,0.856,0.117,1.284,0.146v1.178C137.747,33.689,136.609,33.732,135.65,33.704z M135.503,30.455
					c-1.994,0-2.438,0.572-2.438,1.162c0,0.469,0.326,0.777,0.873,0.777c0.932,0,1.565-0.882,1.565-1.766V30.455z"/>
				<path fill="#F6B72D" d="M141.85,27.852h0.028c0.354-0.929,1.063-1.735,2.334-1.633l-0.09,1.854
					c-1.356-0.279-2.036,0.603-2.036,2.633v2.986h-1.877v-5.869c-0.354-0.059-0.855-0.118-1.284-0.146v-1.178
					c0.931-0.118,2.069-0.161,3.058-0.133C141.982,26.748,141.938,27.336,141.85,27.852z"/>
				<path fill="#F6B72D" d="M148.266,33.838c-1.625,0-2.127-0.59-2.127-2.296v-3.706h-1.271V26.38h1.255v-2.25l1.891-0.501v2.751
					h1.787v1.456h-1.787v3.207c0,0.941,0.223,1.206,0.871,1.206c0.311,0,0.65-0.044,0.916-0.119v1.517
					C149.328,33.764,148.781,33.838,148.266,33.838z"/>
			</g>
		</g>
		<path fill="#F6B72D" d="M155.29,23.575c-0.437-0.168-0.935-0.272-1.44-0.272c-1.07,0-1.843,0.674-1.843,1.885
			c0,1.144,0.628,1.817,1.729,1.817c0.258,0,0.481-0.032,0.691-0.096v-1.884h1.045v2.58c-0.539,0.216-1.205,0.336-1.855,0.336
			c-1.723,0-2.746-1.01-2.746-2.659c0-1.699,1.16-2.907,3.042-2.907c0.54,0,1.069,0.098,1.537,0.23L155.29,23.575z"/>
		<path fill="#F6B72D" d="M159.812,26.036h-2.479c-0.01,0.743,0.361,1.104,1.102,1.104c0.395,0,0.82-0.09,1.166-0.248l0.098,0.791
			c-0.428,0.17-0.934,0.258-1.432,0.258c-1.271,0-1.979-0.633-1.979-2.034c0-1.218,0.675-2.114,1.874-2.114
			c1.165,0,1.681,0.792,1.681,1.778C159.843,25.707,159.835,25.867,159.812,26.036z M158.13,24.545
			c-0.427,0-0.724,0.312-0.778,0.794h1.471C158.837,24.842,158.562,24.545,158.13,24.545z"/>
	</g>
	<g>
		<g>
			<path fill="#F6B72D" d="M65.912,43.154c0.848-2.828,1.303-5.824,1.303-8.925c0-17.202-14.004-31.146-31.278-31.146v-3.46
				c19.193,0,34.753,15.494,34.753,34.607c0,4.941-1.04,9.642-2.914,13.893l-0.064-3.962L65.912,43.154z"/>
			<path fill="#C32E30" d="M5.917,42.984c-1.716-5.812-1.75-12.183,0.272-18.379l-3.306-1.07c-1.126,3.454-1.701,7.063-1.701,10.694
				c0,4.826,0.992,9.42,2.784,13.593l0.051-3.844L5.917,42.984z"/>
			<path fill="#EB5D30" d="M2.884,23.535C7.537,9.277,20.881-0.377,35.937-0.377v3.46c-13.55,0-25.56,8.688-29.747,21.522
				L2.884,23.535z"/>
		</g>
		<g>
			<path fill="#EF7559" d="M68.731,86.623l-1.327-0.502c-5.021-1.898-10.004-2.819-15.235-2.819c-3.574,0-7.17,0.431-10.985,1.318
				l0.002,0.006l-0.211,0.088c-0.816,0.341-2.984,1.249-5.096,1.249c-2.11,0-4.263-0.906-5.074-1.248l-0.214-0.089l0.011-0.028
				c-6.893-2.976-15.639-2.443-26.135,1.523L3.14,86.623V43.245l0.613-0.247c10.224-4.099,18.935-4.518,27.596-1.341
				c0.206,0.075,0.44,0.172,0.702,0.281c0.937,0.392,2.219,0.928,3.758,0.928c1.588,0,2.966-0.557,3.973-0.963
				c0.234-0.095,0.445-0.18,0.63-0.247c8.66-3.177,17.487-2.753,27.705,1.342l0.613,0.247L68.731,86.623L68.731,86.623z
				 M31.914,83.062c0.867,0.354,2.483,0.95,3.967,0.95c1.37,0,2.859-0.507,3.768-0.864c0.064-0.037,0.133-0.073,0.206-0.108v-0.003
				c0.006-0.001,0.013-0.004,0.02-0.006c0.161-0.077,0.34-0.146,0.528-0.221l0.132-0.041c4.04-0.955,7.845-1.418,11.636-1.418
				c4.937,0,9.843,0.828,14.604,2.467V44.564c-9.491-3.683-17.651-4.025-25.686-1.079c-0.168,0.061-0.357,0.139-0.568,0.223
				c-1.091,0.441-2.739,1.107-4.709,1.107c-1.933,0-3.487-0.65-4.516-1.081c-0.229-0.096-0.435-0.182-0.618-0.248
				C22.641,40.54,14.593,40.881,5.1,44.564v39.246c10.457-3.719,19.286-4.045,26.318-0.985
				C31.567,82.887,31.748,82.958,31.914,83.062z"/>
		</g>
		<rect x="35" y="44" fill="#EF7559" width="1" height="41"/>
		<path fill="#C32E30" d="M71.859,63.34c0,3.147-1.778,5.7-3.971,5.7c-2.192,0-5.715-2.553-5.715-5.7
			c0-3.146,3.522-5.699,5.715-5.699C70.082,57.641,71.859,60.191,71.859,63.34z"/>
		<path fill="#C32E30" d="M9.933,63.34c0,3.147-3.522,5.7-5.715,5.7c-2.193,0-3.971-2.553-3.971-5.7
			c0-3.146,1.778-5.699,3.971-5.699C6.411,57.641,9.933,60.191,9.933,63.34z"/>
		<path fill="#F6B72D" d="M53.068,14.732H51.11v-1.949h1.958V14.732z M48.173,14.732h-1.958v-1.949h1.958V14.732z M43.279,14.732
			h-1.958v-1.949h1.958V14.732z M38.384,14.732h-1.958v-1.949h1.958V14.732z M23.7,14.732h-1.958v-1.949H23.7V14.732z
			 M18.805,14.732h-1.958v-1.949h1.958V14.732z"/>
		<path fill="#F6B72D" d="M60.9,24.481h-1.958v-1.949H60.9V24.481z M56.005,24.481h-1.958v-1.949h1.958V24.481z M51.11,24.481
			h-1.958v-1.949h1.958V24.481z M36.426,24.481h-1.958v-1.949h1.958V24.481z M31.531,24.481h-1.958v-1.949h1.958V24.481z
			 M26.636,24.481h-1.958v-1.949h1.958V24.481z M21.742,24.481h-1.958v-1.949h1.958V24.481z M16.847,24.481h-1.958v-1.949h1.958
			V24.481z M11.952,24.481H9.994v-1.949h1.958V24.481z"/>
		<path fill="#F6B72D" d="M62.858,34.229H60.9v-1.95h1.958V34.229z M57.963,34.229h-1.958v-1.95h1.958V34.229z M53.068,34.229H51.11
			v-1.95h1.958V34.229z M48.173,34.229h-1.958v-1.95h1.958V34.229z M43.279,34.229h-1.958v-1.95h1.958V34.229z M38.384,34.229
			h-1.958v-1.95h1.958V34.229z M33.489,34.229h-1.958v-1.95h1.958V34.229z M18.805,34.229h-1.958v-1.95h1.958V34.229z M13.91,34.229
			h-1.958v-1.95h1.958V34.229z M9.015,34.229H7.058v-1.95h1.958L9.015,34.229L9.015,34.229z"/>
		<path fill="#F6B72D" d="M29.9,16.972c-1.926,0-3.493-1.587-3.493-3.539c0-1.952,1.567-3.54,3.493-3.54
			c1.926,0,3.493,1.588,3.493,3.54C33.393,15.385,31.826,16.972,29.9,16.972z M29.9,11.001c-1.312,0-2.38,1.091-2.38,2.432
			c0,1.341,1.068,2.431,2.38,2.431s2.38-1.09,2.38-2.431C32.28,12.092,31.212,11.001,29.9,11.001z"/>
		<path fill="#F6B72D" d="M42.626,26.72c-1.926,0-3.493-1.587-3.493-3.539c0-1.952,1.567-3.54,3.493-3.54
			c1.927,0,3.494,1.588,3.494,3.54C46.12,25.133,44.553,26.72,42.626,26.72z M42.626,20.75c-1.312,0-2.38,1.09-2.38,2.432
			c0,1.341,1.068,2.431,2.38,2.431c1.313,0,2.381-1.09,2.381-2.431C45.007,21.84,43.939,20.75,42.626,20.75z"/>
		<path fill="#F6B72D" d="M25.005,36.469c-1.926,0-3.493-1.588-3.493-3.539c0-1.952,1.567-3.54,3.493-3.54
			c1.926,0,3.493,1.588,3.493,3.54C28.498,34.881,26.931,36.469,25.005,36.469z M25.005,30.498c-1.312,0-2.38,1.09-2.38,2.432
			c0,1.34,1.068,2.431,2.38,2.431c1.313,0,2.381-1.091,2.381-2.431C27.386,31.588,26.318,30.498,25.005,30.498z"/>
	</g>
	<g>
		<g>
			<path fill="#EB5D30" d="M89.719,48.55v5.862c0,1.014-0.171,1.877-0.514,2.588c-0.343,0.713-0.782,1.259-1.318,1.64
				s-1.156,0.571-1.859,0.571c-0.715,0-1.34-0.19-1.876-0.571s-0.976-0.927-1.318-1.64c-0.343-0.711-0.514-1.574-0.514-2.588
				c0-1.008,0.155-1.86,0.466-2.558s0.712-1.236,1.204-1.617s1.172-0.571,2.039-0.571c0.855,0,1.576,0.437,2.162,1.31v-2.47
				c0-0.562-0.174-1.027-0.523-1.393c-0.349-0.367-0.822-0.55-1.419-0.55c-0.633,0-1.1,0.14-1.402,0.417
				c-0.302,0.279-0.453,0.673-0.453,1.183h-1.582c-0.006-0.814,0.292-1.491,0.892-2.03s1.455-0.809,2.562-0.809
				c1.02,0,1.85,0.312,2.492,0.936C89.398,46.885,89.719,47.647,89.719,48.55z M86.019,57.937c0.615,0,1.131-0.272,1.547-0.817
				s0.624-1.436,0.624-2.672c0-1.242-0.202-2.137-0.606-2.686c-0.404-0.547-0.926-0.821-1.564-0.821s-1.146,0.274-1.521,0.821
				c-0.375,0.549-0.562,1.443-0.562,2.686c0,1.236,0.193,2.127,0.58,2.672S85.403,57.937,86.019,57.937z"/>
			<path fill="#EB5D30" d="M96.838,52.944c0-1.465-0.524-2.197-1.573-2.197c-0.645,0-1.153,0.287-1.525,0.861
				s-0.558,1.456-0.558,2.646c0,1.664,1.046,3.249,3.138,4.755h-2.171c-1.723-1.623-2.584-3.205-2.584-4.746
				c0-0.891,0.155-1.71,0.466-2.456c0.311-0.748,0.712-1.326,1.204-1.736s1.14-0.615,1.942-0.615
				c0.99-0.006,1.831,0.498,2.522,1.512c0.598-1.008,1.438-1.512,2.522-1.512c0.803,0,1.45,0.205,1.942,0.615
				s0.894,0.988,1.204,1.736c0.311,0.746,0.466,1.565,0.466,2.456c0,1.541-0.861,3.123-2.584,4.746h-2.092
				c2.039-1.512,3.059-3.097,3.059-4.755c0-1.189-0.186-2.071-0.558-2.646s-0.88-0.861-1.525-0.861
				c-1.119,0-1.679,0.732-1.679,2.197v2.443h-1.617V52.944z"/>
			<path fill="#EB5D30" d="M112.491,45.386v1.327h-3.683c-0.627,0-1.051,0.109-1.27,0.33c-0.221,0.219-0.33,0.607-0.33,1.164v2.716
				c0.586-0.838,1.312-1.257,2.18-1.257c0.855,0,1.529,0.19,2.021,0.571s0.894,0.92,1.204,1.617s0.466,1.535,0.466,2.514
				c0,1.043-0.172,1.921-0.514,2.632c-0.344,0.713-0.783,1.259-1.318,1.64c-0.537,0.381-1.156,0.571-1.859,0.571
				c-0.715,0-1.34-0.19-1.877-0.571c-0.535-0.381-0.975-0.927-1.318-1.64c-0.342-0.711-0.514-1.589-0.514-2.632v-6.161
				c0-0.996,0.279-1.715,0.84-2.158c0.559-0.441,1.451-0.663,2.676-0.663H112.491z M109.38,57.901c0.615,0,1.116-0.267,1.503-0.8
				s0.58-1.433,0.58-2.698c0-1.213-0.188-2.087-0.562-2.624c-0.375-0.535-0.882-0.804-1.521-0.804s-1.16,0.269-1.564,0.804
				c-0.404,0.537-0.606,1.411-0.606,2.624c0,1.266,0.208,2.165,0.624,2.698S108.765,57.901,109.38,57.901z"/>
			<path fill="#EB5D30" d="M122.168,55.186c-0.006,0.996-0.313,1.916-0.923,2.76s-1.547,1.266-2.812,1.266
				c-1.154,0-2.071-0.424-2.751-1.27c-0.68-0.848-1.017-1.854-1.011-3.02c0-0.873,0.205-1.764,0.615-2.672l1.67,0.65
				c-0.434,0.861-0.65,1.535-0.65,2.021c0.006,1.072,0.217,1.838,0.633,2.299c0.416,0.459,0.923,0.692,1.521,0.698
				c0.574-0.006,1.037-0.194,1.389-0.567c0.352-0.371,0.583-1.094,0.694-2.166c0.006-1.441-0.598-2.604-1.811-3.489
				s-1.819-1.945-1.819-3.182h1.547c0.006,0.984,0.625,1.933,1.859,2.843C121.551,52.27,122.168,53.545,122.168,55.186z"/>
			<path fill="#EB5D30" d="M132.346,53.059c-0.012,1.014-0.472,1.752-1.38,2.215c1.213,0.762,1.816,1.893,1.811,3.393
				c0,1.336-0.376,2.434-1.13,3.291c-0.752,0.859-1.832,1.288-3.238,1.288c-1.617-0.006-2.827-0.642-3.63-1.907
				s-1.204-2.924-1.204-4.975c0-2.221,0.545-4.491,1.635-6.812h1.731c-1.172,1.928-1.758,4.146-1.758,6.653
				c0,1.617,0.224,2.984,0.673,4.1c0.447,1.117,1.299,1.675,2.553,1.675c1.107,0,1.843-0.337,2.206-1.011s0.545-1.471,0.545-2.391
				c0-1.4-0.451-2.197-1.354-2.391h-1.881v-1.134h1.811c0.287-0.018,0.524-0.135,0.712-0.352s0.281-0.691,0.281-1.424
				c0-0.557-0.366-1.003-1.099-1.341c-0.732-0.336-1.102-1.132-1.107-2.386h1.503c0.006,0.756,0.395,1.365,1.164,1.828
				C131.961,51.843,132.346,52.402,132.346,53.059z"/>
			<path fill="#EB5D30" d="M141.513,58.227c0,1.424-0.147,2.439-0.444,3.045c-0.295,0.607-0.705,1.086-1.23,1.438
				c-0.523,0.352-1.167,0.53-1.929,0.536c-0.773-0.006-1.423-0.185-1.946-0.536c-0.525-0.352-0.936-0.83-1.23-1.438
				c-0.297-0.605-0.444-1.305-0.444-2.096c-0.006-0.844,0.255-1.646,0.782-2.408l1.336,0.712c-0.334,0.586-0.501,1.312-0.501,2.18
				c0,0.639,0.193,1.177,0.58,1.612c0.387,0.438,0.861,0.655,1.424,0.655c0.551,0,0.981-0.146,1.292-0.439s0.521-0.651,0.633-1.077
				c0.111-0.424,0.161-1.152,0.149-2.184v-5.581c0-0.58-0.188-1.052-0.562-1.415s-0.812-0.545-1.31-0.545
				c-0.621,0-1.068,0.202-1.34,0.606c-0.273,0.404-0.409,0.853-0.409,1.345c0,0.604,0.155,1.102,0.466,1.494l-1.371,0.712
				c-0.451-0.744-0.677-1.465-0.677-2.162c0-0.891,0.306-1.651,0.919-2.28c0.611-0.631,1.428-0.945,2.447-0.945
				c1.084,0,1.914,0.325,2.492,0.976c0.576,0.65,0.868,1.4,0.874,2.25V58.227z"/>
			<path fill="#EB5D30" d="M150.583,48.55v5.862c0,1.014-0.171,1.877-0.515,2.588c-0.342,0.713-0.781,1.259-1.318,1.64
				c-0.535,0.381-1.155,0.571-1.858,0.571c-0.715,0-1.341-0.19-1.876-0.571c-0.537-0.381-0.977-0.927-1.318-1.64
				c-0.344-0.711-0.515-1.574-0.515-2.588c0-1.008,0.155-1.86,0.466-2.558s0.712-1.236,1.204-1.617s1.172-0.571,2.039-0.571
				c0.855,0,1.576,0.437,2.162,1.31v-2.47c0-0.562-0.175-1.027-0.522-1.393c-0.35-0.367-0.822-0.55-1.42-0.55
				c-0.633,0-1.1,0.14-1.402,0.417c-0.301,0.279-0.452,0.673-0.452,1.183h-1.582c-0.006-0.814,0.292-1.491,0.892-2.03
				c0.602-0.539,1.455-0.809,2.562-0.809c1.02,0,1.85,0.312,2.492,0.936C150.262,46.885,150.583,47.647,150.583,48.55z
				 M146.883,57.937c0.615,0,1.131-0.272,1.547-0.817s0.624-1.436,0.624-2.672c0-1.242-0.202-2.137-0.606-2.686
				c-0.404-0.547-0.926-0.821-1.564-0.821s-1.146,0.274-1.521,0.821c-0.375,0.549-0.562,1.443-0.562,2.686
				c0,1.236,0.193,2.127,0.58,2.672S146.268,57.937,146.883,57.937z"/>
			<path fill="#EB5D30" d="M159.662,58.227c0,1.424-0.148,2.439-0.443,3.045c-0.297,0.607-0.707,1.086-1.23,1.438
				c-0.525,0.352-1.168,0.53-1.93,0.536c-0.773-0.006-1.422-0.185-1.947-0.536c-0.523-0.352-0.934-0.83-1.23-1.438
				c-0.295-0.605-0.443-1.305-0.443-2.096c-0.006-0.844,0.255-1.646,0.782-2.408l1.336,0.712c-0.334,0.586-0.501,1.312-0.501,2.18
				c0,0.639,0.193,1.177,0.58,1.612c0.387,0.438,0.861,0.655,1.424,0.655c0.551,0,0.981-0.146,1.292-0.439s0.521-0.651,0.633-1.077
				c0.111-0.424,0.161-1.152,0.149-2.184v-5.581c0-0.58-0.188-1.052-0.562-1.415s-0.812-0.545-1.31-0.545
				c-0.621,0-1.067,0.202-1.341,0.606c-0.271,0.404-0.408,0.853-0.408,1.345c0,0.604,0.155,1.102,0.466,1.494l-1.371,0.712
				c-0.451-0.744-0.677-1.465-0.677-2.162c0-0.891,0.307-1.651,0.918-2.28c0.613-0.631,1.429-0.945,2.448-0.945
				c1.084,0,1.915,0.325,2.491,0.976c0.578,0.65,0.869,1.4,0.875,2.25V58.227z"/>
			<path fill="#EB5D30" d="M165.041,59.211c-0.715,0-1.34-0.19-1.877-0.571c-0.535-0.381-0.975-0.927-1.318-1.64
				c-0.342-0.711-0.514-1.604-0.514-2.676c0-0.949,0.155-1.772,0.466-2.47s0.679-1.214,1.103-1.552
				c0.426-0.336,0.951-0.54,1.578-0.61l0.141-1.02c0.088-0.422-0.213-0.843-0.9-1.261c-0.689-0.42-1.033-1.118-1.033-2.097h1.731
				c-0.012,0.504,0.272,0.984,0.853,1.441s0.838,1.034,0.773,1.731l-0.229,1.239c0.533,0.082,0.998,0.282,1.393,0.603
				c0.396,0.318,0.749,0.827,1.06,1.524s0.466,1.521,0.466,2.47c0,1.072-0.172,1.965-0.514,2.676
				c-0.344,0.713-0.783,1.259-1.318,1.64C166.363,59.021,165.744,59.211,165.041,59.211z M165.032,57.901
				c0.615,0,1.116-0.267,1.503-0.8s0.58-1.447,0.58-2.742c0-1.189-0.188-2.051-0.562-2.584s-0.882-0.8-1.521-0.8
				s-1.146,0.267-1.521,0.8s-0.562,1.395-0.562,2.584c0,1.295,0.193,2.209,0.58,2.742S164.417,57.901,165.032,57.901z"/>
			<path fill="#EB5D30" d="M174.709,59c0.926-1.857,1.389-3.527,1.389-5.01c0-1.014-0.186-1.812-0.559-2.395
				c-0.371-0.584-0.88-0.875-1.524-0.875s-1.153,0.291-1.524,0.875c-0.373,0.582-0.559,1.381-0.559,2.395
				c0,1.482,0.489,3.152,1.468,5.01h-1.819c-0.844-2.145-1.266-3.812-1.266-5.001c0-0.715,0.155-1.446,0.466-2.192
				c0.311-0.748,0.712-1.328,1.204-1.74c0.492-0.414,1.169-0.62,2.03-0.62s1.538,0.206,2.03,0.62
				c0.492,0.412,0.894,0.992,1.204,1.74c0.311,0.746,0.466,1.478,0.466,2.192c0,1.189-0.422,2.856-1.266,5.001H174.709z"/>
			<path fill="#EB5D30" d="M184.729,49.016c0,1.295,0.372,2.219,1.116,2.773c0.744,0.553,1.116,1.378,1.116,2.474
				c0,0.955-0.172,1.815-0.514,2.579c-0.344,0.766-0.783,1.352-1.318,1.758c-0.537,0.408-1.159,0.611-1.868,0.611
				s-1.331-0.203-1.868-0.611c-0.535-0.406-0.975-0.992-1.318-1.758c-0.342-0.764-0.514-1.624-0.514-2.579v-8.851h1.529v8.842
				c0,1.248,0.207,2.17,0.619,2.764c0.414,0.596,0.931,0.893,1.552,0.893s1.124-0.297,1.507-0.893
				c0.385-0.594,0.576-1.516,0.576-2.764c0-0.838-0.366-1.574-1.099-2.211c-0.732-0.635-1.102-1.645-1.107-3.027H184.729z"/>
			<path fill="#EB5D30" d="M89.824,77.186c-0.006,0.996-0.313,1.916-0.923,2.76s-1.547,1.266-2.812,1.266
				c-1.154,0-2.071-0.424-2.751-1.27c-0.68-0.848-1.017-1.854-1.011-3.02c0-0.873,0.205-1.764,0.615-2.672l1.67,0.65
				c-0.434,0.861-0.65,1.535-0.65,2.021c0.006,1.072,0.217,1.838,0.633,2.299c0.416,0.459,0.923,0.692,1.521,0.698
				c0.574-0.006,1.037-0.194,1.389-0.567c0.352-0.371,0.583-1.094,0.694-2.166c0.006-1.441-0.598-2.604-1.811-3.489
				s-1.819-1.945-1.819-3.182h1.547c0.006,0.984,0.625,1.933,1.859,2.843C89.208,74.27,89.824,75.545,89.824,77.186z"/>
			<path fill="#EB5D30" d="M97.11,80.35c0-0.68-0.127-1.269-0.382-1.767s-0.693-0.747-1.314-0.747h-1.257v-1.248h1.327
				c0.586,0,0.973-0.174,1.16-0.523c0.188-0.348,0.281-0.795,0.281-1.34c0-0.533-0.215-0.996-0.646-1.389s-0.965-0.589-1.604-0.589
				v-1.292c1.061,0,1.969,0.324,2.725,0.971c0.756,0.648,1.137,1.429,1.143,2.343c0,0.574-0.082,1.019-0.246,1.331
				c-0.164,0.314-0.554,0.676-1.169,1.086c0.779,0.387,1.242,0.848,1.389,1.385c0.146,0.535,0.22,1.041,0.22,1.516v1.213
				c0,0.586-0.151,1.213-0.453,1.881s-0.713,1.18-1.235,1.533c-0.521,0.355-1.195,0.532-2.021,0.532
				c-0.832,0-1.51-0.177-2.035-0.532c-0.524-0.354-0.935-0.834-1.23-1.441c-0.296-0.605-0.444-1.305-0.444-2.096
				c0-0.721,0.229-1.523,0.686-2.408l1.468,0.721c-0.352,0.58-0.527,1.304-0.527,2.171c0,0.627,0.192,1.161,0.576,1.604
				c0.384,0.441,0.886,0.663,1.507,0.663c0.609,0,1.055-0.146,1.336-0.439s0.476-0.64,0.584-1.042
				c0.108-0.4,0.163-0.757,0.163-1.067V80.35z"/>
			<path fill="#EB5D30" d="M107.824,77.186c-0.006,0.996-0.313,1.916-0.923,2.76s-1.547,1.266-2.812,1.266
				c-1.154,0-2.071-0.424-2.751-1.27c-0.68-0.848-1.017-1.854-1.011-3.02c0-0.873,0.205-1.764,0.615-2.672l1.67,0.65
				c-0.434,0.861-0.65,1.535-0.65,2.021c0.006,1.072,0.217,1.838,0.633,2.299c0.416,0.459,0.923,0.692,1.521,0.698
				c0.574-0.006,1.037-0.194,1.389-0.567c0.352-0.371,0.583-1.094,0.694-2.166c0.006-1.441-0.598-2.604-1.811-3.489
				s-1.819-1.945-1.819-3.182h1.547c0.006,0.984,0.625,1.933,1.859,2.843C107.207,74.27,107.824,75.545,107.824,77.186z"/>
			<path fill="#EB5D30" d="M110.153,82.107c0.504-0.059,1.195-0.097,2.074-0.114c-1.881-2.115-2.821-4.025-2.821-5.73
				c0-0.891,0.155-1.71,0.466-2.456c0.311-0.748,0.741-1.326,1.292-1.736s1.257-0.615,2.118-0.615c0.586,0,1.362,0.27,2.329,0.809
				c0.551-0.539,1.257-0.809,2.118-0.809s1.538,0.205,2.03,0.615s0.894,0.988,1.204,1.736c0.311,0.746,0.466,1.565,0.466,2.456
				c0,0.955-0.172,1.815-0.514,2.579c-0.344,0.766-0.783,1.352-1.318,1.758c-0.537,0.408-1.159,0.611-1.868,0.611
				s-1.347-0.203-1.911-0.611c-0.566-0.406-1.006-0.992-1.318-1.758c-0.314-0.764-0.471-1.624-0.471-2.579
				c0-0.891,0.155-1.708,0.466-2.452l0.272-0.554c-0.439-0.334-0.932-0.501-1.477-0.501c-0.645,0-1.181,0.307-1.608,0.918
				c-0.428,0.613-0.642,1.481-0.642,2.606c-0.006,1.664,0.929,3.527,2.804,5.59c1.5,0.281,2.608,0.753,3.327,1.415
				c0.717,0.662,1.173,1.286,1.366,1.872h-2.188c0-0.439-0.27-0.876-0.809-1.31s-1.23-0.65-2.074-0.65
				c-1.09,0-2.194,0.146-3.313,0.439V82.107z M117.729,79.91c0.621,0,1.124-0.297,1.507-0.893c0.385-0.594,0.576-1.516,0.576-2.764
				c0-1.189-0.186-2.071-0.559-2.646c-0.371-0.574-0.88-0.861-1.524-0.861s-1.153,0.287-1.524,0.861
				c-0.373,0.574-0.559,1.456-0.559,2.646c0,1.248,0.191,2.17,0.576,2.764C116.605,79.613,117.108,79.91,117.729,79.91z"/>
			<path fill="#EB5D30" d="M130.245,80.227c0,1.424-0.147,2.439-0.444,3.045c-0.295,0.607-0.705,1.086-1.23,1.438
				c-0.523,0.352-1.167,0.53-1.929,0.536c-0.773-0.006-1.423-0.185-1.946-0.536c-0.525-0.352-0.936-0.83-1.23-1.438
				c-0.297-0.605-0.444-1.305-0.444-2.096c-0.006-0.844,0.255-1.646,0.782-2.408l1.336,0.712c-0.334,0.586-0.501,1.312-0.501,2.18
				c0,0.639,0.193,1.177,0.58,1.612c0.387,0.438,0.861,0.655,1.424,0.655c0.551,0,0.981-0.146,1.292-0.439s0.521-0.651,0.633-1.077
				c0.111-0.424,0.161-1.152,0.149-2.184v-5.581c0-0.58-0.188-1.052-0.562-1.415s-0.812-0.545-1.31-0.545
				c-0.621,0-1.068,0.202-1.34,0.606c-0.273,0.404-0.409,0.853-0.409,1.345c0,0.604,0.155,1.102,0.466,1.494l-1.371,0.712
				c-0.451-0.744-0.677-1.465-0.677-2.162c0-0.891,0.306-1.651,0.919-2.28c0.611-0.631,1.428-0.945,2.447-0.945
				c1.084,0,1.914,0.325,2.492,0.976c0.576,0.65,0.868,1.4,0.874,2.25V80.227z"/>
			<path fill="#EB5D30" d="M139.315,70.55v5.862c0,1.014-0.171,1.877-0.515,2.588c-0.342,0.713-0.781,1.259-1.318,1.64
				c-0.535,0.381-1.155,0.571-1.858,0.571c-0.715,0-1.341-0.19-1.876-0.571c-0.537-0.381-0.977-0.927-1.318-1.64
				c-0.344-0.711-0.515-1.574-0.515-2.588c0-1.008,0.155-1.86,0.466-2.558s0.712-1.236,1.204-1.617s1.172-0.571,2.039-0.571
				c0.855,0,1.576,0.437,2.162,1.31v-2.47c0-0.562-0.175-1.027-0.522-1.393c-0.35-0.367-0.822-0.55-1.42-0.55
				c-0.633,0-1.1,0.14-1.402,0.417c-0.301,0.279-0.452,0.673-0.452,1.183h-1.582c-0.006-0.814,0.292-1.491,0.892-2.03
				c0.602-0.539,1.455-0.809,2.562-0.809c1.02,0,1.85,0.312,2.492,0.936C138.994,68.885,139.315,69.647,139.315,70.55z
				 M135.615,79.937c0.615,0,1.131-0.272,1.547-0.817s0.624-1.436,0.624-2.672c0-1.242-0.202-2.137-0.606-2.686
				c-0.404-0.547-0.926-0.821-1.564-0.821s-1.146,0.274-1.521,0.821c-0.375,0.549-0.562,1.443-0.562,2.686
				c0,1.236,0.193,2.127,0.58,2.672S135,79.937,135.615,79.937z"/>
			<path fill="#EB5D30" d="M145.556,81c0.926-1.857,1.389-3.527,1.389-5.01c0-1.014-0.187-1.812-0.558-2.395
				c-0.373-0.584-0.881-0.875-1.525-0.875s-1.152,0.291-1.525,0.875c-0.371,0.582-0.558,1.381-0.558,2.395
				c0,1.482,0.489,3.152,1.468,5.01h-1.819c-0.844-2.145-1.266-3.812-1.266-5.001c0-0.715,0.155-1.446,0.466-2.192
				c0.311-0.748,0.712-1.328,1.204-1.74c0.492-0.414,1.169-0.62,2.03-0.62s1.538,0.206,2.03,0.62
				c0.492,0.412,0.894,0.992,1.204,1.74c0.311,0.746,0.466,1.478,0.466,2.192c0,1.189-0.422,2.856-1.266,5.001H145.556z"/>
			<path fill="#EB5D30" d="M157.649,77.186c-0.006,0.996-0.313,1.916-0.923,2.76s-1.547,1.266-2.812,1.266
				c-1.154,0-2.071-0.424-2.751-1.27c-0.68-0.848-1.017-1.854-1.011-3.02c0-0.873,0.205-1.764,0.615-2.672l1.67,0.65
				c-0.434,0.861-0.65,1.535-0.65,2.021c0.006,1.072,0.217,1.838,0.633,2.299c0.416,0.459,0.923,0.692,1.521,0.698
				c0.574-0.006,1.037-0.194,1.389-0.567c0.352-0.371,0.583-1.094,0.694-2.166c0.006-1.441-0.598-2.604-1.811-3.489
				s-1.819-1.945-1.819-3.182h1.547c0.006,0.984,0.626,1.933,1.858,2.843C157.033,74.27,157.649,75.545,157.649,77.186z"/>
		</g>
	</g>
</g>
</svg>
