<?xml version="1.0" encoding="utf-8"?>
<!-- Generator: Adobe Illustrator 16.0.0, SVG Export Plug-In . SVG Version: 6.00 Build 0)  -->
<!DOCTYPE svg PUBLIC "-//W3C//DTD SVG 1.1//EN" "http://www.w3.org/Graphics/SVG/1.1/DTD/svg11.dtd">
<svg version="1.1" id="Layer_1" xmlns="http://www.w3.org/2000/svg" xmlns:xlink="http://www.w3.org/1999/xlink" x="0px" y="0px"
	 width="187px" height="50px" viewBox="37.5 10 187 50" enable-background="new 37.5 10 187 50" xml:space="preserve">
<g>
	<g>
		<g>
			<g>
				<path fill="#F6B72D" d="M89.606,33.007c-0.588,0-0.994-0.064-1.368-0.128v-1.812c0.261,0.098,0.617,0.163,1.008,0.163
					c0.763,0,1.204-0.325,1.204-1.505V18.741h2.11v11.064C92.561,31.6,91.828,33.007,89.606,33.007z"/>
				<path fill="#F6B72D" d="M100.375,29.675c0-0.372,0.017-0.984,0.097-1.438l-0.033-0.017c-0.473,0.954-1.413,1.618-2.729,1.618
					c-1.835,0-2.421-1.164-2.421-2.572v-4.06c-0.388-0.066-0.926-0.131-1.397-0.163v-1.295c1.073-0.129,2.356-0.175,3.478-0.145
					v5.16c0,0.84,0.226,1.342,0.992,1.342c1.055,0,1.882-1.198,1.882-2.604v-3.882h2.064v6.454c0.39,0.064,0.942,0.13,1.413,0.162
					v1.293C102.698,29.659,101.448,29.708,100.375,29.675z"/>
				<path fill="#F6B72D" d="M115.271,29.659v-5.095c0-0.857-0.195-1.39-0.957-1.39c-0.91,0-1.854,1.067-1.854,2.635v3.85h-2.046
					v-5.095c0-0.793-0.162-1.39-0.959-1.39c-0.958,0-1.849,1.131-1.849,2.635v3.85h-2.065v-6.452
					c-0.391-0.066-0.942-0.131-1.416-0.163v-1.295c1.025-0.129,2.294-0.175,3.366-0.145c0,0.388-0.034,0.987-0.099,1.454h0.017
					c0.487-0.984,1.462-1.616,2.665-1.616c1.429,0,2.031,0.841,2.226,1.616c0.374-0.79,1.266-1.616,2.632-1.616
					c1.559,0,2.419,0.858,2.419,2.686v5.53h-2.078V29.659z"/>
				<path fill="#F6B72D" d="M118.712,23.044v-1.295c1.025-0.128,2.26-0.175,3.332-0.145c0,0.402-0.016,0.938-0.08,1.358h0.032
					c0.454-0.938,1.315-1.504,2.533-1.504c1.917,0,2.958,1.375,2.958,3.752c0,2.798-1.462,4.563-4.258,4.563
					c-0.39,0-0.699-0.017-1.041-0.066v3.849h-2.064V23.207C119.738,23.141,119.185,23.076,118.712,23.044z M123.929,23.157
					c-1.087,0-1.738,1.262-1.738,2.636v2.233c0.325,0.097,0.666,0.145,1.089,0.145c1.187,0,2.03-0.744,2.03-2.732
					C125.31,23.934,124.873,23.157,123.929,23.157z"/>
				<path fill="#F6B72D" d="M131.24,29.838c-0.781,0-1.562-0.081-2.242-0.258l0.128-1.958c0.617,0.209,1.495,0.387,2.292,0.387
					c1.072,0,1.902-0.435,1.902-1.438c0-2.086-4.6-1.132-4.6-4.724c0-1.941,1.545-3.283,4.178-3.283c0.615,0,1.33,0.081,1.98,0.193
					l-0.113,1.846c-0.617-0.179-1.299-0.291-1.967-0.291c-1.219,0-1.836,0.549-1.836,1.326c0,1.958,4.616,1.229,4.616,4.643
					C135.578,28.332,133.936,29.838,131.24,29.838z"/>
				<path fill="#F6B72D" d="M140.076,29.822c-1.789,0-2.34-0.648-2.34-2.524v-4.076h-1.396v-1.601h1.381v-2.475l2.08-0.551v3.025
					h1.965v1.602h-1.965v3.527c0,1.036,0.244,1.326,0.957,1.326c0.342,0,0.717-0.049,1.008-0.131v1.668
					C141.246,29.739,140.648,29.822,140.076,29.822z"/>
				<path fill="#F6B72D" d="M147.777,29.675c0-0.467,0.016-0.953,0.078-1.374l-0.014-0.016c-0.389,0.904-1.381,1.538-2.582,1.538
					c-1.465,0-2.309-0.826-2.309-2.12c0-1.925,1.918-2.944,4.664-2.944v-0.437c0-0.841-0.406-1.277-1.578-1.277
					c-0.73,0-1.707,0.243-2.389,0.631l-0.18-1.73c0.812-0.291,1.852-0.502,2.893-0.502c2.602,0,3.334,1.036,3.334,2.798v3.834
					c0.389,0.064,0.941,0.129,1.412,0.162v1.293C150.084,29.659,148.832,29.708,147.777,29.675z M147.615,26.102
					c-2.193,0-2.682,0.628-2.682,1.277c0,0.516,0.357,0.857,0.959,0.857c1.025,0,1.723-0.97,1.723-1.942V26.102z"/>
				<path fill="#F6B72D" d="M154.598,23.238h0.029c0.393-1.02,1.172-1.907,2.57-1.796l-0.1,2.038
					c-1.494-0.307-2.24,0.663-2.24,2.895v3.284h-2.064v-6.452c-0.391-0.066-0.941-0.131-1.412-0.163v-1.295
					c1.021-0.129,2.275-0.175,3.363-0.145C154.744,22.025,154.695,22.672,154.598,23.238z"/>
				<path fill="#F6B72D" d="M161.654,29.822c-1.787,0-2.34-0.648-2.34-2.524v-4.076h-1.398v-1.601h1.383v-2.475l2.08-0.551v3.025
					h1.965v1.602h-1.965v3.527c0,1.036,0.244,1.326,0.959,1.326c0.34,0,0.715-0.049,1.006-0.131v1.668
					C162.824,29.739,162.223,29.822,161.654,29.822z"/>
			</g>
		</g>
		<path fill="#F6B72D" d="M169.381,18.535c-0.48-0.184-1.027-0.298-1.586-0.298c-1.176,0-2.025,0.74-2.025,2.069
			c0,1.26,0.689,2.001,1.904,2.001c0.281,0,0.529-0.036,0.76-0.106v-2.07h1.148v2.837c-0.594,0.237-1.326,0.37-2.041,0.37
			c-1.895,0-3.02-1.11-3.02-2.924c0-1.869,1.275-3.197,3.346-3.197c0.592,0,1.174,0.104,1.689,0.255L169.381,18.535z"/>
		<path fill="#F6B72D" d="M174.355,21.241h-2.727c-0.008,0.82,0.398,1.217,1.213,1.217c0.434,0,0.904-0.098,1.285-0.273l0.104,0.871
			c-0.469,0.187-1.027,0.283-1.574,0.283c-1.398,0-2.178-0.696-2.178-2.237c0-1.34,0.742-2.325,2.064-2.325
			c1.279,0,1.846,0.872,1.846,1.955C174.389,20.88,174.381,21.056,174.355,21.241z M172.506,19.603
			c-0.469,0-0.797,0.344-0.857,0.873h1.619C173.283,19.929,172.984,19.603,172.506,19.603z"/>
	</g>
	<g>
		<g>
			<path fill="#EB5D30" d="M92.524,55.438c-1.057,0-2.091-0.13-2.931-0.344l0.108-1.888c0.84,0.302,1.981,0.537,2.994,0.537
				c1.745,0,3.188-0.708,3.188-2.488c0-3.261-6.549-1.974-6.549-6.584c0-2.38,1.896-4.097,5.17-4.097
				c0.883,0,1.766,0.085,2.628,0.257l-0.107,1.759c-0.841-0.236-1.767-0.387-2.628-0.387c-1.982,0-3.016,0.902-3.016,2.252
				c0,3.131,6.57,1.994,6.57,6.52C97.952,53.571,95.906,55.438,92.524,55.438z"/>
			<path fill="#EB5D30" d="M104.649,55.395c-2.563,0-4.695-1.201-4.695-5.125c0-3.432,1.767-5.855,5.343-5.855
				c0.84,0,1.681,0.13,2.434,0.343l-0.215,1.693c-0.669-0.257-1.466-0.449-2.306-0.449c-2.154,0-3.209,1.587-3.209,4.01
				c0,2.08,0.688,3.732,3.059,3.732c0.905,0,1.852-0.214,2.542-0.58l0.151,1.674C107.041,55.115,105.9,55.395,104.649,55.395z"/>
			<path fill="#EB5D30" d="M108.546,40.875v-1.136c1.078-0.13,2.564-0.215,3.814-0.151v5.041c0,0.686-0.043,1.564-0.172,2.123
				l0.021,0.021c0.625-1.459,1.96-2.402,3.749-2.402c2.434,0,3.209,1.523,3.209,3.41v7.464h-1.938V48.36
				c0-1.501-0.41-2.381-1.811-2.381c-1.766,0-3.059,1.78-3.059,4.141v5.125h-1.938V41.09
				C109.904,41.003,109.171,40.918,108.546,40.875z"/>
			<path fill="#EB5D30" d="M126.639,55.438c-2.907,0-4.804-1.674-4.804-5.427c0-3.13,1.981-5.618,5.214-5.618
				c2.735,0,4.826,1.502,4.826,5.34C131.875,52.949,129.806,55.438,126.639,55.438z M126.876,46.001
				c-1.552,0-3.016,1.179-3.016,3.817c0,2.574,1.056,3.988,3.016,3.988c1.594,0,2.973-1.243,2.973-3.968
				C129.849,47.417,128.857,46.001,126.876,46.001z"/>
			<path fill="#EB5D30" d="M138.379,55.438c-2.908,0-4.805-1.674-4.805-5.427c0-3.13,1.98-5.618,5.213-5.618
				c2.736,0,4.826,1.502,4.826,5.34C143.613,52.949,141.545,55.438,138.379,55.438z M138.615,46.001
				c-1.551,0-3.018,1.179-3.018,3.817c0,2.574,1.057,3.988,3.018,3.988c1.594,0,2.973-1.243,2.973-3.968
				C141.588,47.417,140.596,46.001,138.615,46.001z"/>
			<path fill="#EB5D30" d="M148.393,55.244h-1.939V41.09c-0.518-0.087-1.25-0.172-1.875-0.215v-1.136
				c1.078-0.13,2.566-0.215,3.814-0.151V55.244z"/>
			<path fill="#EB5D30" d="M160.561,55.438c-2.908,0-4.803-1.674-4.803-5.427c0-3.13,1.98-5.618,5.213-5.618
				c2.736,0,4.826,1.502,4.826,5.34C165.797,52.949,163.729,55.438,160.561,55.438z M160.799,46.001
				c-1.553,0-3.018,1.179-3.018,3.817c0,2.574,1.057,3.988,3.018,3.988c1.594,0,2.973-1.243,2.973-3.968
				C163.771,47.417,162.781,46.001,160.799,46.001z"/>
			<path fill="#EB5D30" d="M174.713,41.262c-0.496-0.172-1.057-0.237-1.574-0.237c-1.529,0-2.197,0.858-2.197,2.746v0.815h2.975
				v1.501h-2.975v9.158h-1.939v-9.158h-2.195v-1.503h2.195v-0.792c0-2.938,1.445-4.334,4.115-4.334c0.605,0,1.186,0.066,1.768,0.194
				L174.713,41.262z"/>
			<path fill="#EB5D30" d="M184.402,55.33c-1.465,0-2.605-0.086-3.684-0.086V40.789c1.119-0.021,2.758-0.086,4.354-0.086
				c4.652,0,7.432,2.166,7.432,7.142C192.504,52.8,189.164,55.33,184.402,55.33z M184.877,42.312c-0.754,0-1.637,0.044-2.176,0.065
				v11.152c0.539,0.085,1.336,0.128,1.918,0.128c3.402,0,5.795-1.758,5.795-5.683C190.414,44.285,188.646,42.312,184.877,42.312z"/>
			<path fill="#EB5D30" d="M201.031,55.244c0-0.751,0-1.522,0.105-2.123h-0.043c-0.516,1.308-1.873,2.316-3.641,2.316
				s-2.973-0.944-2.973-2.638c0-2.338,2.391-3.817,6.441-3.817v-0.793c0-1.48-0.582-2.273-2.348-2.273
				c-1.012,0-2.305,0.32-3.232,0.878l-0.193-1.651c1.035-0.428,2.326-0.772,3.748-0.772c3.08,0,3.965,1.438,3.965,3.561v5.811
				c0.516,0.087,1.248,0.172,1.873,0.216v1.137C203.658,55.224,202.172,55.308,201.031,55.244z M200.924,50.333
				c-3.729,0-4.547,1.138-4.547,2.103c0,0.899,0.646,1.478,1.637,1.478c1.746,0,2.91-1.715,2.91-3.387V50.333z"/>
			<path fill="#EB5D30" d="M210.227,55.415c-2.197,0-2.865-0.899-2.865-3.196v-6.132h-2.197v-1.503h2.197v-3.452l1.939-0.536v3.988
				h2.994v1.503h-2.994v5.446c0,1.759,0.322,2.23,1.529,2.23c0.496,0,1.035-0.085,1.465-0.192v1.628
				C211.691,55.33,210.916,55.415,210.227,55.415z"/>
			<path fill="#EB5D30" d="M220.629,55.244c0-0.751,0-1.522,0.107-2.123h-0.043c-0.518,1.308-1.875,2.316-3.641,2.316
				c-1.768,0-2.973-0.944-2.973-2.638c0-2.338,2.391-3.817,6.441-3.817v-0.793c0-1.48-0.582-2.273-2.35-2.273
				c-1.012,0-2.305,0.32-3.23,0.878l-0.193-1.651c1.033-0.428,2.326-0.772,3.748-0.772c3.082,0,3.963,1.438,3.963,3.561v5.811
				c0.518,0.087,1.25,0.172,1.875,0.216v1.137C223.258,55.224,221.771,55.308,220.629,55.244z M220.521,50.333
				c-3.727,0-4.545,1.138-4.545,2.103c0,0.899,0.646,1.478,1.637,1.478c1.746,0,2.908-1.715,2.908-3.387V50.333z"/>
		</g>
	</g>
	<g>
		<g>
			<path fill="none" d="M54.681,58.685c0.014,0.006,0.043,0.018,0.062,0.026C55.142,58.871,54.681,58.685,54.681,58.685z"/>
			<path fill="none" d="M60.432,58.688c0.002-0.001,0.009-0.003,0.011-0.004C60.443,58.685,59.613,59.01,60.432,58.688z"/>
			<path fill="#F6B72D" d="M57.497,11.796v0.001c10.727,0.021,18.62,8.214,18.62,18.285c0,1.868-0.554,3.665-1.084,5.362
				c0.202,0.076,0.343,0.149,0.343,0.23c0,0.509,0,1.016,0,1.525l0.993,0.255c0.912-2.284,1.361-4.77,1.361-7.373
				c0-11.055-8.075-20.053-20.232-20.081v1.796V11.796z"/>
			<path fill="#EB5D30" d="M39.54,30.304c0-10.083,8.246-18.509,18.401-18.509c0.008,0,0.014-1.794,0-1.794
				c-11.152,0-20.225,9.18-20.225,20.252C37.716,30.392,39.54,30.443,39.54,30.304z"/>
			<path fill="#EB5D30" d="M57.964,11.796c0.005,0,0.01,0.001,0.015,0.001v-1.796c-0.004,0-0.009,0-0.015,0V11.796z"/>
			<path fill="#C32E30" d="M40.277,35.193c-0.439-1.497-0.695-3.071-0.731-4.7h-1.819c0.048,2.314,0.495,4.533,1.27,6.594
				c0-0.472,0-0.942,0-1.415C39.426,35.501,39.853,35.344,40.277,35.193z"/>
			<rect x="75.597" y="36.406" fill="none" width="0.001" height="1.147"/>
		</g>
		<g>
			<path fill="#EF7559" d="M38.885,60V35.372l0.226-0.09c6-2.353,10.809-2.584,15.766-0.771c0.127,0.046,0.27,0.105,0.428,0.175
				c0.553,0.238,1.243,0.535,2.155,0.535c0.949,0,1.748-0.326,2.331-0.564c0.14-0.057,0.266-0.106,0.376-0.146
				c4.957-1.814,9.841-1.58,15.837,0.771l0.226,0.09V60l-0.482-0.179c-5.023-1.856-9.741-2.149-15.215-0.884l0.008,0.021
				l-0.13,0.054c-0.46,0.192-1.682,0.703-2.862,0.703c-1.176,0-2.384-0.509-2.838-0.701l-0.135-0.056l0.011-0.027
				c-4.062-1.738-8.861-1.46-15.218,0.891L38.885,60z M55.233,58.46c0.52,0.209,1.446,0.544,2.314,0.544
				c0.769,0,1.587-0.261,2.13-0.466c0.092-0.088,0.257-0.152,0.489-0.243c2.373-0.562,4.543-0.83,6.678-0.83
				c2.922,0,5.763,0.496,8.668,1.516V35.857c-5.725-2.202-10.37-2.409-15.101-0.679c-0.104,0.039-0.221,0.086-0.351,0.139
				c-0.602,0.246-1.512,0.617-2.603,0.617c-1.061,0-1.857-0.344-2.439-0.596c-0.144-0.061-0.273-0.118-0.39-0.159
				c-4.73-1.73-9.304-1.526-15.031,0.678v23.122c3.51-1.256,6.557-1.866,9.3-1.866c2.179,0,4.203,0.399,6.02,1.186
				C55.037,58.347,55.151,58.393,55.233,58.46z"/>
		</g>
		<rect x="56.782" y="35.933" fill="#EF7559" width="0.715" height="23.6"/>
		<path fill="#C32E30" d="M78.288,46.908c0,1.819-1.03,3.294-2.301,3.294s-3.312-1.475-3.312-3.294s2.041-3.294,3.312-3.294
			S78.288,45.089,78.288,46.908z"/>
		<path fill="#C32E30" d="M43.114,46.908c0,1.819-2.041,3.294-3.312,3.294c-1.271,0-2.302-1.475-2.302-3.294
			s1.031-3.294,2.302-3.294C41.074,43.614,43.114,45.089,43.114,46.908z"/>
		<path fill="#F6B72D" d="M68.112,18.814h-1.135v-1.127h1.135V18.814z M65.276,18.814h-1.135v-1.127h1.135V18.814z M62.439,18.814
			h-1.135v-1.127h1.135V18.814z M59.602,18.814h-1.134v-1.127h1.134V18.814z M51.092,18.814h-1.135v-1.127h1.135V18.814z
			 M48.256,18.814h-1.135v-1.127h1.135V18.814z"/>
		<path fill="#F6B72D" d="M72.651,24.449h-1.134v-1.127h1.134V24.449z M69.815,24.449h-1.135v-1.127h1.135V24.449z M66.978,24.449
			h-1.135v-1.127h1.135V24.449z M58.468,24.449h-1.135v-1.127h1.135V24.449z M55.631,24.449h-1.134v-1.127h1.134V24.449z
			 M52.793,24.449H51.66v-1.127h1.134V24.449z M49.958,24.449h-1.135v-1.127h1.135V24.449z M47.121,24.449h-1.135v-1.127h1.135
			V24.449z M44.284,24.449h-1.134v-1.127h1.135L44.284,24.449L44.284,24.449z"/>
		<path fill="#F6B72D" d="M73.786,30.083h-1.135v-1.127h1.135V30.083z M70.95,30.083h-1.135v-1.127h1.135V30.083z M68.112,30.083
			h-1.135v-1.127h1.135V30.083z M65.276,30.083h-1.135v-1.127h1.135V30.083z M62.439,30.083h-1.135v-1.127h1.135V30.083z
			 M59.602,30.083h-1.134v-1.127h1.134V30.083z M56.766,30.083h-1.135v-1.127h1.135V30.083z M48.256,30.083h-1.135v-1.127h1.135
			V30.083z M45.418,30.083h-1.134v-1.127h1.134V30.083L45.418,30.083z M42.582,30.083h-1.135v-1.127h1.135V30.083z"/>
		<path fill="#F6B72D" d="M54.686,20.109c-1.117,0-2.025-0.918-2.025-2.045c0-1.128,0.908-2.046,2.025-2.046
			c1.116,0,2.024,0.918,2.024,2.046C56.71,19.19,55.802,20.109,54.686,20.109z M54.686,16.657c-0.761,0-1.379,0.63-1.379,1.405
			c0,0.774,0.618,1.405,1.379,1.405c0.759,0,1.379-0.63,1.379-1.405C56.065,17.289,55.445,16.657,54.686,16.657z"/>
		<path fill="#F6B72D" d="M62.061,25.743c-1.117,0-2.024-0.917-2.024-2.046c0-1.128,0.908-2.045,2.024-2.045
			s2.024,0.917,2.024,2.045C64.085,24.826,63.177,25.743,62.061,25.743z M62.061,22.292c-0.76,0-1.379,0.631-1.379,1.405
			c0,0.775,0.619,1.405,1.379,1.405c0.761,0,1.38-0.63,1.38-1.405C63.441,22.923,62.822,22.292,62.061,22.292z"/>
		<path fill="#F6B72D" d="M51.85,31.377c-1.117,0-2.024-0.917-2.024-2.044c0-1.128,0.908-2.046,2.024-2.046s2.025,0.917,2.025,2.046
			C53.874,30.459,52.965,31.377,51.85,31.377z M51.85,27.927c-0.761,0-1.38,0.63-1.38,1.405s0.619,1.405,1.38,1.405
			c0.76,0,1.38-0.63,1.38-1.405C53.229,28.557,52.61,27.927,51.85,27.927z"/>
	</g>
</g>
</svg>
