<?xml version="1.0" encoding="utf-8"?>
<!-- Generator: Adobe Illustrator 16.0.0, SVG Export Plug-In . SVG Version: 6.00 Build 0)  -->
<!DOCTYPE svg PUBLIC "-//W3C//DTD SVG 1.1//EN" "http://www.w3.org/Graphics/SVG/1.1/DTD/svg11.dtd">
<svg version="1.1" id="Layer_1" xmlns="http://www.w3.org/2000/svg" xmlns:xlink="http://www.w3.org/1999/xlink" x="0px" y="0px"
	 width="131px" height="35px" viewBox="28 7.5 131 35" enable-background="new 28 7.5 131 35" xml:space="preserve">
<g>
	<g>
		<g>
			<g>
				<path fill="#F6B72D" d="M64.535,23.604c-0.413,0-0.698-0.044-0.959-0.09v-1.269c0.183,0.069,0.433,0.115,0.707,0.115
					c0.535,0,0.844-0.229,0.844-1.054v-7.689h1.479v7.745C66.606,22.619,66.092,23.604,64.535,23.604z"/>
				<path fill="#F6B72D" d="M72.085,21.272c0-0.261,0.012-0.688,0.068-1.007l-0.023-0.011c-0.331,0.667-0.991,1.132-1.914,1.132
					c-1.287,0-1.697-0.815-1.697-1.801v-2.841c-0.272-0.046-0.649-0.092-0.979-0.115v-0.906c0.752-0.09,1.652-0.123,2.438-0.101
					v3.612c0,0.588,0.159,0.939,0.695,0.939c0.74,0,1.321-0.838,1.321-1.823v-2.717h1.446v4.518c0.274,0.044,0.66,0.091,0.99,0.113
					v0.905C73.714,21.261,72.837,21.295,72.085,21.272z"/>
				<path fill="#F6B72D" d="M82.53,21.261v-3.566c0-0.6-0.137-0.973-0.671-0.973c-0.638,0-1.3,0.748-1.3,1.845v2.695h-1.435v-3.566
					c0-0.555-0.114-0.973-0.672-0.973c-0.671,0-1.297,0.792-1.297,1.845v2.695h-1.447v-4.516c-0.274-0.046-0.66-0.092-0.993-0.114
					v-0.907c0.719-0.09,1.607-0.122,2.36-0.101c0,0.271-0.024,0.691-0.069,1.018h0.012c0.341-0.689,1.024-1.131,1.868-1.131
					c1.002,0,1.425,0.589,1.561,1.131c0.262-0.553,0.888-1.131,1.845-1.131c1.093,0,1.696,0.6,1.696,1.88v3.871h-1.457v0H82.53z"/>
				<path fill="#F6B72D" d="M84.942,16.63v-0.907c0.718-0.089,1.585-0.122,2.336-0.101c0,0.281-0.012,0.657-0.056,0.951h0.023
					c0.319-0.657,0.922-1.053,1.776-1.053c1.343,0,2.073,0.962,2.073,2.626c0,1.958-1.024,3.195-2.985,3.195
					c-0.273,0-0.49-0.013-0.73-0.047v2.695h-1.447v-7.245C85.662,16.699,85.274,16.653,84.942,16.63z M88.601,16.71
					c-0.763,0-1.219,0.883-1.219,1.845v1.563c0.227,0.068,0.467,0.102,0.762,0.102c0.834,0,1.424-0.521,1.424-1.913
					C89.568,17.253,89.263,16.71,88.601,16.71z"/>
				<path fill="#F6B72D" d="M93.726,21.386c-0.548,0-1.095-0.057-1.571-0.181l0.089-1.371c0.434,0.146,1.049,0.271,1.608,0.271
					c0.751,0,1.333-0.304,1.333-1.006c0-1.46-3.225-0.792-3.225-3.306c0-1.359,1.083-2.299,2.929-2.299
					c0.432,0,0.932,0.057,1.388,0.135l-0.079,1.292c-0.432-0.125-0.909-0.204-1.379-0.204c-0.854,0-1.288,0.385-1.288,0.929
					c0,1.371,3.238,0.86,3.238,3.25C96.769,20.332,95.615,21.386,93.726,21.386z"/>
				<path fill="#F6B72D" d="M99.922,21.375c-1.254,0-1.641-0.454-1.641-1.767v-2.854h-0.979v-1.121h0.967v-1.732l1.459-0.385v2.117
					h1.378v1.121h-1.378v2.469c0,0.726,0.172,0.929,0.672,0.929c0.238,0,0.501-0.035,0.706-0.092v1.167
					C100.741,21.317,100.323,21.375,99.922,21.375z"/>
				<path fill="#F6B72D" d="M105.322,21.272c0-0.327,0.01-0.667,0.055-0.962l-0.011-0.011c-0.273,0.633-0.97,1.077-1.812,1.077
					c-1.025,0-1.618-0.578-1.618-1.484c0-1.349,1.345-2.061,3.271-2.061v-0.306c0-0.589-0.285-0.894-1.105-0.894
					c-0.513,0-1.197,0.17-1.676,0.441l-0.127-1.211c0.57-0.204,1.299-0.352,2.029-0.352c1.824,0,2.337,0.725,2.337,1.959v2.684
					c0.271,0.045,0.659,0.09,0.99,0.113v0.905C106.938,21.261,106.062,21.295,105.322,21.272z M105.209,18.771
					c-1.538,0-1.881,0.44-1.881,0.894c0,0.361,0.249,0.601,0.672,0.601c0.718,0,1.209-0.68,1.209-1.36V18.771z"/>
				<path fill="#F6B72D" d="M110.103,16.766h0.021c0.276-0.714,0.822-1.334,1.803-1.257l-0.069,1.426
					c-1.049-0.215-1.57,0.464-1.57,2.027v2.298h-1.448v-4.516c-0.274-0.046-0.659-0.092-0.989-0.114v-0.907
					c0.715-0.09,1.596-0.122,2.357-0.101C110.206,15.917,110.172,16.37,110.103,16.766z"/>
				<path fill="#F6B72D" d="M115.051,21.375c-1.252,0-1.641-0.454-1.641-1.767v-2.854h-0.98v-1.121h0.97v-1.732l1.459-0.385v2.117
					h1.377v1.121h-1.377v2.469c0,0.726,0.171,0.929,0.673,0.929c0.238,0,0.5-0.035,0.704-0.092v1.167
					C115.871,21.317,115.45,21.375,115.051,21.375z"/>
			</g>
		</g>
		<path fill="#F6B72D" d="M120.47,13.474c-0.337-0.128-0.721-0.209-1.111-0.209c-0.827,0-1.422,0.519-1.422,1.449
			c0,0.882,0.484,1.401,1.335,1.401c0.198,0,0.371-0.025,0.533-0.074v-1.449h0.807v1.986c-0.417,0.166-0.931,0.259-1.432,0.259
			c-1.328,0-2.117-0.777-2.117-2.047c0-1.309,0.893-2.238,2.346-2.238c0.415,0,0.822,0.073,1.185,0.179L120.47,13.474z"/>
		<path fill="#F6B72D" d="M123.957,15.368h-1.911c-0.006,0.574,0.276,0.852,0.85,0.852c0.305,0,0.634-0.068,0.899-0.191l0.074,0.609
			c-0.328,0.131-0.72,0.198-1.104,0.198c-0.98,0-1.527-0.487-1.527-1.566c0-0.938,0.521-1.627,1.446-1.627
			c0.897,0,1.296,0.61,1.296,1.368C123.98,15.115,123.975,15.239,123.957,15.368z M122.66,14.222c-0.329,0-0.559,0.241-0.601,0.611
			h1.136C123.206,14.45,122.996,14.222,122.66,14.222z"/>
	</g>
	<g>
		<g>
			<path fill="#EB5D30" d="M66.58,39.306c-0.742,0-1.466-0.089-2.056-0.239l0.077-1.322c0.589,0.21,1.389,0.376,2.099,0.376
				c1.223,0,2.235-0.496,2.235-1.743c0-2.28-4.592-1.381-4.592-4.606c0-1.666,1.329-2.869,3.625-2.869c0.62,0,1.238,0.06,1.843,0.18
				l-0.074,1.23c-0.59-0.164-1.24-0.269-1.844-0.269c-1.39,0-2.114,0.631-2.114,1.574c0,2.192,4.606,1.396,4.606,4.564
				C70.386,38,68.952,39.306,66.58,39.306z"/>
			<path fill="#EB5D30" d="M75.082,39.275c-1.797,0-3.292-0.841-3.292-3.586c0-2.404,1.239-4.1,3.747-4.1
				c0.589,0,1.179,0.092,1.706,0.239l-0.15,1.188c-0.468-0.183-1.028-0.314-1.616-0.314c-1.51,0-2.25,1.109-2.25,2.805
				c0,1.456,0.482,2.613,2.144,2.613c0.634,0,1.298-0.15,1.783-0.405l0.105,1.171C76.759,39.08,75.959,39.275,75.082,39.275z"/>
			<path fill="#EB5D30" d="M77.814,29.113v-0.795c0.755-0.092,1.797-0.153,2.673-0.107v3.529c0,0.479-0.03,1.094-0.12,1.485
				l0.015,0.017c0.439-1.023,1.375-1.682,2.628-1.682c1.708,0,2.25,1.066,2.25,2.386v5.225h-1.359v-4.819
				c0-1.051-0.288-1.668-1.27-1.668c-1.237,0-2.145,1.246-2.145,2.9v3.587h-1.359v-9.907C78.767,29.202,78.252,29.143,77.814,29.113
				z"/>
			<path fill="#EB5D30" d="M90.5,39.306c-2.038,0-3.367-1.172-3.367-3.799c0-2.189,1.389-3.933,3.655-3.933
				c1.919,0,3.383,1.053,3.383,3.739C94.171,37.564,92.722,39.306,90.5,39.306z M90.666,32.699c-1.087,0-2.115,0.825-2.115,2.673
				c0,1.803,0.743,2.792,2.115,2.792c1.119,0,2.085-0.871,2.085-2.778C92.751,33.69,92.055,32.699,90.666,32.699z"/>
			<path fill="#EB5D30" d="M98.732,39.306c-2.039,0-3.369-1.172-3.369-3.799c0-2.189,1.389-3.933,3.654-3.933
				c1.918,0,3.384,1.053,3.384,3.739C102.401,37.564,100.952,39.306,98.732,39.306z M98.897,32.699
				c-1.087,0-2.115,0.825-2.115,2.673c0,1.803,0.741,2.792,2.115,2.792c1.117,0,2.084-0.871,2.084-2.778
				C100.981,33.69,100.286,32.699,98.897,32.699z"/>
			<path fill="#EB5D30" d="M105.753,39.171h-1.36v-9.907c-0.362-0.062-0.876-0.121-1.312-0.15v-0.795
				c0.755-0.092,1.798-0.153,2.673-0.107V39.171z"/>
			<path fill="#EB5D30" d="M114.285,39.306c-2.04,0-3.368-1.172-3.368-3.799c0-2.189,1.389-3.933,3.656-3.933
				c1.917,0,3.383,1.053,3.383,3.739C117.956,37.564,116.506,39.306,114.285,39.306z M114.452,32.699
				c-1.09,0-2.117,0.825-2.117,2.673c0,1.803,0.741,2.792,2.117,2.792c1.117,0,2.084-0.871,2.084-2.778
				C116.536,33.69,115.842,32.699,114.452,32.699z"/>
			<path fill="#EB5D30" d="M124.207,29.382c-0.348-0.118-0.74-0.164-1.104-0.164c-1.071,0-1.54,0.6-1.54,1.921v0.572h2.086v1.05
				h-2.086v6.41h-1.359v-6.41h-1.538v-1.052h1.538v-0.554c0-2.058,1.013-3.035,2.885-3.035c0.425,0,0.833,0.045,1.241,0.137
				L124.207,29.382z"/>
			<path fill="#EB5D30" d="M131.002,39.23c-1.028,0-1.828-0.06-2.584-0.06V29.052c0.784-0.014,1.933-0.06,3.053-0.06
				c3.263,0,5.212,1.516,5.212,4.999C136.683,37.46,134.34,39.23,131.002,39.23z M131.334,30.118c-0.527,0-1.147,0.029-1.524,0.046
				v7.806c0.377,0.06,0.936,0.089,1.343,0.089c2.388,0,4.064-1.23,4.064-3.976C135.217,31.499,133.977,30.118,131.334,30.118z"/>
			<path fill="#EB5D30" d="M142.662,39.171c0-0.526,0-1.066,0.072-1.485h-0.029c-0.361,0.916-1.313,1.62-2.555,1.62
				c-1.24,0-2.083-0.661-2.083-1.846c0-1.639,1.676-2.673,4.516-2.673v-0.554c0-1.037-0.408-1.593-1.646-1.593
				c-0.71,0-1.615,0.226-2.267,0.615l-0.136-1.155c0.726-0.301,1.631-0.54,2.629-0.54c2.16,0,2.78,1.005,2.78,2.49v4.069
				c0.361,0.06,0.874,0.119,1.312,0.15v0.796C144.502,39.157,143.461,39.217,142.662,39.171z M142.586,35.732
				c-2.613,0-3.189,0.798-3.189,1.472c0,0.629,0.455,1.035,1.148,1.035c1.224,0,2.041-1.201,2.041-2.37V35.732z"/>
			<path fill="#EB5D30" d="M149.107,39.289c-1.539,0-2.009-0.629-2.009-2.237v-4.291h-1.54v-1.052h1.54v-2.418l1.361-0.374v2.792
				h2.098v1.052h-2.098v3.812c0,1.23,0.226,1.561,1.07,1.561c0.349,0,0.727-0.059,1.027-0.134v1.139
				C150.136,39.23,149.592,39.289,149.107,39.289z"/>
			<path fill="#EB5D30" d="M156.402,39.171c0-0.526,0-1.066,0.076-1.485h-0.031c-0.363,0.916-1.315,1.62-2.553,1.62
				c-1.239,0-2.086-0.661-2.086-1.846c0-1.639,1.678-2.673,4.517-2.673v-0.554c0-1.037-0.408-1.593-1.647-1.593
				c-0.71,0-1.616,0.226-2.266,0.615l-0.134-1.155c0.723-0.301,1.631-0.54,2.628-0.54c2.159,0,2.779,1.005,2.779,2.49v4.069
				c0.362,0.06,0.876,0.119,1.314,0.15v0.796C158.244,39.157,157.203,39.217,156.402,39.171z M156.327,35.732
				c-2.614,0-3.188,0.798-3.188,1.472c0,0.629,0.454,1.035,1.148,1.035c1.225,0,2.04-1.201,2.04-2.37V35.732z"/>
		</g>
	</g>
	<g>
		<g>
			<path fill="none" d="M40.047,41.579c0.01,0.005,0.03,0.012,0.043,0.019C40.369,41.709,40.047,41.579,40.047,41.579z"/>
			<path fill="none" d="M44.079,41.582c0.001,0,0.006-0.003,0.007-0.005C44.086,41.579,43.504,41.808,44.079,41.582z"/>
			<path fill="#F6B72D" d="M42.021,8.757L42.021,8.757c7.521,0.015,13.056,5.75,13.056,12.8c0,1.308-0.389,2.565-0.76,3.753
				c0.142,0.053,0.241,0.104,0.241,0.162c0,0.355,0,0.711,0,1.066l0.696,0.181c0.639-1.6,0.954-3.341,0.954-5.162
				c0-7.739-5.662-14.038-14.186-14.057L42.021,8.757L42.021,8.757L42.021,8.757z"/>
			<path fill="#EB5D30" d="M29.43,21.713c0-7.058,5.782-12.957,12.902-12.957c0.006,0,0.01-1.256,0-1.256
				c-7.819,0-14.181,6.427-14.181,14.177C28.151,21.774,29.43,21.81,29.43,21.713z"/>
			<path fill="#EB5D30" d="M42.349,8.757c0.003,0,0.007,0,0.01,0V7.5c-0.002,0-0.006,0-0.01,0V8.757z"/>
			<path fill="#C32E30" d="M29.947,25.135c-0.308-1.048-0.487-2.15-0.512-3.29h-1.276c0.034,1.62,0.348,3.172,0.891,4.616
				c0-0.33,0-0.661,0-0.991C29.35,25.35,29.649,25.24,29.947,25.135z"/>
			<rect x="54.712" y="25.984" fill="none" width="0.001" height="0.803"/>
		</g>
		<g>
			<path fill="#EF7559" d="M28.971,42.5V25.26l0.159-0.062c4.207-1.647,7.579-1.809,11.055-0.54c0.089,0.032,0.188,0.074,0.3,0.122
				c0.387,0.167,0.871,0.375,1.511,0.375c0.665,0,1.225-0.228,1.634-0.394c0.098-0.041,0.187-0.075,0.264-0.103
				c3.475-1.27,6.899-1.105,11.103,0.54l0.159,0.062V42.5l-0.337-0.125c-3.523-1.299-6.831-1.504-10.669-0.62l0.006,0.016
				l-0.092,0.037c-0.322,0.134-1.179,0.492-2.006,0.492c-0.825,0-1.671-0.355-1.99-0.49l-0.095-0.039l0.007-0.018
				c-2.848-1.217-6.213-1.023-10.67,0.622L28.971,42.5z M40.434,41.422c0.364,0.146,1.014,0.381,1.622,0.381
				c0.54,0,1.113-0.183,1.494-0.326c0.064-0.062,0.181-0.106,0.343-0.171c1.664-0.394,3.185-0.581,4.682-0.581
				c2.049,0,4.041,0.347,6.078,1.062V25.6c-4.015-1.542-7.271-1.687-10.589-0.476c-0.073,0.027-0.154,0.06-0.245,0.097
				c-0.423,0.172-1.061,0.433-1.825,0.433c-0.744,0-1.302-0.242-1.71-0.418c-0.102-0.042-0.191-0.082-0.273-0.11
				c-3.317-1.211-6.524-1.069-10.539,0.474v16.185c2.461-0.879,4.598-1.306,6.52-1.306c1.528,0,2.947,0.278,4.221,0.83
				C40.296,41.343,40.376,41.374,40.434,41.422z"/>
		</g>
		<rect x="41.52" y="25.654" fill="#EF7559" width="0.501" height="16.518"/>
		<path fill="#C32E30" d="M56.599,33.335c0,1.274-0.722,2.307-1.614,2.307c-0.89,0-2.322-1.032-2.322-2.307
			c0-1.273,1.432-2.306,2.322-2.306C55.876,31.029,56.599,32.062,56.599,33.335z"/>
		<path fill="#C32E30" d="M31.936,33.335c0,1.274-1.43,2.307-2.322,2.307c-0.891,0-1.614-1.032-1.614-2.307
			c0-1.273,0.723-2.306,1.614-2.306C30.506,31.029,31.936,32.062,31.936,33.335z"/>
		<path fill="#F6B72D" d="M49.464,13.669h-0.796v-0.789h0.796V13.669z M47.475,13.669h-0.796v-0.789h0.796V13.669z M45.486,13.669
			H44.69v-0.789h0.796V13.669z M43.497,13.669h-0.796v-0.789h0.796V13.669z M37.53,13.669h-0.796v-0.789h0.796V13.669z
			 M35.542,13.669h-0.795v-0.789h0.795V13.669z"/>
		<path fill="#F6B72D" d="M52.646,17.614h-0.795v-0.789h0.795V17.614z M50.658,17.614h-0.796v-0.789h0.796V17.614z M48.668,17.614
			h-0.796v-0.789h0.796V17.614z M42.701,17.614h-0.795v-0.789h0.795V17.614z M40.712,17.614h-0.795v-0.789h0.795V17.614z
			 M38.723,17.614h-0.795v-0.789h0.795L38.723,17.614L38.723,17.614z M36.735,17.614h-0.796v-0.789h0.796V17.614z M34.746,17.614
			H33.95v-0.789h0.796V17.614z M32.756,17.614H31.96v-0.789h0.796L32.756,17.614L32.756,17.614z"/>
		<path fill="#F6B72D" d="M53.442,21.558h-0.797v-0.789h0.797V21.558z M51.453,21.558h-0.795v-0.789h0.795V21.558z M49.464,21.558
			h-0.796v-0.789h0.796V21.558z M47.475,21.558h-0.796v-0.789h0.796V21.558z M45.486,21.558H44.69v-0.789h0.796V21.558z
			 M43.497,21.558h-0.796v-0.789h0.796V21.558z M41.508,21.558h-0.796v-0.789h0.796V21.558z M35.542,21.558h-0.795v-0.789h0.795
			V21.558z M33.552,21.558h-0.795v-0.789h0.795V21.558L33.552,21.558z M31.563,21.558h-0.795v-0.789h0.795V21.558z"/>
		<path fill="#F6B72D" d="M40.051,14.576c-0.785,0-1.42-0.643-1.42-1.432c0-0.79,0.636-1.432,1.42-1.432
			c0.781,0,1.418,0.643,1.418,1.432C41.469,13.933,40.832,14.576,40.051,14.576z M40.051,12.16c-0.535,0-0.968,0.441-0.968,0.983
			c0,0.542,0.433,0.983,0.968,0.983c0.531,0,0.966-0.441,0.966-0.983C41.017,12.602,40.582,12.16,40.051,12.16z"/>
		<path fill="#F6B72D" d="M45.221,18.52c-0.783,0-1.419-0.642-1.419-1.432c0-0.79,0.637-1.431,1.419-1.431
			c0.782,0,1.418,0.642,1.418,1.431C46.64,17.878,46.003,18.52,45.221,18.52z M45.221,16.104c-0.534,0-0.967,0.442-0.967,0.983
			c0,0.542,0.434,0.983,0.967,0.983c0.533,0,0.967-0.441,0.967-0.983C46.188,16.546,45.754,16.104,45.221,16.104z"/>
		<path fill="#F6B72D" d="M38.062,22.463c-0.783,0-1.419-0.642-1.419-1.431c0-0.79,0.636-1.432,1.419-1.432s1.42,0.642,1.42,1.432
			C39.481,21.821,38.843,22.463,38.062,22.463z M38.062,20.048c-0.533,0-0.968,0.441-0.968,0.983c0,0.543,0.435,0.983,0.968,0.983
			c0.533,0,0.968-0.44,0.968-0.983C39.028,20.489,38.594,20.048,38.062,20.048z"/>
	</g>
</g>
</svg>
