<?xml version="1.0" encoding="utf-8"?>
<!-- Generator: Adobe Illustrator 16.0.0, SVG Export Plug-In . SVG Version: 6.00 Build 0)  -->
<!DOCTYPE svg PUBLIC "-//W3C//DTD SVG 1.1//EN" "http://www.w3.org/Graphics/SVG/1.1/DTD/svg11.dtd">
<svg version="1.1" id="Layer_1" xmlns="http://www.w3.org/2000/svg" xmlns:xlink="http://www.w3.org/1999/xlink" x="0px" y="0px"
	 width="60px" height="60px" viewBox="10 10 60 60" enable-background="new 10 10 60 60" xml:space="preserve">
<g>
	<g>
		<g>
			<circle fill="#C32E30" cx="40" cy="39.486" r="30"/>
		</g>
		<g>
			<g>
				<path fill="#FFFFFF" d="M51.291,29.516H27.82c-1.576,0-2.859,1.282-2.859,2.858V46.6c0,1.574,1.283,2.857,2.859,2.857h23.471
					c1.577,0,2.858-1.283,2.858-2.857V32.375C54.148,30.798,52.867,29.516,51.291,29.516z M51.291,31.356
					c0.135,0,0.264,0.028,0.381,0.076l-11.825,9.26l-11.934-9.335H51.291z M28.269,47.616l7.907-5.574
					c0.277-0.196,0.342-0.578,0.148-0.854c-0.197-0.276-0.579-0.344-0.857-0.148l-8.547,6.026c-0.073-0.141-0.119-0.298-0.119-0.468
					V32.375c0-0.102,0.021-0.2,0.048-0.294l12.241,9.577c0.223,0.174,0.489,0.262,0.755,0.262c0.269,0,0.535-0.087,0.756-0.262
					l11.707-9.167V46.6c0,0.019-0.007,0.039-0.007,0.059l-7.969-5.619c-0.277-0.195-0.661-0.128-0.855,0.149
					c-0.195,0.275-0.129,0.658,0.146,0.855l7.875,5.55c-0.067,0.015-0.138,0.022-0.21,0.022H28.269z"/>
			</g>
		</g>
	</g>
</g>
</svg>
