<?xml version="1.0" encoding="utf-8"?>
<!-- Generator: Adobe Illustrator 16.0.0, SVG Export Plug-In . SVG Version: 6.00 Build 0)  -->
<!DOCTYPE svg PUBLIC "-//W3C//DTD SVG 1.1//EN" "http://www.w3.org/Graphics/SVG/1.1/DTD/svg11.dtd">
<svg version="1.1" id="Layer_1" xmlns="http://www.w3.org/2000/svg" xmlns:xlink="http://www.w3.org/1999/xlink" x="0px" y="0px"
	 width="60px" height="60px" viewBox="0 0 60 60" enable-background="new 0 0 60 60" xml:space="preserve">
<g>
	<g>
		<g>
			<circle fill="#C32E30" cx="30" cy="30" r="30"/>
		</g>
		<g>
			<g>
				<path fill="#FFFFFF" d="M41.291,20.03H17.82c-1.576,0-2.859,1.282-2.859,2.858v14.226c0,1.574,1.283,2.857,2.859,2.857h23.471
					c1.577,0,2.857-1.283,2.857-2.857V22.889C44.148,21.312,42.867,20.03,41.291,20.03z M41.291,21.869
					c0.135,0,0.264,0.028,0.381,0.076l-11.824,9.26l-11.935-9.334h23.378V21.869z M18.269,38.13l7.907-5.574
					c0.277-0.196,0.342-0.578,0.148-0.854c-0.197-0.275-0.579-0.344-0.857-0.147L16.92,37.58c-0.073-0.142-0.119-0.299-0.119-0.469
					V22.889c0-0.102,0.021-0.2,0.048-0.294l12.241,9.577c0.223,0.174,0.489,0.262,0.756,0.262c0.268,0,0.534-0.087,0.756-0.262
					l11.707-9.167v14.108c0,0.02-0.008,0.039-0.008,0.06l-7.969-5.619c-0.277-0.194-0.661-0.128-0.855,0.149
					c-0.194,0.274-0.129,0.658,0.146,0.854l7.875,5.55c-0.066,0.016-0.139,0.022-0.21,0.022H18.269z"/>
			</g>
		</g>
	</g>
</g>
</svg>
