<?xml version="1.0" encoding="utf-8"?>
<!-- Generator: Adobe Illustrator 16.0.0, SVG Export Plug-In . SVG Version: 6.00 Build 0)  -->
<!DOCTYPE svg PUBLIC "-//W3C//DTD SVG 1.1//EN" "http://www.w3.org/Graphics/SVG/1.1/DTD/svg11.dtd">
<svg version="1.1" id="Layer_1" xmlns="http://www.w3.org/2000/svg" xmlns:xlink="http://www.w3.org/1999/xlink" x="0px" y="0px"
	 width="35px" height="26px" viewBox="5.5 -0.5 35 26" enable-background="new 5.5 -0.5 35 26" xml:space="preserve">
<g>
	<g>
		<g>
			<path fill="#FFFFFF" d="M23,13.556c-0.268,0-0.535-0.116-0.731-0.307c-0.185-0.2-0.298-0.475-0.298-0.749
				c0-0.275,0.113-0.549,0.298-0.749c0.392-0.392,1.071-0.392,1.463,0c0.185,0.2,0.298,0.474,0.298,0.749
				c0,0.274-0.113,0.549-0.298,0.749C23.535,13.439,23.268,13.556,23,13.556z"/>
		</g>
		<g>
			<path fill="#FFFFFF" d="M17.178,19.528c-0.265,0-0.529-0.104-0.729-0.311c-1.749-1.794-2.714-4.182-2.714-6.718
				c0-2.538,0.965-4.925,2.714-6.718c0.403-0.412,1.052-0.412,1.456,0s0.404,1.081,0,1.493c-1.361,1.397-2.109,3.251-2.109,5.226
				c0,1.974,0.748,3.83,2.109,5.226c0.404,0.413,0.404,1.08,0,1.492C17.703,19.426,17.441,19.528,17.178,19.528z"/>
		</g>
		<g>
			<path fill="#FFFFFF" d="M28.822,19.528c-0.262,0-0.525-0.104-0.727-0.311c-0.402-0.412-0.402-1.079,0-1.492
				c2.809-2.881,2.809-7.571,0-10.451c-0.402-0.414-0.402-1.081,0-1.493c0.404-0.412,1.053-0.412,1.456,0
				c3.612,3.704,3.612,9.731,0,13.436C29.352,19.426,29.087,19.528,28.822,19.528z"/>
		</g>
		<g>
			<path fill="#FFFFFF" d="M11.354,25.5c-0.264,0-0.526-0.104-0.728-0.311C7.32,21.801,5.5,17.294,5.5,12.5s1.82-9.301,5.125-12.691
				c0.402-0.412,1.053-0.412,1.457,0c0.401,0.413,0.401,1.08,0,1.494C9.166,4.294,7.559,8.269,7.559,12.5
				c0,4.229,1.607,8.205,4.523,11.197c0.402,0.412,0.402,1.079,0,1.492C11.881,25.397,11.617,25.5,11.354,25.5z"/>
		</g>
		<g>
			<path fill="#FFFFFF" d="M34.646,25.5c-0.264,0-0.527-0.104-0.729-0.311c-0.402-0.413-0.402-1.08,0-1.492
				c2.916-2.992,4.523-6.968,4.523-11.197c0-4.231-1.607-8.206-4.523-11.197c-0.402-0.412-0.402-1.08,0-1.493
				c0.403-0.412,1.053-0.412,1.456,0C38.68,3.199,40.5,7.706,40.5,12.5s-1.82,9.301-5.124,12.69
				C35.173,25.397,34.91,25.5,34.646,25.5z"/>
		</g>
	</g>
</g>
</svg>
