<?xml version="1.0" encoding="utf-8"?>
<!-- Generator: Adobe Illustrator 16.0.0, SVG Export Plug-In . SVG Version: 6.00 Build 0)  -->
<!DOCTYPE svg PUBLIC "-//W3C//DTD SVG 1.1//EN" "http://www.w3.org/Graphics/SVG/1.1/DTD/svg11.dtd">
<svg version="1.1" id="Layer_1" xmlns="http://www.w3.org/2000/svg" xmlns:xlink="http://www.w3.org/1999/xlink" x="0px" y="0px"
	 width="60px" height="60px" viewBox="10 10 60 60" enable-background="new 10 10 60 60" xml:space="preserve">
<g>
	<circle fill="#C32E30" cx="40" cy="39.748" r="30"/>
	<path fill="#FFFFFF" d="M54.099,46.82l-6.31-6.309c-0.341-0.344-0.809-0.537-1.294-0.537c-0.484,0-0.95,0.193-1.293,0.537
		l-2.262,2.26c-0.344,0.343-0.535,0.811-0.535,1.294c0,0.2,0.033,0.397,0.096,0.585l-0.141,0.141
		c-2.393-2.044-5.262-4.915-7.303-7.307l0.139-0.138c0.189,0.063,0.389,0.094,0.584,0.094c0.469,0,0.938-0.178,1.294-0.535
		l2.26-2.258c0.345-0.342,0.537-0.809,0.537-1.294s-0.192-0.952-0.537-1.295l-6.31-6.309c-0.358-0.359-0.827-0.536-1.293-0.536
		c-0.467,0-0.937,0.178-1.295,0.536l-2.26,2.259c-0.342,0.345-0.538,0.811-0.538,1.293c0,0.281,0.066,0.555,0.187,0.803
		c-0.724,1.032-1.476,2.105-1.683,2.393c-0.784,0.89-0.892,2.182-0.249,3.2c4.245,6.693,11.594,14.042,18.288,18.287
		c0.43,0.272,0.925,0.418,1.432,0.418c0.65,0,1.289-0.244,1.775-0.67c0.27-0.2,1.341-0.966,2.369-1.703
		c0.248,0.117,0.519,0.175,0.788,0.175c0.469,0,0.938-0.175,1.295-0.533l2.258-2.262c0.344-0.342,0.537-0.808,0.537-1.294
		C54.636,47.631,54.442,47.164,54.099,46.82z M50.64,50.283l-3.113-3.113c-0.236-0.236-0.624-0.236-0.862,0
		c-0.238,0.239-0.238,0.626,0,0.864l2.307,2.308c-1.073,0.765-2.724,1.949-2.753,1.979c-0.163,0.163-0.381,0.246-0.604,0.246
		c-0.155,0-0.312-0.041-0.453-0.129c-6.448-4.091-13.629-11.273-17.719-17.72c-0.217-0.342-0.158-0.782,0.117-1.057
		c0.028-0.032,1.198-1.697,1.955-2.779l0.715,0.715c0.118,0.12,0.273,0.18,0.431,0.18s0.312-0.06,0.431-0.18
		c0.238-0.237,0.238-0.622,0-0.861l-1.525-1.529l2.167-2.165l6.31,6.309l-2.169,2.167l-3.305-3.304c-0.238-0.236-0.622-0.236-0.86,0
		c-0.238,0.239-0.238,0.624,0,0.863l2.584,2.585l-1.698,1.698c2.405,3.082,6.808,7.487,9.89,9.895l1.701-1.701l1.002,1
		c0.117,0.119,0.272,0.18,0.429,0.18c0.157,0,0.312-0.061,0.431-0.18c0.238-0.236,0.238-0.622,0-0.86l-1.717-1.721l2.167-2.169
		l6.31,6.311L50.64,50.283z"/>
</g>
</svg>
