<?xml version="1.0" encoding="utf-8"?>
<!-- Generator: Adobe Illustrator 16.0.0, SVG Export Plug-In . SVG Version: 6.00 Build 0)  -->
<!DOCTYPE svg PUBLIC "-//W3C//DTD SVG 1.1//EN" "http://www.w3.org/Graphics/SVG/1.1/DTD/svg11.dtd">
<svg version="1.1" id="Layer_1" xmlns="http://www.w3.org/2000/svg" xmlns:xlink="http://www.w3.org/1999/xlink" x="0px" y="0px"
	 width="60px" height="60px" viewBox="0 0 60 60" enable-background="new 0 0 60 60" xml:space="preserve">
<g>
	<circle fill="#C32E30" cx="30" cy="30" r="30"/>
	<path fill="#FFFFFF" d="M44.1,37.072l-6.311-6.31c-0.341-0.344-0.809-0.536-1.294-0.536c-0.483,0-0.95,0.192-1.293,0.536
		l-2.263,2.261c-0.344,0.343-0.535,0.811-0.535,1.293c0,0.201,0.033,0.397,0.097,0.586l-0.142,0.141
		c-2.393-2.044-5.262-4.915-7.303-7.307l0.139-0.139c0.189,0.063,0.39,0.094,0.584,0.094c0.47,0,0.938-0.178,1.295-0.535l2.26-2.258
		c0.346-0.342,0.537-0.809,0.537-1.293c0-0.485-0.191-0.953-0.537-1.295l-6.311-6.31c-0.357-0.359-0.826-0.536-1.293-0.536
		s-0.937,0.178-1.294,0.536l-2.26,2.259c-0.342,0.345-0.538,0.811-0.538,1.293c0,0.281,0.066,0.555,0.187,0.803
		c-0.724,1.032-1.476,2.105-1.683,2.393c-0.784,0.89-0.892,2.183-0.249,3.2c4.245,6.693,11.593,14.042,18.289,18.287
		c0.43,0.271,0.924,0.418,1.432,0.418c0.65,0,1.289-0.244,1.775-0.67c0.27-0.2,1.34-0.967,2.368-1.703
		c0.248,0.117,0.519,0.175,0.788,0.175c0.469,0,0.938-0.175,1.295-0.533l2.258-2.262c0.344-0.343,0.537-0.808,0.537-1.294
		C44.637,37.883,44.441,37.416,44.1,37.072z M40.641,40.535l-3.113-3.113c-0.236-0.236-0.625-0.236-0.862,0
		c-0.238,0.239-0.238,0.626,0,0.864l2.308,2.308c-1.074,0.766-2.725,1.949-2.754,1.979c-0.162,0.164-0.381,0.246-0.604,0.246
		c-0.155,0-0.312-0.041-0.453-0.129c-6.448-4.09-13.629-11.272-17.719-17.72c-0.217-0.342-0.158-0.782,0.117-1.057
		c0.028-0.032,1.198-1.697,1.955-2.779l0.715,0.716c0.118,0.119,0.273,0.18,0.431,0.18c0.157,0,0.312-0.061,0.431-0.18
		c0.238-0.238,0.238-0.623,0-0.861l-1.525-1.529l2.167-2.165l6.31,6.31l-2.169,2.166l-3.305-3.304c-0.238-0.235-0.622-0.235-0.86,0
		c-0.237,0.239-0.237,0.624,0,0.863l2.584,2.585l-1.698,1.697c2.405,3.082,6.809,7.488,9.891,9.896l1.701-1.7l1.002,1
		c0.117,0.118,0.271,0.18,0.429,0.18s0.312-0.062,0.431-0.18c0.238-0.236,0.238-0.623,0-0.861l-1.717-1.721l2.167-2.168l6.31,6.311
		L40.641,40.535z"/>
</g>
</svg>
