<?xml version="1.0" encoding="utf-8"?>
<!-- Generator: Adobe Illustrator 16.0.0, SVG Export Plug-In . SVG Version: 6.00 Build 0)  -->
<!DOCTYPE svg PUBLIC "-//W3C//DTD SVG 1.1//EN" "http://www.w3.org/Graphics/SVG/1.1/DTD/svg11.dtd">
<svg version="1.1" id="Layer_1" xmlns="http://www.w3.org/2000/svg" xmlns:xlink="http://www.w3.org/1999/xlink" x="0px" y="0px"
	 width="1340px" height="223.25px" viewBox="0 0 1340 223.25" enable-background="new 0 0 1340 223.25" xml:space="preserve">
<g opacity="0.5">
	<polyline opacity="0.5" fill="none" stroke="#FFFFFF" stroke-width="1.0003" stroke-miterlimit="10" points="0,220.812 68,215.809 
		131,172.909 223,166.405 289,133.387 358.125,144.894 459.625,147.395 532,110.874 583,78.856 652,72.353 737,113.375 
		897.871,123.9 1001,51.841 1072.625,74.229 1173,44.712 1290.125,67.225 1337.625,93.409 	"/>
	<g>
		<circle opacity="0.5" fill="#FFFFFF" cx="583.125" cy="79.356" r="2.5"/>
		<circle opacity="0.5" fill="#FFFFFF" cx="532.125" cy="111.375" r="2.5"/>
		<circle opacity="0.5" fill="#FFFFFF" cx="358.125" cy="144.394" r="2.5"/>
		<circle opacity="0.5" fill="#FFFFFF" cx="457.125" cy="150.396" r="2.5"/>
		<circle opacity="0.5" fill="#FFFFFF" cx="290.125" cy="133.387" r="2.5"/>
		<circle opacity="0.5" fill="#FFFFFF" cx="224.125" cy="166.405" r="2.5"/>
		<circle opacity="0.5" fill="#FFFFFF" cx="131.125" cy="172.409" r="2.5"/>
		<circle opacity="0.5" fill="#FFFFFF" cx="652.125" cy="72.353" r="2.5"/>
		<circle opacity="0.5" fill="#FFFFFF" cx="737.125" cy="113.375" r="2.5"/>
		<circle opacity="0.5" fill="#FFFFFF" cx="1001.125" cy="52.341" r="2.5"/>
		<circle opacity="0.5" fill="#FFFFFF" cx="1072.125" cy="73.353" r="2.5"/>
		<circle opacity="0.5" fill="#FFFFFF" cx="1173.125" cy="44.336" r="2.5"/>
	</g>
</g>
<polygon fill="#FFFFFF" points="1340,222.812 0,222.812 0,205.803 57,212.807 120.454,193.796 180,205.803 253,175.786 345,165.78 
	428,128.76 548,147.771 627,122.756 723.114,137.507 825.625,130.761 908,93.739 998.625,81.733 1068,95.741 1124,53.717 
	1217,81.858 1289.099,47.838 1340,4.689 "/>
<g>
	<circle fill="#EE5E2D" cx="1068.125" cy="95.365" r="2.5"/>
	<circle fill="#EE5E2D" cx="999.125" cy="81.357" r="2.5"/>
	<circle fill="#EE5E2D" cx="908.125" cy="93.364" r="2.5"/>
	<circle fill="#EE5E2D" cx="825.125" cy="130.385" r="2.5"/>
	<circle fill="#EE5E2D" cx="723.125" cy="137.39" r="2.5"/>
	<circle fill="#EE5E2D" cx="627.125" cy="122.381" r="2.5"/>
	<circle fill="#EE5E2D" cx="548.125" cy="147.395" r="2.5"/>
	<circle fill="#EE5E2D" cx="428.125" cy="128.384" r="2.5"/>
	<circle fill="#EE5E2D" cx="345.125" cy="166.405" r="2.5"/>
	<circle fill="#EE5E2D" cx="253.125" cy="175.411" r="2.5"/>
	<circle fill="#EE5E2D" cx="180.125" cy="205.428" r="2.5"/>
	<circle fill="#EE5E2D" cx="120.125" cy="193.421" r="2.5"/>
	<circle fill="#EE5E2D" cx="57.125" cy="212.432" r="2.5"/>
	<circle fill="#EE5E2D" cx="0.125" cy="205.428" r="2.5"/>
	<circle fill="#EE5E2D" cx="1124.125" cy="54.342" r="2.5"/>
	<circle fill="#EE5E2D" cx="1217.125" cy="81.357" r="2.5"/>
	<circle fill="#EE5E2D" cx="1290.125" cy="47.338" r="2.5"/>
	<circle fill="#EE5E2D" cx="1340.125" cy="4.314" r="2.5"/>
</g>
</svg>
