<?xml version="1.0" encoding="utf-8"?>
<!-- Generator: Adobe Illustrator 16.0.0, SVG Export Plug-In . SVG Version: 6.00 Build 0)  -->
<!DOCTYPE svg PUBLIC "-//W3C//DTD SVG 1.1//EN" "http://www.w3.org/Graphics/SVG/1.1/DTD/svg11.dtd">
<svg version="1.1" id="Layer_1" xmlns="http://www.w3.org/2000/svg" xmlns:xlink="http://www.w3.org/1999/xlink" x="0px" y="0px"
	 width="1340px" height="223.25px" viewBox="0 0 1340 223.25" enable-background="new 0 0 1340 223.25" xml:space="preserve">
<g opacity="0.5">
	<polyline opacity="0.5" fill="none" stroke="#FFFFFF" stroke-width="1.0003" stroke-miterlimit="10" points="-4,220.812 
		70,215.809 133,172.909 225,166.405 291,133.387 360.125,144.894 461.625,147.395 534,110.874 585,78.856 654,72.353 739,113.375 
		899.871,123.9 1003,51.841 1074.625,74.229 1175,44.712 1292.125,67.225 1340.625,93.409 	"/>
	<g>
		<circle opacity="0.5" fill="#FFFFFF" cx="585.125" cy="79.356" r="2.5"/>
		<circle opacity="0.5" fill="#FFFFFF" cx="534.125" cy="111.375" r="2.5"/>
		<circle opacity="0.5" fill="#FFFFFF" cx="360.125" cy="144.394" r="2.5"/>
		<circle opacity="0.5" fill="#FFFFFF" cx="459.125" cy="150.396" r="2.5"/>
		<circle opacity="0.5" fill="#FFFFFF" cx="292.125" cy="133.387" r="2.5"/>
		<circle opacity="0.5" fill="#FFFFFF" cx="226.125" cy="166.405" r="2.5"/>
		<circle opacity="0.5" fill="#FFFFFF" cx="133.125" cy="172.409" r="2.5"/>
		<circle opacity="0.5" fill="#FFFFFF" cx="654.125" cy="72.353" r="2.5"/>
		<circle opacity="0.5" fill="#FFFFFF" cx="739.125" cy="113.375" r="2.5"/>
		<circle opacity="0.5" fill="#FFFFFF" cx="1003.125" cy="52.341" r="2.5"/>
		<circle opacity="0.5" fill="#FFFFFF" cx="1074.125" cy="73.353" r="2.5"/>
		<circle opacity="0.5" fill="#FFFFFF" cx="1175.125" cy="44.336" r="2.5"/>
	</g>
</g>
<polygon fill="#FFFFFF" points="1343,222.812 -4,222.812 -4,205.803 59,212.807 122.454,193.796 182,205.803 255,175.786 
	347,165.78 430,128.76 550,147.771 629,122.756 725.114,137.507 827.625,130.761 910,93.739 1000.625,81.733 1070,95.741 
	1126,53.717 1219,81.858 1291.099,47.838 1343,4.689 "/>
<g>
	<circle fill="#EE5E2D" cx="1070.125" cy="95.365" r="2.5"/>
	<circle fill="#EE5E2D" cx="1001.125" cy="81.357" r="2.5"/>
	<circle fill="#EE5E2D" cx="910.125" cy="93.364" r="2.5"/>
	<circle fill="#EE5E2D" cx="827.125" cy="130.385" r="2.5"/>
	<circle fill="#EE5E2D" cx="725.125" cy="137.39" r="2.5"/>
	<circle fill="#EE5E2D" cx="629.125" cy="122.381" r="2.5"/>
	<circle fill="#EE5E2D" cx="550.125" cy="147.395" r="2.5"/>
	<circle fill="#EE5E2D" cx="430.125" cy="128.384" r="2.5"/>
	<circle fill="#EE5E2D" cx="347.125" cy="166.405" r="2.5"/>
	<circle fill="#EE5E2D" cx="255.125" cy="175.411" r="2.5"/>
	<circle fill="#EE5E2D" cx="182.125" cy="205.428" r="2.5"/>
	<circle fill="#EE5E2D" cx="122.125" cy="193.421" r="2.5"/>
	<circle fill="#EE5E2D" cx="59.125" cy="212.432" r="2.5"/>
	<circle fill="#EE5E2D" cx="-3.875" cy="205.428" r="2.5"/>
	<circle fill="#EE5E2D" cx="1126.125" cy="54.342" r="2.5"/>
	<circle fill="#EE5E2D" cx="1219.125" cy="81.357" r="2.5"/>
	<circle fill="#EE5E2D" cx="1292.125" cy="47.338" r="2.5"/>
	<circle fill="#EE5E2D" cx="1343.125" cy="4.314" r="2.5"/>
</g>
</svg>
