<?xml version="1.0" encoding="utf-8"?>
<!-- Generator: Adobe Illustrator 16.0.0, SVG Export Plug-In . SVG Version: 6.00 Build 0)  -->
<!DOCTYPE svg PUBLIC "-//W3C//DTD SVG 1.1//EN" "http://www.w3.org/Graphics/SVG/1.1/DTD/svg11.dtd">
<svg version="1.1" id="Layer_1" xmlns="http://www.w3.org/2000/svg" xmlns:xlink="http://www.w3.org/1999/xlink" x="0px" y="0px"
	 width="26px" height="30px" viewBox="0 0 26 30" enable-background="new 0 0 26 30" xml:space="preserve">
<g>
	<path fill="#FFFFFF" d="M5.362,30c-2.688,0-4.874-2.215-4.874-4.936s2.185-4.934,4.874-4.934c1.333,0,2.59,0.555,3.499,1.496
		l8.498-5.859c0.381-0.282,0.902-0.3,1.305-0.027c0.129,0.086,0.234,0.195,0.316,0.32c0.484,0.719,1.285,1.146,2.145,1.146
		c1.43,0,2.593-1.178,2.593-2.625c0-1.445-1.165-2.623-2.593-2.623c-0.855,0-1.652,0.426-2.141,1.142
		c-0.008,0.012-0.018,0.024-0.025,0.037c-0.352,0.497-1.023,0.631-1.53,0.312L7.45,8.17C7.401,8.15,7.356,8.125,7.312,8.097
		C6.798,7.767,6.628,7.086,6.93,6.548C6.954,6.5,6.985,6.457,7.017,6.414c0.295-0.436,0.451-0.948,0.451-1.48
		c0-1.446-1.165-2.622-2.593-2.622c-1.428,0-2.592,1.176-2.592,2.622c0,1.447,1.164,2.623,2.592,2.623
		c0.188,0,0.373-0.019,0.552-0.058l0.485,2.258C5.574,9.831,5.224,9.869,4.875,9.869C2.188,9.869,0,7.654,0,4.934S2.188,0,4.875,0
		c2.688,0,4.876,2.214,4.876,4.935c0,0.584-0.1,1.155-0.293,1.691l8.296,4.389c0.897-0.869,2.101-1.367,3.37-1.367
		c2.688,0,4.876,2.215,4.876,4.936c0,2.721-2.188,4.936-4.876,4.936c-1.23,0-2.396-0.469-3.284-1.287l-8.583,5.92
		c-0.005,0.002-0.008,0.006-0.014,0.008c-0.521,0.354-1.229,0.213-1.581-0.312c-0.022-0.033-0.041-0.068-0.06-0.104
		c-0.465-0.803-1.32-1.301-2.24-1.301c-1.429,0-2.592,1.178-2.592,2.625c0,1.443,1.163,2.621,2.592,2.621
		c1.133,0,2.125-0.732,2.47-1.822l2.175,0.705C9.358,28.621,7.491,30,5.362,30z"/>
</g>
</svg>
