<?xml version="1.0" encoding="utf-8"?>
<!-- Generator: Adobe Illustrator 16.0.0, SVG Export Plug-In . SVG Version: 6.00 Build 0)  -->
<!DOCTYPE svg PUBLIC "-//W3C//DTD SVG 1.1//EN" "http://www.w3.org/Graphics/SVG/1.1/DTD/svg11.dtd">
<svg version="1.1" id="Layer_1" xmlns="http://www.w3.org/2000/svg" xmlns:xlink="http://www.w3.org/1999/xlink" x="0px" y="0px"
	 width="26px" height="30px" viewBox="7.538 7.87 26 30" enable-background="new 7.538 7.87 26 30" xml:space="preserve">
<g>
	<path fill="#FFFFFF" d="M12.9,37.869c-2.688,0-4.874-2.215-4.874-4.935C8.026,30.214,10.211,28,12.9,28
		c1.333,0,2.59,0.555,3.498,1.497l8.498-5.86c0.381-0.281,0.903-0.3,1.305-0.027c0.129,0.086,0.234,0.194,0.317,0.32
		c0.484,0.719,1.285,1.147,2.144,1.147c1.43,0,2.593-1.178,2.593-2.625c0-1.445-1.165-2.623-2.593-2.623
		c-0.855,0-1.652,0.426-2.14,1.141c-0.009,0.012-0.018,0.025-0.026,0.038c-0.352,0.497-1.023,0.63-1.53,0.312l-9.977-5.28
		c-0.049-0.021-0.094-0.045-0.139-0.073c-0.514-0.33-0.684-1.011-0.382-1.549c0.024-0.048,0.056-0.092,0.087-0.135
		c0.295-0.436,0.451-0.948,0.451-1.48c0-1.446-1.165-2.622-2.593-2.622s-2.592,1.176-2.592,2.622c0,1.447,1.164,2.623,2.592,2.623
		c0.188,0,0.373-0.019,0.552-0.058l0.485,2.258c-0.338,0.074-0.688,0.112-1.037,0.112c-2.687,0-4.875-2.215-4.875-4.935
		S9.726,7.87,12.413,7.87c2.689,0,4.876,2.214,4.876,4.935c0,0.584-0.1,1.155-0.293,1.691l8.296,4.389
		c0.898-0.869,2.1-1.367,3.37-1.367c2.688,0,4.876,2.215,4.876,4.935c0,2.722-2.188,4.935-4.876,4.935
		c-1.23,0-2.396-0.468-3.284-1.286l-8.583,5.919c-0.005,0.002-0.008,0.006-0.014,0.009c-0.521,0.353-1.229,0.213-1.581-0.313
		c-0.022-0.034-0.041-0.068-0.06-0.104c-0.464-0.802-1.319-1.3-2.239-1.3c-1.429,0-2.592,1.178-2.592,2.624
		c0,1.445,1.163,2.622,2.592,2.622c1.133,0,2.124-0.732,2.47-1.822l2.175,0.704C16.896,36.491,15.029,37.869,12.9,37.869z"/>
</g>
</svg>
