<?xml version="1.0" encoding="utf-8"?>
<!-- Generator: Adobe Illustrator 16.0.0, SVG Export Plug-In . SVG Version: 6.00 Build 0)  -->
<!DOCTYPE svg PUBLIC "-//W3C//DTD SVG 1.1//EN" "http://www.w3.org/Graphics/SVG/1.1/DTD/svg11.dtd">
<svg version="1.1" id="Layer_1" xmlns="http://www.w3.org/2000/svg" xmlns:xlink="http://www.w3.org/1999/xlink" x="0px" y="0px"
	 width="23px" height="30px" viewBox="0 0 23 30" enable-background="new 0 0 23 30" xml:space="preserve">
<path fill="#FFFFFF" d="M21.472,6.382l-1.034,0.006c-0.161,0-0.254-0.001-0.445-0.007c-1.076-0.933-2.438-1.444-3.853-1.444
	c-3.002,0-5.541,2.344-5.902,5.333C7.74,9.746,5.497,8.362,3.879,6.336C3.59,5.973,3.161,5.765,2.702,5.765
	c-0.057,0-0.115,0.003-0.186,0.01C1.995,5.841,1.55,6.17,1.327,6.655c-2.301,5-1.182,8.676,0.162,10.88
	c0.717,1.176,1.688,2.234,2.79,3.051c-0.652,0.188-1.329,0.283-2.022,0.283c-0.859,0-1.557,0.707-1.557,1.578
	c0,1.36,1.757,2.17,2.42,2.474c1.01,0.464,2.674,1.016,4.866,1.016c5.306,0,8.634-2.563,10.493-4.714
	c2.303-2.668,3.624-6.2,3.624-9.692c0-0.122-0.002-0.246-0.005-0.37l0.175-0.558c0.259-0.826,0.379-1.209,0.65-2.178
	C22.974,8.267,23,8.101,23,7.932C23,7.078,22.318,6.382,21.472,6.382z M12.442,12.556l-0.148-0.636
	c-0.068-0.29-0.103-0.598-0.103-0.915c0-2.221,1.771-4.029,3.949-4.029c1.105,0,2.13,0.452,2.884,1.272l0.136,0.148l0.695,0.021
	c0.253,0.007,0.358,0.01,0.582,0.01l0.405-0.002c-0.16,0.557-0.272,0.917-0.457,1.502l-0.296,0.951l0.003,0.086
	c0.008,0.188,0.012,0.375,0.012,0.564c0,6.078-4.532,12.365-12.119,12.365c-2.096,0-3.624-0.586-4.5-1.067
	c1.664-0.219,3.222-0.886,4.564-1.957l1.062-0.85l-1.348-0.025c-0.881-0.018-3.168-1.219-4.585-3.551
	c-1.016-1.672-1.858-4.424-0.342-8.225c2.314,2.57,5.542,4.128,8.969,4.303L12.442,12.556z"/>
</svg>
