<?xml version="1.0" encoding="utf-8"?>
<!-- Generator: Adobe Illustrator 16.0.0, SVG Export Plug-In . SVG Version: 6.00 Build 0)  -->
<!DOCTYPE svg PUBLIC "-//W3C//DTD SVG 1.1//EN" "http://www.w3.org/Graphics/SVG/1.1/DTD/svg11.dtd">
<svg version="1.1" id="Layer_1" xmlns="http://www.w3.org/2000/svg" xmlns:xlink="http://www.w3.org/1999/xlink" x="0px" y="0px"
	 width="61px" height="45px" viewBox="0 0 61 45" enable-background="new 0 0 61 45" xml:space="preserve">
<g>
	<path fill-rule="evenodd" clip-rule="evenodd" fill="#1C1C1C" d="M9.965,13.914v18.662c0,0.505-0.058,0.759,0.113,1.013
		c0.085,0.168,0.254,0.252,0.397,0.252c0.199,0,0.367-0.084,0.481-0.281c0.17-0.251,0.142-0.505,0.142-1.04V13.914h0.878v19.028
		c0,1.293-0.48,1.938-1.501,1.938c-0.425,0-0.794-0.141-1.078-0.45c-0.283-0.308-0.425-0.786-0.425-1.462V13.914H9.965L9.965,13.914
		z"/>
	<polygon fill-rule="evenodd" clip-rule="evenodd" fill="#1C1C1C" points="18.185,13.914 19.63,25.942 19.63,13.914 20.282,13.914 
		20.282,34.769 19.347,34.769 17.929,21.953 17.929,34.769 17.165,34.769 17.165,13.914 18.185,13.914 	"/>
	<polygon fill-rule="evenodd" clip-rule="evenodd" fill="#1C1C1C" points="27.936,14.814 26.547,14.814 26.547,23.303 
		27.936,23.303 27.936,24.031 26.547,24.031 26.547,33.896 28.134,33.896 28.134,34.769 25.3,34.769 25.3,13.914 27.936,13.914 
		27.936,14.814 	"/>
	<polygon fill-rule="evenodd" clip-rule="evenodd" fill="#1C1C1C" points="5.94,10.963 55.458,10.963 55.458,12.706 5.94,12.706 
		5.94,10.963 	"/>
	<polygon fill-rule="evenodd" clip-rule="evenodd" fill="#1C1C1C" points="5.94,36.314 55.458,36.314 55.458,38.057 5.94,38.057 
		5.94,36.314 	"/>
	<polygon fill-rule="evenodd" clip-rule="evenodd" fill="#1C1C1C" points="2.765,39.829 58.181,39.829 58.181,41.569 2.765,41.569 
		2.765,39.829 	"/>
	<polygon fill-rule="evenodd" clip-rule="evenodd" fill="#1C1C1C" points="-0.042,43.229 60.958,43.229 60.958,45 -0.042,45 
		-0.042,43.229 	"/>
	<polygon fill-rule="evenodd" clip-rule="evenodd" fill="#1C1C1C" points="5.826,8.996 5.826,7.14 30.459,0 55.344,7.027 
		55.344,8.884 30.231,2.108 5.826,8.996 	"/>
	<polygon fill-rule="evenodd" clip-rule="evenodd" fill="#1C1C1C" points="11.467,8.996 30.713,3.514 49.705,8.996 44.574,8.996 
		30.657,5.257 16.768,8.884 11.467,8.996 	"/>
	<path fill-rule="evenodd" clip-rule="evenodd" fill="#1C1C1C" d="M34.995,19.93h1.075v-4.049c0,0-0.027-1.179-0.311-1.519
		c-0.284-0.309-0.624-0.59-1.36-0.59c-0.708,0.029-0.878,0.225-1.133,0.534c-0.284,0.31-0.398,0.845-0.398,1.405
		c0,0.562,0.028,3.063,0.114,3.907c0.084,0.815,0.878,4.132,1.332,5.732c0.425,1.631,0.625,2.445,0.652,2.896
		c0.03,0.479,0.087,2.081,0.03,2.867c-0.03,0.788,0,1.884,0,1.884s0.057,0.871-0.455,0.871c-0.538,0-0.481-0.871-0.481-0.871v-4.947
		h-1.077v4.918c0,0-0.284,1.8,1.417,1.8c1.729,0,1.729-1.603,1.729-1.603V28.67c0,0-0.085-1.49-0.369-2.529
		c-0.284-1.014-1.19-4.244-1.388-5.145c-0.228-0.954-0.312-2.36-0.312-3.624c0-1.267,0.028-2.053,0.028-2.053
		s-0.028-0.591,0.453-0.591c0.455,0,0.425,0.618,0.425,0.618L34.995,19.93L34.995,19.93z"/>
	<path fill-rule="evenodd" clip-rule="evenodd" fill="#1C1C1C" d="M43.242,19.985h0.936v-4.864c0-0.759-0.426-1.518-1.474-1.518
		c-0.963,0-1.532,0.703-1.532,1.548V33.42c0,0.815,0.568,1.517,1.532,1.517c1.048,0,1.474-0.73,1.474-1.489v-5.481h-0.936v5.454
		c0,0.281,0.028,0.618-0.538,0.618c-0.596,0-0.541-0.505-0.541-0.703V15.207c0-0.197-0.055-0.703,0.541-0.703
		c0.565,0,0.538,0.366,0.538,0.647V19.985L43.242,19.985z"/>
	<path fill-rule="evenodd" clip-rule="evenodd" fill="#1C1C1C" d="M51.066,13.604c-0.963,0-1.645,0.703-1.645,1.548V33.42
		c0,0.815,0.682,1.517,1.645,1.517c1.048,0,1.585-0.73,1.585-1.489V15.121C52.651,14.362,52.114,13.604,51.066,13.604L51.066,13.604
		z M51.717,33.42c0,0.281-0.083,0.618-0.651,0.618c-0.596,0-0.652-0.505-0.652-0.703V15.207c0-0.197,0.056-0.703,0.652-0.703
		c0.567,0,0.651,0.366,0.651,0.647V33.42L51.717,33.42z"/>
</g>
</svg>
