<?xml version="1.0" encoding="utf-8"?>
<!-- Generator: Adobe Illustrator 16.0.0, SVG Export Plug-In . SVG Version: 6.00 Build 0)  -->
<!DOCTYPE svg PUBLIC "-//W3C//DTD SVG 1.1//EN" "http://www.w3.org/Graphics/SVG/1.1/DTD/svg11.dtd">
<svg version="1.1" id="Layer_1" xmlns="http://www.w3.org/2000/svg" xmlns:xlink="http://www.w3.org/1999/xlink" x="0px" y="0px"
	 width="110px" height="106.857px" viewBox="-46.438 -25.428 110 106.857" enable-background="new -46.438 -25.428 110 106.857"
	 xml:space="preserve">
<g>
	<g>
		<defs>
			<rect id="SVGID_1_" x="-54.033" y="-31.164" width="124" height="115.527"/>
		</defs>
		<clipPath id="SVGID_2_">
			<use xlink:href="#SVGID_1_"  overflow="visible"/>
		</clipPath>
		<path clip-path="url(#SVGID_2_)" fill="#231F20" d="M63.101-23.19c0,0.5-0.409,0.908-0.908,0.908
			c-0.501,0-0.908-0.408-0.908-0.908c0-0.503,0.407-0.91,0.908-0.91C62.691-24.1,63.101-23.693,63.101-23.19"/>
		<path clip-path="url(#SVGID_2_)" fill="#231F20" d="M63.101-19.96c0,0.504-0.409,0.911-0.908,0.911
			c-0.501,0-0.908-0.407-0.908-0.911c0-0.5,0.407-0.907,0.908-0.907C62.691-20.867,63.101-20.46,63.101-19.96"/>
		<path clip-path="url(#SVGID_2_)" fill="#231F20" d="M63.101-16.455c0,0.5-0.409,0.907-0.908,0.907
			c-0.501,0-0.908-0.407-0.908-0.907c0-0.504,0.407-0.911,0.908-0.911C62.691-17.366,63.101-16.958,63.101-16.455"/>
		<path clip-path="url(#SVGID_2_)" fill="#231F20" d="M63.101-12.952c0,0.502-0.409,0.911-0.908,0.911
			c-0.501,0-0.908-0.408-0.908-0.911c0-0.5,0.407-0.909,0.908-0.909C62.691-13.861,63.101-13.453,63.101-12.952"/>
		<path clip-path="url(#SVGID_2_)" fill="#231F20" d="M63.101-9.178c0,0.5-0.409,0.907-0.908,0.907
			c-0.501,0-0.908-0.407-0.908-0.907c0-0.503,0.407-0.91,0.908-0.91C62.691-10.087,63.101-9.681,63.101-9.178"/>
		<path clip-path="url(#SVGID_2_)" fill="#231F20" d="M63.101-5.405c0,0.503-0.409,0.911-0.908,0.911
			c-0.501,0-0.908-0.407-0.908-0.911c0-0.5,0.407-0.908,0.908-0.908C62.691-6.313,63.101-5.905,63.101-5.405"/>
		<path clip-path="url(#SVGID_2_)" fill="#231F20" d="M63.101-1.523c0,0.503-0.409,0.91-0.908,0.91c-0.501,0-0.908-0.406-0.908-0.91
			c0-0.5,0.407-0.908,0.908-0.908C62.691-2.431,63.101-2.023,63.101-1.523"/>
		<path clip-path="url(#SVGID_2_)" fill="#231F20" d="M63.101,2.357c0,0.503-0.409,0.911-0.908,0.911
			c-0.501,0-0.908-0.408-0.908-0.911c0-0.5,0.407-0.907,0.908-0.907C62.691,1.45,63.101,1.858,63.101,2.357"/>
		<path clip-path="url(#SVGID_2_)" fill="#231F20" d="M63.101,6.563c0,0.504-0.409,0.911-0.908,0.911
			c-0.501,0-0.908-0.407-0.908-0.911c0-0.5,0.407-0.907,0.908-0.907C62.691,5.657,63.101,6.063,63.101,6.563"/>
		<path clip-path="url(#SVGID_2_)" fill="#231F20" d="M63.101,10.77c0,0.501-0.409,0.907-0.908,0.907
			c-0.501,0-0.908-0.406-0.908-0.907c0-0.503,0.407-0.911,0.908-0.911C62.691,9.859,63.101,10.266,63.101,10.77"/>
		<path clip-path="url(#SVGID_2_)" fill="#231F20" d="M63.101,15.191c0,0.5-0.409,0.908-0.908,0.908
			c-0.501,0-0.908-0.408-0.908-0.908c0-0.504,0.407-0.911,0.908-0.911C62.691,14.28,63.101,14.688,63.101,15.191"/>
		<path clip-path="url(#SVGID_2_)" fill="#231F20" d="M63.101,19.719c0,0.504-0.409,0.91-0.908,0.91
			c-0.501,0-0.908-0.406-0.908-0.91c0-0.501,0.407-0.908,0.908-0.908C62.691,18.812,63.101,19.218,63.101,19.719"/>
		<path clip-path="url(#SVGID_2_)" fill="#231F20" d="M63.101,24.464c0,0.502-0.409,0.908-0.908,0.908
			c-0.501,0-0.908-0.406-0.908-0.908s0.407-0.909,0.908-0.909C62.691,23.555,63.101,23.962,63.101,24.464"/>
		<path clip-path="url(#SVGID_2_)" fill="#231F20" d="M63.101,29.857c0,0.5-0.409,0.906-0.908,0.906
			c-0.501,0-0.908-0.406-0.908-0.906c0-0.504,0.407-0.91,0.908-0.91C62.691,28.947,63.101,29.354,63.101,29.857"/>
		<path clip-path="url(#SVGID_2_)" fill="#231F20" d="M63.101,35.784c0,0.504-0.409,0.91-0.908,0.91
			c-0.501,0-0.908-0.406-0.908-0.91c0-0.5,0.407-0.907,0.908-0.907C62.691,34.877,63.101,35.284,63.101,35.784"/>
		<path clip-path="url(#SVGID_2_)" fill="#231F20" d="M63.101,42.796c0,0.501-0.409,0.907-0.908,0.907
			c-0.501,0-0.908-0.406-0.908-0.907c0-0.504,0.407-0.909,0.908-0.909C62.691,41.887,63.101,42.292,63.101,42.796"/>
		<path clip-path="url(#SVGID_2_)" fill="#231F20" d="M63.101,50.345c0,0.499-0.409,0.907-0.908,0.907
			c-0.501,0-0.908-0.408-0.908-0.907c0-0.504,0.407-0.91,0.908-0.91C62.691,49.435,63.101,49.841,63.101,50.345"/>
		<path clip-path="url(#SVGID_2_)" fill="#231F20" d="M63.101,58.959c0,0.504-0.409,0.909-0.908,0.909
			c-0.501,0-0.908-0.405-0.908-0.909c0-0.499,0.407-0.908,0.908-0.908C62.691,58.051,63.101,58.46,63.101,58.959"/>
		<path clip-path="url(#SVGID_2_)" fill="#231F20" d="M63.101,68.681c0,0.505-0.409,0.906-0.908,0.906
			c-0.501,0-0.908-0.401-0.908-0.906c0-0.504,0.407-0.911,0.908-0.911C62.691,67.77,63.101,68.177,63.101,68.681"/>
		<path clip-path="url(#SVGID_2_)" fill="#231F20" d="M63.101,79.466c0,0.501-0.409,0.904-0.908,0.904
			c-0.501,0-0.908-0.403-0.908-0.904c0-0.506,0.407-0.912,0.908-0.912C62.691,78.554,63.101,78.96,63.101,79.466"/>
		<rect x="-6.897" y="26.066" clip-path="url(#SVGID_2_)" fill="#231F20" width="53.338" height="2.235"/>
		<rect x="-9.916" y="29.868" clip-path="url(#SVGID_2_)" fill="#231F20" width="59.266" height="2.236"/>
		<rect x="-12.711" y="33.672" clip-path="url(#SVGID_2_)" fill="#231F20" width="64.969" height="2.234"/>
		<rect x="-6.897" y="-2.127" clip-path="url(#SVGID_2_)" fill="#231F20" width="53.338" height="2.236"/>
		<polygon clip-path="url(#SVGID_2_)" fill="#231F20" points="3.894,-3.567 19.773,-8.319 35.315,-3.567 41.801,-3.567 
			19.773,-10.386 -2.592,-3.567 		"/>
		<polygon clip-path="url(#SVGID_2_)" fill="#231F20" points="-6.897,-3.567 19.606,-11.672 46.441,-3.567 46.441,-5.972 
			19.773,-14.189 -6.897,-5.972 		"/>
		<path clip-path="url(#SVGID_2_)" fill="#231F20" d="M-3.766,23.169c0,0,0,1.674,1.9,1.674c1.902,0,1.79-1.674,1.79-1.674V1.473
			h-1.399v21.751c0,0,0,0.391-0.503,0.391s-0.391-0.502-0.391-0.502V1.473h-1.398V23.169z"/>
		<polygon clip-path="url(#SVGID_2_)" fill="#231F20" points="5.012,24.843 6.13,24.843 6.13,10.794 7.528,24.843 8.702,24.843 
			8.702,1.474 7.528,1.474 7.528,13.965 6.13,1.474 5.012,1.474 		"/>
		<polygon clip-path="url(#SVGID_2_)" fill="#231F20" points="13.902,24.843 17.479,24.843 17.479,23.615 15.468,23.615 
			15.468,13.049 16.977,13.049 16.977,11.763 15.468,11.763 15.468,2.648 16.977,2.648 16.977,1.474 13.902,1.474 		"/>
		<path clip-path="url(#SVGID_2_)" fill="#231F20" d="M34.478,8.41V3.152c0,0-0.055-1.678-1.847-1.678
			c-1.789,0-1.789,1.678-1.789,1.678v20.017c0,0-0.056,1.674,1.789,1.674c1.847,0,1.847-1.674,1.847-1.674v-5.871H33.08v5.871
			c0,0,0,0.446-0.449,0.446c-0.418,0-0.503-0.446-0.503-0.446V3.152c0,0,0-0.504,0.503-0.504c0.449,0,0.449,0.504,0.449,0.504V8.41
			H34.478z"/>
		<path clip-path="url(#SVGID_2_)" fill="#231F20" d="M43.368,3.152c0,0,0.109-1.679-1.848-1.679c-1.953,0-1.953,1.679-1.953,1.679
			v20.017c0,0,0,1.674,1.842,1.674c1.959,0,1.959-1.674,1.959-1.674V3.152z M42.026,23.169c0,0,0.056,0.446-0.506,0.446
			c-0.558,0-0.558-0.446-0.558-0.446V3.152c0,0,0-0.504,0.502-0.504c0.562,0,0.562,0.504,0.562,0.504V23.169z"/>
		<path clip-path="url(#SVGID_2_)" fill="#231F20" d="M24.246,23.169c0,0,0,0.446-0.365,0.417c-0.363-0.025-0.363-0.417-0.363-0.417
			v-5.871h-1.453v5.871c0,0-0.056,1.674,1.788,1.674c1.848,0,1.848-1.674,1.848-1.674s0-3.915-0.002-5.057
			c-0.006-2.742-2.18-7.973-2.18-9.703V3.152c0,0-0.056-0.504,0.335-0.504c0.393,0,0.393,0.504,0.393,0.504v5.255H25.7V3.152
			c0,0,0.054-1.734-1.79-1.679c-1.846,0.057-1.846,1.679-1.846,1.679v4.472c0,2.934,2.181,7.884,2.181,10.15V23.169z"/>
	</g>
	<text transform="matrix(1 0 0 1 -2.6787 51.835)" fill="#231F20" font-family="'ArialMT'" font-size="8.4721">United Nations</text>
	<text transform="matrix(1 0 0 1 -46.4814 61.0762)" fill="#231F20" font-family="'ArialMT'" font-size="8.4721">Educational, Scientiﬁc and</text>
	<text transform="matrix(1 0 0 1 -26.6904 70.3203)" fill="#231F20" font-family="'ArialMT'" font-size="8.4721">Cultural Organization</text>
</g>
</svg>
